<svg xmlns="http://www.w3.org/2000/svg" width="966" height="423.092" viewBox="0 0 966 423.092">
  <g id="OBJECTS" transform="translate(-91.919 -59.6)">
    <g id="Group_201" data-name="Group 201" transform="translate(823.848 371.712)">
      <path id="Path_322" data-name="Path 322" d="M4.1,2.724A3.32,3.32,0,1,0,.781,6.044,3.322,3.322,0,0,0,4.1,2.724m3.261,0A6.586,6.586,0,0,1,.781,9.3a6.581,6.581,0,1,1,0-13.162A6.586,6.586,0,0,1,7.359,2.724" transform="translate(5.803 3.857)" fill="#91a8f6"/>
    </g>
    <g id="Group_202" data-name="Group 202" transform="translate(908.742 137.315)">
      <path id="Path_323" data-name="Path 323" d="M16.1-1.911H-21.172A1.631,1.631,0,0,0-22.8-.28,1.631,1.631,0,0,0-21.172,1.35H16.1A1.631,1.631,0,0,0,17.735-.28,1.631,1.631,0,0,0,16.1-1.911" transform="translate(22.803 1.911)" fill="#91a8f6"/>
    </g>
    <g id="Group_203" data-name="Group 203" transform="translate(889.594 137.308)">
      <path id="Path_324" data-name="Path 324" d="M3.69-1.911H-3.594A1.631,1.631,0,0,0-5.225-.28,1.631,1.631,0,0,0-3.594,1.35H3.69A1.632,1.632,0,0,0,5.321-.28,1.632,1.632,0,0,0,3.69-1.911" transform="translate(5.225 1.911)" fill="#91a8f6"/>
    </g>
    <g id="Group_204" data-name="Group 204" transform="translate(889.6 148.672)">
      <path id="Path_325" data-name="Path 325" d="M4.724.675A1.631,1.631,0,0,1,3.095,2.306H-5.058A1.63,1.63,0,0,1-6.689.675,1.63,1.63,0,0,1-5.058-.956H3.095A1.631,1.631,0,0,1,4.724.675m16.308,0A1.631,1.631,0,0,1,19.4,2.306H11.247a1.631,1.631,0,1,1,0-3.262H19.4A1.631,1.631,0,0,1,21.032.675m12.814,0a1.63,1.63,0,0,1-1.629,1.631H27.553a1.631,1.631,0,0,1,0-3.262h4.663A1.63,1.63,0,0,1,33.846.675" transform="translate(6.689 0.956)" fill="#91a8f6"/>
    </g>
    <g id="Group_205" data-name="Group 205" transform="translate(341.243 246.33)">
      <path id="Path_326" data-name="Path 326" d="M.675-4.128A1.632,1.632,0,0,0-.956-2.5V1.286a1.631,1.631,0,0,0,3.262,0V-2.5A1.632,1.632,0,0,0,.675-4.128" transform="translate(0.956 4.128)" fill="#91a8f6"/>
    </g>
    <g id="Group_206" data-name="Group 206" transform="translate(333.193 242.535)">
      <path id="Path_327" data-name="Path 327" d="M2.241-1.911H-1.544A1.631,1.631,0,0,0-3.173-.28,1.63,1.63,0,0,0-1.544,1.35H2.241A1.63,1.63,0,0,0,3.87-.28,1.631,1.631,0,0,0,2.241-1.911" transform="translate(3.173 1.911)" fill="#91a8f6"/>
    </g>
    <g id="Group_207" data-name="Group 207" transform="translate(341.243 234.7)">
      <path id="Path_328" data-name="Path 328" d="M.675-4.127A1.632,1.632,0,0,0-.956-2.5V1.283a1.631,1.631,0,1,0,3.262,0V-2.5A1.632,1.632,0,0,0,.675-4.127" transform="translate(0.956 4.127)" fill="#91a8f6"/>
    </g>
    <g id="Group_208" data-name="Group 208" transform="translate(345.512 242.276)">
      <path id="Path_329" data-name="Path 329" d="M2.241-1.912H-1.544A1.631,1.631,0,0,0-3.173-.281,1.631,1.631,0,0,0-1.544,1.35H2.241A1.631,1.631,0,0,0,3.872-.281,1.631,1.631,0,0,0,2.241-1.912" transform="translate(3.173 1.912)" fill="#91a8f6"/>
    </g>
    <g id="Group_209" data-name="Group 209" transform="translate(751.422 140.605)">
      <path id="Path_330" data-name="Path 330" d="M.675-4.128A1.631,1.631,0,0,0-.956-2.5V1.284a1.63,1.63,0,1,0,3.261,0V-2.5A1.631,1.631,0,0,0,.675-4.128" transform="translate(0.956 4.128)" fill="#91a8f6"/>
    </g>
    <g id="Group_210" data-name="Group 210" transform="translate(743.371 136.81)">
      <path id="Path_331" data-name="Path 331" d="M2.241-1.911H-1.542A1.632,1.632,0,0,0-3.173-.28,1.632,1.632,0,0,0-1.542,1.35H2.241A1.631,1.631,0,0,0,3.872-.28,1.631,1.631,0,0,0,2.241-1.911" transform="translate(3.173 1.911)" fill="#91a8f6"/>
    </g>
    <g id="Group_211" data-name="Group 211" transform="translate(751.422 128.973)">
      <path id="Path_332" data-name="Path 332" d="M.675-4.127A1.631,1.631,0,0,0-.956-2.5V1.283a1.63,1.63,0,1,0,3.261,0V-2.5A1.631,1.631,0,0,0,.675-4.127" transform="translate(0.956 4.127)" fill="#91a8f6"/>
    </g>
    <g id="Group_212" data-name="Group 212" transform="translate(755.69 136.551)">
      <path id="Path_333" data-name="Path 333" d="M2.242-1.912H-1.543A1.632,1.632,0,0,0-3.174-.281,1.632,1.632,0,0,0-1.543,1.35H2.242A1.631,1.631,0,0,0,3.871-.281,1.631,1.631,0,0,0,2.242-1.912" transform="translate(3.174 1.912)" fill="#91a8f6"/>
    </g>
    <g id="Group_213" data-name="Group 213" transform="translate(562.113 59.607)">
      <path id="Path_334" data-name="Path 334" d="M16.1-1.911H-21.173A1.63,1.63,0,0,0-22.8-.28,1.63,1.63,0,0,0-21.173,1.35H16.1A1.631,1.631,0,0,0,17.735-.28,1.63,1.63,0,0,0,16.1-1.911" transform="translate(22.802 1.911)" fill="#91a8f6"/>
    </g>
    <g id="Group_214" data-name="Group 214" transform="translate(542.964 59.6)">
      <path id="Path_335" data-name="Path 335" d="M3.69-1.911H-3.594A1.631,1.631,0,0,0-5.225-.28,1.631,1.631,0,0,0-3.594,1.35H3.69A1.631,1.631,0,0,0,5.321-.28,1.631,1.631,0,0,0,3.69-1.911" transform="translate(5.225 1.911)" fill="#91a8f6"/>
    </g>
    <g id="Group_215" data-name="Group 215" transform="translate(542.969 70.963)">
      <path id="Path_336" data-name="Path 336" d="M4.724.675A1.631,1.631,0,0,1,3.095,2.306H-5.058A1.63,1.63,0,0,1-6.689.675,1.63,1.63,0,0,1-5.058-.956H3.095A1.631,1.631,0,0,1,4.724.675m16.308,0A1.631,1.631,0,0,1,19.4,2.306H11.247a1.631,1.631,0,1,1,0-3.262H19.4A1.631,1.631,0,0,1,21.032.675m12.815,0a1.631,1.631,0,0,1-1.631,1.631H27.555a1.631,1.631,0,0,1,0-3.262h4.661A1.631,1.631,0,0,1,33.848.675" transform="translate(6.689 0.956)" fill="#91a8f6"/>
    </g>
    <g id="Group_216" data-name="Group 216" transform="translate(1013.212 224.693) rotate(90)">
      <path id="Path_337" data-name="Path 337" d="M5.759,11.517A5.759,5.759,0,1,0,0,5.759a5.758,5.758,0,0,0,5.759,5.759" transform="translate(0 0)" fill="#91a8f6"/>
    </g>
    <g id="Group_217" data-name="Group 217" transform="translate(1054.6 346.063) rotate(-178.482)">
      <path id="Path_338" data-name="Path 338" d="M15.675,30.6s-2.648-15.82,15.911-15.945c0,0-15.936.259-15.911-14.651,0,0-1.124,11.759-15.675,14.764,0,0,12.28-3.16,15.675,15.832" transform="translate(0 0)" fill="#91a8f6"/>
    </g>
    <g id="Group_218" data-name="Group 218" transform="translate(466.115 131.003) rotate(-178.485)">
      <path id="Path_339" data-name="Path 339" d="M15.673,30.6S13.025,14.778,31.584,14.653c0,0-15.934.258-15.911-14.653,0,0-1.123,11.759-15.673,14.766,0,0,12.28-3.162,15.673,15.83" transform="translate(0 0)" fill="#91a8f6"/>
    </g>
    <g id="Group_219" data-name="Group 219" transform="translate(306.39 174.87) rotate(-178.485)">
      <path id="Path_340" data-name="Path 340" d="M15.673,30.594S13.027,14.776,31.584,14.651c0,0-15.934.258-15.911-14.651,0,0-1.123,11.758-15.673,14.764,0,0,12.28-3.162,15.673,15.83" transform="translate(0 0)" fill="#91a8f6"/>
    </g>
    <g id="Group_220" data-name="Group 220" transform="matrix(-1, -0.027, 0.027, -1, 393.518, 86.786)">
      <path id="Path_341" data-name="Path 341" d="M5.462,10.666S4.54,5.151,11.007,5.107c0,0-5.555.09-5.545-5.107,0,0-.391,4.1-5.462,5.149,0,0,4.279-1.1,5.462,5.516" transform="translate(0)" fill="#91a8f6"/>
    </g>
    <g id="Group_221" data-name="Group 221" transform="matrix(-1, -0.027, 0.027, -1, 684.074, 277.662)">
      <path id="Path_342" data-name="Path 342" d="M5.462,10.666S4.54,5.151,11.007,5.107c0,0-5.555.09-5.545-5.107,0,0-.391,4.1-5.462,5.149,0,0,4.279-1.1,5.462,5.516" transform="translate(0)" fill="#91a8f6"/>
    </g>
    <g id="Group_222" data-name="Group 222" transform="matrix(-1, -0.027, 0.027, -1, 145.719, 372.295)">
      <path id="Path_343" data-name="Path 343" d="M5.462,10.666S4.54,5.151,11.007,5.107c0,0-5.555.09-5.545-5.107,0,0-.391,4.1-5.462,5.148,0,0,4.279-1.1,5.462,5.518" fill="#91a8f6"/>
    </g>
    <g id="Group_223" data-name="Group 223" transform="translate(359.225 391.951)">
      <path id="Path_344" data-name="Path 344" d="M3.476,6.869a5.912,5.912,0,1,0,0,11.824H39.67a5.912,5.912,0,1,0,0-11.824H35.493l-.167-1.048A6.944,6.944,0,0,0,26.759.1l-.915.22L25.386-.5A10.51,10.51,0,0,0,5.691,4.61c0,.307.022.609.046.909l.116,1.35ZM39.67,21.178H3.476A8.4,8.4,0,0,1,3.208,4.389,12.994,12.994,0,0,1,27.087-2.486,9.426,9.426,0,0,1,37.555,4.383H39.67a8.4,8.4,0,1,1,0,16.794" transform="translate(4.922 8.386)" fill="#91a8f6"/>
    </g>
    <g id="Group_224" data-name="Group 224" transform="translate(1004.929 85.639)">
      <path id="Path_345" data-name="Path 345" d="M3.476,6.869a5.912,5.912,0,0,0,0,11.824H39.67a5.912,5.912,0,1,0,0-11.824H35.493l-.167-1.048A6.948,6.948,0,0,0,26.759.1l-.915.218L25.387-.5a10.511,10.511,0,0,0-19.7,5.11c0,.307.022.611.046.909l.118,1.35ZM39.67,21.178H3.476A8.4,8.4,0,0,1,3.208,4.389,12.994,12.994,0,0,1,27.087-2.486,9.431,9.431,0,0,1,37.555,4.383H39.67a8.4,8.4,0,1,1,0,16.794" transform="translate(4.922 8.386)" fill="#91a8f6"/>
    </g>
    <g id="Group_225" data-name="Group 225" transform="translate(444.491 178.051)">
      <path id="Path_346" data-name="Path 346" d="M3.476,6.869a5.912,5.912,0,1,0,0,11.824H39.67a5.912,5.912,0,1,0,0-11.824H35.493l-.167-1.048A6.948,6.948,0,0,0,26.759.1l-.915.218L25.387-.5a10.511,10.511,0,0,0-19.7,5.11c0,.307.02.611.046.909l.116,1.35ZM39.67,21.178H3.476A8.4,8.4,0,0,1,3.208,4.389,12.994,12.994,0,0,1,27.087-2.486,9.431,9.431,0,0,1,37.555,4.385H39.67a8.4,8.4,0,1,1,0,16.793" transform="translate(4.922 8.386)" fill="#91a8f6"/>
    </g>
    <g id="Group_226" data-name="Group 226" transform="translate(422.11 275.844)">
      <path id="Path_347" data-name="Path 347" d="M0,25.86,17.494,44.622,150.837-11Z" transform="translate(0 10.996)" fill="#445eea"/>
    </g>
    <g id="Group_227" data-name="Group 227" transform="translate(386.436 250.791)">
      <path id="Path_348" data-name="Path 348" d="M17.341-47.762,4.17-27.891l8.9,19.47L-6.9-5.024-24.554,33.731,166.238-24Z" transform="translate(24.554 47.762)" fill="#91a8f6"/>
    </g>
    <g id="Group_228" data-name="Group 228" transform="translate(415.161 270.66)">
      <path id="Path_349" data-name="Path 349" d="M3.686,19.471-5.219,0,98.124,4.832Z" transform="translate(5.219)" fill="#445eea"/>
    </g>
    <g id="Group_229" data-name="Group 229" transform="translate(242.939 320.725)">
      <path id="Path_350" data-name="Path 350" d="M1.275-52.374a2.675,2.675,0,0,1-2.663-2.5c-.28-4.37-.418-8.971-.418-13.669v-1.083q.013-3.488.128-6.987A2.671,2.671,0,0,1,.994-79.2h.087a2.676,2.676,0,0,1,2.585,2.761q-.113,3.422-.126,6.822v1.075c0,4.588.14,9.072.409,13.329a2.669,2.669,0,0,1-2.5,2.839c-.058,0-.114,0-.176,0M9.808-10.411a2.679,2.679,0,0,1-2.5-1.734A131.075,131.075,0,0,1,1.294-33.22,2.675,2.675,0,0,1,3.4-36.36a2.657,2.657,0,0,1,3.139,2.112,125.588,125.588,0,0,0,5.767,20.214,2.678,2.678,0,0,1-1.558,3.448,2.681,2.681,0,0,1-.945.174m21.181,37.2a2.681,2.681,0,0,1-2.094-1A142.811,142.811,0,0,1,16.62,7.663a2.676,2.676,0,0,1,4.651-2.646A137.193,137.193,0,0,0,33.085,22.451a2.669,2.669,0,0,1-2.1,4.337M62.507,55.749a2.652,2.652,0,0,1-1.481-.449A141.658,141.658,0,0,1,43.819,41.786a2.674,2.674,0,1,1,3.622-3.935,136.756,136.756,0,0,0,16.554,13,2.673,2.673,0,0,1-1.488,4.9m38.731,18.245a2.575,2.575,0,0,1-.783-.123,154.462,154.462,0,0,1-20.384-7.835A2.674,2.674,0,1,1,82.343,61.2a150.256,150.256,0,0,0,19.68,7.565,2.676,2.676,0,0,1-.785,5.233m42.2,7.717a2.126,2.126,0,0,1-.234-.009c-7.366-.631-14.614-1.577-21.538-2.807a2.677,2.677,0,0,1-2.165-3.105,2.718,2.718,0,0,1,3.1-2.162c6.765,1.2,13.851,2.128,21.06,2.745a2.673,2.673,0,0,1-.227,5.337m25.836,1.053c-1.466,0-2.938-.009-4.4-.026a2.669,2.669,0,0,1-2.643-2.7,2.612,2.612,0,0,1,2.7-2.641c6.927.078,13.8-.032,21.343-.348h.113a2.673,2.673,0,0,1,.114,5.344c-6.042.253-11.679.374-17.226.374" transform="translate(1.806 79.203)" fill="#445eea"/>
    </g>
    <g id="Group_230" data-name="Group 230" transform="translate(91.919 149.117)">
      <path id="Path_351" data-name="Path 351" d="M19.551-77.065a2.678,2.678,0,0,1-2.564-1.92A2.675,2.675,0,0,1,18.8-82.307a100.8,100.8,0,0,1,21.024-3.8l.805-.026a2.847,2.847,0,0,1,2.725,2.619,2.672,2.672,0,0,1-2.621,2.725l-.584.022a95.345,95.345,0,0,0-19.837,3.588,2.726,2.726,0,0,1-.758.113m61.96,6.816a2.661,2.661,0,0,1-1.462-.435A60.385,60.385,0,0,0,61.306-78.8a2.682,2.682,0,0,1-1.96-3.238A2.7,2.7,0,0,1,62.586-84a65.925,65.925,0,0,1,20.4,8.837,2.679,2.679,0,0,1,.771,3.706,2.674,2.674,0,0,1-2.244,1.2m-97.618,15.9a2.655,2.655,0,0,1-1.621-.544,2.677,2.677,0,0,1-.508-3.749,60.657,60.657,0,0,1,16.745-14.8,2.684,2.684,0,0,1,3.679.886A2.677,2.677,0,0,1,1.3-68.873,55.248,55.248,0,0,0-13.98-55.4a2.667,2.667,0,0,1-2.128,1.054M108.562-37.583a2.674,2.674,0,0,1-2.411-1.52A90.712,90.712,0,0,0,95.176-56.8a2.678,2.678,0,0,1,.409-3.762,2.674,2.674,0,0,1,3.761.411,96.207,96.207,0,0,1,11.626,18.734,2.675,2.675,0,0,1-1.252,3.569,2.709,2.709,0,0,1-1.159.266M-22.746-13.6a2.678,2.678,0,0,1-2.578-1.964q-.494-1.8-.932-3.634A51.764,51.764,0,0,1-27.684-31.05a45.606,45.606,0,0,1,.514-6.861,2.678,2.678,0,0,1,3.044-2.242,2.669,2.669,0,0,1,2.242,3.042,40.567,40.567,0,0,0-.454,6.061,46.335,46.335,0,0,0,1.29,10.621q.409,1.738.879,3.438A2.67,2.67,0,0,1-22.033-13.7a2.665,2.665,0,0,1-.713.1M120.959,3.486a2.674,2.674,0,0,1-2.633-2.218A182.589,182.589,0,0,0,113.6-19.4a2.67,2.67,0,0,1,1.812-3.317,2.651,2.651,0,0,1,3.317,1.812A188.172,188.172,0,0,1,123.6.362a2.679,2.679,0,0,1-2.184,3.09,2.616,2.616,0,0,1-.457.034M-2.239,23.695a2.666,2.666,0,0,1-1.978-.872A93.2,93.2,0,0,1-17.071,4.894a2.684,2.684,0,0,1,1.058-3.636,2.7,2.7,0,0,1,3.636,1.058A87.478,87.478,0,0,0-.263,19.219,2.674,2.674,0,0,1-.437,23a2.685,2.685,0,0,1-1.8.7M124.4,46.374A2.673,2.673,0,0,1,121.73,43.7v-.949c0-6.743-.27-13.6-.805-20.367a2.676,2.676,0,1,1,5.335-.418c.539,6.907.816,13.9.816,20.785V43.7a2.675,2.675,0,0,1-2.674,2.674M32.336,48.762a2.653,2.653,0,0,1-1.165-.27A130.169,130.169,0,0,1,12.291,37.367,2.674,2.674,0,1,1,15.4,33.014,124.961,124.961,0,0,0,33.5,43.678a2.677,2.677,0,0,1-1.167,5.085M72.96,62.5a2.753,2.753,0,0,1-.589-.065c-5.172-1.162-10.212-2.469-14.979-3.888q-3.043-.906-5.985-1.885a2.673,2.673,0,1,1,1.681-5.074q2.866.947,5.828,1.832c4.653,1.384,9.574,2.66,14.622,3.791A2.677,2.677,0,0,1,72.96,62.5m149.73,2.742a2.673,2.673,0,0,1-.305-5.329q10.422-1.221,21.243-2.759a2.673,2.673,0,1,1,.758,5.293Q233.487,64,223,65.226a2.394,2.394,0,0,1-.312.017M115.465,68.66c-.068,0-.138,0-.213-.005-7.443-.578-14.687-1.37-21.529-2.349a2.673,2.673,0,0,1-2.268-3.027,2.715,2.715,0,0,1,3.025-2.268c6.729.962,13.86,1.742,21.19,2.307a2.675,2.675,0,0,1-.2,5.342m64.412.34a2.672,2.672,0,0,1-.143-5.34c6.917-.392,14.1-.911,21.352-1.551a2.675,2.675,0,1,1,.469,5.329c-7.308.645-14.546,1.17-21.524,1.558a1.505,1.505,0,0,1-.154.005m-30.971.9q-6.125,0-12.053-.147a2.673,2.673,0,0,1,.068-5.346h.07q10.358.261,21.365.056a2.531,2.531,0,0,1,2.725,2.621,2.669,2.669,0,0,1-2.621,2.725q-4.84.092-9.555.09" transform="translate(27.684 86.132)" fill="#445eea"/>
    </g>
    <g id="Group_231" data-name="Group 231" transform="translate(750.3 176.393)">
      <path id="Path_352" data-name="Path 352" d="M13.393-98.528H156.348A32.355,32.355,0,0,1,188.7-66.173V7.56a32.356,32.356,0,0,1-32.355,32.357H62.867L29.244,69.583V39.917H13.393A32.356,32.356,0,0,1-18.964,7.56V-66.173A32.356,32.356,0,0,1,13.393-98.528" transform="translate(18.964 98.528)" fill="#445eea"/>
    </g>
    <g id="Group_232" data-name="Group 232" transform="translate(799.396 213.913)">
      <path id="Path_353" data-name="Path 353" d="M1.678,8.111H103.042a4.056,4.056,0,0,0,0-8.111H1.678a4.056,4.056,0,0,0,0,8.111" transform="translate(2.376)" fill="#91a8f6"/>
    </g>
    <g id="Group_233" data-name="Group 233" transform="translate(799.396 240.941)">
      <path id="Path_354" data-name="Path 354" d="M1.678,8.113H103.042a4.057,4.057,0,0,0,0-8.113H1.678a4.057,4.057,0,0,0,0,8.113" transform="translate(2.376)" fill="#91a8f6"/>
    </g>
    <g id="Group_234" data-name="Group 234" transform="translate(885.895 267.973)">
      <path id="Path_355" data-name="Path 355" d="M1.678,8.111H16.544a4.056,4.056,0,0,0,0-8.111H1.678a4.056,4.056,0,0,0,0,8.111" transform="translate(2.376)" fill="#91a8f6"/>
    </g>
    <g id="Group_235" data-name="Group 235" transform="translate(852.105 267.973)">
      <path id="Path_356" data-name="Path 356" d="M1.679,8.111H16.545a4.056,4.056,0,0,0,0-8.111H1.679a4.056,4.056,0,0,0,0,8.111" transform="translate(2.377)" fill="#91a8f6"/>
    </g>
    <g id="Group_236" data-name="Group 236" transform="translate(799.396 267.973)">
      <path id="Path_357" data-name="Path 357" d="M1.678,8.111h33.79a4.056,4.056,0,0,0,0-8.111H1.678a4.056,4.056,0,0,0,0,8.111" transform="translate(2.376)" fill="#91a8f6"/>
    </g>
    <g id="Group_237" data-name="Group 237" transform="translate(631.155 323.639)">
      <path id="Path_358" data-name="Path 358" d="M55.224-81.452H-54.205A19.485,19.485,0,0,0-73.691-61.967v63.1A19.468,19.468,0,0,0-55.632,20.548L-78.195,57.524l59.467-36.9H55.224A19.486,19.486,0,0,0,74.709,1.135v-63.1A19.485,19.485,0,0,0,55.224-81.452" transform="translate(78.195 81.452)" fill="#91a8f6"/>
    </g>
    <g id="Group_238" data-name="Group 238" transform="translate(696.905 372.319) rotate(-90)">
      <path id="Path_359" data-name="Path 359" d="M12.955,25.911A12.955,12.955,0,1,1,25.911,12.955,12.955,12.955,0,0,1,12.955,25.911" transform="translate(0 0)" fill="#445eea"/>
    </g>
    <g id="Group_239" data-name="Group 239" transform="translate(696.905 372.319) rotate(-90)">
      <circle id="Ellipse_13" data-name="Ellipse 13" cx="12.955" cy="12.955" r="12.955" transform="translate(0 0)" stroke-width="2.76" stroke="#445eea" stroke-linecap="round" stroke-linejoin="round" stroke-miterlimit="10" fill="none"/>
    </g>
    <g id="Group_240" data-name="Group 240" transform="translate(740.482 402.941) rotate(180)">
      <path id="Path_360" data-name="Path 360" d="M0,0H61.245a19.629,19.629,0,0,1-19.63,19.628H19.63A19.629,19.629,0,0,1,0,0Z" transform="translate(0 0)" fill="#445eea" stroke="#445eea" stroke-linecap="round" stroke-linejoin="round" stroke-miterlimit="10" stroke-width="2.76"/>
    </g>
    <g id="Group_241" data-name="Group 241" transform="translate(579.646 115.553)">
      <path id="Path_361" data-name="Path 361" d="M12.853-45.724a2.67,2.67,0,0,1-2.406-1.515,2.664,2.664,0,0,1,1.244-3.568,52.427,52.427,0,0,1,18-5A2.708,2.708,0,0,1,32.6-53.393a2.676,2.676,0,0,1-2.416,2.911,47.283,47.283,0,0,0-16.167,4.489,2.651,2.651,0,0,1-1.164.27m50.793,4.262a2.65,2.65,0,0,1-1.548-.493,47.1,47.1,0,0,0-15.182-7.139,2.678,2.678,0,0,1-1.9-3.273,2.677,2.677,0,0,1,3.274-1.9A52.4,52.4,0,0,1,65.2-46.316a2.676,2.676,0,0,1,.631,3.73,2.662,2.662,0,0,1-2.184,1.124m-75,20.881a2.685,2.685,0,0,1-1.072-.225,2.676,2.676,0,0,1-1.38-3.522A52.5,52.5,0,0,1-3.422-39.851a2.659,2.659,0,0,1,3.779-.07,2.667,2.667,0,0,1,.07,3.778A47.264,47.264,0,0,0-8.906-22.186a2.675,2.675,0,0,1-2.45,1.606m94.7,7.958a2.673,2.673,0,0,1-2.6-2.034A47.133,47.133,0,0,0,73.875-29.97a2.674,2.674,0,0,1,.7-3.718,2.666,2.666,0,0,1,3.718.7,52.411,52.411,0,0,1,7.644,17.047,2.672,2.672,0,0,1-1.95,3.24,2.649,2.649,0,0,1-.643.082m-96.648,26.9a2.674,2.674,0,0,1-2.554-1.89A53.016,53.016,0,0,1-18.2-3.194c0-1,.026-1.981.084-2.96A2.734,2.734,0,0,1-15.3-8.671a2.674,2.674,0,0,1,2.517,2.822c-.049.874-.075,1.763-.075,2.65a47.841,47.841,0,0,0,2.1,14.013,2.674,2.674,0,0,1-1.768,3.343,2.575,2.575,0,0,1-.788.123m95,2.655a2.767,2.767,0,0,1-.933-.169,2.676,2.676,0,0,1-1.575-3.44A47.354,47.354,0,0,0,82.136-3.2,2.674,2.674,0,0,1,84.81-5.871,2.674,2.674,0,0,1,87.482-3.2,52.664,52.664,0,0,1,84.2,15.189a2.683,2.683,0,0,1-2.506,1.745M7.945,41.959a2.659,2.659,0,0,1-1.42-.409A53.015,53.015,0,0,1-7.284,28.978,2.676,2.676,0,0,1-6.8,25.226a2.684,2.684,0,0,1,3.754.488A47.747,47.747,0,0,0,9.371,37.023a2.672,2.672,0,0,1-1.426,4.936M58.918,43.4a2.678,2.678,0,0,1-1.3-5.02A47.509,47.509,0,0,0,70.645,27.782a2.672,2.672,0,1,1,4.047,3.489A52.927,52.927,0,0,1,60.211,43.06a2.689,2.689,0,0,1-1.293.336M34.642,49.642a53.591,53.591,0,0,1-10.783-1.1,2.679,2.679,0,0,1-2.082-3.16A2.718,2.718,0,0,1,24.939,43.3a48.347,48.347,0,0,0,16.789.466,2.677,2.677,0,0,1,.792,5.294,53.98,53.98,0,0,1-7.878.578" transform="translate(18.2 55.821)" fill="#445eea"/>
    </g>
    <g id="Group_242" data-name="Group 242" transform="translate(597.428 142.773)">
      <path id="Path_362" data-name="Path 362" d="M14.511-17.822c-19.362,0-35.058,10.376-35.058,23.177V5.42c.015,3.343,2.651,5.632,5.115,4.58l9.2-3.926C-4.014,5.128-2.94,1.9-3.935-.813L-5.066-3.9a138.86,138.86,0,0,0,39.025,0L32.817.063c-.722,2.508.213,5.3,2.129,6.347l9.1,4.969c2.211,1.208,4.8-.413,5.3-3.436a15.536,15.536,0,0,0,.217-2.587c0-12.8-15.7-23.177-35.058-23.177" transform="translate(20.547 17.822)" fill="#445eea"/>
    </g>
    <g id="Group_243" data-name="Group 243" transform="translate(608.179 163.92)">
      <path id="Path_363" data-name="Path 363" d="M20.112,29.658h-48.59l7.2-22.558A10.2,10.2,0,0,1-11.559,0H3.195a10.2,10.2,0,0,1,9.719,7.1Z" transform="translate(28.478)" fill="#91a8f6"/>
    </g>
    <g id="Group_244" data-name="Group 244" transform="translate(485.08 351.502)">
      <path id="Path_364" data-name="Path 364" d="M12.858-45.732a2.668,2.668,0,0,1-2.407-1.515,2.666,2.666,0,0,1,1.244-3.568,52.413,52.413,0,0,1,18-5A2.659,2.659,0,0,1,32.605-53.4a2.677,2.677,0,0,1-2.416,2.911A47.107,47.107,0,0,0,14.02-46a2.649,2.649,0,0,1-1.162.27m50.791,4.279a2.664,2.664,0,0,1-1.548-.491,46.955,46.955,0,0,0-15.182-7.144,2.679,2.679,0,0,1-1.9-3.274,2.692,2.692,0,0,1,3.274-1.9A52.53,52.53,0,0,1,65.2-46.307a2.679,2.679,0,0,1,.63,3.732,2.665,2.665,0,0,1-2.184,1.123M-11.359-20.586a2.677,2.677,0,0,1-1.07-.225,2.674,2.674,0,0,1-1.382-3.522A52.758,52.758,0,0,1-3.42-39.856a2.658,2.658,0,0,1,3.779-.07,2.669,2.669,0,0,1,.07,3.779A47.448,47.448,0,0,0-8.909-22.191a2.676,2.676,0,0,1-2.45,1.606m94.7,7.963a2.673,2.673,0,0,1-2.6-2.032,47.229,47.229,0,0,0-6.869-15.312,2.671,2.671,0,0,1,.7-3.716,2.666,2.666,0,0,1,3.718.7,52.385,52.385,0,0,1,7.644,17.042,2.672,2.672,0,0,1-1.95,3.238,2.5,2.5,0,0,1-.643.084m-96.66,26.892a2.677,2.677,0,0,1-2.556-1.887A52.863,52.863,0,0,1-18.206-3.2c0-.993.027-1.976.084-2.957a2.8,2.8,0,0,1,2.815-2.52,2.673,2.673,0,0,1,2.52,2.815q-.072,1.328-.073,2.662a47.481,47.481,0,0,0,2.1,14,2.675,2.675,0,0,1-1.766,3.343,2.581,2.581,0,0,1-.788.121m95,2.665a2.727,2.727,0,0,1-.932-.171,2.674,2.674,0,0,1-1.575-3.438A47.313,47.313,0,0,0,82.13-3.2,2.674,2.674,0,0,1,84.8-5.871,2.673,2.673,0,0,1,87.476-3.2,52.654,52.654,0,0,1,84.19,15.189a2.676,2.676,0,0,1-2.508,1.745M7.942,41.956a2.661,2.661,0,0,1-1.42-.411,53.059,53.059,0,0,1-13.8-12.571,2.676,2.676,0,0,1,.488-3.752,2.687,2.687,0,0,1,3.754.488A47.594,47.594,0,0,0,9.37,37.018a2.674,2.674,0,0,1-1.428,4.938m50.97,1.44a2.676,2.676,0,0,1-1.3-5.015,47.7,47.7,0,0,0,13.029-10.6,2.672,2.672,0,1,1,4.047,3.491A52.889,52.889,0,0,1,60.2,43.057a2.645,2.645,0,0,1-1.292.34M34.639,49.639a53.236,53.236,0,0,1-10.8-1.1,2.681,2.681,0,0,1-2.075-3.163A2.709,2.709,0,0,1,24.933,43.3a47.992,47.992,0,0,0,16.784.466,2.677,2.677,0,0,1,.793,5.294,54.428,54.428,0,0,1-7.871.584" transform="translate(18.206 55.824)" fill="#445eea"/>
    </g>
    <g id="Group_245" data-name="Group 245" transform="translate(568.602 429.878) rotate(180)">
      <rect id="Rectangle_171" data-name="Rectangle 171" width="62.194" height="35.268" transform="translate(0)" fill="#91a8f6"/>
    </g>
    <g id="Group_246" data-name="Group 246" transform="translate(560.072 381.746)">
      <path id="Path_365" data-name="Path 365" d="M0,8.4V4.089a5.753,5.753,0,1,1,11.505,0v7.154H0" transform="translate(0 1.664)" fill="#445eea"/>
    </g>
    <g id="Group_247" data-name="Group 247" transform="translate(517.783 381.664)">
      <path id="Path_366" data-name="Path 366" d="M17.551-15.732V20.924h-42.4V-15.732A5.754,5.754,0,0,1-19.1-21.484H22.825l-1.165.242a5.753,5.753,0,0,0-4.109,5.509" transform="translate(24.852 21.484)" fill="#e0eef7"/>
    </g>
    <g id="Group_248" data-name="Group 248" transform="translate(520.421 387.632)">
      <rect id="Rectangle_172" data-name="Rectangle 172" width="9.401" height="9.652" fill="#445eea"/>
    </g>
    <g id="Group_249" data-name="Group 249" transform="translate(532.703 387.576)">
      <path id="Path_367" data-name="Path 367" d="M0,0H23.9" fill="none" stroke="#445eea" stroke-linecap="round" stroke-linejoin="round" stroke-miterlimit="10" stroke-width="0.66"/>
    </g>
    <g id="Group_250" data-name="Group 250" transform="translate(532.703 390.828)">
      <path id="Path_368" data-name="Path 368" d="M0,0H23.9" fill="none" stroke="#445eea" stroke-linecap="round" stroke-linejoin="round" stroke-miterlimit="10" stroke-width="0.66"/>
    </g>
    <g id="Group_251" data-name="Group 251" transform="translate(532.703 394.079)">
      <path id="Path_369" data-name="Path 369" d="M0,0H23.9" fill="none" stroke="#445eea" stroke-linecap="round" stroke-linejoin="round" stroke-miterlimit="10" stroke-width="0.66"/>
    </g>
    <g id="Group_252" data-name="Group 252" transform="translate(532.928 397.329)">
      <path id="Path_370" data-name="Path 370" d="M0,0H23.9" fill="none" stroke="#445eea" stroke-linecap="round" stroke-linejoin="round" stroke-miterlimit="10" stroke-width="0.66"/>
    </g>
    <g id="Group_253" data-name="Group 253" transform="translate(520.421 400.533)">
      <path id="Path_371" data-name="Path 371" d="M0,0H36.184" fill="none" stroke="#445eea" stroke-linecap="round" stroke-linejoin="round" stroke-miterlimit="10" stroke-width="0.66"/>
    </g>
    <g id="Group_254" data-name="Group 254" transform="translate(520.421 403.784)">
      <path id="Path_372" data-name="Path 372" d="M0,0H36.184" fill="none" stroke="#445eea" stroke-linecap="round" stroke-linejoin="round" stroke-miterlimit="10" stroke-width="0.66"/>
    </g>
    <g id="Group_255" data-name="Group 255" transform="translate(520.421 406.964)">
      <path id="Path_373" data-name="Path 373" d="M0,0H36.184" fill="none" stroke="#445eea" stroke-linecap="round" stroke-linejoin="round" stroke-miterlimit="10" stroke-width="0.66"/>
    </g>
    <g id="Group_256" data-name="Group 256" transform="translate(520.421 410.214)">
      <path id="Path_374" data-name="Path 374" d="M0,0H17.586" fill="none" stroke="#445eea" stroke-linecap="round" stroke-linejoin="round" stroke-miterlimit="10" stroke-width="0.66"/>
    </g>
    <g id="Group_257" data-name="Group 257" transform="translate(506.406 394.609)">
      <path id="Path_375" data-name="Path 375" d="M19.418,35.268H-27.5V0Z" transform="translate(27.496)" fill="#445eea"/>
    </g>
    <g id="Group_258" data-name="Group 258" transform="translate(521.685 394.609)">
      <path id="Path_376" data-name="Path 376" d="M0,35.268H46.914V0Z" fill="#445eea"/>
    </g>
    <g id="Group_259" data-name="Group 259" transform="translate(506.406 413.969)">
      <path id="Path_377" data-name="Path 377" d="M25.743,16.1H-36.451L-8.518,1.184a5.55,5.55,0,0,1,6.328,0Z" transform="translate(36.451 -0.193)" fill="#445eea"/>
    </g>
  </g>
</svg>
