<svg xmlns="http://www.w3.org/2000/svg" xmlns:xlink="http://www.w3.org/1999/xlink" width="629.418" height="493.891" viewBox="0 0 629.418 493.891">
  <defs>
    <linearGradient id="linear-gradient" x1="-0.672" y1="-13.914" x2="-0.669" y2="-13.914" gradientUnits="objectBoundingBox">
      <stop offset="0" stop-color="#9cccee"/>
      <stop offset="1" stop-color="#ceeafa"/>
    </linearGradient>
    <linearGradient id="linear-gradient-2" x1="-18.697" y1="-102.827" x2="-18.651" y2="-102.827" gradientUnits="objectBoundingBox">
      <stop offset="0" stop-color="#deca72"/>
      <stop offset="1" stop-color="#efd372"/>
    </linearGradient>
    <linearGradient id="linear-gradient-3" x1="-21.306" y1="-102.827" x2="-21.26" y2="-102.827" xlink:href="#linear-gradient-2"/>
    <linearGradient id="linear-gradient-4" x1="-23.886" y1="-102.827" x2="-23.84" y2="-102.827" xlink:href="#linear-gradient-2"/>
  </defs>
  <g id="_2684520" data-name="2684520" transform="translate(-1463.355 -866.03)">
    <g id="Group_262" data-name="Group 262" transform="translate(1463.355 1285.176)">
      <path id="Path_721" data-name="Path 721" d="M1133.762,1598.725H698.408c-4.439,0-8.039-6.25-8.039-13.958s3.6-13.956,8.039-13.956h30.716c3.007,0,5.448-4.237,5.448-9.46s-2.44-9.457-5.448-9.457H627.65c-4.442,0-8.042-6.247-8.042-13.955s3.6-13.958,8.042-13.958H822.309v5.9c0,2.329,1.088,4.217,2.427,4.217h66.976c1.16,0,2.1-1.632,2.1-3.645v-6.469h20.852v5.9c0,2.329,1.088,4.217,2.427,4.217h66.976c1.16,0,2.1-1.632,2.1-3.645v-6.469h19.812v5.9c0,2.329,1.087,4.217,2.429,4.217h66.976c1.158,0,2.1-1.632,2.1-3.645v-6.469h166.1c3.009,0,5.447,4.237,5.447,9.46s-2.439,9.457-5.447,9.457H1110.706c-5.868,0-10.626,8.257-10.626,18.445s4.758,18.448,10.626,18.448h23.056c3.012,0,5.454,4.237,5.454,9.466S1136.774,1598.725,1133.762,1598.725Z" transform="translate(-619.608 -1523.98)" fill-rule="evenodd" fill="url(#linear-gradient)"/>
    </g>
    <path id="Path_722" data-name="Path 722" d="M1715.742,1263.946a62.075,62.075,0,1,1-62.075-62.074A62.074,62.074,0,0,1,1715.742,1263.946Z" transform="translate(-40.726 -106.657)" fill="#fad240"/>
    <path id="Path_723" data-name="Path 723" d="M1728.286,1263.939a62.062,62.062,0,0,1-29.893,53.1,62.07,62.07,0,0,0-67.329-104.228,62.039,62.039,0,0,1,97.222,51.13Z" transform="translate(-53.261 -106.656)" fill="#fde8a3"/>
    <path id="Path_724" data-name="Path 724" d="M1707.734,1270.917a47.1,47.1,0,1,1-47.1-47.1A47.1,47.1,0,0,1,1707.734,1270.917Z" transform="translate(-47.697 -113.628)" fill="#fcb227"/>
    <path id="Path_725" data-name="Path 725" d="M1709.254,1269.594h-5.687a44.249,44.249,0,1,1-12.96-31.292,44.1,44.1,0,0,1,12.96,31.292h5.687a49.939,49.939,0,1,0-49.939,49.939A49.936,49.936,0,0,0,1709.254,1269.594Z" transform="translate(-46.374 -112.305)" fill="#fcb227"/>
    <path id="Path_726" data-name="Path 726" d="M1591.58,1268.116a62.061,62.061,0,0,1,29.893-53.1,62.07,62.07,0,0,0,67.332,104.228,62.041,62.041,0,0,1-97.225-51.13Z" transform="translate(-40.722 -110.832)" fill="#fdbf3f"/>
    <path id="Path_727" data-name="Path 727" d="M1661.962,1333.979a44.679,44.679,0,0,1-8.24-.765l-35.247-35.247a44.779,44.779,0,0,1-.265-14.917l50.428,50.428A44.568,44.568,0,0,1,1661.962,1333.979Z" transform="translate(-49.02 -132.438)" fill="#febd30"/>
    <path id="Path_728" data-name="Path 728" d="M1660.631,1335.683a45.105,45.105,0,0,1-4.868-.247l-3.361-3.361a44.773,44.773,0,0,0,14.917.264l2.457,2.457A46.572,46.572,0,0,1,1660.631,1335.683Zm-43.476-38.855-3.355-3.352v-.026a45.838,45.838,0,0,1-.245-4.868,46.535,46.535,0,0,1,.884-9.119l2.451,2.448a44.778,44.778,0,0,0,.265,14.917Z" transform="translate(-47.701 -131.299)" fill="#febd30"/>
    <path id="Path_729" data-name="Path 729" d="M1686.185,1314.075l-60.246-60.224a44.493,44.493,0,0,1,14.911-15.767l61.1,61.074a44.477,44.477,0,0,1-15.761,14.917Z" transform="translate(-51.634 -118.157)" fill="#febd30"/>
    <path id="Path_730" data-name="Path 730" d="M1687.291,1315.2l-2.076-2.076a44.474,44.474,0,0,0,15.761-14.917l2.047,2.044A47.183,47.183,0,0,1,1687.291,1315.2Zm-62.322-62.3-2.084-2.081a46.915,46.915,0,0,1,14.948-15.733l2.047,2.047a44.491,44.491,0,0,0-14.911,15.767Z" transform="translate(-50.664 -117.205)" fill="#febd30"/>
    <path id="Path_731" data-name="Path 731" d="M1719.047,1284.933l-55.117-55.094a44.212,44.212,0,0,1,12.71-1.851,45,45,0,0,1,5.94.392l37.917,37.92a44.66,44.66,0,0,1-1.45,18.633Z" transform="translate(-63.699 -114.951)" fill="#febd30"/>
    <path id="Path_732" data-name="Path 732" d="M1720.239,1285.853l-2.249-2.246a44.66,44.66,0,0,0,1.45-18.633l3.156,3.156c.051.935.074,1.845.074,2.778A47.036,47.036,0,0,1,1720.239,1285.853Zm-57.366-57.34-2.272-2.272a47.074,47.074,0,0,1,14.97-2.431c.933,0,1.843.023,2.778.074l3.173,3.17a45,45,0,0,0-5.94-.392A44.2,44.2,0,0,0,1662.873,1228.512Z" transform="translate(-62.642 -113.624)" fill="#febd30"/>
    <path id="Path_733" data-name="Path 733" d="M1681.306,1295.04a5.222,5.222,0,0,0,1.4-3.8q0-3.387-5.084-6.042v11.792A7.24,7.24,0,0,0,1681.306,1295.04Zm-10.76-28.258q0,2.875,3.833,5.232V1261.7A4.9,4.9,0,0,0,1670.546,1266.782Zm16.947,11.459a14.355,14.355,0,0,1,4.53,4.973,16.043,16.043,0,0,1,1.805,8.03,14.588,14.588,0,0,1-1.877,7.259,15.129,15.129,0,0,1-5.564,5.564,20.2,20.2,0,0,1-8.766,2.65v4.5h-6.19v-4.643a30.6,30.6,0,0,1-14.738-5.6l4.717-8.328a25.668,25.668,0,0,0,4.825,2.73,26.037,26.037,0,0,0,5.195,1.695v-14.516a25.341,25.341,0,0,1-8.7-5.675q-3.246-3.386-3.241-9.284a14.843,14.843,0,0,1,4.015-10.683,17.6,17.6,0,0,1,10.87-5.084v-4.862h6.19v4.936a25.672,25.672,0,0,1,7.441,1.658,37.807,37.807,0,0,1,6.335,3.352l-4.052,8.177a32.7,32.7,0,0,0-9.725-3.682v13.481l.367.151A31.364,31.364,0,0,1,1687.493,1278.241Z" transform="translate(-61.4 -120.977)" fill="#f99d2a"/>
    <path id="Path_734" data-name="Path 734" d="M1678.227,1292.632a5.222,5.222,0,0,0,1.4-3.8q0-3.387-5.084-6.042v11.789A7.216,7.216,0,0,0,1678.227,1292.632Zm-10.76-28.258q0,2.875,3.833,5.232V1259.29A4.9,4.9,0,0,0,1667.467,1264.374Zm16.947,11.459a14.31,14.31,0,0,1,4.532,4.973,16.067,16.067,0,0,1,1.8,8.03,14.589,14.589,0,0,1-1.876,7.259,15.078,15.078,0,0,1-5.565,5.561,20.188,20.188,0,0,1-8.766,2.653v4.5h-6.19v-4.643a30.637,30.637,0,0,1-14.737-5.6l4.717-8.328a27.7,27.7,0,0,0,10.02,4.421v-14.513a25.386,25.386,0,0,1-8.7-5.676q-3.241-3.386-3.239-9.284a14.848,14.848,0,0,1,4.012-10.686,17.621,17.621,0,0,1,10.87-5.081v-4.862h6.19v4.933a25.677,25.677,0,0,1,7.441,1.661,38.011,38.011,0,0,1,6.335,3.35l-4.052,8.18a32.673,32.673,0,0,0-9.725-3.682v13.481l.367.148A31.516,31.516,0,0,1,1684.414,1275.833Z" transform="translate(-60.423 -120.212)" fill="#fad240"/>
    <path id="Path_735" data-name="Path 735" d="M1711.25,1512.964h-115.7a4.216,4.216,0,0,0-4.214,4.217v9.2a4.217,4.217,0,0,0,4.214,4.217h115.7a4.215,4.215,0,0,0,4.214-4.217v-9.2A4.214,4.214,0,0,0,1711.25,1512.964Z" transform="translate(-40.644 -205.454)" fill="#fdbf3f"/>
    <path id="Path_736" data-name="Path 736" d="M1771.573,1520.483v-3.3a4.229,4.229,0,0,0-.321-1.624h.151a3.634,3.634,0,0,0-3.392-2.59,3.639,3.639,0,0,1,3.563,3.642Z" transform="translate(-96.753 -205.455)" fill="#fcd873"/>
    <path id="Path_737" data-name="Path 737" d="M1741,1534.094h-.572a4.215,4.215,0,0,0,4.214-4.217v.572A3.643,3.643,0,0,1,1741,1534.094Z" transform="translate(-69.82 -208.953)" fill-rule="evenodd" fill="url(#linear-gradient-2)"/>
    <path id="Path_738" data-name="Path 738" d="M1767.7,1512.966c-.012,0-.023,0-.037,0C1767.681,1512.964,1767.692,1512.966,1767.7,1512.966Zm-.043,0h0Z" transform="translate(-96.45 -205.454)" fill="#fcd873"/>
    <path id="Path_739" data-name="Path 739" d="M1740.426,1531.8h-57.221v-15.039h32.813v12.446H1725v-12.446h19.318a4.23,4.23,0,0,1,.321,1.624v9.2A4.215,4.215,0,0,1,1740.426,1531.8Z" transform="translate(-69.82 -206.661)" fill="#fec63f"/>
    <path id="Path_740" data-name="Path 740" d="M1715.373,1515.557a3.633,3.633,0,0,0-3.472-2.593H1595.056a3.636,3.636,0,0,0-3.472,2.593Z" transform="translate(-40.723 -205.454)" fill="#fad240"/>
    <path id="Path_741" data-name="Path 741" d="M1603.217,1512.964h-8.24a3.645,3.645,0,0,0-3.642,3.645v10.341a3.642,3.642,0,0,0,3.642,3.643h8.24Z" transform="translate(-40.644 -205.454)" fill="#fcb227"/>
    <path id="Path_742" data-name="Path 742" d="M1591.589,1535a3.627,3.627,0,0,0,3.469,2.59H1711.9a3.631,3.631,0,0,0,3.472-2.59Z" transform="translate(-40.725 -212.452)" fill="#fcb227"/>
    <rect id="Rectangle_177" data-name="Rectangle 177" width="8.982" height="15.039" transform="translate(1646.198 1307.51)" fill="#fad240"/>
    <path id="Path_743" data-name="Path 743" d="M1594.977,1530.593h2.3v-17.629h-2.3a3.645,3.645,0,0,0-3.642,3.645v10.341A3.642,3.642,0,0,0,1594.977,1530.593Z" transform="translate(-40.644 -205.454)" fill="#f99d2a"/>
    <path id="Path_744" data-name="Path 744" d="M1700.608,1487.13h-115.7a4.214,4.214,0,0,0-4.214,4.214v9.2a4.212,4.212,0,0,0,4.214,4.214h115.7a4.212,4.212,0,0,0,4.214-4.214v-9.2A4.214,4.214,0,0,0,1700.608,1487.13Z" transform="translate(-37.264 -197.25)" fill="#fdbf3f"/>
    <path id="Path_745" data-name="Path 745" d="M1756.985,1504.761h-.572a4.212,4.212,0,0,0,4.214-4.214v-9.2a4.166,4.166,0,0,0-.324-1.621h.151a3.628,3.628,0,0,0-3.392-2.59,3.642,3.642,0,0,1,3.566,3.642v10.341A3.642,3.642,0,0,1,1756.985,1504.761Z" transform="translate(-93.07 -197.251)" fill="#fcd873"/>
    <path id="Path_746" data-name="Path 746" d="M1753.186,1512.964h0Z" transform="translate(-89.271 -205.454)" fill="#fccc40"/>
    <path id="Path_747" data-name="Path 747" d="M1757.325,1487.133a.145.145,0,0,0-.034,0A.145.145,0,0,1,1757.325,1487.133Zm-.04,0h0Z" transform="translate(-93.336 -197.25)" fill="#fcd873"/>
    <path id="Path_748" data-name="Path 748" d="M1729.785,1505.966h-57.221V1490.93h32.81v12.443h8.982V1490.93h19.318a4.166,4.166,0,0,1,.324,1.621v9.2A4.212,4.212,0,0,1,1729.785,1505.966Z" transform="translate(-66.441 -198.456)" fill="#fec63f"/>
    <path id="Path_749" data-name="Path 749" d="M1704.728,1489.724a3.63,3.63,0,0,0-3.469-2.593H1584.415a3.633,3.633,0,0,0-3.472,2.593Z" transform="translate(-37.344 -197.25)" fill="#fad240"/>
    <path id="Path_750" data-name="Path 750" d="M1592.573,1487.13h-8.237a3.643,3.643,0,0,0-3.642,3.645v10.342a3.64,3.64,0,0,0,3.642,3.642h8.237Z" transform="translate(-37.264 -197.25)" fill="#fcb227"/>
    <path id="Path_751" data-name="Path 751" d="M1580.943,1509.164a3.63,3.63,0,0,0,3.472,2.593h116.844a3.626,3.626,0,0,0,3.469-2.593Z" transform="translate(-37.344 -204.247)" fill="#fcb227"/>
    <rect id="Rectangle_178" data-name="Rectangle 178" width="8.982" height="15.036" transform="translate(1638.933 1289.881)" fill="#fad240"/>
    <path id="Path_752" data-name="Path 752" d="M1584.335,1504.759h2.3V1487.13h-2.3a3.643,3.643,0,0,0-3.642,3.645v10.342A3.64,3.64,0,0,0,1584.335,1504.759Z" transform="translate(-37.264 -197.25)" fill="#f99d2a"/>
    <path id="Path_753" data-name="Path 753" d="M1716.654,1461.3h-115.7a4.214,4.214,0,0,0-4.214,4.214v9.2a4.212,4.212,0,0,0,4.214,4.214h115.7a4.212,4.212,0,0,0,4.214-4.214v-9.2A4.214,4.214,0,0,0,1716.654,1461.3Z" transform="translate(-42.36 -189.046)" fill="#fdbf3f"/>
    <path id="Path_754" data-name="Path 754" d="M1768.2,1478.927h-.572a4.212,4.212,0,0,0,4.214-4.214v-9.2a4.213,4.213,0,0,0-.321-1.621h.151a3.634,3.634,0,0,0-3.4-2.59,3.642,3.642,0,0,1,3.566,3.642v10.341A3.642,3.642,0,0,1,1768.2,1478.927Z" transform="translate(-93.336 -189.047)" fill="#fcd873"/>
    <path id="Path_755" data-name="Path 755" d="M1773.108,1461.3a.187.187,0,0,0-.037,0A.187.187,0,0,1,1773.108,1461.3Zm-.043,0h0Z" transform="translate(-98.166 -189.046)" fill="#fcd873"/>
    <path id="Path_756" data-name="Path 756" d="M1745.831,1480.133H1688.61V1465.1h32.81v12.443h8.982V1465.1h19.321a4.212,4.212,0,0,1,.321,1.621v9.2A4.212,4.212,0,0,1,1745.831,1480.133Z" transform="translate(-71.537 -190.252)" fill="#fec63f"/>
    <path id="Path_757" data-name="Path 757" d="M1720.777,1463.89a3.636,3.636,0,0,0-3.472-2.593H1600.46a3.636,3.636,0,0,0-3.472,2.593Z" transform="translate(-42.44 -189.046)" fill="#fad240"/>
    <path id="Path_758" data-name="Path 758" d="M1608.618,1461.3h-8.237a3.643,3.643,0,0,0-3.642,3.645v10.342a3.64,3.64,0,0,0,3.642,3.642h8.237Z" transform="translate(-42.36 -189.046)" fill="#fcb227"/>
    <path id="Path_759" data-name="Path 759" d="M1596.989,1483.33a3.632,3.632,0,0,0,3.472,2.593H1717.3a3.632,3.632,0,0,0,3.472-2.593Z" transform="translate(-42.44 -196.043)" fill="#fcb227"/>
    <rect id="Rectangle_179" data-name="Rectangle 179" width="8.982" height="15.036" transform="translate(1649.883 1272.251)" fill="#fad240"/>
    <path id="Path_760" data-name="Path 760" d="M1600.381,1478.926h2.3V1461.3h-2.3a3.643,3.643,0,0,0-3.642,3.645v10.342A3.64,3.64,0,0,0,1600.381,1478.926Z" transform="translate(-42.36 -189.046)" fill="#f99d2a"/>
    <path id="Path_761" data-name="Path 761" d="M1711.25,1435.464h-115.7a4.216,4.216,0,0,0-4.214,4.214v9.2a4.214,4.214,0,0,0,4.214,4.214h115.7a4.212,4.212,0,0,0,4.214-4.214v-9.2A4.214,4.214,0,0,0,1711.25,1435.464Z" transform="translate(-40.644 -180.841)" fill="#fdbf3f"/>
    <path id="Path_762" data-name="Path 762" d="M1762.163,1453.093h-.572a4.212,4.212,0,0,0,4.214-4.214v-9.2a4.2,4.2,0,0,0-.321-1.621h.151a3.633,3.633,0,0,0-3.392-2.593,3.643,3.643,0,0,1,3.563,3.642v10.344A3.642,3.642,0,0,1,1762.163,1453.093Z" transform="translate(-90.986 -180.841)" fill="#fcd873"/>
    <path id="Path_763" data-name="Path 763" d="M1767.97,1435.464h0Zm-.043,0h0Z" transform="translate(-96.715 -180.841)" fill="#fcd873"/>
    <path id="Path_764" data-name="Path 764" d="M1740.426,1454.3h-57.221v-15.036h32.813v12.443H1725v-12.443h19.318a4.2,4.2,0,0,1,.321,1.621v9.2A4.212,4.212,0,0,1,1740.426,1454.3Z" transform="translate(-69.82 -182.048)" fill="#fec63f"/>
    <path id="Path_765" data-name="Path 765" d="M1715.373,1438.057a3.633,3.633,0,0,0-3.472-2.593H1595.056a3.636,3.636,0,0,0-3.472,2.593Z" transform="translate(-40.723 -180.841)" fill="#fad240"/>
    <path id="Path_766" data-name="Path 766" d="M1603.217,1435.464h-8.24a3.644,3.644,0,0,0-3.642,3.642v10.344a3.644,3.644,0,0,0,3.642,3.642h8.24Z" transform="translate(-40.644 -180.841)" fill="#fcb227"/>
    <path id="Path_767" data-name="Path 767" d="M1591.589,1457.5a3.63,3.63,0,0,0,3.469,2.593H1711.9a3.633,3.633,0,0,0,3.472-2.593Z" transform="translate(-40.725 -187.839)" fill="#fcb227"/>
    <rect id="Rectangle_180" data-name="Rectangle 180" width="8.982" height="15.036" transform="translate(1646.198 1254.622)" fill="#fad240"/>
    <path id="Path_768" data-name="Path 768" d="M1594.977,1453.093h2.3v-17.629h-2.3a3.644,3.644,0,0,0-3.642,3.642v10.344A3.644,3.644,0,0,0,1594.977,1453.093Z" transform="translate(-40.644 -180.841)" fill="#f99d2a"/>
    <path id="Path_769" data-name="Path 769" d="M1719.732,1409.63h-115.7a4.216,4.216,0,0,0-4.217,4.214v9.2a4.216,4.216,0,0,0,4.217,4.214h115.7a4.216,4.216,0,0,0,4.214-4.214v-9.2A4.216,4.216,0,0,0,1719.732,1409.63Z" transform="translate(-43.337 -172.637)" fill="#fdbf3f"/>
    <path id="Path_770" data-name="Path 770" d="M1773.679,1427.259h-.569a4.216,4.216,0,0,0,4.214-4.214v-9.2a4.2,4.2,0,0,0-.324-1.621h.151a3.63,3.63,0,0,0-3.392-2.593,3.645,3.645,0,0,1,3.566,3.642v10.344A3.645,3.645,0,0,1,1773.679,1427.259Z" transform="translate(-96.715 -172.637)" fill="#fcd873"/>
    <path id="Path_771" data-name="Path 771" d="M1776.184,1409.63h0Zm-.04,0h0Z" transform="translate(-99.144 -172.637)" fill="#fcd873"/>
    <path id="Path_772" data-name="Path 772" d="M1748.91,1428.466h-57.221V1413.43h32.81v12.443h8.982V1413.43H1752.8a4.207,4.207,0,0,1,.324,1.621v9.2A4.216,4.216,0,0,1,1748.91,1428.466Z" transform="translate(-72.514 -173.844)" fill="#fec63f"/>
    <path id="Path_773" data-name="Path 773" d="M1723.853,1412.223a3.63,3.63,0,0,0-3.472-2.593H1603.54a3.63,3.63,0,0,0-3.472,2.593Z" transform="translate(-43.418 -172.637)" fill="#fad240"/>
    <path id="Path_774" data-name="Path 774" d="M1611.7,1409.63h-8.237a3.645,3.645,0,0,0-3.645,3.642v10.344a3.645,3.645,0,0,0,3.645,3.642h8.237Z" transform="translate(-43.337 -172.637)" fill="#fcb227"/>
    <path id="Path_775" data-name="Path 775" d="M1600.068,1431.664a3.63,3.63,0,0,0,3.472,2.593h116.842a3.63,3.63,0,0,0,3.472-2.593Z" transform="translate(-43.418 -179.634)" fill="#fcb227"/>
    <rect id="Rectangle_181" data-name="Rectangle 181" width="8.982" height="15.036" transform="translate(1651.984 1236.993)" fill="#fad240"/>
    <path id="Path_776" data-name="Path 776" d="M1603.459,1427.259h2.3V1409.63h-2.3a3.645,3.645,0,0,0-3.645,3.642v10.344A3.645,3.645,0,0,0,1603.459,1427.259Z" transform="translate(-43.337 -172.637)" fill="#f99d2a"/>
    <path id="Path_777" data-name="Path 777" d="M1709.365,1383.8h-115.7a4.214,4.214,0,0,0-4.214,4.214v9.2a4.216,4.216,0,0,0,4.214,4.214h115.7a4.216,4.216,0,0,0,4.214-4.214v-9.2A4.214,4.214,0,0,0,1709.365,1383.8Z" transform="translate(-40.044 -164.433)" fill="#fdbf3f"/>
    <path id="Path_778" data-name="Path 778" d="M1765.741,1401.426h-.569a4.216,4.216,0,0,0,4.214-4.214v-9.2a4.214,4.214,0,0,0-4.214-4.214h.569a3.643,3.643,0,0,1,3.645,3.642v10.342A3.645,3.645,0,0,1,1765.741,1401.426Z" transform="translate(-95.852 -164.433)" fill="#fcd873"/>
    <path id="Path_779" data-name="Path 779" d="M1761.853,1409.63h0Z" transform="translate(-91.964 -172.637)" fill="#fccc40"/>
    <path id="Path_780" data-name="Path 780" d="M1738.543,1401.426h-57.221V1383.8h57.221a4.214,4.214,0,0,1,4.214,4.214v9.2A4.216,4.216,0,0,1,1738.543,1401.426Z" transform="translate(-69.222 -164.433)" fill="#fec63f"/>
    <path id="Path_781" data-name="Path 781" d="M1713.486,1386.39a3.627,3.627,0,0,0-3.472-2.593H1593.173a3.627,3.627,0,0,0-3.472,2.593Z" transform="translate(-40.125 -164.433)" fill="#fad240"/>
    <path id="Path_782" data-name="Path 782" d="M1601.33,1383.8h-8.237a3.643,3.643,0,0,0-3.645,3.642v10.342a3.645,3.645,0,0,0,3.645,3.645h8.237Z" transform="translate(-40.044 -164.433)" fill="#fcb227"/>
    <path id="Path_783" data-name="Path 783" d="M1589.7,1405.83a3.63,3.63,0,0,0,3.472,2.593h116.842a3.63,3.63,0,0,0,3.472-2.593Z" transform="translate(-40.125 -171.43)" fill="#fcb227"/>
    <rect id="Rectangle_182" data-name="Rectangle 182" width="8.982" height="15.036" transform="translate(1644.91 1219.364)" fill="#fad240"/>
    <path id="Path_784" data-name="Path 784" d="M1593.092,1401.426h2.3V1383.8h-2.3a3.643,3.643,0,0,0-3.645,3.642v10.342A3.645,3.645,0,0,0,1593.092,1401.426Z" transform="translate(-40.044 -164.433)" fill="#f99d2a"/>
    <path id="Path_785" data-name="Path 785" d="M1949.33,1083.046a62.075,62.075,0,1,1-62.075-62.075A62.074,62.074,0,0,1,1949.33,1083.046Z" transform="translate(-114.909 -49.207)" fill="#fad240"/>
    <path id="Path_786" data-name="Path 786" d="M1961.873,1083.043a62.065,62.065,0,0,1-29.893,53.1,62.071,62.071,0,0,0-67.329-104.231,62.042,62.042,0,0,1,97.222,51.133Z" transform="translate(-127.444 -49.207)" fill="#fde8a3"/>
    <path id="Path_787" data-name="Path 787" d="M1941.322,1090.017a47.1,47.1,0,1,1-47.1-47.1A47.094,47.094,0,0,1,1941.322,1090.017Z" transform="translate(-121.88 -56.177)" fill="#fcb227"/>
    <path id="Path_788" data-name="Path 788" d="M1942.842,1088.694h-5.687a44.249,44.249,0,1,1-12.96-31.292,44.1,44.1,0,0,1,12.96,31.292h5.687a49.939,49.939,0,1,0-49.939,49.939A49.938,49.938,0,0,0,1942.842,1088.694Z" transform="translate(-120.557 -54.854)" fill="#fcb227"/>
    <path id="Path_789" data-name="Path 789" d="M1825.168,1087.22a62.064,62.064,0,0,1,29.893-53.1,62.07,62.07,0,0,0,67.332,104.228,62.044,62.044,0,0,1-97.225-51.13Z" transform="translate(-114.905 -53.383)" fill="#fdbf3f"/>
    <path id="Path_790" data-name="Path 790" d="M1895.549,1153.083a44.677,44.677,0,0,1-8.24-.768l-35.247-35.244a44.782,44.782,0,0,1-.264-14.917l50.428,50.428A45.3,45.3,0,0,1,1895.549,1153.083Z" transform="translate(-123.203 -74.989)" fill="#febd30"/>
    <path id="Path_791" data-name="Path 791" d="M1894.219,1154.783a45.844,45.844,0,0,1-4.868-.245l-3.361-3.364a44.667,44.667,0,0,0,8.24.768,45.3,45.3,0,0,0,6.676-.5l2.457,2.457A46.8,46.8,0,0,1,1894.219,1154.783Zm-43.476-38.853-3.352-3.355v-.026a45.056,45.056,0,0,1-.247-4.865,46.587,46.587,0,0,1,.884-9.122l2.451,2.451a44.782,44.782,0,0,0,.264,14.917Z" transform="translate(-121.884 -73.848)" fill="#febd30"/>
    <path id="Path_792" data-name="Path 792" d="M1919.773,1133.176l-60.246-60.221a44.489,44.489,0,0,1,14.911-15.767l61.1,61.071a44.476,44.476,0,0,1-15.761,14.917Z" transform="translate(-125.816 -60.708)" fill="#febd30"/>
    <path id="Path_793" data-name="Path 793" d="M1920.879,1134.3l-2.076-2.076a44.476,44.476,0,0,0,15.761-14.917l2.047,2.047A47.117,47.117,0,0,1,1920.879,1134.3Zm-62.322-62.3-2.084-2.084a46.97,46.97,0,0,1,14.948-15.733l2.047,2.05A44.486,44.486,0,0,0,1858.557,1072Z" transform="translate(-124.847 -59.754)" fill="#febd30"/>
    <path id="Path_794" data-name="Path 794" d="M1952.635,1104.036l-55.117-55.1a44.646,44.646,0,0,1,18.65-1.456l37.917,37.917a44.676,44.676,0,0,1-1.45,18.636Z" transform="translate(-137.882 -57.501)" fill="#febd30"/>
    <path id="Path_795" data-name="Path 795" d="M1953.827,1104.955l-2.249-2.246a44.678,44.678,0,0,0,1.45-18.636l3.159,3.159c.048.933.074,1.843.074,2.778A47.051,47.051,0,0,1,1953.827,1104.955Zm-57.366-57.343-2.272-2.269a47.09,47.09,0,0,1,14.97-2.434c.936,0,1.843.026,2.778.074l3.173,3.173a44.647,44.647,0,0,0-18.65,1.456Z" transform="translate(-136.825 -56.173)" fill="#febd30"/>
    <path id="Path_796" data-name="Path 796" d="M1914.893,1114.143a5.223,5.223,0,0,0,1.4-3.8q0-3.391-5.084-6.042v11.789A7.259,7.259,0,0,0,1914.893,1114.143Zm-10.76-28.258q0,2.875,3.833,5.229V1080.8A4.9,4.9,0,0,0,1904.134,1085.885Zm16.947,11.456a14.339,14.339,0,0,1,4.533,4.976,16.068,16.068,0,0,1,1.8,8.03,14.587,14.587,0,0,1-1.876,7.259,15.078,15.078,0,0,1-5.565,5.562,20.237,20.237,0,0,1-8.766,2.653v4.5h-6.19v-4.643a30.635,30.635,0,0,1-14.737-5.6l4.717-8.328a27.7,27.7,0,0,0,10.02,4.422v-14.513a25.427,25.427,0,0,1-8.7-5.675q-3.242-3.391-3.239-9.284a14.847,14.847,0,0,1,4.012-10.686,17.613,17.613,0,0,1,10.87-5.078v-4.868h6.19V1071a25.769,25.769,0,0,1,7.441,1.661,37.8,37.8,0,0,1,6.335,3.35l-4.052,8.18a32.673,32.673,0,0,0-9.725-3.682v13.481l.367.148A31.5,31.5,0,0,1,1921.08,1097.341Z" transform="translate(-135.583 -63.527)" fill="#f99d2a"/>
    <path id="Path_797" data-name="Path 797" d="M1911.815,1111.731a5.2,5.2,0,0,0,1.4-3.793q0-3.391-5.084-6.045v11.792A7.227,7.227,0,0,0,1911.815,1111.731Zm-10.76-28.258q0,2.875,3.833,5.232v-10.313A4.895,4.895,0,0,0,1901.056,1083.474Zm16.949,11.459a14.376,14.376,0,0,1,4.53,4.973,16.047,16.047,0,0,1,1.806,8.033,14.589,14.589,0,0,1-1.88,7.259,15.1,15.1,0,0,1-5.564,5.562,20.227,20.227,0,0,1-8.766,2.653v4.493h-6.187v-4.643a30.584,30.584,0,0,1-14.738-5.6l4.717-8.328a27.7,27.7,0,0,0,10.02,4.422v-14.513a25.429,25.429,0,0,1-8.7-5.675q-3.246-3.391-3.241-9.284a14.838,14.838,0,0,1,4.015-10.686,17.591,17.591,0,0,1,10.867-5.081v-4.865h6.19v4.936a25.588,25.588,0,0,1,7.441,1.661,37.8,37.8,0,0,1,6.335,3.35l-4.052,8.178a32.835,32.835,0,0,0-9.725-3.682v13.484l.367.148A31.528,31.528,0,0,1,1918.005,1094.933Z" transform="translate(-134.607 -62.762)" fill="#fad240"/>
    <path id="Path_798" data-name="Path 798" d="M1946.192,1512.964h-115.7a4.216,4.216,0,0,0-4.214,4.217v9.2a4.217,4.217,0,0,0,4.214,4.217h115.7a4.217,4.217,0,0,0,4.217-4.217v-9.2A4.217,4.217,0,0,0,1946.192,1512.964Z" transform="translate(-115.257 -205.454)" fill="#fdbf3f"/>
    <path id="Path_799" data-name="Path 799" d="M2006.517,1520.483v-3.3a4.231,4.231,0,0,0-.324-1.624h.151a3.634,3.634,0,0,0-3.392-2.59,3.641,3.641,0,0,1,3.566,3.642Z" transform="translate(-171.366 -205.455)" fill="#fcd873"/>
    <path id="Path_800" data-name="Path 800" d="M1975.94,1534.094h-.571a4.217,4.217,0,0,0,4.217-4.217v.572A3.646,3.646,0,0,1,1975.94,1534.094Z" transform="translate(-144.433 -208.953)" fill-rule="evenodd" fill="url(#linear-gradient-3)"/>
    <path id="Path_801" data-name="Path 801" d="M2002.912,1512.966l-.034,0Zm-.043,0h0Z" transform="translate(-171.328 -205.454)" fill="#fcd873"/>
    <path id="Path_802" data-name="Path 802" d="M1975.368,1531.8h-57.221v-15.039h32.813v12.446h8.982v-12.446h19.318a4.232,4.232,0,0,1,.324,1.624v9.2A4.217,4.217,0,0,1,1975.368,1531.8Z" transform="translate(-144.433 -206.661)" fill="#fec63f"/>
    <path id="Path_803" data-name="Path 803" d="M1950.316,1515.557a3.631,3.631,0,0,0-3.472-2.593H1830a3.631,3.631,0,0,0-3.472,2.593Z" transform="translate(-115.338 -205.454)" fill="#fad240"/>
    <path id="Path_804" data-name="Path 804" d="M1838.159,1512.964h-8.237a3.645,3.645,0,0,0-3.645,3.645v10.341a3.643,3.643,0,0,0,3.645,3.643h8.237Z" transform="translate(-115.257 -205.454)" fill="#fcb227"/>
    <path id="Path_805" data-name="Path 805" d="M1826.531,1535a3.628,3.628,0,0,0,3.472,2.59h116.841a3.628,3.628,0,0,0,3.472-2.59Z" transform="translate(-115.338 -212.452)" fill="#fcb227"/>
    <rect id="Rectangle_183" data-name="Rectangle 183" width="8.982" height="15.039" transform="translate(1806.527 1307.51)" fill="#fad240"/>
    <path id="Path_806" data-name="Path 806" d="M1829.922,1530.593h2.294v-17.629h-2.294a3.645,3.645,0,0,0-3.645,3.645v10.341A3.643,3.643,0,0,0,1829.922,1530.593Z" transform="translate(-115.257 -205.454)" fill="#f99d2a"/>
    <path id="Path_807" data-name="Path 807" d="M1951.6,1487.13h-115.7a4.214,4.214,0,0,0-4.214,4.214v9.2a4.212,4.212,0,0,0,4.214,4.214h115.7a4.212,4.212,0,0,0,4.214-4.214v-9.2A4.214,4.214,0,0,0,1951.6,1487.13Z" transform="translate(-116.973 -197.25)" fill="#fdbf3f"/>
    <path id="Path_808" data-name="Path 808" d="M2006.523,1504.761h-.572a4.212,4.212,0,0,0,4.214-4.214v-9.2a4.218,4.218,0,0,0-.321-1.621h.151a3.63,3.63,0,0,0-3.392-2.59,3.641,3.641,0,0,1,3.563,3.642v10.341A3.64,3.64,0,0,1,2006.523,1504.761Z" transform="translate(-171.328 -197.251)" fill="#fcd873"/>
    <path id="Path_809" data-name="Path 809" d="M2008.05,1487.133a.172.172,0,0,0-.037,0A.172.172,0,0,1,2008.05,1487.133Zm-.043,0h0Z" transform="translate(-172.779 -197.25)" fill="#fcd873"/>
    <path id="Path_810" data-name="Path 810" d="M1980.772,1505.966h-57.221V1490.93h32.813v12.443h8.98V1490.93h19.321a4.215,4.215,0,0,1,.321,1.621v9.2A4.212,4.212,0,0,1,1980.772,1505.966Z" transform="translate(-146.15 -198.456)" fill="#fec63f"/>
    <path id="Path_811" data-name="Path 811" d="M1955.719,1489.724a3.635,3.635,0,0,0-3.472-2.593H1835.4a3.635,3.635,0,0,0-3.472,2.593Z" transform="translate(-117.053 -197.25)" fill="#fad240"/>
    <path id="Path_812" data-name="Path 812" d="M1843.56,1487.13h-8.238a3.643,3.643,0,0,0-3.642,3.645v10.342a3.64,3.64,0,0,0,3.642,3.642h8.238Z" transform="translate(-116.973 -197.25)" fill="#fcb227"/>
    <path id="Path_813" data-name="Path 813" d="M1831.931,1509.164a3.632,3.632,0,0,0,3.472,2.593h116.844a3.632,3.632,0,0,0,3.472-2.593Z" transform="translate(-117.053 -204.247)" fill="#fcb227"/>
    <rect id="Rectangle_184" data-name="Rectangle 184" width="8.98" height="15.036" transform="translate(1810.215 1289.881)" fill="#fad240"/>
    <path id="Path_814" data-name="Path 814" d="M1835.323,1504.759h2.3V1487.13h-2.3a3.643,3.643,0,0,0-3.642,3.645v10.342A3.64,3.64,0,0,0,1835.323,1504.759Z" transform="translate(-116.973 -197.25)" fill="#f99d2a"/>
    <path id="Path_815" data-name="Path 815" d="M1938.429,1461.3h-115.7a4.214,4.214,0,0,0-4.214,4.214v9.2a4.212,4.212,0,0,0,4.214,4.214h115.7a4.212,4.212,0,0,0,4.214-4.214v-9.2A4.214,4.214,0,0,0,1938.429,1461.3Z" transform="translate(-112.792 -189.046)" fill="#fdbf3f"/>
    <path id="Path_816" data-name="Path 816" d="M1994.806,1478.927h-.571a4.212,4.212,0,0,0,4.214-4.214v-9.2a4.213,4.213,0,0,0-.321-1.621h.151a3.634,3.634,0,0,0-3.4-2.59,3.64,3.64,0,0,1,3.566,3.642v10.341A3.641,3.641,0,0,1,1994.806,1478.927Z" transform="translate(-168.597 -189.047)" fill="#fcd873"/>
    <path id="Path_817" data-name="Path 817" d="M1991.808,1487.13h0Z" transform="translate(-165.599 -197.25)" fill="#fccc40"/>
    <path id="Path_818" data-name="Path 818" d="M1994.883,1461.3a.184.184,0,0,0-.037,0A.184.184,0,0,1,1994.883,1461.3Zm-.042,0h0Z" transform="translate(-168.597 -189.046)" fill="#fcd873"/>
    <path id="Path_819" data-name="Path 819" d="M1967.606,1480.133h-57.221V1465.1h32.81v12.443h8.985V1465.1H1971.5a4.212,4.212,0,0,1,.321,1.621v9.2A4.212,4.212,0,0,1,1967.606,1480.133Z" transform="translate(-141.968 -190.252)" fill="#fec63f"/>
    <path id="Path_820" data-name="Path 820" d="M1942.552,1463.89a3.636,3.636,0,0,0-3.472-2.593H1822.236a3.636,3.636,0,0,0-3.472,2.593Z" transform="translate(-112.871 -189.046)" fill="#fad240"/>
    <path id="Path_821" data-name="Path 821" d="M1830.394,1461.3h-8.237a3.643,3.643,0,0,0-3.642,3.645v10.342a3.64,3.64,0,0,0,3.642,3.642h8.237Z" transform="translate(-112.792 -189.046)" fill="#fcb227"/>
    <path id="Path_822" data-name="Path 822" d="M1818.764,1483.33a3.633,3.633,0,0,0,3.472,2.593H1939.08a3.633,3.633,0,0,0,3.472-2.593Z" transform="translate(-112.871 -196.043)" fill="#fcb227"/>
    <rect id="Rectangle_185" data-name="Rectangle 185" width="8.985" height="15.036" transform="translate(1801.227 1272.251)" fill="#fad240"/>
    <path id="Path_823" data-name="Path 823" d="M1822.156,1478.926h2.3V1461.3h-2.3a3.643,3.643,0,0,0-3.642,3.645v10.342A3.64,3.64,0,0,0,1822.156,1478.926Z" transform="translate(-112.792 -189.046)" fill="#f99d2a"/>
    <path id="Path_824" data-name="Path 824" d="M1946.192,1435.464h-115.7a4.216,4.216,0,0,0-4.214,4.214v9.2a4.214,4.214,0,0,0,4.214,4.214h115.7a4.215,4.215,0,0,0,4.217-4.214v-9.2A4.216,4.216,0,0,0,1946.192,1435.464Z" transform="translate(-115.257 -180.841)" fill="#fdbf3f"/>
    <path id="Path_825" data-name="Path 825" d="M1992.925,1453.093h-.572a4.215,4.215,0,0,0,4.217-4.214v-9.2a4.2,4.2,0,0,0-.324-1.621h.151a3.633,3.633,0,0,0-3.392-2.593,3.645,3.645,0,0,1,3.566,3.642v10.344A3.645,3.645,0,0,1,1992.925,1453.093Z" transform="translate(-161.419 -180.841)" fill="#fcd873"/>
    <path id="Path_826" data-name="Path 826" d="M2002.912,1435.464h0Zm-.043,0h0Z" transform="translate(-171.328 -180.841)" fill="#fcd873"/>
    <path id="Path_827" data-name="Path 827" d="M1975.368,1454.3h-57.221v-15.036h32.813v12.443h8.982v-12.443h19.318a4.206,4.206,0,0,1,.324,1.621v9.2A4.215,4.215,0,0,1,1975.368,1454.3Z" transform="translate(-144.433 -182.048)" fill="#fec63f"/>
    <path id="Path_828" data-name="Path 828" d="M1950.316,1438.057a3.631,3.631,0,0,0-3.472-2.593H1830a3.63,3.63,0,0,0-3.472,2.593Z" transform="translate(-115.338 -180.841)" fill="#fad240"/>
    <path id="Path_829" data-name="Path 829" d="M1838.159,1435.464h-8.237a3.645,3.645,0,0,0-3.645,3.642v10.344a3.645,3.645,0,0,0,3.645,3.642h8.237Z" transform="translate(-115.257 -180.841)" fill="#fcb227"/>
    <path id="Path_830" data-name="Path 830" d="M1826.531,1457.5a3.631,3.631,0,0,0,3.472,2.593h116.841a3.631,3.631,0,0,0,3.472-2.593Z" transform="translate(-115.338 -187.839)" fill="#fcb227"/>
    <rect id="Rectangle_186" data-name="Rectangle 186" width="8.982" height="15.036" transform="translate(1806.527 1254.622)" fill="#fad240"/>
    <path id="Path_831" data-name="Path 831" d="M1829.922,1453.093h2.294v-17.629h-2.294a3.645,3.645,0,0,0-3.645,3.642v10.344A3.645,3.645,0,0,0,1829.922,1453.093Z" transform="translate(-115.257 -180.841)" fill="#f99d2a"/>
    <path id="Path_832" data-name="Path 832" d="M1951.6,1357.951h-115.7a4.212,4.212,0,0,0-4.214,4.214v9.2a4.215,4.215,0,0,0,4.214,4.217h115.7a4.214,4.214,0,0,0,4.214-4.217v-9.2A4.212,4.212,0,0,0,1951.6,1357.951Z" transform="translate(-116.973 -156.225)" fill="#fdbf3f"/>
    <path id="Path_833" data-name="Path 833" d="M2007.973,1375.58h0Zm.04,0a.157.157,0,0,1,.037,0A.146.146,0,0,0,2008.013,1375.58Zm.04,0a3.63,3.63,0,0,0,3.392-2.59h-.151a4.221,4.221,0,0,0,.321-1.624v-9.2a4.231,4.231,0,0,0-.321-1.624h.151a3.633,3.633,0,0,0-3.392-2.59,3.643,3.643,0,0,1,3.563,3.642v10.341A3.643,3.643,0,0,1,2008.053,1375.577Zm0-17.626h0Zm-.043,0h0Z" transform="translate(-172.779 -156.225)" fill="#fcd873"/>
    <path id="Path_834" data-name="Path 834" d="M1984.665,1374.193h-19.321v-12.446h19.321a4.23,4.23,0,0,1,.321,1.624v9.2A4.22,4.22,0,0,1,1984.665,1374.193Zm-28.3,0h-32.813v-12.446h32.813Z" transform="translate(-146.15 -157.43)" fill="#fec63f"/>
    <path id="Path_835" data-name="Path 835" d="M1955.719,1360.541a3.633,3.633,0,0,0-3.472-2.59H1835.4a3.633,3.633,0,0,0-3.472,2.59Z" transform="translate(-117.053 -156.225)" fill="#fad240"/>
    <path id="Path_836" data-name="Path 836" d="M1843.56,1357.951h-8.238a3.641,3.641,0,0,0-3.642,3.642v10.341a3.643,3.643,0,0,0,3.642,3.645h8.238Z" transform="translate(-116.973 -156.225)" fill="#fcb227"/>
    <path id="Path_837" data-name="Path 837" d="M1831.931,1379.984a3.636,3.636,0,0,0,3.472,2.593h116.844a3.636,3.636,0,0,0,3.472-2.593Z" transform="translate(-117.053 -163.222)" fill="#fcb227"/>
    <rect id="Rectangle_187" data-name="Rectangle 187" width="8.98" height="15.036" transform="translate(1810.215 1201.726)" fill="#fad240"/>
    <path id="Path_838" data-name="Path 838" d="M1835.323,1375.58h2.3v-17.629h-2.3a3.641,3.641,0,0,0-3.642,3.642v10.341A3.643,3.643,0,0,0,1835.323,1375.58Z" transform="translate(-116.973 -156.225)" fill="#f99d2a"/>
    <path id="Path_839" data-name="Path 839" d="M1934.546,1332.114h-115.7a4.216,4.216,0,0,0-4.214,4.217v9.2a4.216,4.216,0,0,0,4.214,4.217h115.7a4.217,4.217,0,0,0,4.217-4.217v-9.2A4.217,4.217,0,0,0,1934.546,1332.114Z" transform="translate(-111.558 -148.019)" fill="#fdbf3f"/>
    <path id="Path_840" data-name="Path 840" d="M1990.923,1349.747h-.572a4.217,4.217,0,0,0,4.217-4.217v-9.2a4.223,4.223,0,0,0-.324-1.624h.151a3.634,3.634,0,0,0-3.392-2.59,3.641,3.641,0,0,1,3.566,3.642V1346.1A3.645,3.645,0,0,1,1990.923,1349.747Z" transform="translate(-167.364 -148.021)" fill="#fcd873"/>
    <path id="Path_841" data-name="Path 841" d="M1989.158,1357.951h0Z" transform="translate(-165.599 -156.225)" fill="#fccc40"/>
    <path id="Path_842" data-name="Path 842" d="M1963.722,1350.952H1906.5v-15.039h32.813v12.446h8.982v-12.446h19.318a4.221,4.221,0,0,1,.324,1.624v9.2A4.217,4.217,0,0,1,1963.722,1350.952Z" transform="translate(-140.735 -149.226)" fill="#fec63f"/>
    <path id="Path_843" data-name="Path 843" d="M1991.266,1332.116l-.034,0Zm-.043,0h0Z" transform="translate(-167.63 -148.019)" fill="#fcd873"/>
    <path id="Path_844" data-name="Path 844" d="M1938.67,1334.707a3.633,3.633,0,0,0-3.472-2.593H1818.354a3.63,3.63,0,0,0-3.469,2.593Z" transform="translate(-111.639 -148.019)" fill="#fad240"/>
    <path id="Path_845" data-name="Path 845" d="M1826.513,1332.114h-8.24a3.645,3.645,0,0,0-3.642,3.645V1346.1a3.645,3.645,0,0,0,3.642,3.645h8.24Z" transform="translate(-111.558 -148.019)" fill="#fcb227"/>
    <path id="Path_846" data-name="Path 846" d="M1814.885,1354.151a3.63,3.63,0,0,0,3.469,2.593H1935.2a3.631,3.631,0,0,0,3.472-2.593Z" transform="translate(-111.639 -155.018)" fill="#fcb227"/>
    <rect id="Rectangle_188" data-name="Rectangle 188" width="8.982" height="15.039" transform="translate(1798.58 1184.094)" fill="#fad240"/>
    <path id="Path_847" data-name="Path 847" d="M1818.273,1349.745h2.3v-17.632h-2.3a3.645,3.645,0,0,0-3.642,3.645V1346.1A3.645,3.645,0,0,0,1818.273,1349.745Z" transform="translate(-111.558 -148.019)" fill="#f99d2a"/>
    <path id="Path_848" data-name="Path 848" d="M1942.311,1306.28h-115.7a4.216,4.216,0,0,0-4.217,4.214v9.2a4.215,4.215,0,0,0,4.217,4.214h115.7a4.214,4.214,0,0,0,4.214-4.214v-9.2A4.216,4.216,0,0,0,1942.311,1306.28Z" transform="translate(-114.024 -139.815)" fill="#fdbf3f"/>
    <path id="Path_849" data-name="Path 849" d="M1996.489,1323.909h-.571a4.214,4.214,0,0,0,4.214-4.214v-9.2a4.216,4.216,0,0,0-.324-1.621h.151a3.63,3.63,0,0,0-3.392-2.593,3.646,3.646,0,0,1,3.566,3.645v10.342A3.642,3.642,0,0,1,1996.489,1323.909Z" transform="translate(-167.63 -139.815)" fill="#fcd873"/>
    <path id="Path_850" data-name="Path 850" d="M1971.489,1325.116h-57.221V1310.08h32.81v12.443h8.982V1310.08h19.318a4.214,4.214,0,0,1,.324,1.621v9.2A4.214,4.214,0,0,1,1971.489,1325.116Z" transform="translate(-143.201 -141.022)" fill="#fec63f"/>
    <path id="Path_851" data-name="Path 851" d="M1998.764,1306.28h0Zm-.04,0h0Z" transform="translate(-169.831 -139.815)" fill="#fcd873"/>
    <path id="Path_852" data-name="Path 852" d="M1946.432,1308.873a3.63,3.63,0,0,0-3.469-2.593H1826.119a3.633,3.633,0,0,0-3.472,2.593Z" transform="translate(-114.104 -139.815)" fill="#fad240"/>
    <path id="Path_853" data-name="Path 853" d="M1834.276,1306.28h-8.237a3.645,3.645,0,0,0-3.645,3.645v10.342a3.643,3.643,0,0,0,3.645,3.642h8.237Z" transform="translate(-114.024 -139.815)" fill="#fcb227"/>
    <path id="Path_854" data-name="Path 854" d="M1822.647,1328.313a3.63,3.63,0,0,0,3.472,2.593h116.844a3.626,3.626,0,0,0,3.469-2.593Z" transform="translate(-114.104 -146.812)" fill="#fcb227"/>
    <rect id="Rectangle_189" data-name="Rectangle 189" width="8.982" height="15.036" transform="translate(1803.877 1166.465)" fill="#fad240"/>
    <path id="Path_855" data-name="Path 855" d="M1826.038,1323.909h2.3V1306.28h-2.3a3.645,3.645,0,0,0-3.645,3.645v10.342A3.643,3.643,0,0,0,1826.038,1323.909Z" transform="translate(-114.024 -139.815)" fill="#f99d2a"/>
    <path id="Path_856" data-name="Path 856" d="M1961.717,1409.63h-115.7a4.216,4.216,0,0,0-4.214,4.214v9.2a4.216,4.216,0,0,0,4.214,4.214h115.7a4.216,4.216,0,0,0,4.217-4.214v-9.2A4.216,4.216,0,0,0,1961.717,1409.63Z" transform="translate(-120.187 -172.637)" fill="#fdbf3f"/>
    <path id="Path_857" data-name="Path 857" d="M2013.429,1427.259h-.572a4.216,4.216,0,0,0,4.217-4.214v-9.2a4.2,4.2,0,0,0-.324-1.621h.151a3.633,3.633,0,0,0-3.392-2.593,3.645,3.645,0,0,1,3.566,3.642v10.344A3.645,3.645,0,0,1,2013.429,1427.259Z" transform="translate(-171.328 -172.637)" fill="#fcd873"/>
    <path id="Path_858" data-name="Path 858" d="M1990.893,1428.466h-57.221V1413.43h32.813v12.443h8.982V1413.43h19.318a4.207,4.207,0,0,1,.324,1.621v9.2A4.216,4.216,0,0,1,1990.893,1428.466Z" transform="translate(-149.364 -173.844)" fill="#fec63f"/>
    <path id="Path_859" data-name="Path 859" d="M2018.171,1409.63h0Zm-.043,0h0Z" transform="translate(-175.993 -172.637)" fill="#fcd873"/>
    <path id="Path_860" data-name="Path 860" d="M1965.839,1412.223a3.633,3.633,0,0,0-3.472-2.593H1845.523a3.636,3.636,0,0,0-3.472,2.593Z" transform="translate(-120.267 -172.637)" fill="#fad240"/>
    <path id="Path_861" data-name="Path 861" d="M1853.681,1409.63h-8.237a3.644,3.644,0,0,0-3.642,3.642v10.344a3.644,3.644,0,0,0,3.642,3.642h8.237Z" transform="translate(-120.187 -172.637)" fill="#fcb227"/>
    <path id="Path_862" data-name="Path 862" d="M1842.051,1431.664a3.636,3.636,0,0,0,3.472,2.593h116.844a3.633,3.633,0,0,0,3.472-2.593Z" transform="translate(-120.267 -179.634)" fill="#fcb227"/>
    <rect id="Rectangle_190" data-name="Rectangle 190" width="8.982" height="15.036" transform="translate(1817.121 1236.993)" fill="#fad240"/>
    <path id="Path_863" data-name="Path 863" d="M1845.444,1427.259h2.3V1409.63h-2.3a3.644,3.644,0,0,0-3.642,3.642v10.344A3.644,3.644,0,0,0,1845.444,1427.259Z" transform="translate(-120.187 -172.637)" fill="#f99d2a"/>
    <path id="Path_864" data-name="Path 864" d="M1944.307,1383.8h-115.7a4.214,4.214,0,0,0-4.217,4.214v9.2a4.216,4.216,0,0,0,4.217,4.214h115.7a4.216,4.216,0,0,0,4.214-4.214v-9.2A4.214,4.214,0,0,0,1944.307,1383.8Z" transform="translate(-114.658 -164.433)" fill="#fdbf3f"/>
    <path id="Path_865" data-name="Path 865" d="M2000.683,1401.426h-.569a4.216,4.216,0,0,0,4.214-4.214v-9.2a4.214,4.214,0,0,0-4.214-4.214h.569a3.643,3.643,0,0,1,3.646,3.642v10.342A3.646,3.646,0,0,1,2000.683,1401.426Z" transform="translate(-170.464 -164.433)" fill="#fcd873"/>
    <path id="Path_866" data-name="Path 866" d="M1999.033,1409.63h0Z" transform="translate(-168.814 -172.637)" fill="#fccc40"/>
    <path id="Path_867" data-name="Path 867" d="M1973.485,1401.426h-57.221V1383.8h57.221a4.214,4.214,0,0,1,4.214,4.214v9.2A4.216,4.216,0,0,1,1973.485,1401.426Z" transform="translate(-143.835 -164.433)" fill="#fec63f"/>
    <path id="Path_868" data-name="Path 868" d="M1948.428,1386.39a3.627,3.627,0,0,0-3.472-2.593H1828.115a3.627,3.627,0,0,0-3.472,2.593Z" transform="translate(-114.738 -164.433)" fill="#fad240"/>
    <path id="Path_869" data-name="Path 869" d="M1836.272,1383.8h-8.238a3.643,3.643,0,0,0-3.645,3.642v10.342a3.645,3.645,0,0,0,3.645,3.645h8.238Z" transform="translate(-114.658 -164.433)" fill="#fcb227"/>
    <path id="Path_870" data-name="Path 870" d="M1824.643,1405.83a3.63,3.63,0,0,0,3.472,2.593h116.842a3.631,3.631,0,0,0,3.472-2.593Z" transform="translate(-114.738 -171.43)" fill="#fcb227"/>
    <rect id="Rectangle_191" data-name="Rectangle 191" width="8.982" height="15.036" transform="translate(1805.239 1219.364)" fill="#fad240"/>
    <path id="Path_871" data-name="Path 871" d="M1828.034,1401.426h2.3V1383.8h-2.3a3.643,3.643,0,0,0-3.645,3.642v10.342A3.645,3.645,0,0,0,1828.034,1401.426Z" transform="translate(-114.658 -164.433)" fill="#f99d2a"/>
    <path id="Path_872" data-name="Path 872" d="M1936.415,1280.414h-115.7a4.216,4.216,0,0,0-4.217,4.214v9.2a4.216,4.216,0,0,0,4.217,4.214h115.7a4.216,4.216,0,0,0,4.214-4.214v-9.2A4.216,4.216,0,0,0,1936.415,1280.414Z" transform="translate(-112.151 -131.6)" fill="#fdbf3f"/>
    <path id="Path_873" data-name="Path 873" d="M1992.821,1298.043h-.5a4.215,4.215,0,0,0,4.148-4.214v-9.2a4.2,4.2,0,0,0-.324-1.621h.151a3.633,3.633,0,0,0-3.392-2.593,3.645,3.645,0,0,1,3.566,3.642V1294.4A3.645,3.645,0,0,1,1992.821,1298.043Z" transform="translate(-167.989 -131.6)" fill="#fcd873"/>
    <path id="Path_874" data-name="Path 874" d="M1965.659,1299.25h-57.286v-15.036h32.81v12.443h8.982v-12.443h19.318a4.2,4.2,0,0,1,.324,1.621v9.2A4.215,4.215,0,0,1,1965.659,1299.25Z" transform="translate(-141.329 -132.807)" fill="#fec63f"/>
    <path id="Path_875" data-name="Path 875" d="M1940.537,1283.007a3.627,3.627,0,0,0-3.472-2.593H1820.223a3.627,3.627,0,0,0-3.472,2.593Z" transform="translate(-112.232 -131.6)" fill="#fad240"/>
    <path id="Path_876" data-name="Path 876" d="M1828.38,1280.414h-8.238a3.643,3.643,0,0,0-3.645,3.642V1294.4a3.645,3.645,0,0,0,3.645,3.645h8.238Z" transform="translate(-112.151 -131.6)" fill="#fcb227"/>
    <path id="Path_877" data-name="Path 877" d="M1816.751,1302.447a3.631,3.631,0,0,0,3.472,2.593h116.842a3.631,3.631,0,0,0,3.472-2.593Z" transform="translate(-112.232 -138.598)" fill="#fcb227"/>
    <rect id="Rectangle_192" data-name="Rectangle 192" width="8.982" height="15.036" transform="translate(1799.854 1148.813)" fill="#fad240"/>
    <path id="Path_878" data-name="Path 878" d="M1820.142,1298.043h2.3v-17.629h-2.3a3.643,3.643,0,0,0-3.645,3.642V1294.4A3.645,3.645,0,0,0,1820.142,1298.043Z" transform="translate(-112.151 -131.6)" fill="#f99d2a"/>
    <path id="Path_879" data-name="Path 879" d="M1941.817,1202.9h-115.7a4.216,4.216,0,0,0-4.214,4.214v9.2a4.214,4.214,0,0,0,4.214,4.214h115.7a4.212,4.212,0,0,0,4.214-4.214v-9.2A4.214,4.214,0,0,0,1941.817,1202.9Z" transform="translate(-113.867 -106.982)" fill="#fdbf3f"/>
    <path id="Path_880" data-name="Path 880" d="M1998.194,1220.526h0Zm.04,0h0Zm.04,0a3.633,3.633,0,0,0,3.392-2.593h-.151a4.2,4.2,0,0,0,.321-1.621v-9.2a4.214,4.214,0,0,0-4.214-4.214h.572a3.643,3.643,0,0,1,3.642,3.645v10.342A3.641,3.641,0,0,1,1998.274,1220.526Z" transform="translate(-169.673 -106.982)" fill="#fcd873"/>
    <path id="Path_881" data-name="Path 881" d="M1974.886,1217.933h-61.114V1202.9h57.221a4.214,4.214,0,0,1,4.214,4.214v9.2A4.2,4.2,0,0,1,1974.886,1217.933Z" transform="translate(-143.044 -106.982)" fill="#fec63f"/>
    <path id="Path_882" data-name="Path 882" d="M1945.94,1205.49a3.633,3.633,0,0,0-3.472-2.593H1825.623a3.635,3.635,0,0,0-3.472,2.593Z" transform="translate(-113.947 -106.982)" fill="#fad240"/>
    <path id="Path_883" data-name="Path 883" d="M1833.781,1202.9h-8.237a3.645,3.645,0,0,0-3.643,3.645v10.342a3.643,3.643,0,0,0,3.643,3.642h8.237Z" transform="translate(-113.867 -106.982)" fill="#fcb227"/>
    <path id="Path_884" data-name="Path 884" d="M1822.151,1224.93a3.632,3.632,0,0,0,3.472,2.593h116.844a3.63,3.63,0,0,0,3.472-2.593Z" transform="translate(-113.947 -113.98)" fill="#fcb227"/>
    <rect id="Rectangle_193" data-name="Rectangle 193" width="8.982" height="15.039" transform="translate(1803.541 1095.914)" fill="#fad240"/>
    <path id="Path_885" data-name="Path 885" d="M1825.544,1220.526h2.3V1202.9h-2.3a3.645,3.645,0,0,0-3.643,3.645v10.342A3.643,3.643,0,0,0,1825.544,1220.526Z" transform="translate(-113.867 -106.982)" fill="#f99d2a"/>
    <path id="Path_886" data-name="Path 886" d="M1951.938,1254.58h-115.7a4.214,4.214,0,0,0-4.214,4.214v9.2a4.216,4.216,0,0,0,4.214,4.217h115.7a4.217,4.217,0,0,0,4.217-4.217v-9.2A4.214,4.214,0,0,0,1951.938,1254.58Z" transform="translate(-117.082 -123.396)" fill="#fdbf3f"/>
    <path id="Path_887" data-name="Path 887" d="M2003.65,1272.209h-.572a4.217,4.217,0,0,0,4.217-4.217v-9.2a4.211,4.211,0,0,0-.324-1.621h.151a3.633,3.633,0,0,0-3.392-2.593,3.645,3.645,0,0,1,3.566,3.642v10.342A3.645,3.645,0,0,1,2003.65,1272.209Z" transform="translate(-168.223 -123.396)" fill="#fcd873"/>
    <path id="Path_888" data-name="Path 888" d="M1981.114,1273.416h-57.221V1258.38h32.813v12.443h8.982V1258.38h19.318a4.207,4.207,0,0,1,.324,1.621v9.2A4.217,4.217,0,0,1,1981.114,1273.416Z" transform="translate(-146.258 -124.603)" fill="#fec63f"/>
    <path id="Path_889" data-name="Path 889" d="M1956.062,1257.173a3.627,3.627,0,0,0-3.472-2.593H1835.748a3.627,3.627,0,0,0-3.472,2.593Z" transform="translate(-117.162 -123.396)" fill="#fad240"/>
    <path id="Path_890" data-name="Path 890" d="M1843.905,1254.58h-8.238a3.643,3.643,0,0,0-3.645,3.642v10.342a3.645,3.645,0,0,0,3.645,3.645h8.238Z" transform="translate(-117.082 -123.396)" fill="#fcb227"/>
    <path id="Path_891" data-name="Path 891" d="M1832.276,1276.613a3.631,3.631,0,0,0,3.472,2.593H1952.59a3.631,3.631,0,0,0,3.472-2.593Z" transform="translate(-117.162 -130.393)" fill="#fcb227"/>
    <rect id="Rectangle_194" data-name="Rectangle 194" width="8.982" height="15.036" transform="translate(1810.448 1131.184)" fill="#fad240"/>
    <path id="Path_892" data-name="Path 892" d="M1835.667,1272.209h2.295V1254.58h-2.295a3.643,3.643,0,0,0-3.645,3.642v10.342A3.645,3.645,0,0,0,1835.667,1272.209Z" transform="translate(-117.082 -123.396)" fill="#f99d2a"/>
    <path id="Path_893" data-name="Path 893" d="M1934.529,1228.747h-115.7a4.212,4.212,0,0,0-4.214,4.214v9.2a4.214,4.214,0,0,0,4.214,4.217h115.7a4.216,4.216,0,0,0,4.214-4.217v-9.2A4.214,4.214,0,0,0,1934.529,1228.747Z" transform="translate(-111.553 -115.192)" fill="#fdbf3f"/>
    <path id="Path_894" data-name="Path 894" d="M1990.906,1246.376h-.572a4.216,4.216,0,0,0,4.214-4.217v-9.2a4.214,4.214,0,0,0-4.214-4.214h.572a3.642,3.642,0,0,1,3.642,3.642v10.342A3.644,3.644,0,0,1,1990.906,1246.376Z" transform="translate(-167.359 -115.192)" fill="#fcd873"/>
    <path id="Path_895" data-name="Path 895" d="M1989.256,1254.58h0Z" transform="translate(-165.709 -123.396)" fill="#fccc40"/>
    <path id="Path_896" data-name="Path 896" d="M1963.706,1246.376h-57.221v-17.629h57.221a4.214,4.214,0,0,1,4.214,4.214v9.2A4.216,4.216,0,0,1,1963.706,1246.376Z" transform="translate(-140.73 -115.192)" fill="#fec63f"/>
    <path id="Path_897" data-name="Path 897" d="M1938.652,1231.337a3.633,3.633,0,0,0-3.472-2.59H1818.336a3.633,3.633,0,0,0-3.472,2.59Z" transform="translate(-111.632 -115.192)" fill="#fad240"/>
    <path id="Path_898" data-name="Path 898" d="M1826.494,1228.747h-8.237a3.64,3.64,0,0,0-3.642,3.642v10.342a3.643,3.643,0,0,0,3.642,3.645h8.237Z" transform="translate(-111.553 -115.192)" fill="#fcb227"/>
    <path id="Path_899" data-name="Path 899" d="M1814.864,1250.78a3.636,3.636,0,0,0,3.472,2.593H1935.18a3.636,3.636,0,0,0,3.472-2.593Z" transform="translate(-111.632 -122.189)" fill="#fcb227"/>
    <rect id="Rectangle_195" data-name="Rectangle 195" width="8.982" height="15.039" transform="translate(1798.565 1113.552)" fill="#fad240"/>
    <path id="Path_900" data-name="Path 900" d="M1818.256,1246.376h2.3v-17.629h-2.3a3.64,3.64,0,0,0-3.642,3.642v10.342A3.643,3.643,0,0,0,1818.256,1246.376Z" transform="translate(-111.553 -115.192)" fill="#f99d2a"/>
    <path id="Path_901" data-name="Path 901" d="M2182.922,928.1a62.075,62.075,0,1,1-62.077-62.075A62.077,62.077,0,0,1,2182.922,928.1Z" transform="translate(-189.093)" fill="#fad240"/>
    <path id="Path_902" data-name="Path 902" d="M2195.464,928.1a62.068,62.068,0,0,1-29.893,53.1,62.07,62.07,0,0,0-67.332-104.228,62.044,62.044,0,0,1,97.225,51.13Z" transform="translate(-201.627)" fill="#fde8a3"/>
    <path id="Path_903" data-name="Path 903" d="M2174.912,935.075a47.1,47.1,0,1,1-47.1-47.1A47.1,47.1,0,0,1,2174.912,935.075Z" transform="translate(-196.063 -6.971)" fill="#fcb227"/>
    <path id="Path_904" data-name="Path 904" d="M2176.432,933.752h-5.687a44.254,44.254,0,1,1-12.963-31.292,44.112,44.112,0,0,1,12.963,31.292h5.687a49.94,49.94,0,1,0-49.942,49.939A49.941,49.941,0,0,0,2176.432,933.752Z" transform="translate(-194.74 -5.648)" fill="#fcb227"/>
    <path id="Path_905" data-name="Path 905" d="M2058.76,932.274a62.068,62.068,0,0,1,29.89-53.1,62.072,62.072,0,0,0,67.332,104.231,62.042,62.042,0,0,1-97.222-51.133Z" transform="translate(-189.089 -4.175)" fill="#fdbf3f"/>
    <path id="Path_906" data-name="Path 906" d="M2148.479,959.2a5.208,5.208,0,0,0,1.4-3.793q0-3.391-5.081-6.042v11.789A7.208,7.208,0,0,0,2148.479,959.2Zm-10.76-28.258q0,2.875,3.836,5.232V925.856A4.9,4.9,0,0,0,2137.72,930.94Zm16.949,11.459a14.356,14.356,0,0,1,4.532,4.973,16.047,16.047,0,0,1,1.806,8.033,14.619,14.619,0,0,1-1.88,7.259,15.121,15.121,0,0,1-5.564,5.562,20.242,20.242,0,0,1-8.766,2.653v4.493h-6.19v-4.643a30.567,30.567,0,0,1-14.734-5.6l4.717-8.326a27.654,27.654,0,0,0,10.017,4.422V946.71a25.34,25.34,0,0,1-8.692-5.673q-3.246-3.391-3.241-9.284a14.842,14.842,0,0,1,4.012-10.686,17.6,17.6,0,0,1,10.87-5.081v-4.865h6.19v4.936a25.7,25.7,0,0,1,7.441,1.658,37.684,37.684,0,0,1,6.332,3.352l-4.052,8.178a32.731,32.731,0,0,0-9.722-3.682v13.483l.367.148A31.375,31.375,0,0,1,2154.669,942.4Z" transform="translate(-209.768 -14.32)" fill="#f99d2a"/>
    <path id="Path_907" data-name="Path 907" d="M2145.4,956.79a5.212,5.212,0,0,0,1.4-3.8q0-3.387-5.087-6.042V958.74A7.194,7.194,0,0,0,2145.4,956.79Zm-10.76-28.258q0,2.875,3.836,5.232V923.448A4.9,4.9,0,0,0,2134.644,928.532Zm16.95,11.459a14.322,14.322,0,0,1,4.527,4.973,16.017,16.017,0,0,1,1.808,8.03,14.588,14.588,0,0,1-1.877,7.259,15.156,15.156,0,0,1-5.567,5.565,20.189,20.189,0,0,1-8.766,2.65v4.5h-6.19V968.32a30.585,30.585,0,0,1-14.735-5.6l4.717-8.328a27.787,27.787,0,0,0,10.017,4.424V944.3a25.336,25.336,0,0,1-8.692-5.675q-3.246-3.387-3.241-9.284a14.831,14.831,0,0,1,4.015-10.683,17.6,17.6,0,0,1,10.87-5.084v-4.862h6.187v4.936a25.585,25.585,0,0,1,7.441,1.658,37.707,37.707,0,0,1,6.335,3.352l-4.052,8.178a32.671,32.671,0,0,0-9.725-3.682v13.481l.367.151A31.4,31.4,0,0,1,2151.593,939.991Z" transform="translate(-208.79 -13.555)" fill="#fad240"/>
    <path id="Path_908" data-name="Path 908" d="M2182.922,928.871a62.075,62.075,0,1,1-62.077-62.075A62.077,62.077,0,0,1,2182.922,928.871Z" transform="translate(-189.093 -0.243)" fill="#fad240"/>
    <path id="Path_909" data-name="Path 909" d="M2195.464,928.865a62.068,62.068,0,0,1-29.893,53.1,62.07,62.07,0,0,0-67.332-104.228,62.044,62.044,0,0,1,97.225,51.13Z" transform="translate(-201.627 -0.243)" fill="#fde8a3"/>
    <path id="Path_910" data-name="Path 910" d="M2174.912,935.842a47.1,47.1,0,1,1-47.1-47.1A47.1,47.1,0,0,1,2174.912,935.842Z" transform="translate(-196.063 -7.214)" fill="#fcb227"/>
    <path id="Path_911" data-name="Path 911" d="M2176.432,934.519h-5.687a44.255,44.255,0,1,1-12.963-31.292,44.112,44.112,0,0,1,12.963,31.292h5.687a49.94,49.94,0,1,0-49.942,49.939A49.939,49.939,0,0,0,2176.432,934.519Z" transform="translate(-194.74 -5.891)" fill="#fcb227"/>
    <path id="Path_912" data-name="Path 912" d="M2058.76,933.04a62.068,62.068,0,0,1,29.89-53.1,62.072,62.072,0,0,0,67.332,104.231,62.042,62.042,0,0,1-97.222-51.133Z" transform="translate(-189.089 -4.418)" fill="#fdbf3f"/>
    <path id="Path_913" data-name="Path 913" d="M2129.137,998.9a44.709,44.709,0,0,1-8.24-.765l-35.244-35.247a44.7,44.7,0,0,1-.267-14.917l50.428,50.428A44.5,44.5,0,0,1,2129.137,998.9Z" transform="translate(-197.386 -26.024)" fill="#febd30"/>
    <path id="Path_914" data-name="Path 914" d="M2127.807,1000.608a45.1,45.1,0,0,1-4.868-.247L2119.577,997a44.775,44.775,0,0,0,14.917.264l2.454,2.457A46.532,46.532,0,0,1,2127.807,1000.608Zm-43.473-38.855-3.355-3.352v-.026a45.139,45.139,0,0,1-.247-4.868,46.331,46.331,0,0,1,.887-9.119l2.448,2.448a44.673,44.673,0,0,0,.268,14.917Z" transform="translate(-196.067 -24.885)" fill="#febd30"/>
    <path id="Path_915" data-name="Path 915" d="M2153.359,979l-60.241-60.224a44.494,44.494,0,0,1,14.911-15.767l61.094,61.074A44.457,44.457,0,0,1,2153.359,979Z" transform="translate(-200.001 -11.744)" fill="#febd30"/>
    <path id="Path_916" data-name="Path 916" d="M2154.467,980.122l-2.078-2.076a44.459,44.459,0,0,0,15.764-14.917l2.047,2.044A47.156,47.156,0,0,1,2154.467,980.122Zm-62.319-62.3-2.084-2.081a46.88,46.88,0,0,1,14.945-15.733l2.05,2.047a44.492,44.492,0,0,0-14.911,15.767Z" transform="translate(-199.031 -10.791)" fill="#febd30"/>
    <path id="Path_917" data-name="Path 917" d="M2186.222,949.858l-55.117-55.094a44.643,44.643,0,0,1,18.65-1.456l37.92,37.917a44.941,44.941,0,0,1,.4,5.94A44.2,44.2,0,0,1,2186.222,949.858Z" transform="translate(-212.065 -8.538)" fill="#febd30"/>
    <path id="Path_918" data-name="Path 918" d="M2187.415,950.78l-2.249-2.249a44.2,44.2,0,0,0,1.848-12.693,44.983,44.983,0,0,0-.4-5.94l3.156,3.156c.048.936.074,1.845.074,2.778A47.074,47.074,0,0,1,2187.415,950.78Zm-57.366-57.343-2.272-2.272a47.1,47.1,0,0,1,14.971-2.431c.936,0,1.845.023,2.778.071l3.173,3.176a44.643,44.643,0,0,0-18.65,1.456Z" transform="translate(-211.008 -7.21)" fill="#febd30"/>
    <path id="Path_919" data-name="Path 919" d="M2148.479,959.965a5.21,5.21,0,0,0,1.4-3.8q0-3.386-5.081-6.042v11.792A7.208,7.208,0,0,0,2148.479,959.965Zm-10.76-28.258q0,2.875,3.836,5.232V926.623A4.9,4.9,0,0,0,2137.72,931.707Zm16.949,11.459a14.331,14.331,0,0,1,4.532,4.973,16.043,16.043,0,0,1,1.806,8.03,14.637,14.637,0,0,1-1.88,7.262,15.134,15.134,0,0,1-5.562,5.562,20.267,20.267,0,0,1-8.769,2.653v4.493h-6.187v-4.643a30.584,30.584,0,0,1-14.737-5.6l4.717-8.325a27.706,27.706,0,0,0,10.02,4.421V947.476a25.344,25.344,0,0,1-8.7-5.675q-3.246-3.387-3.241-9.281a14.842,14.842,0,0,1,4.012-10.685,17.6,17.6,0,0,1,10.87-5.084v-4.862h6.19v4.936a25.693,25.693,0,0,1,7.441,1.658,37.679,37.679,0,0,1,6.332,3.352l-4.052,8.178a32.729,32.729,0,0,0-9.722-3.682v13.481l.367.151A31.375,31.375,0,0,1,2154.669,943.166Z" transform="translate(-209.768 -14.564)" fill="#f99d2a"/>
    <path id="Path_920" data-name="Path 920" d="M2145.4,957.556a5.212,5.212,0,0,0,1.4-3.8q0-3.387-5.087-6.042v11.789A7.194,7.194,0,0,0,2145.4,957.556Zm-10.76-28.258q0,2.875,3.836,5.232V924.214A4.9,4.9,0,0,0,2134.644,929.3Zm16.95,11.459a14.321,14.321,0,0,1,4.527,4.973,16.009,16.009,0,0,1,1.808,8.03,14.619,14.619,0,0,1-1.877,7.259,15.13,15.13,0,0,1-5.567,5.562,20.191,20.191,0,0,1-8.766,2.653v4.5h-6.19v-4.643a30.613,30.613,0,0,1-14.735-5.6l4.717-8.328a27.714,27.714,0,0,0,10.017,4.422V945.068a25.378,25.378,0,0,1-8.692-5.675q-3.246-3.386-3.241-9.284a14.843,14.843,0,0,1,4.015-10.686,17.608,17.608,0,0,1,10.87-5.081V909.48h6.187v4.933a25.677,25.677,0,0,1,7.441,1.661,37.884,37.884,0,0,1,6.335,3.35l-4.052,8.18a32.667,32.667,0,0,0-9.725-3.682V937.4l.367.151A31.406,31.406,0,0,1,2151.593,940.757Z" transform="translate(-208.79 -13.799)" fill="#fad240"/>
    <path id="Path_921" data-name="Path 921" d="M2178.495,1512.964h-115.7a4.217,4.217,0,0,0-4.217,4.217v9.2a4.217,4.217,0,0,0,4.217,4.217h115.7a4.216,4.216,0,0,0,4.214-4.217v-9.2A4.216,4.216,0,0,0,2178.495,1512.964Z" transform="translate(-189.031 -205.454)" fill="#fdbf3f"/>
    <path id="Path_922" data-name="Path 922" d="M2238.817,1520.483v-3.3a4.173,4.173,0,0,0-.324-1.624h.153a3.637,3.637,0,0,0-3.395-2.59,3.641,3.641,0,0,1,3.566,3.642Z" transform="translate(-245.14 -205.455)" fill="#fcd873"/>
    <path id="Path_923" data-name="Path 923" d="M2208.243,1534.094h-.572a4.216,4.216,0,0,0,4.214-4.217v.572A3.645,3.645,0,0,1,2208.243,1534.094Z" transform="translate(-218.208 -208.953)" fill-rule="evenodd" fill="url(#linear-gradient-4)"/>
    <path id="Path_924" data-name="Path 924" d="M2207.671,1531.8h-57.224v-15.039h32.813v12.446h8.982v-12.446h19.318a4.177,4.177,0,0,1,.324,1.624v9.2A4.216,4.216,0,0,1,2207.671,1531.8Z" transform="translate(-218.208 -206.661)" fill="#fec63f"/>
    <path id="Path_925" data-name="Path 925" d="M2182.619,1515.557a3.636,3.636,0,0,0-3.472-2.593H2062.3a3.633,3.633,0,0,0-3.472,2.593Z" transform="translate(-189.112 -205.454)" fill="#fad240"/>
    <path id="Path_926" data-name="Path 926" d="M2070.459,1512.964h-8.237a3.645,3.645,0,0,0-3.645,3.645v10.341a3.643,3.643,0,0,0,3.645,3.643h8.237Z" transform="translate(-189.031 -205.454)" fill="#fcb227"/>
    <path id="Path_927" data-name="Path 927" d="M2058.831,1535a3.631,3.631,0,0,0,3.472,2.59h116.844a3.627,3.627,0,0,0,3.469-2.59Z" transform="translate(-189.112 -212.452)" fill="#fcb227"/>
    <rect id="Rectangle_196" data-name="Rectangle 196" width="8.982" height="15.039" transform="translate(1965.053 1307.51)" fill="#fad240"/>
    <path id="Path_928" data-name="Path 928" d="M2062.222,1530.593h2.3v-17.629h-2.3a3.645,3.645,0,0,0-3.645,3.645v10.341A3.643,3.643,0,0,0,2062.222,1530.593Z" transform="translate(-189.031 -205.454)" fill="#f99d2a"/>
    <path id="Path_929" data-name="Path 929" d="M2170.729,1487.13h-115.7a4.215,4.215,0,0,0-4.214,4.214v9.2a4.214,4.214,0,0,0,4.214,4.214h115.7a4.215,4.215,0,0,0,4.217-4.214v-9.2A4.216,4.216,0,0,0,2170.729,1487.13Z" transform="translate(-186.566 -197.25)" fill="#fdbf3f"/>
    <path id="Path_930" data-name="Path 930" d="M2227.106,1511.033h-.571a4.213,4.213,0,0,0,4.214-4.149v.506A3.64,3.64,0,0,1,2227.106,1511.033Z" transform="translate(-242.371 -203.523)" fill="#fcd873"/>
    <path id="Path_931" data-name="Path 931" d="M2222.393,1512.964h0Z" transform="translate(-237.658 -205.454)" fill="#fccc40"/>
    <path id="Path_932" data-name="Path 932" d="M2231.015,1491.279a4.172,4.172,0,0,0-.321-1.555h.151a3.63,3.63,0,0,0-3.392-2.59,3.639,3.639,0,0,1,3.563,3.642Zm-3.566-4.146a.147.147,0,0,0-.034,0A.147.147,0,0,1,2227.449,1487.133Zm-.04,0h0Z" transform="translate(-242.637 -197.25)" fill="#fcd873"/>
    <path id="Path_933" data-name="Path 933" d="M2199.906,1505.966h-57.221V1490.93H2175.5v12.443h8.982V1490.93H2203.8a4.176,4.176,0,0,1,.321,1.555v9.332A4.213,4.213,0,0,1,2199.906,1505.966Z" transform="translate(-215.742 -198.456)" fill="#fec63f"/>
    <path id="Path_934" data-name="Path 934" d="M2174.854,1489.724a3.631,3.631,0,0,0-3.472-2.593H2054.54a3.63,3.63,0,0,0-3.472,2.593Z" transform="translate(-186.647 -197.25)" fill="#fad240"/>
    <path id="Path_935" data-name="Path 935" d="M2062.7,1487.13h-8.238a3.645,3.645,0,0,0-3.645,3.645v10.342a3.643,3.643,0,0,0,3.645,3.642h8.238Z" transform="translate(-186.566 -197.25)" fill="#fcb227"/>
    <path id="Path_936" data-name="Path 936" d="M2051.068,1509.164a3.627,3.627,0,0,0,3.472,2.593h116.842a3.627,3.627,0,0,0,3.472-2.593Z" transform="translate(-186.647 -204.247)" fill="#fcb227"/>
    <rect id="Rectangle_197" data-name="Rectangle 197" width="8.982" height="15.036" transform="translate(1959.756 1289.881)" fill="#fad240"/>
    <path id="Path_937" data-name="Path 937" d="M2054.459,1504.759h2.295V1487.13h-2.295a3.645,3.645,0,0,0-3.645,3.645v10.342A3.643,3.643,0,0,0,2054.459,1504.759Z" transform="translate(-186.566 -197.25)" fill="#f99d2a"/>
    <path id="Path_938" data-name="Path 938" d="M2180.017,1461.3h-115.7a4.214,4.214,0,0,0-4.214,4.214v9.2a4.212,4.212,0,0,0,4.214,4.214h115.7a4.214,4.214,0,0,0,4.214-4.214v-9.2A4.215,4.215,0,0,0,2180.017,1461.3Z" transform="translate(-189.515 -189.046)" fill="#fdbf3f"/>
    <path id="Path_939" data-name="Path 939" d="M2233.71,1478.927h-.572a4.214,4.214,0,0,0,4.214-4.214v-9.2a4.163,4.163,0,0,0-.324-1.621h.151a3.627,3.627,0,0,0-3.392-2.59,3.641,3.641,0,0,1,3.565,3.642v10.341A3.642,3.642,0,0,1,2233.71,1478.927Z" transform="translate(-242.637 -189.047)" fill="#fcd873"/>
    <path id="Path_940" data-name="Path 940" d="M2236.468,1461.3a.147.147,0,0,0-.034,0A.147.147,0,0,1,2236.468,1461.3Zm-.04,0h0Z" transform="translate(-245.321 -189.046)" fill="#fcd873"/>
    <path id="Path_941" data-name="Path 941" d="M2209.193,1480.133h-57.221V1465.1h32.81v12.443h8.982V1465.1h19.318a4.167,4.167,0,0,1,.324,1.621v9.2A4.214,4.214,0,0,1,2209.193,1480.133Z" transform="translate(-218.692 -190.252)" fill="#fec63f"/>
    <path id="Path_942" data-name="Path 942" d="M2184.137,1463.89a3.63,3.63,0,0,0-3.469-2.593H2063.823a3.633,3.633,0,0,0-3.472,2.593Z" transform="translate(-189.595 -189.046)" fill="#fad240"/>
    <path id="Path_943" data-name="Path 943" d="M2071.98,1461.3h-8.237a3.645,3.645,0,0,0-3.645,3.645v10.342a3.643,3.643,0,0,0,3.645,3.642h8.237Z" transform="translate(-189.514 -189.046)" fill="#fcb227"/>
    <path id="Path_944" data-name="Path 944" d="M2060.352,1483.33a3.63,3.63,0,0,0,3.472,2.593h116.844a3.626,3.626,0,0,0,3.469-2.593Z" transform="translate(-189.595 -196.043)" fill="#fcb227"/>
    <rect id="Rectangle_198" data-name="Rectangle 198" width="8.982" height="15.036" transform="translate(1966.091 1272.251)" fill="#fad240"/>
    <path id="Path_945" data-name="Path 945" d="M2063.743,1478.926h2.3V1461.3h-2.3a3.645,3.645,0,0,0-3.645,3.645v10.342A3.643,3.643,0,0,0,2063.743,1478.926Z" transform="translate(-189.514 -189.046)" fill="#f99d2a"/>
    <path id="Path_946" data-name="Path 946" d="M2171.655,1435.464h-115.7a4.214,4.214,0,0,0-4.214,4.214v9.2a4.212,4.212,0,0,0,4.214,4.214h115.7a4.214,4.214,0,0,0,4.214-4.214v-9.2A4.216,4.216,0,0,0,2171.655,1435.464Z" transform="translate(-186.86 -180.841)" fill="#fdbf3f"/>
    <path id="Path_947" data-name="Path 947" d="M2223.508,1453.093h-.572a4.214,4.214,0,0,0,4.214-4.214v-9.2a4.16,4.16,0,0,0-.324-1.621h.154a3.637,3.637,0,0,0-3.4-2.593,3.645,3.645,0,0,1,3.566,3.642v10.344A3.644,3.644,0,0,1,2223.508,1453.093Z" transform="translate(-238.141 -180.841)" fill="#fcd873"/>
    <path id="Path_948" data-name="Path 948" d="M2200.831,1454.3H2143.61v-15.036h32.81v12.443h8.982v-12.443h19.318a4.157,4.157,0,0,1,.324,1.621v9.2A4.214,4.214,0,0,1,2200.831,1454.3Z" transform="translate(-216.036 -182.048)" fill="#fec63f"/>
    <path id="Path_949" data-name="Path 949" d="M2175.777,1438.057a3.636,3.636,0,0,0-3.472-2.593H2055.461a3.636,3.636,0,0,0-3.472,2.593Z" transform="translate(-186.939 -180.841)" fill="#fad240"/>
    <path id="Path_950" data-name="Path 950" d="M2063.619,1435.464h-8.237a3.642,3.642,0,0,0-3.643,3.642v10.344a3.642,3.642,0,0,0,3.643,3.642h8.237Z" transform="translate(-186.86 -180.841)" fill="#fcb227"/>
    <path id="Path_951" data-name="Path 951" d="M2051.989,1457.5a3.633,3.633,0,0,0,3.472,2.593h116.844a3.636,3.636,0,0,0,3.472-2.593Z" transform="translate(-186.939 -187.839)" fill="#fcb227"/>
    <rect id="Rectangle_199" data-name="Rectangle 199" width="8.982" height="15.036" transform="translate(1960.384 1254.622)" fill="#fad240"/>
    <path id="Path_952" data-name="Path 952" d="M2055.382,1453.093h2.3v-17.629h-2.3a3.642,3.642,0,0,0-3.643,3.642v10.344A3.642,3.642,0,0,0,2055.382,1453.093Z" transform="translate(-186.86 -180.841)" fill="#f99d2a"/>
    <path id="Path_953" data-name="Path 953" d="M2193.688,1357.951h-115.7a4.212,4.212,0,0,0-4.214,4.214v9.2a4.215,4.215,0,0,0,4.214,4.217h115.7a4.214,4.214,0,0,0,4.214-4.217v-9.2A4.212,4.212,0,0,0,2193.688,1357.951Z" transform="translate(-193.857 -156.225)" fill="#fdbf3f"/>
    <path id="Path_954" data-name="Path 954" d="M2250.065,1375.58h0Zm.04,0a.154.154,0,0,1,.037,0A.154.154,0,0,0,2250.1,1375.58Zm.04,0a3.631,3.631,0,0,0,3.392-2.59h-.151a4.22,4.22,0,0,0,.321-1.624v-9.2a4.231,4.231,0,0,0-.321-1.624h.151a3.634,3.634,0,0,0-3.392-2.59,3.643,3.643,0,0,1,3.563,3.642v10.341A3.643,3.643,0,0,1,2250.145,1375.577Zm0-17.626h0Zm-.043,0h0Z" transform="translate(-249.663 -156.225)" fill="#fcd873"/>
    <path id="Path_955" data-name="Path 955" d="M2226.757,1374.193h-19.318v-12.446h19.318a4.23,4.23,0,0,1,.321,1.624v9.2A4.22,4.22,0,0,1,2226.757,1374.193Zm-28.3,0h-32.813v-12.446h32.813Z" transform="translate(-223.033 -157.43)" fill="#fec63f"/>
    <path id="Path_956" data-name="Path 956" d="M2197.811,1360.541a3.631,3.631,0,0,0-3.472-2.59H2077.494a3.633,3.633,0,0,0-3.472,2.59Z" transform="translate(-193.936 -156.225)" fill="#fad240"/>
    <path id="Path_957" data-name="Path 957" d="M2085.652,1357.951h-8.237a3.642,3.642,0,0,0-3.642,3.642v10.341a3.645,3.645,0,0,0,3.642,3.645h8.237Z" transform="translate(-193.857 -156.225)" fill="#fcb227"/>
    <path id="Path_958" data-name="Path 958" d="M2074.022,1379.984a3.636,3.636,0,0,0,3.472,2.593h116.844a3.633,3.633,0,0,0,3.472-2.593Z" transform="translate(-193.936 -163.222)" fill="#fcb227"/>
    <rect id="Rectangle_200" data-name="Rectangle 200" width="8.982" height="15.036" transform="translate(1975.423 1201.726)" fill="#fad240"/>
    <path id="Path_959" data-name="Path 959" d="M2077.415,1375.58h2.3v-17.629h-2.3a3.642,3.642,0,0,0-3.642,3.642v10.341A3.645,3.645,0,0,0,2077.415,1375.58Z" transform="translate(-193.857 -156.225)" fill="#f99d2a"/>
    <path id="Path_960" data-name="Path 960" d="M2176.638,1332.114h-115.7a4.216,4.216,0,0,0-4.214,4.217v9.2a4.216,4.216,0,0,0,4.214,4.217h115.7a4.217,4.217,0,0,0,4.217-4.217v-9.2A4.217,4.217,0,0,0,2176.638,1332.114Z" transform="translate(-188.442 -148.019)" fill="#fdbf3f"/>
    <path id="Path_961" data-name="Path 961" d="M2233.015,1349.747h-.572a4.217,4.217,0,0,0,4.217-4.217v-9.2a4.221,4.221,0,0,0-.324-1.624h.151a3.634,3.634,0,0,0-3.392-2.59,3.641,3.641,0,0,1,3.565,3.642V1346.1A3.645,3.645,0,0,1,2233.015,1349.747Z" transform="translate(-244.248 -148.021)" fill="#fcd873"/>
    <path id="Path_962" data-name="Path 962" d="M2231.251,1357.951h0Z" transform="translate(-242.484 -156.225)" fill="#fccc40"/>
    <path id="Path_963" data-name="Path 963" d="M2205.814,1350.952h-57.221v-15.039h32.813v12.446h8.982v-12.446h19.318a4.221,4.221,0,0,1,.324,1.624v9.2A4.217,4.217,0,0,1,2205.814,1350.952Z" transform="translate(-217.619 -149.226)" fill="#fec63f"/>
    <path id="Path_964" data-name="Path 964" d="M2233.358,1332.116l-.034,0Zm-.04,0h0Z" transform="translate(-244.514 -148.019)" fill="#fcd873"/>
    <path id="Path_965" data-name="Path 965" d="M2180.762,1334.707a3.634,3.634,0,0,0-3.472-2.593H2060.448a3.63,3.63,0,0,0-3.472,2.593Z" transform="translate(-188.523 -148.019)" fill="#fad240"/>
    <path id="Path_966" data-name="Path 966" d="M2068.6,1332.114h-8.238a3.645,3.645,0,0,0-3.645,3.645V1346.1a3.645,3.645,0,0,0,3.645,3.645h8.238Z" transform="translate(-188.442 -148.019)" fill="#fcb227"/>
    <path id="Path_967" data-name="Path 967" d="M2056.977,1354.151a3.63,3.63,0,0,0,3.472,2.593H2177.29a3.631,3.631,0,0,0,3.472-2.593Z" transform="translate(-188.523 -155.018)" fill="#fcb227"/>
    <rect id="Rectangle_201" data-name="Rectangle 201" width="8.982" height="15.039" transform="translate(1963.788 1184.094)" fill="#fad240"/>
    <path id="Path_968" data-name="Path 968" d="M2060.367,1349.745h2.295v-17.632h-2.295a3.645,3.645,0,0,0-3.645,3.645V1346.1A3.645,3.645,0,0,0,2060.367,1349.745Z" transform="translate(-188.442 -148.019)" fill="#f99d2a"/>
    <path id="Path_969" data-name="Path 969" d="M2184.4,1306.28H2068.7a4.214,4.214,0,0,0-4.214,4.214v9.2a4.212,4.212,0,0,0,4.214,4.214h115.7a4.214,4.214,0,0,0,4.214-4.214v-9.2A4.216,4.216,0,0,0,2184.4,1306.28Z" transform="translate(-190.909 -139.815)" fill="#fdbf3f"/>
    <path id="Path_970" data-name="Path 970" d="M2238.581,1323.909h-.571a4.214,4.214,0,0,0,4.214-4.214v-9.2a4.222,4.222,0,0,0-.324-1.621h.15a3.63,3.63,0,0,0-3.392-2.593,3.646,3.646,0,0,1,3.565,3.645v10.342A3.642,3.642,0,0,1,2238.581,1323.909Z" transform="translate(-244.514 -139.815)" fill="#fcd873"/>
    <path id="Path_971" data-name="Path 971" d="M2213.581,1325.116H2156.36V1310.08h32.81v12.443h8.982V1310.08h19.319a4.226,4.226,0,0,1,.324,1.621v9.2A4.214,4.214,0,0,1,2213.581,1325.116Z" transform="translate(-220.085 -141.022)" fill="#fec63f"/>
    <path id="Path_972" data-name="Path 972" d="M2188.524,1308.873a3.63,3.63,0,0,0-3.469-2.593H2068.211a3.633,3.633,0,0,0-3.472,2.593Z" transform="translate(-190.988 -139.815)" fill="#fad240"/>
    <path id="Path_973" data-name="Path 973" d="M2076.369,1306.28h-8.238a3.643,3.643,0,0,0-3.643,3.645v10.342a3.64,3.64,0,0,0,3.643,3.642h8.238Z" transform="translate(-190.909 -139.815)" fill="#fcb227"/>
    <path id="Path_974" data-name="Path 974" d="M2064.739,1328.313a3.63,3.63,0,0,0,3.472,2.593h116.844a3.626,3.626,0,0,0,3.469-2.593Z" transform="translate(-190.988 -146.812)" fill="#fcb227"/>
    <rect id="Rectangle_202" data-name="Rectangle 202" width="8.982" height="15.036" transform="translate(1969.085 1166.465)" fill="#fad240"/>
    <path id="Path_975" data-name="Path 975" d="M2068.132,1323.909h2.3V1306.28h-2.3a3.643,3.643,0,0,0-3.643,3.645v10.342A3.64,3.64,0,0,0,2068.132,1323.909Z" transform="translate(-190.909 -139.815)" fill="#f99d2a"/>
    <path id="Path_976" data-name="Path 976" d="M2194.02,1409.63h-115.7a4.216,4.216,0,0,0-4.217,4.214v9.2a4.216,4.216,0,0,0,4.217,4.214h115.7a4.216,4.216,0,0,0,4.214-4.214v-9.2A4.216,4.216,0,0,0,2194.02,1409.63Z" transform="translate(-193.961 -172.637)" fill="#fdbf3f"/>
    <path id="Path_977" data-name="Path 977" d="M2243.558,1427.259h-.569a4.216,4.216,0,0,0,4.214-4.214v-9.2a4.2,4.2,0,0,0-.324-1.621h.151a3.633,3.633,0,0,0-3.392-2.593,3.645,3.645,0,0,1,3.566,3.642v10.344A3.644,3.644,0,0,1,2243.558,1427.259Z" transform="translate(-242.931 -172.637)" fill="#fcd873"/>
    <path id="Path_978" data-name="Path 978" d="M2223.2,1428.466h-57.224V1413.43h32.813v12.443h8.982V1413.43h19.318a4.207,4.207,0,0,1,.324,1.621v9.2A4.216,4.216,0,0,1,2223.2,1428.466Z" transform="translate(-223.138 -173.844)" fill="#fec63f"/>
    <path id="Path_979" data-name="Path 979" d="M2250.472,1409.63h0Zm-.04,0h0Z" transform="translate(-249.768 -172.637)" fill="#fcd873"/>
    <path id="Path_980" data-name="Path 980" d="M2198.141,1412.223a3.631,3.631,0,0,0-3.472-2.593H2077.828a3.633,3.633,0,0,0-3.472,2.593Z" transform="translate(-194.042 -172.637)" fill="#fad240"/>
    <path id="Path_981" data-name="Path 981" d="M2085.984,1409.63h-8.237a3.645,3.645,0,0,0-3.645,3.642v10.344a3.645,3.645,0,0,0,3.645,3.642h8.237Z" transform="translate(-193.961 -172.637)" fill="#fcb227"/>
    <path id="Path_982" data-name="Path 982" d="M2074.356,1431.664a3.631,3.631,0,0,0,3.472,2.593h116.842a3.631,3.631,0,0,0,3.472-2.593Z" transform="translate(-194.042 -179.634)" fill="#fcb227"/>
    <rect id="Rectangle_203" data-name="Rectangle 203" width="8.982" height="15.036" transform="translate(1975.647 1236.993)" fill="#fad240"/>
    <path id="Path_983" data-name="Path 983" d="M2077.747,1427.259h2.3V1409.63h-2.3a3.645,3.645,0,0,0-3.645,3.642v10.344A3.645,3.645,0,0,0,2077.747,1427.259Z" transform="translate(-193.961 -172.637)" fill="#f99d2a"/>
    <path id="Path_984" data-name="Path 984" d="M2176.608,1383.8h-115.7a4.212,4.212,0,0,0-4.214,4.214v9.2a4.214,4.214,0,0,0,4.214,4.214h115.7a4.214,4.214,0,0,0,4.214-4.214v-9.2A4.212,4.212,0,0,0,2176.608,1383.8Z" transform="translate(-188.433 -164.433)" fill="#fdbf3f"/>
    <path id="Path_985" data-name="Path 985" d="M2232.986,1401.426h-.572a4.214,4.214,0,0,0,4.214-4.214v-9.2a4.212,4.212,0,0,0-4.214-4.214h.572a3.64,3.64,0,0,1,3.642,3.642v10.342A3.643,3.643,0,0,1,2232.986,1401.426Z" transform="translate(-244.239 -164.433)" fill="#fcd873"/>
    <path id="Path_986" data-name="Path 986" d="M2231.336,1409.63h0Z" transform="translate(-242.588 -172.637)" fill="#fccc40"/>
    <path id="Path_987" data-name="Path 987" d="M2205.785,1401.426h-57.221V1383.8h57.221a4.212,4.212,0,0,1,4.214,4.214v9.2A4.214,4.214,0,0,1,2205.785,1401.426Z" transform="translate(-217.609 -164.433)" fill="#fec63f"/>
    <path id="Path_988" data-name="Path 988" d="M2180.731,1386.39a3.632,3.632,0,0,0-3.472-2.593H2060.415a3.632,3.632,0,0,0-3.472,2.593Z" transform="translate(-188.512 -164.433)" fill="#fad240"/>
    <path id="Path_989" data-name="Path 989" d="M2068.573,1383.8h-8.237a3.64,3.64,0,0,0-3.643,3.642v10.342a3.643,3.643,0,0,0,3.643,3.645h8.237Z" transform="translate(-188.433 -164.433)" fill="#fcb227"/>
    <path id="Path_990" data-name="Path 990" d="M2056.943,1405.83a3.636,3.636,0,0,0,3.472,2.593H2177.26a3.636,3.636,0,0,0,3.472-2.593Z" transform="translate(-188.512 -171.43)" fill="#fcb227"/>
    <rect id="Rectangle_204" data-name="Rectangle 204" width="8.982" height="15.036" transform="translate(1963.768 1219.364)" fill="#fad240"/>
    <path id="Path_991" data-name="Path 991" d="M2060.336,1401.426h2.3V1383.8h-2.3a3.64,3.64,0,0,0-3.643,3.642v10.342A3.643,3.643,0,0,0,2060.336,1401.426Z" transform="translate(-188.433 -164.433)" fill="#f99d2a"/>
    <path id="Path_992" data-name="Path 992" d="M2180.017,1177.893h-115.7a4.212,4.212,0,0,0-4.214,4.214v9.2a4.214,4.214,0,0,0,4.214,4.217h115.7a4.216,4.216,0,0,0,4.214-4.217v-9.2A4.214,4.214,0,0,0,2180.017,1177.893Z" transform="translate(-189.515 -99.042)" fill="#fdbf3f"/>
    <path id="Path_993" data-name="Path 993" d="M2236.66,1195.522h0Zm.04,0a.132.132,0,0,1,.034,0A.132.132,0,0,0,2236.7,1195.522Zm.037,0a3.628,3.628,0,0,0,3.392-2.59h-.151a4.167,4.167,0,0,0,.324-1.624v-9.2a4.177,4.177,0,0,0-.324-1.623h.151a3.631,3.631,0,0,0-3.392-2.59,3.643,3.643,0,0,1,3.565,3.642v10.341A3.641,3.641,0,0,1,2236.737,1195.519Z" transform="translate(-245.587 -99.042)" fill="#fcd873"/>
    <path id="Path_994" data-name="Path 994" d="M2213.083,1194.134h-19.318v-12.446h19.318a4.182,4.182,0,0,1,.324,1.624v9.2A4.17,4.17,0,0,1,2213.083,1194.134Zm-28.3,0h-32.81v-12.446h32.81Z" transform="translate(-218.692 -100.247)" fill="#fec63f"/>
    <path id="Path_995" data-name="Path 995" d="M2236.468,1177.893h0Zm-.04,0h0Z" transform="translate(-245.321 -99.042)" fill="#fcd873"/>
    <path id="Path_996" data-name="Path 996" d="M2184.137,1180.483a3.627,3.627,0,0,0-3.469-2.59H2063.823a3.631,3.631,0,0,0-3.472,2.59Z" transform="translate(-189.595 -99.042)" fill="#fad240"/>
    <path id="Path_997" data-name="Path 997" d="M2071.98,1177.888h-8.237a3.645,3.645,0,0,0-3.645,3.645v10.341a3.645,3.645,0,0,0,3.645,3.645h8.237Z" transform="translate(-189.514 -99.04)" fill="#fcb227"/>
    <path id="Path_998" data-name="Path 998" d="M2060.352,1199.926a3.633,3.633,0,0,0,3.472,2.593h116.844a3.63,3.63,0,0,0,3.469-2.593Z" transform="translate(-189.595 -106.039)" fill="#fcb227"/>
    <rect id="Rectangle_205" data-name="Rectangle 205" width="8.982" height="15.036" transform="translate(1966.091 1078.851)" fill="#fad240"/>
    <path id="Path_999" data-name="Path 999" d="M2063.743,1195.52h2.3v-17.632h-2.3a3.645,3.645,0,0,0-3.645,3.645v10.341A3.645,3.645,0,0,0,2063.743,1195.52Z" transform="translate(-189.514 -99.04)" fill="#f99d2a"/>
    <path id="Path_1000" data-name="Path 1000" d="M2171.655,1152.055h-115.7a4.215,4.215,0,0,0-4.214,4.217v9.2a4.215,4.215,0,0,0,4.214,4.217h115.7a4.216,4.216,0,0,0,4.214-4.217v-9.2A4.216,4.216,0,0,0,2171.655,1152.055Z" transform="translate(-186.86 -90.836)" fill="#fdbf3f"/>
    <path id="Path_1001" data-name="Path 1001" d="M2228.031,1169.688h-.571a4.216,4.216,0,0,0,4.214-4.217v-9.2a4.168,4.168,0,0,0-.324-1.624h.154a3.634,3.634,0,0,0-3.4-2.59,3.641,3.641,0,0,1,3.566,3.642v10.341A3.645,3.645,0,0,1,2228.031,1169.688Z" transform="translate(-242.665 -90.837)" fill="#fcd873"/>
    <path id="Path_1002" data-name="Path 1002" d="M2223.508,1177.893h0Z" transform="translate(-238.141 -99.042)" fill="#fccc40"/>
    <path id="Path_1003" data-name="Path 1003" d="M2228.372,1152.058l-.034,0Zm-.04,0h0Z" transform="translate(-242.931 -90.836)" fill="#fcd873"/>
    <path id="Path_1004" data-name="Path 1004" d="M2200.831,1170.894H2143.61v-15.039h32.81V1168.3h8.982v-12.443h19.318a4.172,4.172,0,0,1,.324,1.624v9.2A4.216,4.216,0,0,1,2200.831,1170.894Z" transform="translate(-216.036 -92.043)" fill="#fec63f"/>
    <path id="Path_1005" data-name="Path 1005" d="M2175.777,1154.648a3.636,3.636,0,0,0-3.472-2.593H2055.461a3.636,3.636,0,0,0-3.472,2.593Z" transform="translate(-186.939 -90.836)" fill="#fad240"/>
    <path id="Path_1006" data-name="Path 1006" d="M2063.619,1152.055h-8.237a3.643,3.643,0,0,0-3.643,3.645v10.341a3.641,3.641,0,0,0,3.643,3.642h8.237Z" transform="translate(-186.86 -90.836)" fill="#fcb227"/>
    <path id="Path_1007" data-name="Path 1007" d="M2051.989,1174.088a3.63,3.63,0,0,0,3.472,2.593h116.844a3.632,3.632,0,0,0,3.472-2.593Z" transform="translate(-186.939 -97.834)" fill="#fcb227"/>
    <rect id="Rectangle_206" data-name="Rectangle 206" width="8.982" height="15.036" transform="translate(1960.384 1061.219)" fill="#fad240"/>
    <path id="Path_1008" data-name="Path 1008" d="M2055.382,1169.684h2.3v-17.629h-2.3a3.643,3.643,0,0,0-3.643,3.645v10.341A3.641,3.641,0,0,0,2055.382,1169.684Z" transform="translate(-186.86 -90.836)" fill="#f99d2a"/>
    <path id="Path_1009" data-name="Path 1009" d="M2185.12,1074.555h-115.7a4.216,4.216,0,0,0-4.217,4.214v9.2a4.214,4.214,0,0,0,4.217,4.214h115.7a4.214,4.214,0,0,0,4.214-4.214v-9.2A4.216,4.216,0,0,0,2185.12,1074.555Z" transform="translate(-191.135 -66.224)" fill="#fdbf3f"/>
    <path id="Path_1010" data-name="Path 1010" d="M2241.5,1092.184h0Zm.043,0h0Zm.037,0a3.63,3.63,0,0,0,3.392-2.593h-.151a4.2,4.2,0,0,0,.324-1.621v-9.2a4.213,4.213,0,0,0-.324-1.621h.151a3.63,3.63,0,0,0-3.392-2.593,3.648,3.648,0,0,1,3.566,3.645v10.342A3.645,3.645,0,0,1,2241.575,1092.184Zm0-17.629h0Zm-.04,0h0Z" transform="translate(-246.942 -66.224)" fill="#fcd873"/>
    <path id="Path_1011" data-name="Path 1011" d="M2218.188,1090.8h-19.318v-12.443h19.318a4.217,4.217,0,0,1,.324,1.621v9.2A4.208,4.208,0,0,1,2218.188,1090.8Zm-28.3,0h-32.81v-12.443h32.81Z" transform="translate(-220.313 -67.43)" fill="#fec63f"/>
    <path id="Path_1012" data-name="Path 1012" d="M2189.241,1077.148a3.63,3.63,0,0,0-3.472-2.593H2068.927a3.63,3.63,0,0,0-3.472,2.593Z" transform="translate(-191.216 -66.224)" fill="#fad240"/>
    <path id="Path_1013" data-name="Path 1013" d="M2077.084,1074.555h-8.238a3.647,3.647,0,0,0-3.645,3.645v10.342a3.645,3.645,0,0,0,3.645,3.642h8.238Z" transform="translate(-191.135 -66.224)" fill="#fcb227"/>
    <path id="Path_1014" data-name="Path 1014" d="M2065.456,1096.588a3.63,3.63,0,0,0,3.472,2.593h116.842a3.63,3.63,0,0,0,3.472-2.593Z" transform="translate(-191.216 -73.221)" fill="#fcb227"/>
    <rect id="Rectangle_207" data-name="Rectangle 207" width="8.982" height="15.036" transform="translate(1969.574 1008.331)" fill="#fad240"/>
    <path id="Path_1015" data-name="Path 1015" d="M2068.847,1092.184h2.3v-17.629h-2.3a3.647,3.647,0,0,0-3.645,3.645v10.342A3.645,3.645,0,0,0,2068.847,1092.184Z" transform="translate(-191.135 -66.224)" fill="#f99d2a"/>
    <path id="Path_1016" data-name="Path 1016" d="M2176.757,1048.722h-115.7a4.216,4.216,0,0,0-4.217,4.214v9.2a4.216,4.216,0,0,0,4.217,4.211h115.7a4.215,4.215,0,0,0,4.214-4.211v-9.2A4.216,4.216,0,0,0,2176.757,1048.722Z" transform="translate(-188.479 -58.019)" fill="#fdbf3f"/>
    <path id="Path_1017" data-name="Path 1017" d="M2233.136,1066.351h-.506a4.215,4.215,0,0,0,4.148-4.211v-9.2a4.216,4.216,0,0,0-4.214-4.214h.572a3.643,3.643,0,0,1,3.643,3.642v10.341A3.645,3.645,0,0,1,2233.136,1066.351Z" transform="translate(-244.286 -58.019)" fill="#fcd873"/>
    <path id="Path_1018" data-name="Path 1018" d="M2206,1066.351H2148.71v-17.629h57.224a4.216,4.216,0,0,1,4.214,4.214v9.2A4.215,4.215,0,0,1,2206,1066.351Z" transform="translate(-217.656 -58.019)" fill="#fec63f"/>
    <path id="Path_1019" data-name="Path 1019" d="M2180.878,1051.315a3.629,3.629,0,0,0-3.469-2.593H2060.565a3.633,3.633,0,0,0-3.472,2.593Z" transform="translate(-188.56 -58.019)" fill="#fad240"/>
    <path id="Path_1020" data-name="Path 1020" d="M2068.722,1048.722h-8.238a3.643,3.643,0,0,0-3.645,3.642v10.344a3.645,3.645,0,0,0,3.645,3.642h8.238Z" transform="translate(-188.479 -58.019)" fill="#fcb227"/>
    <path id="Path_1021" data-name="Path 1021" d="M2057.093,1070.755a3.633,3.633,0,0,0,3.472,2.593h116.844a3.63,3.63,0,0,0,3.469-2.593Z" transform="translate(-188.56 -65.017)" fill="#fcb227"/>
    <rect id="Rectangle_208" data-name="Rectangle 208" width="8.982" height="15.036" transform="translate(1963.867 990.702)" fill="#fad240"/>
    <path id="Path_1022" data-name="Path 1022" d="M2060.484,1066.351h2.3v-17.629h-2.3a3.643,3.643,0,0,0-3.645,3.642v10.344A3.645,3.645,0,0,0,2060.484,1066.351Z" transform="translate(-188.479 -58.019)" fill="#f99d2a"/>
    <path id="Path_1023" data-name="Path 1023" d="M2194.02,1126.222h-115.7a4.216,4.216,0,0,0-4.217,4.214v9.2a4.214,4.214,0,0,0,4.217,4.214h115.7a4.214,4.214,0,0,0,4.214-4.214v-9.2A4.216,4.216,0,0,0,2194.02,1126.222Z" transform="translate(-193.961 -82.632)" fill="#fdbf3f"/>
    <path id="Path_1024" data-name="Path 1024" d="M2243.558,1143.852h-.569a4.214,4.214,0,0,0,4.214-4.214v-9.2a4.213,4.213,0,0,0-.324-1.621h.151a3.631,3.631,0,0,0-3.392-2.59,3.642,3.642,0,0,1,3.566,3.642v10.341A3.643,3.643,0,0,1,2243.558,1143.852Z" transform="translate(-242.931 -82.633)" fill="#fcd873"/>
    <path id="Path_1025" data-name="Path 1025" d="M2223.2,1145.058h-57.224v-15.036h32.813v12.443h8.982v-12.443h19.318a4.218,4.218,0,0,1,.324,1.621v9.2A4.214,4.214,0,0,1,2223.2,1145.058Z" transform="translate(-223.138 -83.839)" fill="#fec63f"/>
    <path id="Path_1026" data-name="Path 1026" d="M2250.472,1126.224a.14.14,0,0,0-.034,0A.14.14,0,0,1,2250.472,1126.224Zm-.04,0h0Z" transform="translate(-249.768 -82.632)" fill="#fcd873"/>
    <path id="Path_1027" data-name="Path 1027" d="M2198.141,1128.815a3.631,3.631,0,0,0-3.472-2.593H2077.828a3.633,3.633,0,0,0-3.472,2.593Z" transform="translate(-194.042 -82.632)" fill="#fad240"/>
    <path id="Path_1028" data-name="Path 1028" d="M2085.984,1126.222h-8.237a3.645,3.645,0,0,0-3.645,3.645v10.342a3.643,3.643,0,0,0,3.645,3.642h8.237Z" transform="translate(-193.961 -82.632)" fill="#fcb227"/>
    <path id="Path_1029" data-name="Path 1029" d="M2074.356,1148.255a3.627,3.627,0,0,0,3.472,2.593h116.842a3.627,3.627,0,0,0,3.472-2.593Z" transform="translate(-194.042 -89.629)" fill="#fcb227"/>
    <rect id="Rectangle_209" data-name="Rectangle 209" width="8.982" height="15.036" transform="translate(1975.647 1043.59)" fill="#fad240"/>
    <path id="Path_1030" data-name="Path 1030" d="M2077.747,1143.851h2.3v-17.629h-2.3a3.645,3.645,0,0,0-3.645,3.645v10.342A3.643,3.643,0,0,0,2077.747,1143.851Z" transform="translate(-193.961 -82.632)" fill="#f99d2a"/>
    <path id="Path_1031" data-name="Path 1031" d="M2176.608,1100.388h-115.7a4.214,4.214,0,0,0-4.214,4.214v9.2a4.212,4.212,0,0,0,4.214,4.214h115.7a4.212,4.212,0,0,0,4.214-4.214v-9.2A4.214,4.214,0,0,0,2176.608,1100.388Z" transform="translate(-188.433 -74.428)" fill="#fdbf3f"/>
    <path id="Path_1032" data-name="Path 1032" d="M2231.336,1118.017h-.572a4.212,4.212,0,0,0,4.214-4.214v-9.2a4.214,4.214,0,0,0-4.214-4.214h.572a3.643,3.643,0,0,1,3.642,3.645v10.342A3.64,3.64,0,0,1,2231.336,1118.017Z" transform="translate(-242.588 -74.428)" fill="#fcd873"/>
    <path id="Path_1033" data-name="Path 1033" d="M2205.785,1118.017h-57.221v-17.629h57.221A4.214,4.214,0,0,1,2210,1104.6v9.2A4.212,4.212,0,0,1,2205.785,1118.017Z" transform="translate(-217.609 -74.428)" fill="#fec63f"/>
    <path id="Path_1034" data-name="Path 1034" d="M2180.731,1102.982a3.636,3.636,0,0,0-3.472-2.593H2060.415a3.636,3.636,0,0,0-3.472,2.593Z" transform="translate(-188.512 -74.428)" fill="#fad240"/>
    <path id="Path_1035" data-name="Path 1035" d="M2068.573,1100.388h-8.237a3.643,3.643,0,0,0-3.643,3.645v10.342a3.642,3.642,0,0,0,3.643,3.642h8.237Z" transform="translate(-188.433 -74.428)" fill="#fcb227"/>
    <path id="Path_1036" data-name="Path 1036" d="M2056.943,1122.422a3.632,3.632,0,0,0,3.472,2.593H2177.26a3.632,3.632,0,0,0,3.472-2.593Z" transform="translate(-188.512 -81.425)" fill="#fcb227"/>
    <rect id="Rectangle_210" data-name="Rectangle 210" width="8.982" height="15.036" transform="translate(1963.768 1025.961)" fill="#fad240"/>
    <path id="Path_1037" data-name="Path 1037" d="M2060.336,1118.017h2.3v-17.629h-2.3a3.643,3.643,0,0,0-3.643,3.645v10.342A3.642,3.642,0,0,0,2060.336,1118.017Z" transform="translate(-188.433 -74.428)" fill="#f99d2a"/>
    <path id="Path_1038" data-name="Path 1038" d="M2168.717,1280.438h-115.7a4.212,4.212,0,0,0-4.214,4.214v9.2a4.214,4.214,0,0,0,4.214,4.214h115.7a4.216,4.216,0,0,0,4.214-4.214v-9.2A4.214,4.214,0,0,0,2168.717,1280.438Z" transform="translate(-185.927 -131.608)" fill="#fdbf3f"/>
    <path id="Path_1039" data-name="Path 1039" d="M2198.465,1298.068h-.572a4.216,4.216,0,0,0,4.214-4.214v-9.2a4.2,4.2,0,0,0-.321-1.621h.151a3.636,3.636,0,0,0-3.4-2.593,3.645,3.645,0,0,1,3.566,3.642v10.341A3.645,3.645,0,0,1,2198.465,1298.068Z" transform="translate(-215.103 -131.608)" fill="#fcd873"/>
    <path id="Path_1040" data-name="Path 1040" d="M2197.893,1299.275h-57.221v-15.036h32.81v12.443h8.985v-12.443h19.318a4.2,4.2,0,0,1,.321,1.621v9.2A4.216,4.216,0,0,1,2197.893,1299.275Z" transform="translate(-215.103 -132.815)" fill="#fec63f"/>
    <path id="Path_1041" data-name="Path 1041" d="M2225.434,1280.438h0Zm-.04,0h0Z" transform="translate(-241.998 -131.608)" fill="#fcd873"/>
    <path id="Path_1042" data-name="Path 1042" d="M2172.84,1283.032a3.632,3.632,0,0,0-3.472-2.593H2052.523a3.63,3.63,0,0,0-3.472,2.593Z" transform="translate(-186.006 -131.608)" fill="#fad240"/>
    <path id="Path_1043" data-name="Path 1043" d="M2060.681,1280.438h-8.237a3.64,3.64,0,0,0-3.643,3.642v10.344a3.642,3.642,0,0,0,3.643,3.642h8.237Z" transform="translate(-185.927 -131.608)" fill="#fcb227"/>
    <path id="Path_1044" data-name="Path 1044" d="M2049.052,1302.472a3.636,3.636,0,0,0,3.472,2.593h116.844a3.635,3.635,0,0,0,3.472-2.593Z" transform="translate(-186.006 -138.606)" fill="#fcb227"/>
    <rect id="Rectangle_211" data-name="Rectangle 211" width="8.985" height="15.036" transform="translate(1958.38 1148.83)" fill="#fad240"/>
    <path id="Path_1045" data-name="Path 1045" d="M2052.444,1298.068h2.3v-17.629h-2.3a3.64,3.64,0,0,0-3.643,3.642v10.344A3.642,3.642,0,0,0,2052.444,1298.068Z" transform="translate(-185.927 -131.608)" fill="#f99d2a"/>
    <path id="Path_1046" data-name="Path 1046" d="M2174.12,1202.922h-115.7a4.216,4.216,0,0,0-4.217,4.214v9.2a4.214,4.214,0,0,0,4.217,4.214h115.7a4.214,4.214,0,0,0,4.214-4.214v-9.2A4.216,4.216,0,0,0,2174.12,1202.922Z" transform="translate(-187.642 -106.99)" fill="#fdbf3f"/>
    <path id="Path_1047" data-name="Path 1047" d="M2230.76,1220.806h0Zm.042,0h0Zm.037,0a3.63,3.63,0,0,0,3.392-2.593h-.151a4.2,4.2,0,0,0,.324-1.621v-9.2a4.213,4.213,0,0,0-2.138-3.665h.415a3.638,3.638,0,0,1,1.723,3.1v10.342A3.645,3.645,0,0,1,2230.84,1220.806Z" transform="translate(-243.713 -107.246)" fill="#fcd873"/>
    <path id="Path_1048" data-name="Path 1048" d="M2233.384,1203.726h0Z" transform="translate(-244.415 -107.246)" fill="#fec63f"/>
    <path id="Path_1049" data-name="Path 1049" d="M2232.417,1203.471H2232a4.172,4.172,0,0,0-2.076-.549h.569A3.628,3.628,0,0,1,2232.417,1203.471Z" transform="translate(-243.449 -106.99)" fill="#fec234"/>
    <path id="Path_1050" data-name="Path 1050" d="M2207.186,1217.958h-61.114v-15.036H2203.3a4.219,4.219,0,0,1,4.214,4.214v9.2A4.208,4.208,0,0,1,2207.186,1217.958Z" transform="translate(-216.818 -106.99)" fill="#fec63f"/>
    <path id="Path_1051" data-name="Path 1051" d="M2178.241,1205.515a3.631,3.631,0,0,0-3.472-2.593H2057.927a3.63,3.63,0,0,0-3.472,2.593Z" transform="translate(-187.722 -106.99)" fill="#fad240"/>
    <path id="Path_1052" data-name="Path 1052" d="M2066.084,1202.922h-8.238a3.645,3.645,0,0,0-3.645,3.645v10.342a3.643,3.643,0,0,0,3.645,3.642h8.238Z" transform="translate(-187.642 -106.99)" fill="#fcb227"/>
    <path id="Path_1053" data-name="Path 1053" d="M2054.456,1224.955a3.627,3.627,0,0,0,3.472,2.593h116.842a3.628,3.628,0,0,0,3.472-2.593Z" transform="translate(-187.722 -113.988)" fill="#fcb227"/>
    <rect id="Rectangle_212" data-name="Rectangle 212" width="8.982" height="15.039" transform="translate(1962.067 1095.931)" fill="#fad240"/>
    <path id="Path_1054" data-name="Path 1054" d="M2057.847,1220.551h2.3v-17.629h-2.3a3.645,3.645,0,0,0-3.645,3.645v10.342A3.643,3.643,0,0,0,2057.847,1220.551Z" transform="translate(-187.642 -106.99)" fill="#f99d2a"/>
    <path id="Path_1055" data-name="Path 1055" d="M2184.242,1254.605h-115.7a4.212,4.212,0,0,0-4.214,4.214v9.2a4.215,4.215,0,0,0,4.214,4.217h115.7a4.215,4.215,0,0,0,4.214-4.217v-9.2A4.212,4.212,0,0,0,2184.242,1254.605Z" transform="translate(-190.857 -123.404)" fill="#fdbf3f"/>
    <path id="Path_1056" data-name="Path 1056" d="M2235.955,1272.234h-.571a4.215,4.215,0,0,0,4.214-4.217v-9.2a4.153,4.153,0,0,0-.324-1.621h.151a3.63,3.63,0,0,0-3.392-2.593,3.645,3.645,0,0,1,3.566,3.642v10.342A3.645,3.645,0,0,1,2235.955,1272.234Z" transform="translate(-241.998 -123.404)" fill="#fcd873"/>
    <path id="Path_1057" data-name="Path 1057" d="M2240.693,1254.605h0Zm-.04,0h0Z" transform="translate(-246.663 -123.404)" fill="#fcd873"/>
    <path id="Path_1058" data-name="Path 1058" d="M2213.418,1273.441H2156.2v-15.036h32.81v12.443h8.983v-12.443h19.318a4.151,4.151,0,0,1,.324,1.621v9.2A4.215,4.215,0,0,1,2213.418,1273.441Z" transform="translate(-220.034 -124.611)" fill="#fec63f"/>
    <path id="Path_1059" data-name="Path 1059" d="M2188.362,1257.2a3.626,3.626,0,0,0-3.469-2.593H2068.048a3.632,3.632,0,0,0-3.472,2.593Z" transform="translate(-190.936 -123.404)" fill="#fad240"/>
    <path id="Path_1060" data-name="Path 1060" d="M2076.207,1254.605h-8.238a3.641,3.641,0,0,0-3.643,3.642v10.342a3.643,3.643,0,0,0,3.643,3.645h8.238Z" transform="translate(-190.857 -123.404)" fill="#fcb227"/>
    <path id="Path_1061" data-name="Path 1061" d="M2064.576,1276.639a3.635,3.635,0,0,0,3.472,2.593h116.844a3.63,3.63,0,0,0,3.469-2.593Z" transform="translate(-190.936 -130.401)" fill="#fcb227"/>
    <rect id="Rectangle_213" data-name="Rectangle 213" width="8.982" height="15.036" transform="translate(1968.974 1131.201)" fill="#fad240"/>
    <path id="Path_1062" data-name="Path 1062" d="M2067.969,1272.234h2.3v-17.629h-2.3a3.641,3.641,0,0,0-3.643,3.642v10.342A3.643,3.643,0,0,0,2067.969,1272.234Z" transform="translate(-190.857 -123.404)" fill="#f99d2a"/>
    <path id="Path_1063" data-name="Path 1063" d="M2166.829,1228.772h-115.7a4.212,4.212,0,0,0-4.214,4.214v9.2a4.214,4.214,0,0,0,4.214,4.217h115.7a4.217,4.217,0,0,0,4.217-4.217v-9.2A4.215,4.215,0,0,0,2166.829,1228.772Z" transform="translate(-185.327 -115.2)" fill="#fdbf3f"/>
    <path id="Path_1064" data-name="Path 1064" d="M2223.206,1246.4h-.5a4.219,4.219,0,0,0,4.148-4.217v-9.2a4.215,4.215,0,0,0-4.217-4.214h.571a3.643,3.643,0,0,1,3.646,3.642v10.341A3.645,3.645,0,0,1,2223.206,1246.4Z" transform="translate(-241.133 -115.2)" fill="#fcd873"/>
    <path id="Path_1065" data-name="Path 1065" d="M2196.073,1246.4h-57.292v-17.629H2196a4.215,4.215,0,0,1,4.217,4.214v9.2A4.219,4.219,0,0,1,2196.073,1246.4Z" transform="translate(-214.502 -115.2)" fill="#fec63f"/>
    <path id="Path_1066" data-name="Path 1066" d="M2170.954,1231.362a3.631,3.631,0,0,0-3.472-2.59H2050.637a3.627,3.627,0,0,0-3.469,2.59Z" transform="translate(-185.408 -115.2)" fill="#fad240"/>
    <path id="Path_1067" data-name="Path 1067" d="M2058.8,1228.772h-8.24a3.642,3.642,0,0,0-3.643,3.642v10.341a3.645,3.645,0,0,0,3.643,3.645h8.24Z" transform="translate(-185.327 -115.2)" fill="#fcb227"/>
    <path id="Path_1068" data-name="Path 1068" d="M2047.168,1250.805a3.63,3.63,0,0,0,3.469,2.593h116.844a3.633,3.633,0,0,0,3.472-2.593Z" transform="translate(-185.408 -122.197)" fill="#fcb227"/>
    <rect id="Rectangle_214" data-name="Rectangle 214" width="8.982" height="15.039" transform="translate(1957.094 1113.569)" fill="#fad240"/>
    <path id="Path_1069" data-name="Path 1069" d="M2050.557,1246.4h2.3v-17.629h-2.3a3.642,3.642,0,0,0-3.643,3.642v10.341A3.645,3.645,0,0,0,2050.557,1246.4Z" transform="translate(-185.327 -115.2)" fill="#f99d2a"/>
  </g>
</svg>
