<svg xmlns="http://www.w3.org/2000/svg" width="35.177" height="35" viewBox="0 0 35.177 35">
  <g id="edit" transform="translate(0 -0.261)">
    <path id="Path_319" data-name="Path 319" d="M32.467,57.728a.876.876,0,0,0-.876.876v7.779a2.631,2.631,0,0,1-2.628,2.628H4.38a2.631,2.631,0,0,1-2.628-2.628V43.553A2.631,2.631,0,0,1,4.38,40.924h7.779a.876.876,0,1,0,0-1.752H4.38A4.385,4.385,0,0,0,0,43.553v22.83a4.385,4.385,0,0,0,4.38,4.38H28.962a4.385,4.385,0,0,0,4.38-4.38V58.6a.876.876,0,0,0-.876-.876Zm0,0" transform="translate(0 -35.502)" fill="#3658a4"/>
    <path id="Path_320" data-name="Path 320" d="M131.708,1.415a3.942,3.942,0,0,0-5.575,0L110.5,17.045a.876.876,0,0,0-.225.386l-2.055,7.42A.876.876,0,0,0,109.3,25.93l7.42-2.056a.876.876,0,0,0,.386-.225l15.629-15.63a3.947,3.947,0,0,0,0-5.575Zm-19.3,16.2L125.2,4.823l4.125,4.125L116.536,21.74Zm-.824,1.654,3.3,3.3-4.559,1.263ZM131.5,6.78l-.929.929-4.126-4.126.929-.929a2.19,2.19,0,0,1,3.1,0L131.5,3.682A2.193,2.193,0,0,1,131.5,6.78Zm0,0" transform="translate(-98.712)" fill="#3658a4"/>
  </g>
</svg>
