<svg xmlns="http://www.w3.org/2000/svg" width="33.012" height="25.123" viewBox="0 0 33.012 25.123">
  <g id="envelope" transform="translate(0 -57.75)">
    <g id="Group_178" data-name="Group 178" transform="translate(0 57.75)">
      <path id="Path_303" data-name="Path 303" d="M28.982,57.75H4.037A4.04,4.04,0,0,0,0,61.787V78.836a4.04,4.04,0,0,0,4.037,4.037H28.975a4.04,4.04,0,0,0,4.037-4.037V61.794A4.036,4.036,0,0,0,28.982,57.75Zm2.193,21.086a2.2,2.2,0,0,1-2.193,2.193H4.037a2.2,2.2,0,0,1-2.193-2.193V61.794A2.2,2.2,0,0,1,4.037,59.6H28.975a2.2,2.2,0,0,1,2.193,2.193V78.836Z" transform="translate(0 -57.75)" fill="#3658a4"/>
      <path id="Path_304" data-name="Path 304" d="M72.764,117.758l8.074-7.24a.924.924,0,0,0-1.236-1.373l-11.134,9.993L66.3,117.2c-.007-.007-.014-.014-.014-.02a1.365,1.365,0,0,0-.15-.13l-8.839-7.91a.924.924,0,0,0-1.23,1.38l8.169,7.3L56.1,125.436a.926.926,0,0,0-.041,1.3.943.943,0,0,0,.676.294.924.924,0,0,0,.628-.246l8.258-7.725,2.24,2a.92.92,0,0,0,1.23-.007l2.3-2.063,8.21,7.8a.925.925,0,0,0,1.3-.034.926.926,0,0,0-.034-1.3Z" transform="translate(-51.944 -105.408)" fill="#3658a4"/>
    </g>
  </g>
</svg>
