<svg id="gift" xmlns="http://www.w3.org/2000/svg" width="40.949" height="40.949" viewBox="0 0 40.949 40.949">
  <g id="Group_189" data-name="Group 189" transform="translate(0 0)">
    <path id="Path_321" data-name="Path 321" d="M37.35,9.6H32.468a6,6,0,0,0-4.8-9.6,5.384,5.384,0,0,0-4.623,2.246,23.291,23.291,0,0,0-2.575,5.334A23.289,23.289,0,0,0,17.9,2.246,5.384,5.384,0,0,0,13.276,0a6,6,0,0,0-4.8,9.6H3.6A3.6,3.6,0,0,0,0,13.2v2.4a3.6,3.6,0,0,0,2.4,3.393V37.35a3.6,3.6,0,0,0,3.6,3.6H34.95a3.6,3.6,0,0,0,3.6-3.6V18.988a3.6,3.6,0,0,0,2.4-3.393V13.2A3.6,3.6,0,0,0,37.35,9.6ZM22.676,8.537c1.838-4.663,2.537-6.138,5-6.138a3.6,3.6,0,1,1,0,7.2H22.257C22.4,9.228,22.544,8.873,22.676,8.537ZM13.276,2.4c2.459,0,3.158,1.475,5,6.138.132.336.273.691.42,1.061H13.276a3.6,3.6,0,0,1,0-7.2Zm2.4,36.15H6a1.2,1.2,0,0,1-1.2-1.2V19.195H15.676Zm0-21.754H3.6a1.2,1.2,0,0,1-1.2-1.2V13.2A1.2,1.2,0,0,1,3.6,12H15.676Zm7.2,21.754h-4.8V12h4.8Zm13.276-1.2a1.2,1.2,0,0,1-1.2,1.2H25.273V19.195H36.15Zm2.4-21.754a1.2,1.2,0,0,1-1.2,1.2H25.273V12H37.35a1.2,1.2,0,0,1,1.2,1.2Z" transform="translate(0 0)" fill="#3658a4"/>
  </g>
</svg>
