<svg id="Group_98" data-name="Group 98" xmlns="http://www.w3.org/2000/svg" width="114" height="136.369" viewBox="0 0 114 136.369">
  <path id="Path_105" data-name="Path 105" d="M245.451,42.671a3.308,3.308,0,0,0-3.308,3.308V56.057a3.308,3.308,0,0,0,6.615,0V45.979A3.308,3.308,0,0,0,245.451,42.671Z" transform="translate(-173.233 -28.557)" fill="#001c5b"/>
  <path id="Path_106" data-name="Path 106" d="M309.451,42.671a3.308,3.308,0,0,0-3.308,3.308V56.057a3.308,3.308,0,1,0,6.615,0V45.979A3.308,3.308,0,0,0,309.451,42.671Z" transform="translate(-216.064 -28.557)" fill="#001c5b"/>
  <path id="Path_107" data-name="Path 107" d="M84.983,35.471A10.729,10.729,0,1,0,95.71,46.2v0A10.739,10.739,0,0,0,84.983,35.471Zm0,14.842A4.113,4.113,0,1,1,89.095,46.2a4.168,4.168,0,0,1-4.111,4.115Z" transform="translate(-60.876 -23.738)" fill="#001c5b"/>
  <path id="Path_108" data-name="Path 108" d="M245.451,207.721a3.308,3.308,0,0,0-3.308,3.308v10.079a3.308,3.308,0,1,0,6.615,0V211.029A3.308,3.308,0,0,0,245.451,207.721Z" transform="translate(-173.233 -139.013)" fill="#001c5b"/>
  <path id="Path_109" data-name="Path 109" d="M309.451,207.721a3.308,3.308,0,0,0-3.308,3.308v10.079a3.308,3.308,0,1,0,6.615,0V211.029A3.308,3.308,0,0,0,309.451,207.721Z" transform="translate(-216.064 -139.013)" fill="#001c5b"/>
  <path id="Path_110" data-name="Path 110" d="M84.99,200.531a10.727,10.727,0,1,0,10.727,10.727h0A10.739,10.739,0,0,0,84.99,200.531Zm0,14.838a4.111,4.111,0,1,1,4.111-4.111h0a4.168,4.168,0,0,1-4.111,4.111Z" transform="translate(-60.883 -134.201)" fill="#001c5b"/>
  <path id="Path_111" data-name="Path 111" d="M138.148,112.8a9.705,9.705,0,0,0-9.082,6.28H104.324a14.244,14.244,0,0,0-3.669-6.461,13.65,13.65,0,0,0-6.533-3.587V99.562h36.517a16.343,16.343,0,0,0,16.406-16.28c0-.047,0-.093,0-.14V70.967A16.318,16.318,0,0,0,130.8,54.578H94.122V44.985h36.517a16.357,16.357,0,0,0,16.406-16.307v-12.3A16.3,16.3,0,0,0,130.812,0H50.99A16.3,16.3,0,0,0,34.583,16.2c0,.058,0,.115,0,.172V28.549A16.357,16.357,0,0,0,50.861,44.985H87.506v9.592H50.989A16.318,16.318,0,0,0,34.583,70.806c0,.054,0,.108,0,.161V83.143A16.343,16.343,0,0,0,50.849,99.562H87.506v9.468a13.655,13.655,0,0,0-6.537,3.589,14.233,14.233,0,0,0-3.667,6.459H52.561a9.674,9.674,0,1,0-9.081,13.032,9.384,9.384,0,0,0,9.082-6.417h24.75a13.876,13.876,0,0,0,23.348,6.573,13.08,13.08,0,0,0,3.664-6.573h24.742a9.4,9.4,0,0,0,9.081,6.435,9.665,9.665,0,0,0,0-19.33Zm2.613-84.021a9.923,9.923,0,0,1-9.923,9.923H51.122A9.923,9.923,0,0,1,41.2,28.777h0V16.539a9.923,9.923,0,0,1,9.923-9.923h79.716a9.923,9.923,0,0,1,9.923,9.923Zm0,54.577a9.923,9.923,0,0,1-9.923,9.923H51.122A9.923,9.923,0,0,1,41.2,83.355h0V71.116a9.923,9.923,0,0,1,9.923-9.923h79.716a9.923,9.923,0,0,1,9.923,9.923h0Zm-97.28,42.236a3.05,3.05,0,1,1,3.05-3.05A3.05,3.05,0,0,1,43.481,125.591Zm52.5,2.115a7.355,7.355,0,1,1,2.117-5.164A7.261,7.261,0,0,1,95.983,127.705Zm42.165-2.115a3.05,3.05,0,1,1,3.05-3.05A3.05,3.05,0,0,1,138.148,125.591Z" transform="translate(-33.812)" fill="#001c5b"/>
</svg>
