<svg id="Group_97" data-name="Group 97" xmlns="http://www.w3.org/2000/svg" width="106.111" height="93.231" viewBox="0 0 106.111 93.231">
  <path id="Path_103" data-name="Path 103" d="M151.854,187.782v12.176a13.231,13.231,0,0,1-13.231,13.231H58.974a13.231,13.231,0,0,1-13.231-13.231V187.782a13.231,13.231,0,0,1,13.231-13.231h79.65A13.231,13.231,0,0,1,151.854,187.782Zm-78.532,6.09a7.419,7.419,0,1,0-7.419,7.419h0a7.467,7.467,0,0,0,7.419-7.419Z" transform="translate(-45.743 -119.957)" fill="#69ccff"/>
  <path id="Path_104" data-name="Path 104" d="M151.854,22.732V34.908a13.231,13.231,0,0,1-13.231,13.231H58.974A13.231,13.231,0,0,1,45.743,34.908V22.732A13.231,13.231,0,0,1,58.974,9.5h79.65A13.231,13.231,0,0,1,151.854,22.732ZM73.323,28.818A7.419,7.419,0,1,0,65.9,36.241a7.419,7.419,0,0,0,7.419-7.423Z" transform="translate(-45.743 -9.501)" fill="#69ccff"/>
</svg>
