<svg xmlns="http://www.w3.org/2000/svg" xmlns:xlink="http://www.w3.org/1999/xlink" width="1350" height="867" viewBox="0 0 1350 867">
  <defs>
    <clipPath id="clip-path">
      <rect id="Rectangle_216" data-name="Rectangle 216" width="1350" height="867" transform="translate(0 226.876)" fill="#fff" stroke="#707070" stroke-width="1"/>
    </clipPath>
    <clipPath id="clip-path-2">
      <rect id="Rectangle_3" data-name="Rectangle 3" width="1474.107" height="982.738"/>
    </clipPath>
    <clipPath id="clip-path-34">
      <rect id="Rectangle_37" data-name="Rectangle 37" width="1474.107" height="982.738" transform="translate(0)"/>
    </clipPath>
    <clipPath id="clip-path-58">
      <rect id="Rectangle_65" data-name="Rectangle 65" width="1474.107" height="982.738" transform="translate(0 0)"/>
    </clipPath>
  </defs>
  <g id="Mask_Group_1" data-name="Mask Group 1" transform="translate(0 -226.876)" clip-path="url(#clip-path)">
    <g id="_2994043" data-name="2994043" transform="translate(-271.339 22.061)">
      <path id="Path_79" data-name="Path 79" d="M1474.107,811.536h0Z" transform="translate(0 559.654)" fill="#fff"/>
      <g id="Group_90" data-name="Group 90" transform="translate(111.596 0)">
        <g id="Group_1" data-name="Group 1" transform="translate(93.056 155.948)" clip-path="url(#clip-path-2)">
          <path id="Path_2" data-name="Path 2" d="M1275.486,331.322H1038.8q3.332,0,6.575-.287c-32.01-2.807-56.977-25.879-56.977-53.927s24.967-51.118,56.977-53.927q-3.243-.283-6.575-.287c35.1,0,63.554-24.274,63.554-54.216s-28.454-54.214-63.554-54.214H223.562c-35.1,0-63.554,24.274-63.554,54.214s28.454,54.216,63.554,54.216H207.344c35.1,0,63.554,24.272,63.554,54.214s-28.454,54.214-63.554,54.214h-68.52c-52.852,0-95.7,36.548-95.7,81.632s42.843,81.632,95.7,81.632H207.35c35.1,0,63.548,24.276,63.548,54.214v0c0,29.94-28.454,54.214-63.554,54.214h16.217c-35.1,0-63.554,24.274-63.554,54.214s28.454,54.214,63.554,54.214H1038.8c35.1,0,63.554-24.274,63.554-54.214s-28.454-54.214-63.554-54.214c2.221,0,4.412-.1,6.575-.287-32.01-2.809-56.977-25.88-56.977-53.927v0c0-28.047,24.967-51.118,56.977-53.925q-3.24-.286-6.569-.289h236.677c52.852,0,95.7-36.548,95.7-81.632s-42.844-81.632-95.7-81.632" transform="translate(41.64 110.513)" fill="#d2d9ff"/>
        </g>
        <g id="Group_2" data-name="Group 2" transform="translate(93.056 155.948)" clip-path="url(#clip-path-2)">
          <path id="Path_3" data-name="Path 3" d="M352.928,551.992s-24.734,36.212-61.258,9.914-31.837-18.68-77.28-18.106-36.678-46.908-26.451-59.33,5.112-36.526-24.107-29.948S103.2,460.365,114.887,425.3s-19.724-43.83-31.412-72.32S72.519,292.348,90.78,288.7s35.793,24.838,51.136,24.109,22.644-27.676,40.907-24.431,18.413,14.2,31.487,43.423,27.684,27.029,45.947,20.453,35.8,2.191,45.29,27.76,12.905,57.708,20.7,60.631,47.032,68.566,26.681,111.35" transform="translate(73.079 278.156)" fill="#77c6e9"/>
        </g>
        <g id="Group_3" data-name="Group 3" transform="translate(93.056 155.948)" clip-path="url(#clip-path-2)">
          <path id="Path_4" data-name="Path 4" d="M107.9,315.166s161.965,83.173,213.934,210.7" transform="translate(104.173 304.285)" fill="none" stroke="#341f78" stroke-linecap="round" stroke-linejoin="round" stroke-miterlimit="10" stroke-width="1"/>
        </g>
        <g id="Group_4" data-name="Group 4" transform="translate(93.056 155.948)" clip-path="url(#clip-path-2)">
          <path id="Path_5" data-name="Path 5" d="M157.108,353.459c8.4,9.271,11.7,19.953,7.384,23.867s-14.623-.436-23.02-9.705-11.7-19.953-7.384-23.867,14.625.438,23.02,9.705" transform="translate(127.629 330.5)" fill="#63b3ce"/>
        </g>
        <g id="Group_5" data-name="Group 5" transform="translate(93.056 155.948)" clip-path="url(#clip-path-2)">
          <path id="Path_6" data-name="Path 6" d="M139.567,316.433c4.279,4.281,5.437,10.061,2.583,12.913s-8.634,1.7-12.913-2.581-5.435-10.061-2.583-12.913,8.634-1.7,12.913,2.581" transform="translate(120.77 301.505)" fill="#63b3ce"/>
        </g>
        <g id="Group_6" data-name="Group 6" transform="translate(93.056 155.948)" clip-path="url(#clip-path-2)">
          <path id="Path_7" data-name="Path 7" d="M193.339,347.582c8.915,8.913,12.384,19.9,7.748,24.535s-15.62,1.168-24.537-7.748-12.382-19.9-7.746-24.535,15.62-1.17,24.535,7.748" transform="translate(160.991 326.116)" fill="#63b3ce"/>
        </g>
        <g id="Group_7" data-name="Group 7" transform="translate(93.056 155.948)" clip-path="url(#clip-path-2)">
          <path id="Path_8" data-name="Path 8" d="M206.105,398.18c11.567,14.124,13.353,31.79,3.99,39.459s-26.331,2.435-37.9-11.689-13.354-31.79-3.99-39.457,26.331-2.437,37.9,11.687" transform="translate(156.604 369.739)" fill="#63b3ce"/>
        </g>
        <g id="Group_8" data-name="Group 8" transform="translate(93.056 155.948)" clip-path="url(#clip-path-2)">
          <path id="Path_9" data-name="Path 9" d="M277.421,587.972S228.479,479.21,181,405.753s-41.639-149.429,17.532-156.735,110.306,123.457,78.894,338.954" transform="translate(144.132 240.14)" fill="#4958ed"/>
        </g>
        <g id="Group_9" data-name="Group 9" transform="translate(93.056 155.948)" clip-path="url(#clip-path-2)">
          <path id="Path_10" data-name="Path 10" d="M181.479,274.521s69.977,128.568,64.861,288.55" transform="translate(175.214 265.043)" fill="none" stroke="#341f78" stroke-linecap="round" stroke-linejoin="round" stroke-miterlimit="10" stroke-width="1"/>
        </g>
        <g id="Group_10" data-name="Group 10" transform="translate(93.056 155.948)" clip-path="url(#clip-path-2)">
          <path id="Path_11" data-name="Path 11" d="M189.089,295.716c4.479,12.4,2.986,24.3-3.339,26.581s-15.081-5.91-19.56-18.3-2.984-24.293,3.339-26.579,15.081,5.908,19.56,18.3" transform="translate(157.959 267.467)" fill="#3e50ce"/>
        </g>
        <g id="Group_11" data-name="Group 11" transform="translate(93.056 155.948)" clip-path="url(#clip-path-2)">
          <path id="Path_12" data-name="Path 12" d="M197.013,322.559c2.8,7.766,1.832,15.232-2.176,16.681s-9.531-3.672-12.337-11.435-1.832-15.233,2.176-16.681,9.529,3.672,12.337,11.435" transform="translate(174.652 300.147)" fill="#3e50ce"/>
        </g>
        <g id="Group_12" data-name="Group 12" transform="translate(93.056 155.948)" clip-path="url(#clip-path-2)">
          <path id="Path_13" data-name="Path 13" d="M218.491,306.965c4.411,12.206,3.8,23.611-1.36,25.476s-12.925-6.514-17.336-18.717-3.8-23.613,1.362-25.479,12.923,6.514,17.334,18.719" transform="translate(190.053 278.043)" fill="#3e50ce"/>
        </g>
        <g id="Group_13" data-name="Group 13" transform="translate(93.056 155.948)" clip-path="url(#clip-path-2)">
          <path id="Path_14" data-name="Path 14" d="M202.046,348.441c1.679,3.964,1.118,7.986-1.252,8.994s-5.653-1.394-7.331-5.356-1.12-7.988,1.25-8.994,5.655,1.4,7.333,5.356" transform="translate(185.848 331.02)" fill="#3e50ce"/>
        </g>
        <g id="Group_14" data-name="Group 14" transform="translate(93.056 155.948)" clip-path="url(#clip-path-2)">
          <path id="Path_15" data-name="Path 15" d="M168.622,489.386s-8.314-11.087,5.543-24.942c0,0-8.013-46.932,39.842-53.253,0,0,9.029-31.6,36.118-35.213S298.882,389.523,305.2,413c0,0,20.767-7.223,39.728,5.419s17.157,38.828,17.157,38.828,20.767,7.4,12.64,32.143H168.622Z" transform="translate(160.412 362.533)" fill="#98a3f4"/>
        </g>
        <g id="Group_15" data-name="Group 15" transform="translate(93.056 155.948)" clip-path="url(#clip-path-2)">
          <path id="Path_16" data-name="Path 16" d="M259.227,437.547s-15.254,0-18.373-26.563c-1.614-13.739,4.277-26.33,10.338-35.29-.36.041-.708.045-1.067.094C223.035,379.4,214.007,411,214.007,411c-47.855,6.321-39.842,53.253-39.842,53.253-13.859,13.857-5.543,24.942-5.543,24.942h87.183c-24.574-25.809,3.422-51.649,3.422-51.649" transform="translate(160.412 362.724)" fill="#808fd8"/>
        </g>
        <g id="Group_16" data-name="Group 16" transform="translate(93.056 155.948)" clip-path="url(#clip-path-2)">
          <path id="Path_17" data-name="Path 17" d="M546.97,551.992s24.733,36.212,61.26,9.914,31.835-18.68,77.278-18.106,36.678-46.908,26.452-59.33-5.114-36.526,24.108-29.948S796.7,460.365,785.01,425.3s19.721-43.83,31.41-72.32,10.958-60.633-7.306-64.285-35.793,24.838-51.136,24.109-22.644-27.676-40.907-24.431-18.411,14.2-31.487,43.423S657.9,358.827,639.638,352.25s-35.8,2.191-45.29,27.76-12.905,57.708-20.7,60.631-47.032,68.566-26.679,111.35" transform="translate(522.497 278.156)" fill="#77c6e9"/>
        </g>
        <g id="Group_17" data-name="Group 17" transform="translate(93.056 155.948)" clip-path="url(#clip-path-2)">
          <path id="Path_18" data-name="Path 18" d="M758.062,315.166S596.1,398.339,544.126,525.863" transform="translate(525.341 304.285)" fill="none" stroke="#341f78" stroke-linecap="round" stroke-linejoin="round" stroke-miterlimit="10" stroke-width="1"/>
        </g>
        <g id="Group_18" data-name="Group 18" transform="translate(93.056 155.948)" clip-path="url(#clip-path-2)">
          <path id="Path_19" data-name="Path 19" d="M620.561,353.459c-8.394,9.271-11.7,19.953-7.386,23.867s14.623-.436,23.02-9.705,11.7-19.953,7.386-23.867-14.625.438-23.02,9.705" transform="translate(590.176 330.5)" fill="#63b3ce"/>
        </g>
        <g id="Group_19" data-name="Group 19" transform="translate(93.056 155.948)" clip-path="url(#clip-path-2)">
          <path id="Path_20" data-name="Path 20" d="M630.454,316.433c-4.281,4.281-5.436,10.061-2.583,12.913s8.636,1.7,12.913-2.581,5.436-10.061,2.583-12.913-8.634-1.7-12.913,2.581" transform="translate(604.683 301.505)" fill="#63b3ce"/>
        </g>
        <g id="Group_20" data-name="Group 20" transform="translate(93.056 155.948)" clip-path="url(#clip-path-2)">
          <path id="Path_21" data-name="Path 21" d="M585.41,347.582c-8.916,8.913-12.385,19.9-7.748,24.535s15.62,1.168,24.535-7.748,12.385-19.9,7.746-24.535-15.62-1.17-24.533,7.748" transform="translate(555.734 326.116)" fill="#63b3ce"/>
        </g>
        <g id="Group_21" data-name="Group 21" transform="translate(93.056 155.948)" clip-path="url(#clip-path-2)">
          <path id="Path_22" data-name="Path 22" d="M581.24,398.18c-11.569,14.124-13.354,31.79-3.99,39.459s26.331,2.435,37.9-11.689,13.353-31.79,3.99-39.457-26.332-2.437-37.9,11.687" transform="translate(551.525 369.739)" fill="#63b3ce"/>
        </g>
        <g id="Group_22" data-name="Group 22" transform="translate(93.056 155.948)" clip-path="url(#clip-path-2)">
          <path id="Path_23" data-name="Path 23" d="M551.088,587.972S600.03,479.21,647.514,405.753s41.64-149.429-17.532-156.735S519.674,372.475,551.088,587.972" transform="translate(522.833 240.14)" fill="#4958ed"/>
        </g>
        <g id="Group_23" data-name="Group 23" transform="translate(93.056 155.948)" clip-path="url(#clip-path-2)">
          <path id="Path_24" data-name="Path 24" d="M611.384,274.521s-69.977,128.568-64.861,288.55" transform="translate(527.397 265.043)" fill="none" stroke="#341f78" stroke-linecap="round" stroke-linejoin="round" stroke-miterlimit="10" stroke-width="1"/>
        </g>
        <g id="Group_24" data-name="Group 24" transform="translate(93.056 155.948)" clip-path="url(#clip-path-2)">
          <path id="Path_25" data-name="Path 25" d="M585.568,295.716c-4.479,12.4-2.987,24.3,3.337,26.581s15.083-5.91,19.563-18.3,2.984-24.293-3.339-26.579-15.083,5.908-19.561,18.3" transform="translate(562.858 267.467)" fill="#3e50ce"/>
        </g>
        <g id="Group_25" data-name="Group 25" transform="translate(93.056 155.948)" clip-path="url(#clip-path-2)">
          <path id="Path_26" data-name="Path 26" d="M572.561,322.559c-2.807,7.766-1.832,15.232,2.174,16.681s9.533-3.672,12.337-11.435,1.832-15.233-2.176-16.681-9.529,3.672-12.335,11.435" transform="translate(551.247 300.147)" fill="#3e50ce"/>
        </g>
        <g id="Group_26" data-name="Group 26" transform="translate(93.056 155.948)" clip-path="url(#clip-path-2)">
          <path id="Path_27" data-name="Path 27" d="M554.46,306.965c-4.411,12.206-3.805,23.611,1.36,25.477s12.923-6.514,17.334-18.717,3.8-23.613-1.36-25.478-12.923,6.514-17.333,18.719" transform="translate(532.47 278.043)" fill="#3e50ce"/>
        </g>
        <g id="Group_27" data-name="Group 27" transform="translate(93.056 155.948)" clip-path="url(#clip-path-2)">
          <path id="Path_28" data-name="Path 28" d="M563.993,348.441c-1.679,3.964-1.118,7.986,1.252,8.994s5.653-1.394,7.331-5.356,1.118-7.988-1.254-8.994-5.653,1.4-7.329,5.356" transform="translate(543.587 331.02)" fill="#3e50ce"/>
        </g>
        <g id="Group_28" data-name="Group 28" transform="translate(93.056 155.948)" clip-path="url(#clip-path-2)">
          <path id="Path_29" data-name="Path 29" d="M695.634,489.386s8.314-11.087-5.543-24.942c0,0,8.013-46.932-39.842-53.253,0,0-9.03-31.6-36.117-35.213s-48.76,13.544-55.079,37.02c0,0-20.767-7.223-39.728,5.419s-17.157,38.828-17.157,38.828-20.767,7.4-12.642,32.143H695.634Z" transform="translate(470.805 362.533)" fill="#98a3f4"/>
        </g>
        <g id="Group_29" data-name="Group 29" transform="translate(93.056 155.948)" clip-path="url(#clip-path-2)">
          <path id="Path_30" data-name="Path 30" d="M547.365,437.547s15.254,0,18.375-26.563c1.612-13.739-4.277-26.33-10.34-35.29.359.041.708.045,1.069.094C583.557,379.4,592.587,411,592.587,411c47.854,6.321,39.842,53.253,39.842,53.253,13.859,13.857,5.543,24.942,5.543,24.942H550.789c24.572-25.809-3.424-51.649-3.424-51.649" transform="translate(528.468 362.724)" fill="#808fd8"/>
        </g>
        <g id="Group_30" data-name="Group 30" transform="translate(93.056 155.948)" clip-path="url(#clip-path-2)">
          <path id="Path_31" data-name="Path 31" d="M859.593,614.079H238.941A32.281,32.281,0,0,1,206.662,581.8V186.14a32.278,32.278,0,0,1,32.279-32.277H859.593a32.28,32.28,0,0,1,32.281,32.277V581.8a32.282,32.282,0,0,1-32.281,32.281" transform="translate(199.527 148.551)" fill="#2b284f"/>
        </g>
        <g id="Group_31" data-name="Group 31" transform="translate(93.056 155.948)" clip-path="url(#clip-path-2)">
          <path id="Path_32" data-name="Path 32" d="M837.869,599.488H246.353a32.28,32.28,0,0,1-32.279-32.279V191.119a32.279,32.279,0,0,1,32.279-32.279H837.869a32.281,32.281,0,0,1,32.281,32.279v376.09a32.279,32.279,0,0,1-32.281,32.279" transform="translate(206.683 153.356)" fill="#fff"/>
        </g>
        <g id="Group_32" data-name="Group 32" transform="translate(93.056 155.948)" clip-path="url(#clip-path-2)">
          <rect id="Rectangle_34" data-name="Rectangle 34" width="623.85" height="20.455" transform="translate(432.487 341.859)" fill="#d2d9ff"/>
        </g>
        <g id="Group_33" data-name="Group 33" transform="translate(93.056 155.948)" clip-path="url(#clip-path-34)">
          <rect id="Rectangle_36" data-name="Rectangle 36" width="369.633" height="8.766" transform="translate(559.595 645.749)" fill="#d2d9ff"/>
        </g>
        <g id="Group_34" data-name="Group 34" transform="translate(93.056 155.948)" clip-path="url(#clip-path-34)">
          <rect id="Rectangle_38" data-name="Rectangle 38" width="369.633" height="8.766" transform="translate(559.595 668.394)" fill="#d2d9ff"/>
        </g>
        <g id="Group_35" data-name="Group 35" transform="translate(93.056 155.948)" clip-path="url(#clip-path-34)">
          <rect id="Rectangle_40" data-name="Rectangle 40" width="369.633" height="8.766" transform="translate(559.595 691.04)" fill="#d2d9ff"/>
        </g>
        <g id="Group_36" data-name="Group 36" transform="translate(93.056 155.948)" clip-path="url(#clip-path-2)">
          <rect id="Rectangle_42" data-name="Rectangle 42" width="121.749" height="51.138" transform="translate(683.537 762.628)" fill="#e9efff"/>
        </g>
        <g id="Group_37" data-name="Group 37" transform="translate(93.056 155.948)" clip-path="url(#clip-path-2)">
          <path id="Path_33" data-name="Path 33" d="M495.848,430.413H338.789v-2.021a14.364,14.364,0,0,1,14.364-14.364H481.485a14.363,14.363,0,0,1,14.364,14.364Z" transform="translate(327.093 399.735)" fill="#7da2ff"/>
        </g>
        <g id="Group_38" data-name="Group 38" transform="translate(93.056 155.948)" clip-path="url(#clip-path-2)">
          <path id="Path_34" data-name="Path 34" d="M54.4,197.484s21.774-51.33,37.387-51.323,22.534,14.1,30.494,11.677,23.969-70.71,48.209-68.21,20.632,59.855,44.75,64.3,38.291-34.675,65.2-28.1,32.6,55.727,39.646,67.882,18.218,20.665,3.575,20.72S21.156,213.935,54.4,197.484" transform="translate(49.942 86.47)" fill="#7da2ff"/>
        </g>
        <g id="Group_39" data-name="Group 39" transform="translate(93.056 155.948)" clip-path="url(#clip-path-2)">
          <path id="Path_35" data-name="Path 35" d="M497.242,172.166s23.617-16.99,45.923-63.314,47.755-43.459,56.388-40.788,21.571,33.382,32.482,61.052,24.684,16.724,32.617-7.713,25.362-8.845,27.756.8,6.535,27.43,22.945,21.752,22.043-1.714,23.749,7.16,11.675,13.813,47.376,16.512,50.983,17.444,25.862,21.911-395.93,2.317-315.1-17.371" transform="translate(468.97 64.485)" fill="#7da2ff"/>
        </g>
        <g id="Group_40" data-name="Group 40" transform="translate(93.056 155.948)" clip-path="url(#clip-path-2)">
          <path id="Path_36" data-name="Path 36" d="M505.606,274.262v69.56a3.044,3.044,0,1,0,6.087,0V310.1a5.6,5.6,0,0,1,11.2,0v46.407a6.818,6.818,0,1,0,13.637,0V312.9a6.453,6.453,0,0,1,12.905,0,5.9,5.9,0,0,0,5.895,5.895h2.262a8.157,8.157,0,0,0,8.157-8.157V274.262H505.606Z" transform="translate(488.15 264.793)" fill="#f2c73c"/>
        </g>
        <g id="Group_41" data-name="Group 41" transform="translate(93.056 155.948)" clip-path="url(#clip-path-2)">
          <path id="Path_37" data-name="Path 37" d="M565.8,281.061H508.459a3.474,3.474,0,0,1-3.471-3.475v-6.893a3.472,3.472,0,0,1,3.471-3.473H565.8a3.473,3.473,0,0,1,3.473,3.473v6.893a3.477,3.477,0,0,1-3.473,3.475" transform="translate(487.554 257.994)" fill="#ffda73"/>
        </g>
        <g id="Group_42" data-name="Group 42" transform="translate(93.056 155.948)" clip-path="url(#clip-path-2)">
          <path id="Path_38" data-name="Path 38" d="M595.767,293.856s-4.14,16.072-6.087,25.569,14.853,13.391,14.853,13.391l-1.46,8.281s9.253-.487,12.174,4.137l4.627-18.749s4.871-5.114,3.894-11.445-7.548-5.6-9.739,0c0,0-7.333-7.793-7.32-18.261,0,0-4.853,2.679-10.942-2.923" transform="translate(569.17 283.711)" fill="#e5827c"/>
        </g>
        <g id="Group_43" data-name="Group 43" transform="translate(93.056 155.948)" clip-path="url(#clip-path-2)">
          <path id="Path_39" data-name="Path 39" d="M636,304.113s2.191-6.333-2.192-10.957-12.9-4.871-19.48-3.9c-1.2.179-6.087-.244-12.659-2.433s-13.637,0-15.1,6.818,10.114,15.983,10.114,15.983c1.157-4.688,2.06-8.192,2.06-8.192,6.089,5.6,10.944,2.923,10.944,2.923-.018,10.47,7.319,18.261,7.319,18.261,2.191-5.6,8.766-6.331,9.739,0s-3.894,11.445-3.894,11.445,12.174-6.333,15.1-15.1A16.372,16.372,0,0,0,636,304.113" transform="translate(566.195 276.135)" fill="#bc4d88"/>
        </g>
        <g id="Group_44" data-name="Group 44" transform="translate(93.056 155.948)" clip-path="url(#clip-path-2)">
          <path id="Path_40" data-name="Path 40" d="M640.554,330.93s-13.634-1.219-24.106-3.408-61.364-23.134-61.364-23.134-4.381,4.627-4.381,10.226c0,0,32.629,22.157,44.925,27.029s26.418,13.637,26.418,13.637-.973,37.743,0,51.136.975,18.019.975,18.019,23.377,2.191,41.638-3.652c0,0-1.932-46.022-3.281-58.683s-8.65-27.029-8.65-27.029a12.286,12.286,0,0,0-12.174-4.141" transform="translate(531.689 293.879)" fill="#f2c73c"/>
        </g>
        <g id="Group_45" data-name="Group 45" transform="translate(93.056 155.948)" clip-path="url(#clip-path-2)">
          <path id="Path_41" data-name="Path 41" d="M610.332,351.078c.124-10.639.352-19.482.352-19.482s-1.745-1.081-4.507-2.677c-.012.01-17.163,14.853-18.383,15.1s-17.045-15.1-17.045-15.1c-3.408,1.219-8.278,5.358-8.278,5.358S580.247,361.3,585.6,362.521s24.728-11.443,24.728-11.443" transform="translate(543.052 317.561)" fill="#d3a629"/>
        </g>
        <g id="Group_46" data-name="Group 46" transform="translate(93.056 155.948)" clip-path="url(#clip-path-2)">
          <path id="Path_42" data-name="Path 42" d="M572.177,324.423s2.8,10.411,4.322,13.515c0,0-5.295,2.315-8.279,5.358a26.043,26.043,0,0,1-9.01-9.436c-3.471-6.331-4.566-8.155,2.74-11.993s8.711-2.777,10.226,2.557" transform="translate(537.303 308.541)" fill="#e5827c"/>
        </g>
        <g id="Group_47" data-name="Group 47" transform="translate(93.056 155.948)" clip-path="url(#clip-path-2)">
          <path id="Path_43" data-name="Path 43" d="M587,330.28l7.062,4.078L587,338.741Z" transform="translate(566.735 318.877)" fill="#d3a629"/>
        </g>
        <g id="Group_48" data-name="Group 48" transform="translate(93.056 155.948)" clip-path="url(#clip-path-2)">
          <path id="Path_44" data-name="Path 44" d="M574.055,429.082l4.931,18.261s3.835,5.114,11.871,1.278l-3.65-19.539H574.055Z" transform="translate(554.236 414.268)" fill="#e5827c"/>
        </g>
        <g id="Group_49" data-name="Group 49" transform="translate(93.056 155.948)" clip-path="url(#clip-path-2)">
          <path id="Path_45" data-name="Path 45" d="M566.157,452.07s1.1-2.921,7.305-4.2,13.147-9.5,13.147-9.5,4.019,5.3,11.871,1.278c0,0,2.74,7.306,2.192,12.418,0,0-33.236,4.385-34.516,0" transform="translate(546.611 423.239)" fill="#4958ed"/>
        </g>
        <g id="Group_50" data-name="Group 50" transform="translate(93.056 155.948)" clip-path="url(#clip-path-2)">
          <path id="Path_46" data-name="Path 46" d="M608.941,429.4l4.931,18.261s3.835,5.114,11.872,1.278l-3.19-22.082Z" transform="translate(587.918 412.115)" fill="#e5827c"/>
        </g>
        <g id="Group_51" data-name="Group 51" transform="translate(93.056 155.948)" clip-path="url(#clip-path-2)">
          <path id="Path_47" data-name="Path 47" d="M601.044,451.133s1.095-2.921,7.3-4.2,13.149-9.5,13.149-9.5,4.017,5.3,11.872,1.277c0,0,2.74,7.306,2.19,12.418,0,0-33.238,4.387-34.514,0" transform="translate(580.294 422.334)" fill="#4958ed"/>
        </g>
        <g id="Group_52" data-name="Group 52" transform="translate(93.056 155.948)" clip-path="url(#clip-path-2)">
          <path id="Path_48" data-name="Path 48" d="M626.5,484.882s7.927-1.462,13.4-4.383c0,0-9.643-56.248-13.4-71.589s-8.147-37.623-8.147-37.623l-27.393,32.875s29.8,59.536,35.54,80.72" transform="translate(570.563 358.469)" fill="#211d35"/>
        </g>
        <g id="Group_53" data-name="Group 53" transform="translate(93.056 155.948)" clip-path="url(#clip-path-2)">
          <path id="Path_49" data-name="Path 49" d="M646.737,363.606c-18.261,5.845-41.641,3.652-41.641,3.652s-33.358,64.041-35.549,73.9,9.132,51.138,9.132,51.138,6.94,4.381,12.785,1.46c0,0-1.1-41.273.364-49.31s31.049-37.985,45.291-52.96,9.619-27.882,9.619-27.882" transform="translate(549.612 351.053)" fill="#2b284f"/>
        </g>
        <g id="Group_54" data-name="Group 54" transform="translate(93.056 155.948)" clip-path="url(#clip-path-2)">
          <path id="Path_50" data-name="Path 50" d="M521.176,274.262,598.2,374.167l4.735-3.925-72.217-95.98Z" transform="translate(503.183 264.793)" fill="#f4f3fe"/>
        </g>
        <g id="Group_55" data-name="Group 55" transform="translate(93.056 155.948)" clip-path="url(#clip-path-2)">
          <path id="Path_51" data-name="Path 51" d="M566.956,311.3s-7.608-5.3-11.079-7.306-7.852-6.757-7.852-6.757-.549,3.652-2.192,4.383-6.757,2.374-7.306,3.835.914,4.381,1.46,5.845-.729,3.591.367,4.99.547,3.958,2.374,4.141,12.233-.185,14.79,0a21.215,21.215,0,0,1,5.053,1.095s-.246-4.931,4.383-10.226" transform="translate(519.819 286.971)" fill="#e5827c"/>
        </g>
        <g id="Group_56" data-name="Group 56" transform="translate(93.056 155.948)" clip-path="url(#clip-path-2)">
          <path id="Path_52" data-name="Path 52" d="M565.423,337.394s-4.477-5.537,0-8.949c0,0-7.549.366-5.723-2.191a15.208,15.208,0,0,1,8.919-5.36l4,13.037Z" transform="translate(540.102 309.816)" fill="#e5827c"/>
        </g>
        <g id="Group_57" data-name="Group 57" transform="translate(215.78 16.515) rotate(11.947)" clip-path="url(#clip-path-58)">
          <rect id="Rectangle_64" data-name="Rectangle 64" width="405.678" height="229.864" transform="translate(524.827 401.81)" fill="#98a3f4"/>
        </g>
        <g id="Group_58" data-name="Group 58" transform="translate(207.099 43.772) rotate(11.947)" clip-path="url(#clip-path-58)">
          <rect id="Rectangle_66" data-name="Rectangle 66" width="90.581" height="198.936" transform="translate(547.764 389.4)" fill="#808fd8"/>
        </g>
        <g id="Group_59" data-name="Group 59" transform="translate(203.427 0) rotate(11.947)" clip-path="url(#clip-path-2)">
          <rect id="Rectangle_68" data-name="Rectangle 68" width="250.832" height="22.634" transform="translate(675.013 438.148)" fill="#808fd8"/>
        </g>
        <g id="Group_60" data-name="Group 60" transform="translate(211.407 2.574) rotate(11.947)" clip-path="url(#clip-path-58)">
          <rect id="Rectangle_70" data-name="Rectangle 70" width="250.832" height="22.634" transform="translate(666.678 477.552)" fill="#808fd8"/>
        </g>
        <g id="Group_61" data-name="Group 61" transform="translate(219.566 5.212) rotate(11.947)" clip-path="url(#clip-path-2)">
          <rect id="Rectangle_72" data-name="Rectangle 72" width="250.832" height="22.634" transform="translate(658.15 517.858)" fill="#808fd8"/>
        </g>
        <g id="Group_62" data-name="Group 62" transform="translate(228.267 8.033) rotate(11.947)" clip-path="url(#clip-path-58)">
          <rect id="Rectangle_74" data-name="Rectangle 74" width="250.832" height="22.634" transform="translate(649.049 560.874)" fill="#808fd8"/>
        </g>
        <g id="Group_63" data-name="Group 63" transform="translate(93.056 155.948)" clip-path="url(#clip-path-2)">
          <path id="Path_53" data-name="Path 53" d="M297.522,107.911s-12-.955-15.714-1.995c0,0-1.462,6.284-4.2,10.177a29.06,29.06,0,0,0,12.19,7.97c7.655,2.522,9.882,3.353,12.607-5.446s1.277-10.128-4.886-10.706" transform="translate(268.028 102.259)" fill="#e5827c"/>
        </g>
        <g id="Group_64" data-name="Group 64" transform="translate(93.056 155.948)" clip-path="url(#clip-path-2)">
          <path id="Path_54" data-name="Path 54" d="M317.231,71.231S313.969,56.144,299.7,52.474s-39.146,4.892-39.146,27.318,4.078,52.6,4.078,52.6,22.833,4.485,37.106,0l14.271-4.487s-6.523-15.085-4.894-25.28,12.023-19.967,6.117-31.4" transform="translate(251.558 49.87)" fill="#bc4d88"/>
        </g>
        <g id="Group_65" data-name="Group 65" transform="translate(93.056 155.948)" clip-path="url(#clip-path-2)">
          <path id="Path_55" data-name="Path 55" d="M315.135,68.71s-20.388,7.339-30.99,0c0,0,2.447-6.117-2.854-8.562s-13.049,6.93-11.417,16.716L257.234,85.2a16.5,16.5,0,0,1,11.417,11.239l9.377-4.892s1.631,8.562,10.2,8.155,21.205-16.31,26.911-30.99" transform="translate(248.353 57.692)" fill="#e5827c"/>
        </g>
        <g id="Group_66" data-name="Group 66" transform="translate(93.056 155.948)" clip-path="url(#clip-path-2)">
          <path id="Path_56" data-name="Path 56" d="M226.619,109.659s42-38.787,60.348-36.927c0,0,9.786,1.452,11.417,11.239l3.67,39.553,20.675,27.727s-1.512,7.339-6.81,8.564c0,0-27.32-22.428-28.952-27.729s-2.856-17.986-2.856-17.986-9.786,3.306-13.862,10.238-4.894,16.718-4.894,16.718-42-6.93-38.736-31.4" transform="translate(218.62 70.158)" fill="#3500b7"/>
        </g>
        <g id="Group_67" data-name="Group 67" transform="translate(93.056 155.948)" clip-path="url(#clip-path-2)">
          <path id="Path_57" data-name="Path 57" d="M254.561,109.881s21.61,19.572,29.767,26.911,9.786,53.825,9.786,53.825-3.263,3.67-11.419,2.038c0,0-7.337-20.388-8.357-37.513l-34.864-19.979-1.856-30.205Z" transform="translate(229.415 101.333)" fill="#808fd8"/>
        </g>
        <g id="Group_68" data-name="Group 68" transform="translate(93.056 155.948)" clip-path="url(#clip-path-2)">
          <path id="Path_58" data-name="Path 58" d="M254.234,117.962h0c-11.243-4.564-23.623-12.766-21.8-26.473a37.025,37.025,0,0,0-11.824,30.988c2.038,19.574,21.61,39.96,21.61,39.96-8.155,13.864-15.5,48.932-15.5,48.932.409,6.93,9.379,4.892,9.379,4.892s29.358-45.668,27.727-53.825-9.6-44.475-9.6-44.475" transform="translate(212.8 88.33)" fill="#4958ed"/>
        </g>
        <g id="Group_69" data-name="Group 69" transform="translate(93.056 155.948)" clip-path="url(#clip-path-2)">
          <path id="Path_59" data-name="Path 59" d="M259.442,101.936V85.265l-7.451,20.472a44.991,44.991,0,0,1,7.451-3.8" transform="translate(243.291 82.321)" fill="#1a0087"/>
        </g>
        <g id="Group_70" data-name="Group 70" transform="translate(93.056 155.948)" clip-path="url(#clip-path-2)">
          <path id="Path_60" data-name="Path 60" d="M264.91,98.542,282.776,122.5l6.191,1.728a23.849,23.849,0,0,0,5.3-13.078Z" transform="translate(255.764 95.14)" fill="#1a0087"/>
        </g>
        <g id="Group_71" data-name="Group 71" transform="translate(93.056 155.948)" clip-path="url(#clip-path-2)">
          <path id="Path_61" data-name="Path 61" d="M225.184,152.481s-4.076,5.3-2.989,14.816c0,0,20.388,2.99,29.085,1.358a96.894,96.894,0,0,0-16.716-11.282s-7.746,2.583-9.379-4.892" transform="translate(214.346 147.217)" fill="#98a3f4"/>
        </g>
        <g id="Group_72" data-name="Group 72" transform="translate(93.056 155.948)" clip-path="url(#clip-path-2)">
          <path id="Path_62" data-name="Path 62" d="M260.553,150.578v10.881s16.583,2.864,30.447,0a32.3,32.3,0,0,0-11.417-7.211c-6.525-2.174-7.612-5.708-7.612-5.708s-4.079,3.263-11.417,2.038" transform="translate(251.558 143.412)" fill="#98a3f4"/>
        </g>
        <g id="Group_73" data-name="Group 73" transform="translate(93.056 155.948)" clip-path="url(#clip-path-2)">
          <path id="Path_63" data-name="Path 63" d="M271.964,121.213s4.214,5.708,8.019,5.979,3.263,2.72,6.252,2.991,4.892.271,7.339-3.263.816.271,2.447-3.534-17.247-10.737-17.247-10.737a16.353,16.353,0,0,1-6.81,8.564" transform="translate(262.575 108.76)" fill="#e5827c"/>
        </g>
        <g id="Group_74" data-name="Group 74" transform="translate(93.056 155.948)" clip-path="url(#clip-path-34)">
          <line id="Line_1" data-name="Line 1" y1="161.798" transform="translate(558.891 211.002)" fill="none" stroke="#98a3f4" stroke-miterlimit="10" stroke-width="1"/>
        </g>
        <g id="Group_75" data-name="Group 75" transform="translate(93.056 155.948)" clip-path="url(#clip-path-2)">
          <path id="Path_64" data-name="Path 64" d="M280.2,114.843s6.989,3.789,9.823-1.82c0,0,1.134,8.361,3.567,5.836a16.936,16.936,0,0,0,4.069-10.879l-15.124-1.743Z" transform="translate(270.523 102.568)" fill="#e5827c"/>
        </g>
        <g id="Group_76" data-name="Group 76" transform="translate(93.056 155.948)" clip-path="url(#clip-path-2)">
          <rect id="Rectangle_89" data-name="Rectangle 89" width="46.399" height="64.633" transform="translate(959.608 816.583)" fill="#a3a3a3"/>
        </g>
        <g id="Group_77" data-name="Group 77" transform="translate(93.056 155.948)" clip-path="url(#clip-path-2)">
          <path id="Path_65" data-name="Path 65" d="M488.231,480.1h46.4l-46.4-64.633Z" transform="translate(471.375 401.12)" fill="#d3d3d3"/>
        </g>
        <g id="Group_78" data-name="Group 78" transform="translate(93.056 155.948)" clip-path="url(#clip-path-2)">
          <path id="Path_66" data-name="Path 66" d="M490.252,414.029h45.224a3,3,0,0,1,3,3v20.03s-.332,6.3-4.973,3.646-2.486-10.95-5.3-13.015c-3.455-2.534-10.15,6.262-7.249,14.024,1.806,4.837-1.075,8.845-6.178,8.021-7.642-1.234-4.194-17.005-7.622-20.795-3.149-3.481-9.446-2.653-10.606,7.622s-6.96,12.263-9.114,10.275c-1.755-1.618-.652-22.353-.183-30a2.994,2.994,0,0,1,3-2.809" transform="translate(469.684 399.735)" fill="#f2c73c"/>
        </g>
        <g id="Group_79" data-name="Group 79" transform="translate(93.056 155.948)" clip-path="url(#clip-path-2)">
          <path id="Path_67" data-name="Path 67" d="M216.992,659.142a3.458,3.458,0,0,1-.348-.018,3.364,3.364,0,0,1-3-3.689l44.8-437.328a3.364,3.364,0,0,1,6.692.686l-44.8,437.33a3.365,3.365,0,0,1-3.341,3.019" transform="translate(206.248 207.661)" fill="#341f78"/>
        </g>
        <g id="Group_80" data-name="Group 80" transform="translate(93.056 155.948)" clip-path="url(#clip-path-2)">
          <path id="Path_68" data-name="Path 68" d="M308.367,659.14a3.362,3.362,0,0,1-3.341-3.019l-44.8-437.33a3.364,3.364,0,0,1,6.693-.686l44.8,437.328a3.364,3.364,0,0,1-3,3.689,3.4,3.4,0,0,1-.348.018" transform="translate(251.222 207.662)" fill="#341f78"/>
        </g>
        <g id="Group_81" data-name="Group 81" transform="translate(93.056 155.948)" clip-path="url(#clip-path-2)">
          <path id="Path_69" data-name="Path 69" d="M293.538,246.033h-56.16a3.363,3.363,0,0,1,0-6.726h56.16a3.363,3.363,0,1,1,0,6.726" transform="translate(225.937 231.045)" fill="#341f78"/>
        </g>
        <g id="Group_82" data-name="Group 82" transform="translate(93.056 155.948)" clip-path="url(#clip-path-2)">
          <path id="Path_70" data-name="Path 70" d="M302.561,275.188H234.314a3.363,3.363,0,0,1,0-6.726h68.247a3.363,3.363,0,0,1,0,6.726" transform="translate(222.978 259.194)" fill="#341f78"/>
        </g>
        <g id="Group_83" data-name="Group 83" transform="translate(93.056 155.948)" clip-path="url(#clip-path-2)">
          <path id="Path_71" data-name="Path 71" d="M313.787,311.813H230.563a3.363,3.363,0,1,1,0-6.726h83.224a3.363,3.363,0,0,1,0,6.726" transform="translate(219.354 294.554)" fill="#341f78"/>
        </g>
        <g id="Group_84" data-name="Group 84" transform="translate(93.056 155.948)" clip-path="url(#clip-path-2)">
          <path id="Path_72" data-name="Path 72" d="M325.765,353.073H226.336a3.363,3.363,0,1,1,0-6.726h99.429a3.363,3.363,0,1,1,0,6.726" transform="translate(215.273 334.39)" fill="#341f78"/>
        </g>
        <g id="Group_85" data-name="Group 85" transform="translate(93.056 155.948)" clip-path="url(#clip-path-2)">
          <path id="Path_73" data-name="Path 73" d="M343.365,411.6H220.338a3.363,3.363,0,1,1,0-6.726H343.365a3.363,3.363,0,1,1,0,6.726" transform="translate(209.484 390.901)" fill="#341f78"/>
        </g>
        <g id="Group_86" data-name="Group 86" transform="translate(93.056 155.948)" clip-path="url(#clip-path-2)">
          <path id="Path_74" data-name="Path 74" d="M148.695,205.564a26.428,26.428,0,1,1-26.428-26.428,26.428,26.428,0,0,1,26.428,26.428" transform="translate(92.53 172.952)" fill="#d2d9ff"/>
        </g>
        <g id="Group_87" data-name="Group 87" transform="translate(93.056 155.948)" clip-path="url(#clip-path-2)">
          <path id="Path_75" data-name="Path 75" d="M617.585,202.405a23.27,23.27,0,1,1-23.271-23.269,23.27,23.27,0,0,1,23.271,23.269" transform="translate(551.329 172.952)" fill="#d2d9ff"/>
        </g>
        <g id="Group_88" data-name="Group 88" transform="translate(93.056 155.948)" clip-path="url(#clip-path-2)">
          <path id="Path_76" data-name="Path 76" d="M714.762,347.8a14.791,14.791,0,1,1-14.792-14.79,14.791,14.791,0,0,1,14.792,14.79" transform="translate(661.524 321.509)" fill="#d2d9ff"/>
        </g>
        <g id="Group_89" data-name="Group 89" transform="translate(93.056 155.948)" clip-path="url(#clip-path-2)">
          <path id="Path_77" data-name="Path 77" d="M99.753,360.324a22.773,22.773,0,1,1-22.772-22.772,22.773,22.773,0,0,1,22.772,22.772" transform="translate(52.336 325.898)" fill="#d2d9ff"/>
        </g>
      </g>
    </g>
  </g>
</svg>
