<svg xmlns="http://www.w3.org/2000/svg" xmlns:xlink="http://www.w3.org/1999/xlink" width="649.031" height="535.953" viewBox="0 0 649.031 535.953">
  <defs>
    <radialGradient id="radial-gradient" cx="0.651" cy="0.743" r="0.861" gradientTransform="translate(17.493) scale(1.732 1)" gradientUnits="objectBoundingBox">
      <stop offset="0" stop-color="#26508a"/>
      <stop offset="1" stop-color="#1f3e79"/>
    </radialGradient>
    <linearGradient id="linear-gradient" x1="-11.46" y1="-5.722" x2="-11.438" y2="-5.722" gradientUnits="objectBoundingBox">
      <stop offset="0" stop-color="#d4ebfa"/>
      <stop offset="0.9" stop-color="#96c3e7"/>
      <stop offset="1" stop-color="#86b8e1"/>
    </linearGradient>
    <radialGradient id="radial-gradient-2" cx="0.11" cy="0.2" r="1.555" gradientTransform="translate(16.761) scale(1.732 1)" gradientUnits="objectBoundingBox">
      <stop offset="0" stop-color="#699dd2"/>
      <stop offset="1" stop-color="#386dab"/>
    </radialGradient>
    <radialGradient id="radial-gradient-3" cx="0.604" cy="0.592" r="1.056" gradientTransform="translate(0.21) scale(1.039 1)" xlink:href="#radial-gradient-2"/>
    <linearGradient id="linear-gradient-2" x1="-2.692" y1="-5.986" x2="-2.678" y2="-5.986" gradientUnits="objectBoundingBox">
      <stop offset="0" stop-color="#d4ebfa"/>
      <stop offset="0.6" stop-color="#afd3f0"/>
      <stop offset="0.9" stop-color="#86b8e1"/>
      <stop offset="1" stop-color="#86b8e1"/>
    </linearGradient>
    <radialGradient id="radial-gradient-4" cx="1.6" cy="1.475" r="1.063" gradientTransform="translate(0.422) scale(1.19 1)" gradientUnits="objectBoundingBox">
      <stop offset="0" stop-color="#86b8e1"/>
      <stop offset="1" stop-color="#d4ebfa"/>
    </radialGradient>
    <clipPath id="clip-path">
      <path id="Path_489" data-name="Path 489" d="M1703.033,555.711,1502.764,440.142c-5.512-3.183-8.693-11.624-7.106-18.855l34.683-157.7c1.587-7.231,7.344-10.513,12.856-7.329l200.268,115.567c5.512,3.181,8.693,11.624,7.106,18.855l-34.681,157.7C1714.3,555.612,1708.545,558.892,1703.033,555.711Z" transform="translate(-1495.25 -255.042)" clip-rule="evenodd"/>
    </clipPath>
    <radialGradient id="radial-gradient-5" cx="1.357" cy="1.114" r="0.788" gradientTransform="translate(0.433) scale(1.18 1)" gradientUnits="objectBoundingBox">
      <stop offset="0" stop-color="#1f3e79"/>
      <stop offset="1" stop-color="#26508a"/>
    </radialGradient>
    <radialGradient id="radial-gradient-6" cx="1.726" cy="1.639" r="2.077" gradientTransform="translate(-0.474) scale(0.577 1)" xlink:href="#radial-gradient-4"/>
    <clipPath id="clip-path-2">
      <rect id="Rectangle_174" data-name="Rectangle 174" width="246.749" height="142.333" transform="translate(0)"/>
    </clipPath>
    <radialGradient id="radial-gradient-7" cx="2.615" cy="2.141" r="3.296" gradientTransform="translate(-0.803) scale(0.577 1)" gradientUnits="objectBoundingBox">
      <stop offset="0" stop-color="#4d7bae"/>
      <stop offset="1" stop-color="#7494bc"/>
    </radialGradient>
    <radialGradient id="radial-gradient-8" cx="0.405" cy="1.03" r="0.382" gradientTransform="translate(33.816) scale(2.447 1)" xlink:href="#radial-gradient-2"/>
    <radialGradient id="radial-gradient-9" cx="0.287" cy="1.245" r="0.384" gradientTransform="translate(19.604) scale(2.377 1)" xlink:href="#radial-gradient-2"/>
    <radialGradient id="radial-gradient-10" cx="0.405" cy="1.03" r="0.382" gradientTransform="translate(38.361) scale(2.447 1)" xlink:href="#radial-gradient-2"/>
    <radialGradient id="radial-gradient-11" cx="0.287" cy="1.245" r="0.384" gradientTransform="translate(22.278) scale(2.377 1)" xlink:href="#radial-gradient-2"/>
    <radialGradient id="radial-gradient-12" cx="0.768" cy="0.735" r="0.471" gradientTransform="translate(0.313) scale(1.139 1)" xlink:href="#radial-gradient-2"/>
    <linearGradient id="linear-gradient-3" x1="-1.886" y1="-0.526" x2="-1.879" y2="-0.526" xlink:href="#linear-gradient"/>
    <radialGradient id="radial-gradient-13" cx="0.894" cy="0.143" r="1.092" gradientTransform="matrix(-0.789, -0.6, 0.592, -0.8, -3.338, -2.32)" xlink:href="#radial-gradient-5"/>
  </defs>
  <g id="_844" data-name="844" transform="translate(-784.68 -219.673)">
    <path id="Path_378" data-name="Path 378" d="M2160.045,556.787l-1.685-.972-.214-.125-30.213-17.444,30.213,17.444,49.823-28.765-49.823-28.764-49.822,28.764-1.9-1.1,51.719-29.861,53.62,30.958Zm-3.8,0L2131.336,542.4Z" transform="translate(-778.063 -162.644)" fill="#d1ebfa"/>
    <path id="Path_379" data-name="Path 379" d="M1908.568,556.785h0l17.993-10.388Zm-1.9-1.1-49.825-28.764h0l-1.664-.96-.235-.137,51.721-29.86.473.276,51.248,29.585-1.9,1.1-49.823-28.764-49.822,28.763,49.823,28.764,34.408-19.864Z" transform="translate(-630.027 -162.644)" fill="#d1ebfa"/>
    <path id="Path_380" data-name="Path 380" d="M2034.307,629.383l21.811-12.594Zm-3.8,0-28.184-16.274Zm1.9-1.1L2007.5,613.9l24.912,14.383,32.755-18.911Zm53.618-28.765-1.424-.823-.26-.149Zm-3.8,0-24.912-14.383-24.91-14.381-31.831,18.375-17.993,10.388-1.9-1.1,34.408-19.864,15.413-8.9,1.9-1.1,1.9,1.1,19.609,11.32,30.212,17.444Z" transform="translate(-704.046 -205.379)" fill="#d1ebfa"/>
    <path id="Path_381" data-name="Path 381" d="M2160.046,701.979h0l-1.663-.962-.236-.135-49.824-28.765-1.708-.987-.188-.11,32.754-18.911,17.067-9.853,1.9-1.1.214.125.26.149,1.425.823,51.722,29.861Zm-51.723-29.861,49.824,28.765,49.823-28.765-49.825-28.765-28.01,16.171Z" transform="translate(-778.063 -248.113)" fill="#d1ebfa"/>
    <path id="Path_382" data-name="Path 382" d="M1657.092,556.783l30.213-17.444Zm-1.9-1.1-49.823-28.764-1.666-.961-.231-.135,51.719-29.861.475.276,51.248,29.585-1.9,1.1-49.823-28.764-49.822,28.764,49.823,28.764L1680.1,541.3l-24.91,14.381Zm53.618-28.764-1.425-.821-.238-.139,1.664.96" transform="translate(-481.993 -162.642)" fill="#d1ebfa"/>
    <path id="Path_383" data-name="Path 383" d="M1782.833,629.378,1807.743,615Zm-1.9-1.1-49.823-28.765-1.525-.881-.372-.216,24.91-14.381,24.91-14.383,1.9-1.1.235.137.238.139,1.424.821,49.823,28.765-1.9,1.1-49.823-28.764-19.609,11.32-30.213,17.444,49.823,28.765,21.813-12.594Z" transform="translate(-556.012 -205.376)" fill="#d1ebfa"/>
    <path id="Path_384" data-name="Path 384" d="M1908.573,701.974l0,0,24.91-14.381Zm-1.9-1.1-49.825-28.764h0l-1.6-.926-.295-.171,21.813-12.594,28.009-16.171,1.9-1.1,1.9,1.1h0l49.82,28.766-1.9,1.1-28.184-16.273-21.638-12.494L1881.76,657.73l-24.91,14.383,49.823,28.764,17.395-10.044Zm53.616-28.763-1.424-.823-.285-.164Z" transform="translate(-630.029 -248.111)" fill="#d1ebfa"/>
    <path id="Path_385" data-name="Path 385" d="M2034.313,774.571h0l34.408-19.864Zm-3.8,0L2005.6,760.19Zm1.9-1.1L2002.2,756.032l30.214,17.444,17.912-10.342-17.912,10.342m53.616-28.763-1.422-.823-.239-.139,1.663.962m-3.8,0-49.823-28.766L2007.5,730.328l-24.91,14.381-1.9-1.1,17.395-10.044,32.425-18.719,1.9-1.1.189.11.284.165,1.424.823,49.823,28.765-1.9,1.1" transform="translate(-704.048 -290.848)" fill="#d1ebfa"/>
    <path id="Path_386" data-name="Path 386" d="M2160.05,847.169l-1.568-.9-.331-.19-31.08-17.945,31.08,17.945,49.823-28.766-49.825-28.765-15.413,8.9-34.408,19.864-1.9-1.1,17.912-10.342,31.909-18.423,1.9-1.1.236.135.239.139,1.422.823h0l51.721,29.86Zm-3.8,0-16.4-9.466,16.4,9.466Z" transform="translate(-778.065 -333.582)" fill="#d1ebfa"/>
    <path id="Path_387" data-name="Path 387" d="M1405.614,556.781h0l27.457-15.852Zm-1.9-1.1-49.825-28.765h0l-1.728-1-.171-.1,51.721-29.86,51.721,29.861-1.9,1.1-49.823-28.766-49.822,28.764,49.823,28.765,17.993-10.388Zm53.618-28.763-1.424-.821-.242-.141Z" transform="translate(-333.956 -162.642)" fill="#d1ebfa"/>
    <path id="Path_388" data-name="Path 388" d="M1531.354,629.378l19.609-11.322Zm-3.8,0-16.4-9.468Zm1.9-1.1-33.428-19.3,33.428,19.3,24.91-14.383Zm53.618-28.765-1.424-.823-.1-.058Zm-3.8,0-49.823-28.764-22.366,12.911-27.457,15.852-1.9-1.1,17.993-10.388,31.829-18.375,1.9-1.1.232.135.242.141,1.424.821,49.823,28.765Z" transform="translate(-407.975 -205.376)" fill="#d1ebfa"/>
    <path id="Path_389" data-name="Path 389" d="M1657.1,701.973l32.754-18.909L1657.1,701.974m-1.9-1.1-49.823-28.764-1.64-.948-.257-.149,24.91-14.383,24.912-14.381,1.9-1.1h0l.372.216.1.058,1.424.823,49.823,28.764-1.9,1.1L1655.2,643.347l-30.213,17.444-19.609,11.322,49.823,28.764,17.069-9.855Zm53.618-28.764-1.423-.823-.18-.1,1.6.926" transform="translate(-481.995 -248.111)" fill="#d1ebfa"/>
    <path id="Path_390" data-name="Path 390" d="M1782.835,774.569l24.91-14.381Zm-1.9-1.1-49.825-28.765,0,0-1.728-1-.171-.1,17.069-9.855,32.753-18.91,1.9-1.1.295.171.18.1,1.423.823,49.825,28.765-1.9,1.1-49.823-28.764-17.067,9.855-32.754,18.91,49.823,28.766,24.912-14.383Z" transform="translate(-556.012 -290.845)" fill="#d1ebfa"/>
    <path id="Path_391" data-name="Path 391" d="M1908.573,847.164l21.813-12.594-21.811,12.594m-3.8,0-24.91-14.381Zm1.9-1.1-24.912-14.383,24.912,14.383,24.912-14.383ZM1956.5,817.3l-24.91-14.381-24.912-14.383-24.912,14.383L1856.853,817.3l-1.9-1.1,24.912-14.383,24.91-14.383,1.9-1.1,1.9,1.1,0,0,19.607,11.32,30.213,17.444Z" transform="translate(-630.031 -333.58)" fill="#d1ebfa"/>
    <path id="Path_392" data-name="Path 392" d="M2034.314,919.76h0l27.457-15.85Zm-1.9-1.1L1982.59,889.9l-1.757-1.015-.141-.08,24.912-14.383,24.91-14.383,1.9-1.1,1.9,1.1h0l18.741,10.823,31.08,17.945-1.9,1.1-16.4-9.466-33.426-19.3-28.01,16.171L1982.59,889.9l49.825,28.765,24.91-14.381-24.91,14.383v0m53.618-28.763-1.425-.821-.144-.084Z" transform="translate(-704.048 -376.314)" fill="#d1ebfa"/>
    <path id="Path_393" data-name="Path 393" d="M2160.055,992.36h0l-1.772-1.023-.127-.072-16.4-9.468,16.4,9.468,49.823-28.766-49.825-28.765-22.365,12.913-27.457,15.85-1.9-1.1,24.91-14.381,24.91-14.381h0l1.9-1.1.331.19.144.084,1.424.821,51.72,29.861Zm-3.8,0-24.912-14.383,24.914,14.383Z" transform="translate(-778.068 -419.051)" fill="#d1ebfa"/>
    <path id="Path_394" data-name="Path 394" d="M1154.137,556.781l24.91-14.383Zm-1.9-1.1-49.823-28.765-1.772-1.023-.125-.074,51.719-29.86.475.274,51.248,29.585-1.9,1.1-49.825-28.764-49.822,28.764,49.823,28.765L1177.15,541.3Zm53.618-28.765-1.423-.821-.3-.177,1.728,1" transform="translate(-185.922 -162.642)" fill="#d1ebfa"/>
    <path id="Path_395" data-name="Path 395" d="M1279.876,629.374l24.91-14.383Zm-1.9-1.1-49.823-28.764-1.728-1-.172-.1,24.912-14.381,24.911-14.383,1.9-1.1.172.1.3.177,1.423.821,49.825,28.765-1.9,1.1-49.823-28.765-24.912,14.381-24.91,14.383,49.823,28.764,32.755-18.911Z" transform="translate(-259.939 -205.374)" fill="#d1ebfa"/>
    <path id="Path_396" data-name="Path 396" d="M1369.893,681.345l-16-9.236h0l-1.664-.96-.235-.137,32.754-18.911,17.067-9.853,1.9-1.1,1.9,1.1h0l16.4,9.468,33.426,19.3-1.9,1.1-16.4-9.468-33.426-19.3-24.912,14.381-24.91,14.383Zm87.444-9.234-1.424-.823-.216-.125Z" transform="translate(-333.958 -248.108)" fill="#d1ebfa"/>
    <path id="Path_397" data-name="Path 397" d="M1598.632,757.046l3.455-2Zm25.164-12.337-1.423-.823-.3-.175,1.728,1m-3.8,0-49.823-28.764-21.369,12.337-1.9-1.1,21.369-12.337,1.9-1.1.257.149.216.125,1.424.823,49.823,28.765Z" transform="translate(-448.696 -290.845)" fill="#d1ebfa"/>
    <path id="Path_398" data-name="Path 398" d="M1745.743,817.3l-49.825-28.765-21.369,12.337-1.9-1.1,3.455-1.995,17.914-10.343,1.9-1.1.171.1.3.175,1.422.823,49.825,28.765-1.9,1.1" transform="translate(-522.716 -333.58)" fill="#d1ebfa"/>
    <path id="Path_399" data-name="Path 399" d="M1850.112,902.237l4.3-2.484Zm25.166-12.339-1.424-.821-.333-.194Zm-3.8,0-24.91-14.381-24.912-14.383-21.369,12.337-1.9-1.1,21.367-12.339,1.9-1.1,1.9,1.1,24.91,14.383L1873.38,888.8Z" transform="translate(-596.735 -376.314)" fill="#d1ebfa"/>
    <path id="Path_400" data-name="Path 400" d="M1961.224,985.468l5.138-2.965Zm1.669-3.155s0,0,0,0l12.51-7.222Zm34.324-19.818-49.823-28.764-21.369,12.337-1.9-1.1,4.3-2.483,17.067-9.855,1.9-1.1.141.081.332.194,1.424.821,49.823,28.766Z" transform="translate(-670.75 -419.049)" fill="#d1ebfa"/>
    <path id="Path_401" data-name="Path 401" d="M2054.106,1064.95l22.366-12.913Zm-1.9-1.1-33.767-19.494v0l33.769,19.5,31.908-18.421-31.908,18.421m53.616-28.763-1.423-.821-.348-.2,1.772,1.023m-3.8,0-24.913-14.383-24.91-14.383-32.754,18.911-5.138,2.965a7.814,7.814,0,0,0,1.669-3.155l12.511-7.224,21.813-12.594,1.9-1.1,1.9,1.1h0l33.425,19.3,16.4,9.468Z" transform="translate(-723.84 -461.781)" fill="#d1ebfa"/>
    <path id="Path_402" data-name="Path 402" d="M2160.059,1137.551l-1.9-1.1-49.823-28.765-1.525-.881-.372-.216,31.908-18.421,17.912-10.342h0l1.9-1.1.127.072.348.2,1.423.821h0l51.721,29.861Zm-51.723-29.862,49.823,28.765,49.823-28.763-49.825-28.764-27.455,15.85Z" transform="translate(-778.071 -504.52)" fill="#d1ebfa"/>
    <path id="Path_403" data-name="Path 403" d="M899.943,556.774l17.994-10.388Zm-3.8,0-51.721-29.861,53.618-30.958,51.722,29.863-1.9,1.1-49.823-28.766-49.822,28.764,49.823,28.765,34.408-19.864-34.408,19.864Zm55.517-29.86-1.424-.821-.348-.2Z" transform="translate(-35.17 -162.637)" fill="#d1ebfa"/>
    <path id="Path_404" data-name="Path 404" d="M1028.4,629.373h0l22.367-12.913Zm-1.9-1.1-51.247-29.587-.473-.274,34.408-19.864,15.413-8.9,1.9-1.1.125.074.348.2,1.424.821,49.823,28.765-1.9,1.1L1026.5,570.748l-31.829,18.375-17.994,10.388,49.825,28.765,31.908-18.421L1026.5,628.276m53.618-28.763-1.424-.823-.3-.175Z" transform="translate(-111.905 -205.374)" fill="#d1ebfa"/>
    <path id="Path_405" data-name="Path 405" d="M1154.141,701.97l22.075-12.746Zm-3.8,0-24.912-14.383,24.912,14.385Zm1.9-1.1-24.912-14.383,24.912,14.383,24.911-14.383-24.91,14.383Zm53.618-28.764-1.424-.823-.238-.137,1.664.96m-3.8,0-49.825-28.765-27.455,15.85-22.367,12.913-1.9-1.1,31.908-18.421,17.914-10.342,1.9-1.1.171.1.3.175,1.424.823,49.823,28.764-1.9,1.1" transform="translate(-185.924 -248.108)" fill="#d1ebfa"/>
    <path id="Path_406" data-name="Path 406" d="M1244.15,753.936l-15.991-9.231h0l-1.64-.948-.257-.149,24.91-14.383,24.91-14.381,1.9-1.1.235.137.238.137,1.424.823,16,9.236-1.9,1.1-16-9.236-27.746,16.02L1228.161,744.7Z" transform="translate(-259.944 -290.843)" fill="#d1ebfa"/>
    <path id="Path_407" data-name="Path 407" d="M1969.393,1152.382,1989,1141.061Zm-1.9-1.1-9.226-5.327,9.228,5.327,24.91-14.383-24.91,14.383m53.618-28.764-1.424-.823-.1-.058Zm-3.8,0-31.683-18.292c.01-.166.017-.334.017-.5a7.913,7.913,0,0,0-.2-1.8l33.768,19.494Z" transform="translate(-690.847 -519.352)" fill="#d1ebfa"/>
    <path id="Path_408" data-name="Path 408" d="M2034.321,1210.14l27.745-16.018-27.745,16.02m-1.9-1.1L1982.6,1180.28l-1.6-.925-.295-.172,24.91-14.383,24.912-14.382,1.9-1.1.372.216.1.058,1.424.823,49.823,28.765-1.9,1.1-49.823-28.766-30.215,17.444L1982.6,1180.28l49.825,28.765,17.067-9.855-17.067,9.855" transform="translate(-704.053 -547.25)" fill="#d1ebfa"/>
    <path id="Path_409" data-name="Path 409" d="M2160.063,1282.737v0h0l-1.728-1-.172-.1-49.823-28.764v0l-1.728-1-.169-.1,17.067-9.855,32.754-18.91,1.9-1.1,1.9,1.1,51.72,29.861Zm-51.723-29.863,49.823,28.766,49.824-28.764-49.825-28.766-22.077,12.746Z" transform="translate(-778.073 -589.984)" fill="#d1ebfa"/>
    <path id="Path_410" data-name="Path 410" d="M899.947,701.966l27.748-16.02-27.746,16.02m-3.8,0L844.43,672.1l51.719-29.861,1.9-1.1.473.274,51.248,29.587-1.9,1.1-49.823-28.766L848.226,672.1l49.823,28.764,17.067-9.853-17.067,9.853Z" transform="translate(-35.173 -248.106)" fill="#d1ebfa"/>
    <path id="Path_411" data-name="Path 411" d="M1028.4,774.56l27.457-15.85Zm-1.9-1.1-51.247-29.587-.473-.274,17.067-9.853,32.754-18.911,1.9-1.1,1.9,1.1h0l24.91,14.383,24.912,14.383-1.9,1.1L1026.5,715.934l-22.075,12.746L976.681,744.7l49.825,28.765,17.993-10.388-17.993,10.388m53.616-28.763-1.423-.823-.216-.125,1.64.948" transform="translate(-111.907 -290.84)" fill="#d1ebfa"/>
    <path id="Path_412" data-name="Path 412" d="M1102.423,817.3l-1.9-1.1,17.993-10.388,31.829-18.376,1.9-1.1h0l.257.149.216.125,1.422.823,15.991,9.231-1.9,1.1-15.989-9.231-22.365,12.913Z" transform="translate(-185.927 -333.577)" fill="#d1ebfa"/>
    <path id="Path_413" data-name="Path 413" d="M1840.926,1245.251l32.755-18.91-32.753,18.911m-3.8,0-9.236-5.332h0l9.236,5.332Zm1.9-1.095-9.236-5.332,9.236,5.332,17.067-9.855Zm53.618-28.765-1.424-.823-.178-.1Zm-3.8,0-9.228-5.329,1.9-1.1,9.226,5.327Z" transform="translate(-614.101 -582.361)" fill="#d1ebfa"/>
    <path id="Path_414" data-name="Path 414" d="M1908.584,1282.736l24.911-14.381Zm-1.9-1.1-49.825-28.764v0l-1.767-1.02-.13-.075,17.067-9.855,32.755-18.91,1.9-1.1.295.171.178.1,1.424.823,49.823,28.765-1.9,1.1-49.823-28.765-17.069,9.855-32.754,18.91,49.825,28.766L1936.9,1264.2Zm53.618-28.764-1.424-.823-.3-.175,1.728,1" transform="translate(-630.036 -589.984)" fill="#d1ebfa"/>
    <path id="Path_415" data-name="Path 415" d="M2032.428,1356.429h0Zm1.9-1.1,28.007-16.171Zm-1.9-1.1L1982.6,1325.47l-1.726-1-.171-.1,30.213-17.444,19.609-11.322,1.9-1.1.17.1.3.175,1.424.823,49.823,28.765-1.9,1.1-49.823-28.765-24.912,14.383L1982.6,1325.47l49.825,28.766,24.91-14.383Zm53.618-28.766-1.423-.821-.3-.175,1.728,1" transform="translate(-704.056 -632.719)" fill="#d1ebfa"/>
    <path id="Path_416" data-name="Path 416" d="M2158.166,1429.024l-.473-.276-51.248-29.585,1.9-1.1-1.9-1.1,24.912-14.383,24.912-14.383,1.9-1.1.172.1.3.175,1.423.821v0l51.72,29.86Zm-49.823-30.958,49.823,28.765,49.823-28.765-49.825-28.765-21.814,12.594Z" transform="translate(-778.073 -675.453)" fill="#d1ebfa"/>
    <path id="Path_417" data-name="Path 417" d="M899.951,847.156l24.912-14.381-24.91,14.381m-3.8,0-51.722-29.861,51.719-29.861,1.9-1.1.473.274L949.773,816.2l-1.9,1.1L898.052,788.53,848.23,817.295l49.823,28.766,30.213-17.444-30.213,17.444Z" transform="translate(-35.175 -333.575)" fill="#d1ebfa"/>
    <path id="Path_418" data-name="Path 418" d="M1028.408,919.752l4.813-2.778Zm-1.9-1.1-3.267-1.887h0l3.267,1.885,4.811-2.778,0,0-4.813,2.778v0m-8.259-4.766-42.99-24.819-.473-.274L1005,871.351l19.609-11.322,1.9-1.1,1.9,1.1,15.982,9.228-1.9,1.1-15.98-9.228L1001.6,875.509l-24.912,14.381Z" transform="translate(-111.91 -376.309)" fill="#d1ebfa"/>
    <path id="Path_419" data-name="Path 419" d="M1115.138,1008.584l-12.71-7.339-1.637-.944-.261-.151,4.813-2.778,1.9,1.1-4.813,2.778Z" transform="translate(-185.929 -457.802)" fill="#d1ebfa"/>
    <path id="Path_420" data-name="Path 420" d="M1717.9,1317.838l22.365-12.911L1717.9,1317.84m-1.9-1.1-9.243-5.337,9.243,5.337,31.91-18.423L1716,1316.743Zm53.618-28.763-1.424-.823-.343-.2,1.767,1.02m-3.794,0-9.236-5.332,1.9-1.1,9.236,5.332-1.9,1.1" transform="translate(-542.792 -625.088)" fill="#d1ebfa"/>
    <path id="Path_421" data-name="Path 421" d="M1782.849,1355.33l17.914-10.342-17.912,10.342m-1.9-1.1-49.825-28.764,0,0-1.6-.926-.293-.17,31.907-18.423,17.912-10.342,1.9-1.1.13.075.343.2,1.424.823,49.825,28.765-1.9,1.1-49.823-28.765-27.457,15.852-22.365,12.911,49.823,28.766,27.457-15.852Zm53.618-28.764-1.424-.821-.3-.175Z" transform="translate(-556.022 -632.719)" fill="#d1ebfa"/>
    <path id="Path_422" data-name="Path 422" d="M1906.691,1429.024l-51.723-29.863,1.9-1.1-1.9-1.095,27.457-15.852,22.365-12.913,1.9-1.1.171.1.3.175,1.424.821,49.823,28.766,1.9,1.1-1.9,1.1h0Zm-49.825-30.96,49.825,28.766,49.822-28.765-49.823-28.765-31.909,18.421Z" transform="translate(-630.039 -675.453)" fill="#d1ebfa"/>
    <path id="Path_423" data-name="Path 423" d="M899.955,992.348l14.328-8.271Zm-3.8,0-51.721-29.861,51.721-29.861,1.9-1.1.473.274,42.99,24.819-.792.458c-.369.213-.723.434-1.069.66l-41.6-24.019-49.822,28.764,49.823,28.765,24.912-14.381-24.912,14.381Zm55.517-29.861-1.424-.821-.213-.123Zm-3.8,0-3.267-1.885,1.9-1.1,3.267,1.887Z" transform="translate(-35.178 -419.044)" fill="#d1ebfa"/>
    <path id="Path_424" data-name="Path 424" d="M1028.412,1064.941l16.719-9.653Zm-1.9-1.1-51.248-29.585-.473-.276L999.7,1019.6l11.481-6.629a8.952,8.952,0,0,0,.973,1.63l-21.141,12.206-14.328,8.271,49.825,28.764,16.719-9.653-16.719,9.653m12.707-50.192-12.708-7.337-9.968,5.754a3.867,3.867,0,0,1-.982-1.625l9.051-5.226,1.9-1.1v0l.26.151.213.123,1.424.821,12.71,7.339Z" transform="translate(-111.912 -461.776)" fill="#d1ebfa"/>
    <path id="Path_425" data-name="Path 425" d="M1154.154,1166.458l16.719-9.653Zm-1.9-1.1-49.823-28.765-1.6-.924-.3-.173,16.719-9.653,1.9,1.1-16.719,9.653,49.823,28.765,16.719-9.653h0l-16.719,9.653Z" transform="translate(-185.932 -533.431)" fill="#d1ebfa"/>
    <path id="Path_426" data-name="Path 426" d="M1279.891,1239.055l16.721-9.654-16.719,9.654m-3.8,0-24.911-14.383,24.913,14.385Zm1.9-1.1-24.912-14.383,24.912,14.383,16.719-9.654,0,0Zm-49.823-28.766-1.9-1.1,16.721-9.653,1.9,1.1Z" transform="translate(-259.949 -576.165)" fill="#d1ebfa"/>
    <path id="Path_427" data-name="Path 427" d="M1405.635,1311.652h0l16.721-9.653Zm-1.9-1.1-49.825-28.765-1.7-.98-.2-.116,16.721-9.653,1.9,1.1-16.721,9.654,49.825,28.765,16.719-9.655Z" transform="translate(-333.968 -618.902)" fill="#d1ebfa"/>
    <path id="Path_428" data-name="Path 428" d="M1529.474,1385.342h0Zm-1.9-1.1-19.609-11.32Zm3.8,0,19.609-11.32Zm-1.9-1.1-24.91-14.383,24.91,14.383,24.912-14.383Zm53.618-28.765-1.423-.823-.18-.1,1.6.926m-3.8,0-9.245-5.335,1.9-1.1,9.243,5.337Zm-99.645,0-1.9-1.1,16.719-9.655,1.9,1.1Z" transform="translate(-407.988 -661.634)" fill="#d1ebfa"/>
    <path id="Path_429" data-name="Path 429" d="M1655.211,1429.02l-.473-.274-51.248-29.587,1.9-1.1-1.9-1.1,49.823-28.766,1.9-1.1h0l.293.17.18.1,1.423.823,49.825,28.764,1.9,1.1-1.9,1.1Zm-49.823-30.958,49.823,28.765,49.823-28.765-49.825-28.765L1625,1386.742Z" transform="translate(-482.002 -675.451)" fill="#d1ebfa"/>
    <path id="Path_430" data-name="Path 430" d="M899.959,1137.537l24.912-14.383Zm-3.8,0-51.721-29.86,51.719-29.861,1.9-1.1.473.276,51.247,29.586-1.9,1.1-49.823-28.764-49.823,28.764,49.825,28.765,28.009-16.171-28.009,16.171Zm55.517-29.86-1.424-.823-.175-.1Z" transform="translate(-35.18 -504.51)" fill="#d1ebfa"/>
    <path id="Path_431" data-name="Path 431" d="M1028.416,1210.132l35.495-20.492-35.495,20.493m-1.9-1.1-51.247-29.587-.473-.274L1002.805,1163l21.813-12.594,1.9-1.1.3.173.175.1,1.424.823,49.823,28.764-1.9,1.1-49.823-28.766-24.912,14.383-24.912,14.383,49.825,28.765,16.964-9.8-16.964,9.8" transform="translate(-111.915 -547.245)" fill="#d1ebfa"/>
    <path id="Path_432" data-name="Path 432" d="M1154.158,1282.728l34.408-19.864-34.408,19.866m-1.9-1.1-49.823-28.765v0l-1.686-.972-.211-.124,16.964-9.795,32.857-18.97,1.9-1.1,1.9,1.1,49.823,28.766-1.9,1.1-49.823-28.766-14.327,8.273-35.5,20.492,49.823,28.766,17.914-10.342Zm53.618-28.763-1.424-.823-.272-.158Z" transform="translate(-185.934 -589.979)" fill="#d1ebfa"/>
    <path id="Path_433" data-name="Path 433" d="M1260.354,1344.043l-32.18-18.579h0l-1.654-.953-.245-.142,17.914-10.342L1276.1,1295.6l1.9-1.1.2.117.272.158,1.424.823,49.823,28.765-1.9,1.1L1278,1296.7l-15.413,8.9-34.408,19.864Z" transform="translate(-259.951 -632.716)" fill="#d1ebfa"/>
    <path id="Path_434" data-name="Path 434" d="M1422.208,1429.02l-38.815-22.411,1.9-1.1,36.916,21.314,49.822-28.765-19.609-11.32-30.213-17.444-1.815,1.047a5.376,5.376,0,0,0-1.066-1.577l.982-.567,1.9-1.1,1.9,1.1h0l49.82,28.766,1.9,1.1-1.9,1.1h0Z" transform="translate(-352.44 -675.451)" fill="#d1ebfa"/>
    <path id="Path_435" data-name="Path 435" d="M899.964,1282.728l21.813-12.592-21.811,12.592m-3.8,0-51.721-29.861L896.166,1223l1.9-1.1.473.274,51.248,29.587-1.9,1.1L898.064,1224.1l-49.822,28.765,49.823,28.766,24.91-14.383-24.91,14.383Zm55.517-29.86-1.424-.823-.262-.151,1.686.972" transform="translate(-35.182 -589.979)" fill="#d1ebfa"/>
    <path id="Path_436" data-name="Path 436" d="M1026.521,1356.42h0Zm1.9-1.1,21.813-12.594Zm-1.9-1.1-51.247-29.587-.473-.274,24.91-14.383,24.911-14.383,1.9-1.1.211.124.262.151,1.424.823,49.823,28.764-1.9,1.095-49.823-28.764-28.01,16.173L976.7,1325.462l49.823,28.766,24.912-14.383Zm53.618-28.766-1.422-.821-.23-.132,1.654.953" transform="translate(-111.917 -632.714)" fill="#d1ebfa"/>
    <path id="Path_437" data-name="Path 437" d="M1152.261,1429.016l-.473-.274-51.248-29.587,1.9-1.1-1.9-1.1,49.823-28.766,1.9-1.1.245.142.23.132,1.422.821,32.18,18.579q-.409.866-.782,1.741l-33.3-19.223-28.009,16.171-21.813,12.594,49.823,28.765,16.289-9.4a21.164,21.164,0,0,0-.908,2.717Z" transform="translate(-185.934 -675.448)" fill="#d1ebfa"/>
    <path id="Path_438" data-name="Path 438" d="M898.07,1429.016l-53.62-30.96,51.719-29.86,1.9-1.1.473.274,51.247,29.587,1.9,1.1-1.9,1.1h0Zm0-59.723-49.823,28.763,49.825,28.766,49.822-28.765Z" transform="translate(-35.185 -675.448)" fill="#d1ebfa"/>
    <path id="Path_439" data-name="Path 439" d="M1831.381,1340.5a11.4,11.4,0,0,1-5.157,8.929c-2.847,1.644-5.155.31-5.155-2.977a11.4,11.4,0,0,1,5.155-8.931C1829.07,1335.879,1831.381,1337.213,1831.381,1340.5Z" transform="translate(-610.083 -657.622)" fill="#fff"/>
    <path id="Path_440" data-name="Path 440" d="M1872.01,1317.044a11.394,11.394,0,0,1-5.157,8.929c-2.847,1.644-5.155.31-5.155-2.977a11.4,11.4,0,0,1,5.155-8.931C1869.7,1312.421,1872.01,1313.755,1872.01,1317.044Z" transform="translate(-634 -643.813)" fill="#fff"/>
    <path id="Path_441" data-name="Path 441" d="M1912.639,1293.587a11.4,11.4,0,0,1-5.157,8.929c-2.847,1.644-5.155.31-5.155-2.977a11.4,11.4,0,0,1,5.155-8.929C1910.33,1288.966,1912.639,1290.3,1912.639,1293.587Z" transform="translate(-657.917 -630.006)" fill="#fff"/>
    <path id="Path_442" data-name="Path 442" d="M1953.269,1270.129a11.4,11.4,0,0,1-5.156,8.929c-2.848,1.645-5.157.312-5.157-2.975a11.4,11.4,0,0,1,5.157-8.931C1950.96,1265.508,1953.269,1266.84,1953.269,1270.129Z" transform="translate(-681.834 -616.197)" fill="#fff"/>
    <path id="Path_443" data-name="Path 443" d="M793.714,1025.848l-9.034,5.217V1020.63l9.034-5.217Z" transform="translate(0 -468.423)" fill="#fff"/>
    <path id="Path_444" data-name="Path 444" d="M829.315,1005.3l-9.036,5.215v-10.432l9.036-5.217Z" transform="translate(-20.956 -456.326)" fill="#fff"/>
    <path id="Path_445" data-name="Path 445" d="M864.916,984.742l-9.036,5.217V979.526l9.036-5.217Z" transform="translate(-41.913 -444.226)" fill="#fff"/>
    <path id="Path_446" data-name="Path 446" d="M900.516,964.192l-9.036,5.215V958.975l9.036-5.215Z" transform="translate(-62.869 -432.129)" fill="#fff"/>
    <path id="Path_447" data-name="Path 447" d="M1168.051,1316.441l-10.313,5.954v-11.907l10.313-5.954Z" transform="translate(-219.606 -638.618)" fill="#fff"/>
    <path id="Path_448" data-name="Path 448" d="M1202.845,1296.105l-10.311,5.952v-11.906l10.311-5.954Z" transform="translate(-240.089 -626.646)" fill="#fff"/>
    <path id="Path_449" data-name="Path 449" d="M1168.266,1354l-10.311,5.954v-11.908l10.311-5.953Z" transform="translate(-219.733 -660.727)" fill="#fff"/>
    <path id="Path_450" data-name="Path 450" d="M1202.845,1334.033l-10.311,5.954v-11.908l10.311-5.952Z" transform="translate(-240.089 -648.973)" fill="#fff"/>
    <path id="Path_451" data-name="Path 451" d="M1267.725,1425.183c-3.183,0-5.37-2.538-5.37-6.926a16.248,16.248,0,0,1,.542-4.014l36.34-20.98,12.906,7.452-40.083,23.141A8.8,8.8,0,0,1,1267.725,1425.183Zm-3.92-13.656a21.1,21.1,0,0,1,8.254-10.074,8.744,8.744,0,0,1,4.312-1.315,5.426,5.426,0,0,1,1.364.168,24.069,24.069,0,0,1-.2-3.021,38.182,38.182,0,0,1,3.277-14.659l16.529,9.541Zm50.236-11.908-12.907-7.452,31.91-18.421,16.1-9.295a8.966,8.966,0,0,1,.711,3.721c0,5.949-4.175,13.183-9.327,16.155Zm-14.8-8.547-17.645-10.188c3.7-7.817,9.588-14.892,16.217-18.721a18.331,18.331,0,0,1,9.027-2.759,10.114,10.114,0,0,1,9.127,5.308,24.924,24.924,0,0,1,6.585-5.749,12.412,12.412,0,0,1,6.117-1.87c4.4,0,7.443,3.428,7.586,9.37a16.7,16.7,0,0,1,4.276-3.675,8.452,8.452,0,0,1,4.167-1.275,4.627,4.627,0,0,1,3.383,1.361l-33.427,19.3Z" transform="translate(-281.19 -669.557)" fill="#daf0fc"/>
    <path id="Path_452" data-name="Path 452" d="M1328.664,1416l31.91-18.421L1328.666,1416m-1.9-1.1-17.645-10.187,17.645,10.188,15.413-8.9Z" transform="translate(-308.719 -693.388)" fill="#e9f7fe"/>
    <path id="Path_453" data-name="Path 453" d="M1364.923,1408.988l-12.906-7.452,1.9-1.1-1.9-1.095,15.413-8.9,33.427-19.3a5.374,5.374,0,0,1,1.066,1.577l-16.1,9.294-31.91,18.421,12.907,7.452Z" transform="translate(-333.971 -677.83)" fill="#e9f7fe"/>
    <path id="Path_454" data-name="Path 454" d="M1263.672,1448.29a21.145,21.145,0,0,1,.908-2.717l33.534-19.36-16.529-9.542q.373-.877.781-1.741l17.645,10.188,1.9,1.1-1.9,1.1Z" transform="translate(-281.965 -703.604)" fill="#e9f7fe"/>
    <path id="Path_455" data-name="Path 455" d="M2195.96,858.591l-38.72-22.354,38.719-22.353,38.719,22.354Z" transform="translate(-807.974 -349.79)" fill="#7dc3ea"/>
    <path id="Path_456" data-name="Path 456" d="M2158.915,791.216l32.833,18.956,32.83-18.956-32.831-18.952Zm32.833,25.3a2.949,2.949,0,0,1-1.472-.394l-38.717-22.354a2.942,2.942,0,0,1,0-5.1l38.716-22.353a2.94,2.94,0,0,1,2.943,0l38.719,22.353a2.944,2.944,0,0,1,0,5.1l-38.717,22.354A2.938,2.938,0,0,1,2191.749,816.515Z" transform="translate(-803.763 -321.556)" fill="#fff"/>
    <path id="Path_457" data-name="Path 457" d="M2290.09,720.981l-38.717,22.353V698.628l38.717-22.353Z" transform="translate(-863.387 -268.785)" fill-rule="evenodd" fill="url(#radial-gradient)"/>
    <path id="Path_458" data-name="Path 458" d="M2195.965,666.639l-38.717-22.353,38.716-22.353,38.717,22.353Z" transform="translate(-807.979 -236.796)" fill-rule="evenodd" fill="url(#linear-gradient)"/>
    <path id="Path_459" data-name="Path 459" d="M2195.965,743.334l-38.717-22.353V676.276l38.717,22.353Z" transform="translate(-807.979 -268.785)" fill-rule="evenodd" fill="url(#radial-gradient-2)"/>
    <path id="Path_460" data-name="Path 460" d="M2201.976,753.743l-10.829-6.251v-12.5l10.829,6.252Z" transform="translate(-827.935 -303.347)" fill="#fff"/>
    <path id="Path_461" data-name="Path 461" d="M861.52,1236.495l-53.414-30.84c-3.277-1.892-2.866-5.2.919-7.383L860.6,1168.5c3.786-2.187,9.51-2.424,12.791-.531L926.8,1198.8c3.279,1.892,2.866,5.2-.92,7.384l-51.573,29.777C870.525,1238.149,864.8,1238.385,861.52,1236.495Z" transform="translate(-12.488 -557.472)" fill="#7dc3ea"/>
    <path id="Path_462" data-name="Path 462" d="M858.694,1188.48c2.357,1.363,6.916,1.11,9.754-.53l51.577-29.779c1.3-.747,1.606-1.424,1.615-1.551a1.948,1.948,0,0,0-.7-.576l-53.412-30.838c-2.357-1.361-6.914-1.114-9.759.53L806.2,1155.512c-1.3.749-1.608,1.424-1.614,1.553a1.914,1.914,0,0,0,.7.579Zm4.067,6.952a14.387,14.387,0,0,1-7.1-1.7L802.247,1162.9a6.8,6.8,0,0,1-3.729-5.834c0-2.619,1.693-5.1,4.646-6.8l51.577-29.777c4.772-2.754,11.578-2.979,15.823-.531l53.412,30.84a6.8,6.8,0,0,1,3.731,5.832c0,2.621-1.7,5.1-4.65,6.806l-51.575,29.777A17.754,17.754,0,0,1,862.761,1195.432Z" transform="translate(-8.146 -528.962)" fill="#fff"/>
    <path id="Path_463" data-name="Path 463" d="M929.008,1125.552v-18.428l-41.324-.024-14.284-8.247c-3.28-1.892-9-1.654-12.791.531l-13.327,7.694-41.363-.024v18.956a3.712,3.712,0,0,0,2.2,3.426l53.412,30.836c3.279,1.894,9.005,1.656,12.789-.528l51.573-29.777C928.078,1128.706,929.13,1127.072,929.008,1125.552Z" transform="translate(-12.498 -516.789)" fill="#386dab"/>
    <path id="Path_464" data-name="Path 464" d="M867.465,1097.6a14.716,14.716,0,0,0-6.856,1.8l-13.327,7.694-41.363-.024v18.956a3.712,3.712,0,0,0,2.2,3.426l53.412,30.837a11.563,11.563,0,0,0,5.935,1.27Z" transform="translate(-12.498 -516.804)" fill-rule="evenodd" fill="url(#radial-gradient-3)"/>
    <path id="Path_465" data-name="Path 465" d="M810.6,1120.621l-4.682,0v18.956a3.712,3.712,0,0,0,2.2,3.426l2.483,1.435Z" transform="translate(-12.498 -530.353)" fill="#d4ebfa"/>
    <path id="Path_466" data-name="Path 466" d="M943.126,1220.016a14.565,14.565,0,0,0,10.224-.117v-21.52H943.126Z" transform="translate(-93.271 -576.128)" fill="#5593ce"/>
    <path id="Path_467" data-name="Path 467" d="M861.52,1104.188l-53.414-30.838c-3.277-1.892-2.866-5.2.919-7.384l51.575-29.777c3.786-2.185,9.51-2.422,12.791-.531L926.8,1066.5c3.279,1.892,2.866,5.2-.92,7.384l-51.573,29.776C870.525,1105.844,864.8,1106.08,861.52,1104.188Z" transform="translate(-12.488 -479.589)" fill-rule="evenodd" fill="url(#linear-gradient-2)"/>
    <path id="Path_468" data-name="Path 468" d="M925.881,1118.291l-51.573,29.776c-3.784,2.185-9.51,2.423-12.789.531l-53.412-30.84a4.914,4.914,0,0,1-1.637-1.45c-1.128,1.812-.615,3.779,1.637,5.078l53.412,30.838c3.279,1.892,9,1.656,12.789-.531l51.573-29.776c2.943-1.7,3.837-4.071,2.556-5.934A7.144,7.144,0,0,1,925.881,1118.291Z" transform="translate(-12.487 -527.625)" fill="#fff"/>
    <path id="Path_469" data-name="Path 469" d="M1051.233,1175.21a4.771,4.771,0,0,1-2.158,3.738c-1.191.687-2.158.128-2.158-1.248a4.767,4.767,0,0,1,2.158-3.735C1050.267,1173.277,1051.233,1173.836,1051.233,1175.21Z" transform="translate(-154.37 -561.583)" fill="#d4ebfa"/>
    <path id="Path_470" data-name="Path 470" d="M1068.108,1165.47a4.767,4.767,0,0,1-2.158,3.736c-1.19.689-2.158.13-2.158-1.244a4.772,4.772,0,0,1,2.158-3.736C1067.141,1163.538,1068.108,1164.1,1068.108,1165.47Z" transform="translate(-164.303 -555.85)" fill="#d4ebfa"/>
    <path id="Path_471" data-name="Path 471" d="M1084.987,1155.726a4.775,4.775,0,0,1-2.158,3.736c-1.193.689-2.158.13-2.158-1.244a4.765,4.765,0,0,1,2.158-3.738C1084.019,1153.792,1084.987,1154.349,1084.987,1155.726Z" transform="translate(-174.239 -550.113)" fill="#d4ebfa"/>
    <path id="Path_472" data-name="Path 472" d="M911.552,1110.858l-25-14.429c-1.534-.886-1.342-2.432.43-3.455l24.135-13.932a6.641,6.641,0,0,1,5.983-.25l25,14.429c1.532.886,1.34,2.434-.43,3.457l-24.134,13.934A6.649,6.649,0,0,1,911.552,1110.858Z" transform="translate(-59.361 -505.379)" fill="#5593ce"/>
    <path id="Path_473" data-name="Path 473" d="M949.467,1121.765l-3.46-2c-.211-.123-.183-.337.062-.478l3.339-1.928a.915.915,0,0,1,.828-.034l3.459,2c.213.122.185.336-.06.478l-3.34,1.928A.922.922,0,0,1,949.467,1121.765Z" transform="translate(-94.884 -528.367)" fill="#d4ebfa"/>
    <path id="Path_474" data-name="Path 474" d="M886.556,1096.429l.072.041.358-.248,24.135-13.932a6.646,6.646,0,0,1,5.983-.249l24.925,14.388c1.412-1.011,1.488-2.389.07-3.208l-25-14.429a6.641,6.641,0,0,0-5.983.25l-24.135,13.932C885.214,1094,885.022,1095.543,886.556,1096.429Z" transform="translate(-59.361 -505.379)" fill="#386dab"/>
    <path id="Path_475" data-name="Path 475" d="M1064.134,700.294a18.184,18.184,0,0,0-2.922,2.141c-.406-13.149-9.9-18.38-21.59-11.631-9.522,5.5-17.585,17.262-20.474,28.8a12.9,12.9,0,0,0-8.076,2.007c-8.521,4.919-15.429,16.882-15.429,26.72s6.907,13.828,15.429,8.909l53.063-30.634c6.292-3.633,11.391-12.467,11.391-19.73S1070.425,696.662,1064.134,700.294Z" transform="translate(-124.186 -275.601)" fill="#fff"/>
    <path id="Path_476" data-name="Path 476" d="M2115.212,256.175a19.157,19.157,0,0,0-4.89,4.2c-.23-9.636-7.144-13.485-15.659-8.57a28.526,28.526,0,0,0-7.527,6.568c-3.79-6.626-11.644-8.165-20.744-2.912-12.8,7.39-23.173,25.359-23.173,40.136a27.62,27.62,0,0,0,.231,3.455,8.737,8.737,0,0,0-6.489,1.311c-6.122,3.534-11.086,12.133-11.086,19.2s4.963,9.936,11.086,6.4l78.25-45.175c5.886-3.4,10.659-11.667,10.659-18.464S2121.1,252.777,2115.212,256.175Z" transform="translate(-730.646 -17.657)" fill="#fff"/>
    <path id="Path_477" data-name="Path 477" d="M2108.121,983.746a2.6,2.6,0,0,1-2.3-3.8,29.219,29.219,0,0,1,10.623-11.684,13.712,13.712,0,0,1,7.484-2.07l.317.009c3.292,0,7.318-2.5,10.849-6.748a25.393,25.393,0,0,1,6.754-5.86,13.743,13.743,0,0,1,7.486-2.07c3.291.212,7.522-2.352,11.168-6.741a25.77,25.77,0,0,1,6.755-5.858,13.63,13.63,0,0,1,7.488-2.07c3.27.221,7.521-2.351,11.164-6.741a25.4,25.4,0,0,1,6.756-5.86c3.815-2.2,7.615-2.67,10.71-1.33a2.6,2.6,0,0,1-2.076,4.77c-1.544-.675-3.687-.293-6.035,1.064a20.553,20.553,0,0,0-5.356,4.677c-4.751,5.73-10.421,8.832-15.425,8.614a8.55,8.55,0,0,0-4.626,1.38,20.55,20.55,0,0,0-5.356,4.674c-4.753,5.726-10.354,8.835-15.427,8.616a8.511,8.511,0,0,0-4.626,1.381,20.5,20.5,0,0,0-5.356,4.674c-4.755,5.728-10.429,8.835-15.425,8.614a8.468,8.468,0,0,0-4.626,1.38,23.934,23.934,0,0,0-8.614,9.589A2.6,2.6,0,0,1,2108.121,983.746Z" transform="translate(-777.531 -413.534)" fill="#fff"/>
    <path id="Path_478" data-name="Path 478" d="M946.423,484.992a1.547,1.547,0,0,1-1.414-.71,3.227,3.227,0,0,1-.446-1.745v-9.067h2.674v8.522a1.507,1.507,0,0,0,.163.785.643.643,0,0,0,.605.248,2.153,2.153,0,0,0,1.15-.478v-9.077h2.674v11.348h-2.674v-1.064A4.062,4.062,0,0,1,946.423,484.992Z" transform="translate(-94.118 -149.402)" fill="#fff"/>
    <path id="Path_479" data-name="Path 479" d="M967.355,484.613V473.265h2.682v1.745a4.681,4.681,0,0,1,1.145-1.448,2.024,2.024,0,0,1,1.243-.44l.4.046v2.657a2.586,2.586,0,0,0-.931-.171,2,2,0,0,0-1.011.286,2.881,2.881,0,0,0-.848.891v7.783Z" transform="translate(-107.534 -149.196)" fill="#fff"/>
    <path id="Path_480" data-name="Path 480" d="M931.492,541.875V530.528h2.684v1.745a4.655,4.655,0,0,1,1.145-1.448,2.016,2.016,0,0,1,1.241-.44l.4.048v2.655a2.594,2.594,0,0,0-.931-.171,2.022,2.022,0,0,0-1.011.286,2.883,2.883,0,0,0-.848.891v7.783Z" transform="translate(-86.423 -182.904)" fill="#fff"/>
    <path id="Path_481" data-name="Path 481" d="M1284.583,1068.065,1071.64,945.123c-6.022-3.477-5.268-9.553,1.688-13.569l145-83.687c6.957-4.017,17.479-4.451,23.5-.974l212.941,122.942c6.024,3.479,5.27,9.552-1.686,13.567l-145,83.687C1301.129,1071.107,1290.607,1071.543,1284.583,1068.065Z" transform="translate(-166.529 -367.839)" fill="#7dc3ea"/>
    <path id="Path_482" data-name="Path 482" d="M1282.256,1005.147c5.236,3.023,14.854,2.576,21.009-.974l145-83.687c2.821-1.628,4.5-3.69,4.5-5.515,0-1.74-1.532-2.989-2.818-3.733L1237.009,788.3c-5.238-3.025-14.856-2.578-21.009.973l-145,83.687c-2.821,1.63-4.506,3.692-4.506,5.515,0,1.74,1.534,2.989,2.819,3.733Zm8.986,7.012a23.326,23.326,0,0,1-11.48-2.689L1066.822,886.526c-3.428-1.978-5.315-4.838-5.317-8.054,0-3.682,2.554-7.267,7-9.836l145-83.687c7.761-4.484,19.18-4.91,26-.975l212.941,122.944c3.428,1.978,5.317,4.838,5.317,8.055,0,3.682-2.554,7.267-7,9.834l-145,83.687A29.7,29.7,0,0,1,1291.242,1012.159Z" transform="translate(-162.957 -330.599)" fill="#fff"/>
    <path id="Path_483" data-name="Path 483" d="M1765.791,343.932,1552.85,220.99a8.6,8.6,0,0,0-7.217-.886l.014-.021-.387.146-.094.034-7.7,2.946,6.907,3.382-.1.375-37.625,171.108c-1.736,7.9,1.738,17.125,7.764,20.6l207.82,119.987-.74,8.806,8.41-3.26c2.826-1.321,5.089-4.31,6.023-8.568l37.625-171.108C1775.291,356.634,1771.817,347.408,1765.791,343.932Z" transform="translate(-424.736 0)" fill="#1f3e79"/>
    <path id="Path_484" data-name="Path 484" d="M1783.352,343.932,1570.411,220.99a8.6,8.6,0,0,0-7.217-.886l.014-.021-.387.146-.094.034-7.7,2.946,6.907,3.382-.1.375-25.8,117.279,104.19,81.174,149.851-73A16.536,16.536,0,0,0,1783.352,343.932Z" transform="translate(-442.297 0)" fill="#386dab"/>
    <path id="Path_485" data-name="Path 485" d="M2094.842,547.651l16.208-6.9c.3-6.276-2.3-12.763-6.566-16.232l-25.657,10.794Z" transform="translate(-761.816 -179.451)" fill="#26508a"/>
    <path id="Path_486" data-name="Path 486" d="M1695.121,550.882,1482.178,427.94c-6.024-3.478-9.5-12.7-7.766-20.6l37.625-171.108c1.736-7.9,8.026-11.487,14.051-8.009l212.943,122.94c6.025,3.479,9.5,12.7,7.764,20.606L1709.17,542.875C1707.434,550.776,1701.144,554.361,1695.121,550.882Z" transform="translate(-405.757 -4.25)" fill-rule="evenodd" fill="url(#radial-gradient-4)"/>
    <path id="Path_487" data-name="Path 487" d="M1806.595,349.365l-212.943-122.94a8.412,8.412,0,0,0-8.384-.365,8.759,8.759,0,0,1,6.34,1.112l212.943,122.94c6.024,3.479,9.5,12.7,7.764,20.606l-37.625,171.108c-.893,4.072-3.01,6.969-5.666,8.371,3.6-.785,6.6-4.045,7.711-9.12l37.625-171.108C1816.095,362.069,1812.619,352.843,1806.595,349.365Z" transform="translate(-471.276 -3.202)" fill="#fff"/>
    <path id="Path_488" data-name="Path 488" d="M1703.033,555.711,1502.764,440.142c-5.512-3.183-8.693-11.624-7.106-18.855l34.683-157.7c1.587-7.231,7.344-10.513,12.856-7.329l200.268,115.567c5.512,3.181,8.693,11.624,7.106,18.855l-34.681,157.7C1714.3,555.612,1708.545,558.892,1703.033,555.711Z" transform="translate(-418.286 -20.821)" fill="#fff"/>
    <g id="Group_260" data-name="Group 260" transform="translate(1076.964 234.221)" clip-path="url(#clip-path)">
      <rect id="Rectangle_173" data-name="Rectangle 173" width="255.729" height="301.884" transform="translate(0 0)" fill="url(#radial-gradient-5)"/>
    </g>
    <path id="Path_490" data-name="Path 490" d="M1704.779,555.326l-200.27-115.569c-5.51-3.181-8.693-11.624-7.1-18.853l34.679-157.7c.806-3.659,2.681-6.3,5.048-7.606-3.174.818-5.8,3.795-6.791,8.318l-34.683,157.7c-1.587,7.231,1.594,15.672,7.106,18.855l200.268,115.569a7.7,7.7,0,0,0,7.81.276A7.989,7.989,0,0,1,1704.779,555.326Z" transform="translate(-418.286 -21.147)" fill="#5593ce"/>
    <path id="Path_491" data-name="Path 491" d="M1458.841,863.454l-29.109-3.844-187.9-108.484c-6.024-3.476-16.546-3.04-23.5.975l-133.141,76.843-17.6-2.326v9.987l.019,0c-.115,2.309,1.2,4.53,4.041,6.17l212.943,122.942c6.022,3.479,16.546,3.042,23.5-.974l145-83.687c3.913-2.259,5.865-5.171,5.75-7.9Z" transform="translate(-166.538 -311.465)" fill="#1f3e79"/>
    <path id="Path_492" data-name="Path 492" d="M1317.663,849.883l-13.352-7.708H1157.546l-72.354,41.747-17.6-2.326v9.987l.019,0c-.115,2.309,1.2,4.53,4.041,6.17L1284.591,1020.7c3.183,1.839,7.624,2.573,12.129,2.274Z" transform="translate(-166.538 -366.444)" fill="#386dab"/>
    <path id="Path_493" data-name="Path 493" d="M1075.4,939.047l-7.814-1.033V948l.019,0c-.115,2.309,1.2,4.53,4.041,6.17l3.754,2.168Z" transform="translate(-166.538 -422.86)" fill="#5593ce"/>
    <path id="Path_494" data-name="Path 494" d="M1600.36,1244.953c5.709,2.165,13.871,1.693,19.967-1.241v-22.274H1600.36Z" transform="translate(-480.16 -589.702)" fill="#26508a"/>
    <path id="Path_495" data-name="Path 495" d="M1294.788,934.4h0Zm-.007,0a21,21,0,0,1-10.038-2.254A21,21,0,0,0,1294.781,934.4Zm-10.069-2.273,0,0Zm-.079-.045-.053-.031Zm10.153-1.33a20.792,20.792,0,0,1-10.206-2.348L1071.637,805.464a7.918,7.918,0,0,1-3.745-4.1,5.9,5.9,0,0,0,2.082,6.576,6.3,6.3,0,0,1-2.4-4.429c-.149-2.752,1.8-5.693,5.748-7.971l23.78-13.725,1.9-1.1,49.828-28.759,1.9-1.1,49.83-28.761,1.9-1.1,15.861-9.154a27.307,27.307,0,0,1,13.295-3.323,20.821,20.821,0,0,1,10.208,2.348l22.915,13.231,1.9,1.1,49.823,28.766,1.9,1.1,49.825,28.766,1.9,1.1L1419.9,813.7l1.9,1.1,32.964,19.033c2.824,1.628,4.158,3.829,4.063,6.12-.1,2.391-1.756,4.883-4.9,6.928,4.048-2.633,5.618-6.005,4.585-8.953-.686,2.076-2.5,4.132-5.433,5.826l-145,83.687A27.322,27.322,0,0,1,1294.786,930.754Zm-141.42-156.8-55.681,32.15,191.067,110.184,55.683-32.148Zm299.75,73.412.005,0Zm.634-.384s0,0,0,0S1453.751,846.985,1453.751,846.987Zm.034-.022.007-.005Zm.039-.026.01-.007Zm.031-.021a.067.067,0,0,0,.015-.009A.067.067,0,0,1,1453.856,846.918Zm.041-.026.021-.014Zm-383.91-38.938s0,0,0,0S1069.985,807.954,1069.987,807.954Z" transform="translate(-166.526 -287.774)" fill-rule="evenodd" fill="url(#radial-gradient-6)"/>
    <path id="Path_496" data-name="Path 496" d="M1453.1,976.6l-145,83.687c-6.955,4.016-17.477,4.451-23.5.974L1071.657,938.318a7.916,7.916,0,0,1-3.745-4.1c-.943,2.849.259,5.731,3.745,7.745l212.943,122.94c6.024,3.478,16.546,3.044,23.5-.974l145-83.687c4.675-2.7,6.537-6.328,5.433-9.473C1457.847,972.85,1456.03,974.906,1453.1,976.6Z" transform="translate(-166.546 -420.628)" fill="#fff"/>
    <path id="Path_497" data-name="Path 497" d="M1283.1,833.638l-9.636-5.563c-.773-.445-.675-1.227.218-1.743l11.372-6.566a3.352,3.352,0,0,1,3.018-.123l9.636,5.562c.773.446.675,1.227-.218,1.741l-11.372,6.566A3.358,3.358,0,0,1,1283.1,833.638Z" transform="translate(-287.424 -353.002)" fill="#5593ce"/>
    <path id="Path_498" data-name="Path 498" d="M1319.275,854.521l-9.634-5.562c-.773-.446-.677-1.227.216-1.741l11.373-6.566a3.355,3.355,0,0,1,3.017-.127l9.635,5.563c.775.446.677,1.227-.218,1.743l-11.372,6.566A3.351,3.351,0,0,1,1319.275,854.521Z" transform="translate(-308.718 -365.296)" fill="#5593ce"/>
    <path id="Path_499" data-name="Path 499" d="M1355.447,875.406l-9.636-5.563c-.775-.447-.677-1.227.216-1.743l11.374-6.566a3.357,3.357,0,0,1,3.018-.123l9.634,5.562c.773.447.677,1.227-.216,1.743l-11.374,6.566A3.349,3.349,0,0,1,1355.447,875.406Z" transform="translate(-330.009 -377.589)" fill="#5593ce"/>
    <path id="Path_500" data-name="Path 500" d="M1405.474,859.666l-9.636-5.562c-.773-.446-.675-1.227.218-1.741l9.548-5.512a3.343,3.343,0,0,1,3.016-.125l9.634,5.562c.775.446.677,1.227-.216,1.741l-9.547,5.512A3.347,3.347,0,0,1,1405.474,859.666Z" transform="translate(-359.459 -368.945)" fill="#5593ce"/>
    <path id="Path_501" data-name="Path 501" d="M1441.648,880.552l-9.636-5.563c-.773-.447-.677-1.227.218-1.743l9.545-5.51a3.358,3.358,0,0,1,3.018-.127l9.636,5.563c.773.447.677,1.227-.218,1.743l-9.545,5.512A3.352,3.352,0,0,1,1441.648,880.552Z" transform="translate(-380.753 -381.239)" fill="#5593ce"/>
    <path id="Path_502" data-name="Path 502" d="M1477.82,901.435l-9.634-5.562c-.775-.447-.677-1.227.216-1.743l9.546-5.512a3.352,3.352,0,0,1,3.018-.125l9.635,5.562c.773.447.675,1.227-.218,1.743l-9.548,5.512A3.349,3.349,0,0,1,1477.82,901.435Z" transform="translate(-402.047 -393.532)" fill="#5593ce"/>
    <path id="Path_503" data-name="Path 503" d="M1513.991,922.321l-9.634-5.565c-.775-.446-.677-1.225.216-1.741l9.548-5.512a3.348,3.348,0,0,1,3.016-.125l9.634,5.563c.775.447.679,1.227-.216,1.741l-9.547,5.512A3.363,3.363,0,0,1,1513.991,922.321Z" transform="translate(-423.339 -405.826)" fill="#5593ce"/>
    <path id="Path_504" data-name="Path 504" d="M1550.165,943.2l-9.635-5.562c-.773-.447-.677-1.227.218-1.741l9.545-5.512a3.356,3.356,0,0,1,3.02-.127l9.634,5.563c.773.445.677,1.225-.216,1.741l-9.547,5.512A3.352,3.352,0,0,1,1550.165,943.2Z" transform="translate(-444.633 -418.12)" fill="#5593ce"/>
    <path id="Path_505" data-name="Path 505" d="M1586.337,964.088l-9.634-5.563c-.775-.447-.677-1.227.216-1.743l9.547-5.512a3.357,3.357,0,0,1,3.018-.125l9.635,5.563c.773.447.675,1.227-.218,1.743l-9.546,5.512A3.364,3.364,0,0,1,1586.337,964.088Z" transform="translate(-465.927 -430.413)" fill="#5593ce"/>
    <path id="Path_506" data-name="Path 506" d="M1622.508,984.972l-9.634-5.562c-.775-.447-.677-1.227.216-1.745l9.547-5.512a3.352,3.352,0,0,1,3.018-.123l9.634,5.562c.775.447.679,1.227-.216,1.743l-9.547,5.51A3.358,3.358,0,0,1,1622.508,984.972Z" transform="translate(-487.219 -442.707)" fill="#5593ce"/>
    <path id="Path_507" data-name="Path 507" d="M1658.681,1005.856l-9.635-5.563c-.773-.446-.677-1.227.218-1.741l9.547-5.512a3.352,3.352,0,0,1,3.018-.125l9.634,5.563c.773.446.675,1.227-.216,1.741l-9.546,5.512A3.358,3.358,0,0,1,1658.681,1005.856Z" transform="translate(-508.513 -455.001)" fill="#5593ce"/>
    <path id="Path_508" data-name="Path 508" d="M1694.855,1026.741l-9.637-5.562c-.773-.447-.676-1.227.218-1.745l9.546-5.51a3.358,3.358,0,0,1,3.018-.125l9.635,5.562c.773.447.675,1.227-.218,1.743l-9.546,5.512A3.349,3.349,0,0,1,1694.855,1026.741Z" transform="translate(-529.806 -467.295)" fill="#5593ce"/>
    <path id="Path_509" data-name="Path 509" d="M1731.026,1047.623l-9.634-5.562c-.773-.447-.675-1.227.216-1.743l9.546-5.512a3.352,3.352,0,0,1,3.018-.125l9.636,5.563c.773.446.677,1.227-.218,1.743l-9.547,5.512A3.351,3.351,0,0,1,1731.026,1047.623Z" transform="translate(-551.101 -479.588)" fill="#5593ce"/>
    <path id="Path_510" data-name="Path 510" d="M1458.772,849.78l-9.634-5.562c-.773-.446-.675-1.227.216-1.741l9.548-5.512a3.348,3.348,0,0,1,3.016-.125l9.635,5.562c.775.446.677,1.227-.218,1.743l-9.545,5.512A3.355,3.355,0,0,1,1458.772,849.78Z" transform="translate(-390.835 -363.125)" fill="#5593ce"/>
    <path id="Path_511" data-name="Path 511" d="M1422.061,828.584l-9.635-5.562c-.773-.446-.677-1.225.218-1.741l9.546-5.512a3.353,3.353,0,0,1,3.018-.125l9.634,5.562c.773.447.677,1.227-.216,1.741l-9.547,5.512A3.347,3.347,0,0,1,1422.061,828.584Z" transform="translate(-369.223 -350.648)" fill="#5593ce"/>
    <path id="Path_512" data-name="Path 512" d="M1369.382,798.17l-20.752-11.982c-.773-.446-.675-1.225.216-1.741l9.548-5.512a3.343,3.343,0,0,1,3.016-.125l20.752,11.98c.773.447.675,1.227-.216,1.743l-9.548,5.51A3.354,3.354,0,0,1,1369.382,798.17Z" transform="translate(-331.669 -328.965)" fill="#5593ce"/>
    <path id="Path_513" data-name="Path 513" d="M1400.681,775.58l-16.843-9.72c-.773-.447-.675-1.227.218-1.745l9.548-5.512a3.348,3.348,0,0,1,3.016-.123l16.841,9.723c.773.446.675,1.227-.216,1.741l-9.548,5.512A3.348,3.348,0,0,1,1400.681,775.58Z" transform="translate(-352.395 -316.998)" fill="#5593ce"/>
    <path id="Path_514" data-name="Path 514" d="M1494.944,870.665l-9.634-5.563c-.775-.447-.679-1.227.216-1.743l9.547-5.51a3.363,3.363,0,0,1,3.018-.127l9.634,5.563c.775.447.679,1.227-.216,1.743l-9.547,5.512A3.352,3.352,0,0,1,1494.944,870.665Z" transform="translate(-412.127 -375.419)" fill="#5593ce"/>
    <path id="Path_515" data-name="Path 515" d="M1531.118,891.548l-9.636-5.562c-.775-.447-.677-1.227.218-1.743l9.545-5.512a3.355,3.355,0,0,1,3.02-.125l9.634,5.562c.773.447.675,1.227-.216,1.743l-9.548,5.514A3.353,3.353,0,0,1,1531.118,891.548Z" transform="translate(-433.42 -387.712)" fill="#5593ce"/>
    <path id="Path_516" data-name="Path 516" d="M1567.289,912.432l-9.634-5.563c-.773-.446-.675-1.226.216-1.741l9.548-5.512a3.353,3.353,0,0,1,3.016-.125l9.636,5.563c.775.447.677,1.227-.218,1.741l-9.545,5.512A3.355,3.355,0,0,1,1567.289,912.432Z" transform="translate(-454.714 -400.006)" fill="#5593ce"/>
    <path id="Path_517" data-name="Path 517" d="M1603.461,933.316l-9.634-5.562c-.775-.447-.679-1.227.216-1.743l9.546-5.51a3.353,3.353,0,0,1,3.018-.127l9.634,5.563c.775.445.679,1.225-.216,1.741l-9.547,5.512A3.347,3.347,0,0,1,1603.461,933.316Z" transform="translate(-476.007 -412.3)" fill="#5593ce"/>
    <path id="Path_518" data-name="Path 518" d="M1639.635,954.2,1630,948.637c-.775-.447-.677-1.227.216-1.743l9.548-5.512a3.357,3.357,0,0,1,3.018-.125l9.634,5.563c.773.447.675,1.227-.216,1.743l-9.548,5.512A3.354,3.354,0,0,1,1639.635,954.2Z" transform="translate(-497.3 -424.592)" fill="#5593ce"/>
    <path id="Path_519" data-name="Path 519" d="M1675.807,975.085l-9.635-5.563c-.773-.446-.675-1.225.218-1.741l9.545-5.512a3.346,3.346,0,0,1,3.018-.125l9.636,5.562c.773.447.677,1.227-.218,1.743l-9.545,5.51A3.353,3.353,0,0,1,1675.807,975.085Z" transform="translate(-518.594 -436.887)" fill="#5593ce"/>
    <path id="Path_520" data-name="Path 520" d="M1711.98,995.969l-9.634-5.563c-.773-.447-.677-1.227.216-1.741l9.547-5.512a3.352,3.352,0,0,1,3.018-.125l9.636,5.563c.773.445.675,1.225-.218,1.741L1715,995.844A3.357,3.357,0,0,1,1711.98,995.969Z" transform="translate(-539.888 -449.181)" fill="#5593ce"/>
    <path id="Path_521" data-name="Path 521" d="M1748.151,1016.852l-9.637-5.562c-.773-.447-.675-1.227.218-1.743l9.548-5.512a3.348,3.348,0,0,1,3.017-.125l9.635,5.562c.773.447.677,1.227-.216,1.743l-9.548,5.512A3.349,3.349,0,0,1,1748.151,1016.852Z" transform="translate(-561.179 -461.474)" fill="#5593ce"/>
    <path id="Path_522" data-name="Path 522" d="M1784.324,1037.737l-9.635-5.563c-.773-.447-.675-1.227.218-1.743l9.545-5.512a3.355,3.355,0,0,1,3.02-.125l9.634,5.563c.773.447.677,1.227-.216,1.743l-9.546,5.51A3.364,3.364,0,0,1,1784.324,1037.737Z" transform="translate(-582.474 -473.767)" fill="#5593ce"/>
    <path id="Path_523" data-name="Path 523" d="M1832.334,1065.456l-21.024-12.138c-.773-.446-.676-1.227.218-1.743l9.546-5.512a3.357,3.357,0,0,1,3.018-.124l21.023,12.136c.773.449.675,1.227-.218,1.743l-9.545,5.512A3.357,3.357,0,0,1,1832.334,1065.456Z" transform="translate(-604.031 -486.215)" fill="#5593ce"/>
    <path id="Path_524" data-name="Path 524" d="M1907.447,1027.505l-17.744-10.244c-.775-.447-.677-1.227.218-1.743l9.546-5.512a3.352,3.352,0,0,1,3.018-.125l17.742,10.244c.773.447.677,1.227-.216,1.743l-9.546,5.512A3.353,3.353,0,0,1,1907.447,1027.505Z" transform="translate(-650.178 -464.989)" fill="#5593ce"/>
    <path id="Path_525" data-name="Path 525" d="M1558.29,866.579l-9.635-5.565c-.773-.446-.675-1.225.218-1.741l9.545-5.512a3.356,3.356,0,0,1,3.02-.125l9.634,5.563c.773.447.677,1.227-.216,1.743l-9.547,5.51A3.363,3.363,0,0,1,1558.29,866.579Z" transform="translate(-449.417 -373.012)" fill="#5593ce"/>
    <path id="Path_526" data-name="Path 526" d="M1521.218,845.174l-9.636-5.562c-.775-.447-.677-1.227.218-1.743l9.547-5.512a3.357,3.357,0,0,1,3.018-.125L1534,837.8c.775.446.677,1.227-.216,1.743l-9.548,5.512A3.353,3.353,0,0,1,1521.218,845.174Z" transform="translate(-427.593 -360.414)" fill="#5593ce"/>
    <path id="Path_527" data-name="Path 527" d="M1484.145,823.771l-9.634-5.562c-.775-.447-.677-1.227.216-1.743l9.547-5.51a3.358,3.358,0,0,1,3.018-.127l9.634,5.563c.775.445.679,1.225-.216,1.743l-9.546,5.512A3.352,3.352,0,0,1,1484.145,823.771Z" transform="translate(-405.77 -347.815)" fill="#5593ce"/>
    <path id="Path_528" data-name="Path 528" d="M1447.075,802.366l-9.634-5.562c-.773-.446-.677-1.225.216-1.741l9.547-5.512a3.347,3.347,0,0,1,3.018-.125l9.635,5.562c.773.447.675,1.227-.218,1.741l-9.546,5.512A3.347,3.347,0,0,1,1447.075,802.366Z" transform="translate(-383.949 -335.215)" fill="#5593ce"/>
    <path id="Path_529" data-name="Path 529" d="M1594.463,887.462l-9.634-5.562c-.773-.447-.677-1.227.216-1.743l9.547-5.512a3.351,3.351,0,0,1,3.018-.124l9.635,5.562c.773.446.675,1.225-.218,1.741l-9.545,5.512A3.356,3.356,0,0,1,1594.463,887.462Z" transform="translate(-470.711 -385.307)" fill="#5593ce"/>
    <path id="Path_530" data-name="Path 530" d="M1630.635,908.347,1621,902.784c-.773-.447-.675-1.227.216-1.743l9.548-5.512a3.359,3.359,0,0,1,3.017-.125l9.635,5.563c.775.447.677,1.227-.216,1.743l-9.548,5.512A3.357,3.357,0,0,1,1630.635,908.347Z" transform="translate(-492.004 -397.601)" fill="#5593ce"/>
    <path id="Path_531" data-name="Path 531" d="M1666.807,929.23l-9.636-5.562c-.773-.447-.677-1.227.218-1.745l9.546-5.512a3.352,3.352,0,0,1,3.018-.124l9.634,5.562c.773.447.677,1.227-.216,1.743l-9.547,5.51A3.358,3.358,0,0,1,1666.807,929.23Z" transform="translate(-513.296 -409.894)" fill="#5593ce"/>
    <path id="Path_532" data-name="Path 532" d="M1702.981,950.113l-9.635-5.562c-.775-.446-.677-1.225.218-1.741l9.545-5.512a3.355,3.355,0,0,1,3.02-.125l9.634,5.563c.773.446.675,1.227-.216,1.741L1706,949.99A3.347,3.347,0,0,1,1702.981,950.113Z" transform="translate(-534.589 -422.188)" fill="#5593ce"/>
    <path id="Path_533" data-name="Path 533" d="M1739.151,971l-9.634-5.563c-.773-.446-.675-1.227.216-1.743l9.548-5.51a3.354,3.354,0,0,1,3.017-.125l9.635,5.562c.775.447.677,1.227-.218,1.743l-9.545,5.512A3.355,3.355,0,0,1,1739.151,971Z" transform="translate(-555.884 -434.482)" fill="#5593ce"/>
    <path id="Path_534" data-name="Path 534" d="M1775.324,991.882l-9.634-5.562c-.775-.447-.679-1.227.216-1.743l9.547-5.512a3.357,3.357,0,0,1,3.018-.125l9.634,5.563c.774.445.679,1.227-.216,1.743l-9.547,5.512A3.357,3.357,0,0,1,1775.324,991.882Z" transform="translate(-577.176 -446.775)" fill="#5593ce"/>
    <path id="Path_535" data-name="Path 535" d="M1811.5,1012.768l-9.635-5.565c-.775-.444-.677-1.225.218-1.741l9.545-5.512a3.356,3.356,0,0,1,3.02-.123l9.634,5.562c.773.447.676,1.227-.216,1.741l-9.548,5.512A3.354,3.354,0,0,1,1811.5,1012.768Z" transform="translate(-598.469 -459.069)" fill="#5593ce"/>
    <path id="Path_536" data-name="Path 536" d="M1847.668,1033.65l-9.634-5.562c-.773-.448-.675-1.227.216-1.741l9.548-5.512a3.354,3.354,0,0,1,3.016-.127l9.636,5.563c.775.446.677,1.226-.218,1.743l-9.545,5.512A3.354,3.354,0,0,1,1847.668,1033.65Z" transform="translate(-619.763 -471.363)" fill="#5593ce"/>
    <path id="Path_537" data-name="Path 537" d="M1883.84,1054.535l-9.634-5.563c-.775-.447-.679-1.227.216-1.743l9.546-5.512a3.363,3.363,0,0,1,3.018-.125l9.634,5.563c.775.447.679,1.227-.216,1.743l-9.547,5.512A3.347,3.347,0,0,1,1883.84,1054.535Z" transform="translate(-641.056 -483.656)" fill="#5593ce"/>
    <path id="Path_538" data-name="Path 538" d="M1539.244,814.924l-9.636-5.563c-.773-.447-.677-1.227.218-1.743l9.547-5.51a3.363,3.363,0,0,1,3.018-.127l9.634,5.563c.773.447.675,1.227-.216,1.743l-9.546,5.512A3.353,3.353,0,0,1,1539.244,814.924Z" transform="translate(-438.204 -342.606)" fill="#5593ce"/>
    <path id="Path_539" data-name="Path 539" d="M1503.251,794.143l-9.634-5.563c-.773-.447-.675-1.227.216-1.743l9.547-5.512a3.363,3.363,0,0,1,3.018-.125l9.635,5.563c.773.447.677,1.227-.218,1.743l-9.545,5.512A3.361,3.361,0,0,1,1503.251,794.143Z" transform="translate(-417.018 -330.373)" fill="#5593ce"/>
    <path id="Path_540" data-name="Path 540" d="M1467.257,773.363l-9.636-5.565c-.773-.444-.675-1.225.218-1.741l9.548-5.512a3.354,3.354,0,0,1,3.017-.125l9.635,5.563c.773.447.675,1.227-.216,1.741l-9.548,5.512A3.358,3.358,0,0,1,1467.257,773.363Z" transform="translate(-395.829 -318.14)" fill="#5593ce"/>
    <path id="Path_541" data-name="Path 541" d="M1431.267,752.582l-9.634-5.563c-.773-.446-.677-1.227.216-1.741l9.547-5.512a3.358,3.358,0,0,1,3.018-.125l9.636,5.563c.773.446.675,1.225-.218,1.741l-9.545,5.512A3.356,3.356,0,0,1,1431.267,752.582Z" transform="translate(-374.643 -305.908)" fill="#5593ce"/>
    <path id="Path_542" data-name="Path 542" d="M1468.278,736.493l-9.634-5.562c-.775-.447-.677-1.227.216-1.741l3.155-1.823a3.352,3.352,0,0,1,3.018-.123l9.634,5.562c.775.447.679,1.227-.216,1.743l-3.157,1.822A3.348,3.348,0,0,1,1468.278,736.493Z" transform="translate(-396.43 -298.609)" fill="#5593ce"/>
    <path id="Path_543" data-name="Path 543" d="M1515.248,763.612l-9.636-5.563c-.773-.446-.677-1.225.218-1.743l3.155-1.82a3.352,3.352,0,0,1,3.018-.125l9.636,5.563c.773.446.675,1.227-.218,1.741l-3.155,1.822A3.352,3.352,0,0,1,1515.248,763.612Z" transform="translate(-424.079 -314.573)" fill="#5593ce"/>
    <path id="Path_544" data-name="Path 544" d="M1551.09,784.306l-9.634-5.563c-.775-.447-.679-1.227.216-1.743l3.155-1.822a3.357,3.357,0,0,1,3.018-.125l9.634,5.563c.775.446.678,1.225-.216,1.741l-3.157,1.824A3.358,3.358,0,0,1,1551.09,784.306Z" transform="translate(-445.178 -326.754)" fill="#5593ce"/>
    <path id="Path_545" data-name="Path 545" d="M1586.932,805l-9.636-5.562c-.773-.447-.675-1.227.218-1.743l3.156-1.822a3.366,3.366,0,0,1,3.02-.127l9.634,5.563c.773.447.675,1.227-.216,1.743l-3.157,1.822A3.357,3.357,0,0,1,1586.932,805Z" transform="translate(-466.277 -338.937)" fill="#5593ce"/>
    <path id="Path_546" data-name="Path 546" d="M1622.774,825.694l-9.634-5.565c-.774-.444-.677-1.224.216-1.741l3.155-1.822a3.358,3.358,0,0,1,3.018-.125l9.635,5.563c.773.446.677,1.225-.218,1.743l-3.155,1.82A3.358,3.358,0,0,1,1622.774,825.694Z" transform="translate(-487.376 -351.117)" fill="#5593ce"/>
    <path id="Path_547" data-name="Path 547" d="M1822.878,941.221l-9.636-5.562c-.773-.447-.675-1.227.218-1.743l3.155-1.822a3.357,3.357,0,0,1,3.018-.125l9.636,5.563c.773.446.675,1.227-.218,1.741L1825.9,941.1A3.35,3.35,0,0,1,1822.878,941.221Z" transform="translate(-605.17 -419.126)" fill="#5593ce"/>
    <path id="Path_548" data-name="Path 548" d="M1858.72,961.916l-9.634-5.562c-.775-.447-.677-1.227.216-1.745l3.156-1.82a3.358,3.358,0,0,1,3.018-.127l9.634,5.565c.775.444.679,1.225-.216,1.741l-3.157,1.822A3.354,3.354,0,0,1,1858.72,961.916Z" transform="translate(-626.269 -431.307)" fill="#5593ce"/>
    <path id="Path_549" data-name="Path 549" d="M1894.562,982.61l-9.635-5.563c-.773-.447-.676-1.227.218-1.743l3.155-1.822a3.355,3.355,0,0,1,3.02-.125l9.634,5.562c.773.447.676,1.227-.216,1.743l-3.157,1.822A3.358,3.358,0,0,1,1894.562,982.61Z" transform="translate(-647.367 -443.488)" fill="#5593ce"/>
    <path id="Path_550" data-name="Path 550" d="M1930.4,1003.3l-9.634-5.562c-.773-.446-.677-1.225.216-1.741l3.155-1.824a3.363,3.363,0,0,1,3.018-.125l9.635,5.563c.773.447.677,1.227-.218,1.743l-3.154,1.822A3.356,3.356,0,0,1,1930.4,1003.3Z" transform="translate(-668.467 -455.67)" fill="#5593ce"/>
    <path id="Path_551" data-name="Path 551" d="M1575.417,835.806l-9.637-5.562c-.773-.447-.675-1.227.218-1.743l9.547-5.512a3.348,3.348,0,0,1,3.016-.125l9.637,5.562c.773.447.675,1.227-.218,1.743l-9.546,5.512A3.348,3.348,0,0,1,1575.417,835.806Z" transform="translate(-459.498 -354.899)" fill="#5593ce"/>
    <path id="Path_552" data-name="Path 552" d="M1611.589,856.691l-9.634-5.565c-.773-.446-.675-1.225.216-1.741l9.547-5.512a3.352,3.352,0,0,1,3.018-.125l9.635,5.563c.773.447.677,1.227-.218,1.741l-9.546,5.512A3.359,3.359,0,0,1,1611.589,856.691Z" transform="translate(-480.792 -367.192)" fill="#5593ce"/>
    <path id="Path_553" data-name="Path 553" d="M1647.761,877.574l-9.635-5.562c-.773-.447-.677-1.227.218-1.741l9.546-5.512a3.353,3.353,0,0,1,3.018-.127l9.634,5.563c.773.446.677,1.225-.216,1.741l-9.546,5.512A3.348,3.348,0,0,1,1647.761,877.574Z" transform="translate(-502.084 -379.487)" fill="#5593ce"/>
    <path id="Path_554" data-name="Path 554" d="M1683.932,898.459,1674.3,892.9c-.773-.447-.675-1.227.218-1.743l9.547-5.512a3.357,3.357,0,0,1,3.018-.125l9.634,5.563c.775.447.677,1.227-.214,1.743l-9.548,5.512A3.363,3.363,0,0,1,1683.932,898.459Z" transform="translate(-523.377 -391.779)" fill="#5593ce"/>
    <path id="Path_555" data-name="Path 555" d="M1720.1,919.343l-9.634-5.562c-.773-.447-.677-1.227.216-1.743l9.546-5.514a3.352,3.352,0,0,1,3.018-.123l9.636,5.562c.773.447.677,1.227-.218,1.743l-9.545,5.51A3.362,3.362,0,0,1,1720.1,919.343Z" transform="translate(-544.671 -404.073)" fill="#5593ce"/>
    <path id="Path_556" data-name="Path 556" d="M1756.278,940.227l-9.634-5.563c-.775-.446-.678-1.227.216-1.741l9.547-5.512a3.352,3.352,0,0,1,3.018-.125l9.634,5.563c.775.446.677,1.227-.216,1.741l-9.548,5.512A3.354,3.354,0,0,1,1756.278,940.227Z" transform="translate(-565.964 -416.368)" fill="#5593ce"/>
    <path id="Path_557" data-name="Path 557" d="M1792.449,961.111l-9.636-5.562c-.773-.447-.675-1.227.218-1.745l9.547-5.51a3.357,3.357,0,0,1,3.018-.125l9.634,5.562c.775.447.677,1.227-.216,1.743l-9.546,5.512A3.352,3.352,0,0,1,1792.449,961.111Z" transform="translate(-587.257 -428.662)" fill="#5593ce"/>
    <path id="Path_558" data-name="Path 558" d="M1828.621,982l-9.634-5.563c-.773-.447-.677-1.227.216-1.743l9.546-5.512a3.352,3.352,0,0,1,3.018-.125l9.636,5.563c.773.446.677,1.227-.218,1.743l-9.545,5.512A3.366,3.366,0,0,1,1828.621,982Z" transform="translate(-608.551 -440.954)" fill="#5593ce"/>
    <path id="Path_559" data-name="Path 559" d="M1864.794,1002.88l-9.634-5.565c-.777-.444-.679-1.224.216-1.741l9.546-5.512a3.352,3.352,0,0,1,3.018-.123l9.635,5.562c.773.447.675,1.227-.218,1.741l-9.548,5.512A3.354,3.354,0,0,1,1864.794,1002.88Z" transform="translate(-629.843 -453.249)" fill="#5593ce"/>
    <path id="Path_560" data-name="Path 560" d="M1341.794,822.9l-28.377-16.383c-.773-.446-.675-1.225.218-1.741l9.545-5.512a3.356,3.356,0,0,1,3.02-.125l28.375,16.381c.773.447.675,1.227-.216,1.743l-9.548,5.512A3.349,3.349,0,0,1,1341.794,822.9Z" transform="translate(-310.941 -340.933)" fill="#5593ce"/>
    <path id="Path_561" data-name="Path 561" d="M1786.178,1079.467l-28.377-16.382c-.773-.447-.675-1.227.218-1.745l9.548-5.512a3.349,3.349,0,0,1,3.016-.123l28.376,16.381c.773.448.677,1.227-.216,1.743l-9.546,5.512A3.358,3.358,0,0,1,1786.178,1079.467Z" transform="translate(-572.533 -491.963)" fill="#5593ce"/>
    <path id="Path_562" data-name="Path 562" d="M1668.341,1056.058l-9.635-5.565c-.773-.446-.675-1.225.218-1.741l11.372-6.566a3.352,3.352,0,0,1,3.018-.125l9.636,5.562c.773.446.675,1.225-.218,1.743l-11.372,6.566A3.359,3.359,0,0,1,1668.341,1056.058Z" transform="translate(-514.199 -483.931)" fill="#5593ce"/>
    <path id="Path_563" data-name="Path 563" d="M1397.392,899.623l-15.408-8.9c-.773-.447-.676-1.227.218-1.743l11.372-6.566a3.351,3.351,0,0,1,3.018-.125l15.41,8.9c.773.447.676,1.227-.218,1.743l-11.372,6.566A3.355,3.355,0,0,1,1397.392,899.623Z" transform="translate(-351.304 -389.883)" fill="#5593ce"/>
    <path id="Path_564" data-name="Path 564" d="M1625.225,1031.161l-15.408-8.9c-.773-.447-.677-1.227.218-1.743l11.372-6.566a3.354,3.354,0,0,1,3.017-.125l15.41,8.9c.775.446.677,1.225-.216,1.741l-11.374,6.566A3.353,3.353,0,0,1,1625.225,1031.161Z" transform="translate(-485.42 -467.315)" fill="#5593ce"/>
    <path id="Path_565" data-name="Path 565" d="M1449.581,929.755l-15.41-8.9c-.773-.447-.675-1.227.218-1.741l11.372-6.568a3.358,3.358,0,0,1,3.018-.125l15.41,8.9c.773.446.677,1.225-.218,1.741l-11.372,6.566A3.358,3.358,0,0,1,1449.581,929.755Z" transform="translate(-382.025 -407.619)" fill="#5593ce"/>
    <path id="Path_566" data-name="Path 566" d="M1449.782,913l66.993,38.679a.916.916,0,0,1,0,1.736l-11.6,6.7a3.329,3.329,0,0,1-3.011,0l-66.992-38.679Z" transform="translate(-382.923 -408.136)" fill="#5593ce"/>
    <path id="Path_567" data-name="Path 567" d="M1772.907,1114.028l10.732,6.2c.634.367.554,1.006-.178,1.427l-4.653,2.686a2.75,2.75,0,0,1-2.473.1l-10.732-6.2c-.634-.365-.553-1.006.178-1.428l4.653-2.686A2.754,2.754,0,0,1,1772.907,1114.028Z" transform="translate(-577.18 -526.328)" fill="#5593ce"/>
    <path id="Path_568" data-name="Path 568" d="M1736.434,1092.972l10.734,6.2c.633.367.553,1.006-.18,1.428l-4.652,2.686a2.749,2.749,0,0,1-2.473.1l-10.732-6.2c-.634-.367-.554-1.006.178-1.428l4.652-2.687A2.749,2.749,0,0,1,1736.434,1092.972Z" transform="translate(-555.711 -513.933)" fill="#5593ce"/>
    <path id="Path_569" data-name="Path 569" d="M1700.262,1072.088l10.732,6.194c.634.367.553,1.006-.177,1.431l-4.653,2.684a2.753,2.753,0,0,1-2.475.1l-10.731-6.194c-.634-.368-.556-1.008.177-1.431l4.653-2.682A2.735,2.735,0,0,1,1700.262,1072.088Z" transform="translate(-534.418 -501.639)" fill="#5593ce"/>
    <path id="Path_570" data-name="Path 570" d="M1756.411,1081.438l10.732,6.2c.634.365.554,1-.178,1.428l-4.653,2.688a2.749,2.749,0,0,1-2.473.1l-10.732-6.2c-.634-.367-.553-1.006.178-1.428l4.653-2.686A2.744,2.744,0,0,1,1756.411,1081.438Z" transform="translate(-567.47 -507.144)" fill="#5593ce"/>
    <path id="Path_571" data-name="Path 571" d="M1660.137,423.832l-24.2-13.972,1.03-5.21,24.2,13.972Z" transform="translate(-501.104 -108.89)" fill="#d4ebfa"/>
    <path id="Path_572" data-name="Path 572" d="M1653.752,453.268l-24.2-13.97,1.031-5.21,24.2,13.97Z" transform="translate(-497.344 -126.218)" fill="#fff"/>
    <path id="Path_573" data-name="Path 573" d="M1942.509,861.57l-24.2-13.972,1.032-5.21,24.2,13.972Z" transform="translate(-667.326 -366.569)" fill="#d4ebfa"/>
    <path id="Path_574" data-name="Path 574" d="M1640.985,512.141l-24.2-13.972,1.032-5.21,24.2,13.972Z" transform="translate(-489.829 -160.873)" fill="#d4ebfa"/>
    <path id="Path_575" data-name="Path 575" d="M1798.222,622.87,1708.7,571.182l1.15-5.819,89.522,51.685Z" transform="translate(-543.937 -203.495)" fill="#d4ebfa"/>
    <path id="Path_576" data-name="Path 576" d="M1758.956,669.078,1696.464,633l1.152-5.819,62.492,36.078Z" transform="translate(-536.733 -239.884)" fill="#d4ebfa"/>
    <path id="Path_577" data-name="Path 577" d="M1756.644,633.3l-54.063-31.214,1.154-5.819,54.062,31.212Z" transform="translate(-540.334 -221.69)" fill="#fff"/>
    <path id="Path_578" data-name="Path 578" d="M1796.167,556.589a3.371,3.371,0,0,1-4.861,1.5,4.23,4.23,0,0,1-1.74-5.306,3.373,3.373,0,0,1,4.861-1.5A4.227,4.227,0,0,1,1796.167,556.589Z" transform="translate(-591.333 -194.913)" fill="#ed3795"/>
    <path id="Path_579" data-name="Path 579" d="M1824.472,572.93a3.369,3.369,0,0,1-4.859,1.5,4.228,4.228,0,0,1-1.74-5.306,3.37,3.37,0,0,1,4.859-1.5A4.229,4.229,0,0,1,1824.472,572.93Z" transform="translate(-607.996 -204.533)" fill="#fff"/>
    <path id="Path_580" data-name="Path 580" d="M1852.779,589.272a3.374,3.374,0,0,1-4.861,1.5,4.229,4.229,0,0,1-1.74-5.306,3.372,3.372,0,0,1,4.861-1.5A4.231,4.231,0,0,1,1852.779,589.272Z" transform="translate(-624.658 -214.152)" fill="#d4ebfa"/>
    <path id="Path_581" data-name="Path 581" d="M1881.084,605.616a3.374,3.374,0,0,1-4.861,1.5,4.232,4.232,0,0,1-1.74-5.308,3.375,3.375,0,0,1,4.861-1.5A4.233,4.233,0,0,1,1881.084,605.616Z" transform="translate(-641.32 -223.772)" fill="#ed3795"/>
    <path id="Path_582" data-name="Path 582" d="M1881.536,705.408l-27.03-15.605,1.152-5.819,27.03,15.605Z" transform="translate(-629.766 -273.323)" fill="#ed3795"/>
    <path id="Path_583" data-name="Path 583" d="M1368.452,1024.209l-70.534-40.722c-1.724-1-1.508-2.734.481-3.884l37.193-21.472a7.468,7.468,0,0,1,6.724-.279l70.536,40.722c1.722,1,1.506,2.735-.483,3.884l-37.19,21.472A7.474,7.474,0,0,1,1368.452,1024.209Z" transform="translate(-301.439 -434.143)" fill="#fff"/>
    <g id="Group_261" data-name="Group 261" transform="translate(931.159 486.184)" clip-path="url(#clip-path-2)">
      <path id="Path_584" data-name="Path 584" d="M1331.851,1009.921,1140.784,899.738l55.681-32.149,191.068,110.185Zm-84.269-105.481a7.8,7.8,0,0,0-3.8.951l-37.193,21.472c-1.99,1.15-2.206,2.888-.482,3.884l70.534,40.722a5.956,5.956,0,0,0,2.921.672,7.827,7.827,0,0,0,3.807-.951l37.19-21.472c1.99-1.148,2.206-2.888.484-3.884L1250.5,905.112A5.963,5.963,0,0,0,1247.581,904.441Z" transform="translate(-1140.784 -867.588)" fill-rule="evenodd" fill="url(#radial-gradient-7)"/>
    </g>
    <path id="Path_585" data-name="Path 585" d="M1371.373,1024.881a5.955,5.955,0,0,1-2.92-.672l-70.534-40.722c-1.724-1-1.508-2.734.481-3.884l37.193-21.472a7.8,7.8,0,0,1,3.8-.951,5.961,5.961,0,0,1,2.922.672l70.536,40.722c1.722,1,1.506,2.735-.483,3.884l-37.19,21.472A7.825,7.825,0,0,1,1371.373,1024.881Z" transform="translate(-301.439 -434.143)" fill="#8b9ebc"/>
    <path id="Path_586" data-name="Path 586" d="M1142.459,826.719l185.176,106.788,49.8-28.749L1192.254,797.972Zm185.177,113.13a2.943,2.943,0,0,1-1.471-.394L1135.1,829.271a2.944,2.944,0,0,1,0-5.1l55.683-32.149a2.942,2.942,0,0,1,2.941,0l191.07,110.185a2.945,2.945,0,0,1,0,5.1l-55.683,32.146A2.934,2.934,0,0,1,1327.637,939.849Z" transform="translate(-205.412 -336.689)" fill="#fff"/>
    <path id="Path_587" data-name="Path 587" d="M1354.109,818.411a2.361,2.361,0,0,1-2.362-2.36V741.466a2.361,2.361,0,1,1,4.722,0v74.584A2.361,2.361,0,0,1,1354.109,818.411Z" transform="translate(-333.811 -305.77)" fill="#386dab"/>
    <path id="Path_588" data-name="Path 588" d="M1329.1,724.3v50.389c0,1.726,1.14,3.448,3.419,4.765,4.561,2.633,11.953,2.633,16.512,0,2.279-1.318,3.419-3.04,3.419-4.766V724.3Z" transform="translate(-320.48 -297.053)" fill-rule="evenodd" fill="url(#radial-gradient-8)"/>
    <path id="Path_589" data-name="Path 589" d="M1329.1,741.089v17.052a30.187,30.187,0,0,0,23.35,0V741.089A30.226,30.226,0,0,0,1329.1,741.089Z" transform="translate(-320.48 -305.558)" fill="#386dab"/>
    <path id="Path_590" data-name="Path 590" d="M1349.331,553.575h-37.838V632.6c0,2.8,1.848,5.593,5.543,7.725,7.385,4.264,19.365,4.264,26.752,0,3.7-2.132,5.543-4.927,5.543-7.725Z" transform="translate(-310.115 -196.556)" fill-rule="evenodd" fill="url(#radial-gradient-9)"/>
    <path id="Path_591" data-name="Path 591" d="M1339.12,818.451c0,2.317-1.626,3.256-3.633,2.1a8.031,8.031,0,0,1-3.635-6.3c0-2.317,1.626-3.258,3.635-2.1A8.031,8.031,0,0,1,1339.12,818.451Z" transform="translate(-322.099 -348.48)" fill="#d4ebfa"/>
    <path id="Path_592" data-name="Path 592" d="M1532.467,921.513a2.363,2.363,0,0,1-2.362-2.362V844.567a2.362,2.362,0,1,1,4.724,0v74.584A2.363,2.363,0,0,1,1532.467,921.513Z" transform="translate(-438.804 -366.461)" fill="#386dab"/>
    <path id="Path_593" data-name="Path 593" d="M1507.468,827.4v50.387c0,1.726,1.14,3.452,3.419,4.766,4.559,2.633,11.951,2.633,16.512,0,2.279-1.314,3.419-3.04,3.419-4.766V827.4Z" transform="translate(-425.478 -357.744)" fill-rule="evenodd" fill="url(#radial-gradient-10)"/>
    <path id="Path_594" data-name="Path 594" d="M1507.468,844.188v17.053a30.21,30.21,0,0,0,23.35,0V844.188A30.21,30.21,0,0,0,1507.468,844.188Z" transform="translate(-425.478 -366.247)" fill="#386dab"/>
    <path id="Path_595" data-name="Path 595" d="M1527.692,656.671h-37.836V735.7c0,2.8,1.848,5.591,5.541,7.723,7.389,4.266,19.367,4.266,26.756,0,3.693-2.132,5.541-4.927,5.539-7.723Z" transform="translate(-415.111 -257.245)" fill-rule="evenodd" fill="url(#radial-gradient-11)"/>
    <path id="Path_596" data-name="Path 596" d="M1517.486,921.549c0,2.319-1.628,3.258-3.635,2.1a8.037,8.037,0,0,1-3.633-6.3c0-2.319,1.626-3.256,3.633-2.1A8.038,8.038,0,0,1,1517.486,921.549Z" transform="translate(-427.097 -409.171)" fill="#d4ebfa"/>
    <path id="Path_597" data-name="Path 597" d="M1181.193,373.153l50.226-28.895-1.89,28.895-28.852,8.938Z" transform="translate(-233.412 -73.339)" fill="#5593ce"/>
    <path id="Path_598" data-name="Path 598" d="M1503.643,496.939c0-20.281-14.237-44.942-31.8-55.081a31.645,31.645,0,0,0-10.868-4.028c-5.063-26.614-23.582-54.876-45.664-67.626-6.641-3.832-12.955-5.882-18.685-6.323-3.015-32.256-25.443-68.916-52.679-84.64-14.227-8.215-27.136-9.187-36.662-4.156l0-.026-.463.266c-.242.137-.483.274-.721.418l-29.618,17.492,9.843,7.773c-8.835,3.86-14.419,13.768-14.419,28.413,0,27,18.961,59.846,42.35,73.35l144.385,103.1,4.451,30.045,31.2-18.376.084-.048.187-.111,0,0C1500.178,514,1503.643,506.94,1503.643,496.939Z" transform="translate(-286.814 -30.809)" fill-rule="evenodd" fill="url(#radial-gradient-12)"/>
    <path id="Path_599" data-name="Path 599" d="M1275.468,317.532l67.973-39.716c-13.2-6.881-25.119-7.45-34.061-2.729l0-.026-.463.266c-.242.137-.483.274-.721.418l-29.618,17.492,9.843,7.773C1282.246,303.707,1277.668,309.37,1275.468,317.532Z" transform="translate(-288.909 -30.81)" fill="#5593ce"/>
    <path id="Path_600" data-name="Path 600" d="M1506.581,571.153l49.6-29.105c-8.506-14.712-20.219-27.567-33.188-35.056-1.717-.991-3.411-1.856-5.08-2.612l-63.084,36.892Z" transform="translate(-394.49 -167.596)" fill="#5593ce"/>
    <path id="Path_601" data-name="Path 601" d="M1317.014,298.33l22.1,12.762,40.477-23.842a80.526,80.526,0,0,0-9.092-6.162,56.8,56.8,0,0,0-14.145-5.942Z" transform="translate(-313.365 -32.655)" fill="#d4ebfa"/>
    <path id="Path_602" data-name="Path 602" d="M1631.273,575.134l-39.584,23.326,13.768,15.355,35.936-21.218A115.427,115.427,0,0,0,1631.273,575.134Z" transform="translate(-475.056 -209.247)" fill="#d4ebfa"/>
    <path id="Path_603" data-name="Path 603" d="M1368.966,486.368a31.628,31.628,0,0,0-10.866-4.028c-5.063-26.614-23.582-54.878-45.662-67.624-6.641-3.834-12.957-5.884-18.687-6.324-3.013-32.257-25.443-68.916-52.679-84.641-29.292-16.911-53.037-3.2-53.037,30.619,0,1.147.032,2.305.087,3.465-21.42-9.932-38.155,1.261-38.155,26.634,0,27,18.959,59.845,42.351,73.348l176.647,101.99c17.564,10.14,31.8,1.92,31.8-18.359S1386.53,496.508,1368.966,486.368Z" transform="translate(-215.031 -57.003)" fill-rule="evenodd" fill="url(#linear-gradient-3)"/>
    <path id="Path_604" data-name="Path 604" d="M1201.986,408.3c-.055-1.16-.087-2.319-.087-3.465l0-.144c-11.834-4.6-22-2.6-28.384,4.785C1180.451,403.765,1190.532,402.987,1201.986,408.3Z" transform="translate(-228.894 -107.464)" fill="#fff"/>
    <path id="Path_605" data-name="Path 605" d="M1442.828,480.242a31.656,31.656,0,0,0-10.868-4.028c-5.063-26.614-23.582-54.876-45.662-67.624-6.641-3.834-12.957-5.882-18.687-6.323-3.015-32.259-25.445-68.918-52.679-84.643-18.25-10.535-34.342-9.181-43.886,1.512,9.723-8.307,24.607-8.628,41.3,1.009,27.236,15.725,49.666,52.384,52.679,84.641,5.729.44,12.045,2.49,18.687,6.324,22.08,12.746,40.6,41.01,45.662,67.624a31.647,31.647,0,0,1,10.868,4.028c17.563,10.139,31.8,34.8,31.8,55.08,0,7.318-1.877,13.038-5.072,16.916,4.763-3.668,7.658-10.321,7.658-19.436C1474.63,515.043,1460.391,490.382,1442.828,480.242Z" transform="translate(-286.306 -53.399)" fill="#fff"/>
    <path id="Path_606" data-name="Path 606" d="M1197.092,378.568l13.279,6.156-.675-14.62c-.048-1.027-.079-2.046-.079-3.059,0-13.051,3.942-22.514,11.1-26.644s17.324-2.811,28.624,3.716c24.31,14.033,45.516,48.2,48.279,77.777l.7,7.454,7.462.574c4.588.351,9.608,2.086,14.928,5.159,19.309,11.147,36.71,37.051,41.379,61.594l1.169,6.143,6.178.968a22.961,22.961,0,0,1,7.8,2.946c14.832,8.563,27.361,30.266,27.361,47.389,0,6.41-1.776,11.113-4.876,12.9s-8.056.975-13.607-2.228L1209.463,462.807c-20.552-11.864-37.912-41.934-37.912-65.663,0-9.312,2.745-16.406,7.534-19.465a12.9,12.9,0,0,1,7.039-1.884A26.512,26.512,0,0,1,1197.092,378.568Z" transform="translate(-227.737 -69.679)" fill-rule="evenodd" fill="url(#radial-gradient-13)"/>
    <path id="Path_607" data-name="Path 607" d="M1447.976,697.4l4.66-2.339-4.588-3.474Z" transform="translate(-390.458 -277.797)" fill="#5593ce"/>
    <path id="Path_608" data-name="Path 608" d="M1413.951,549.412l4.525-2.286.082,2.367Z" transform="translate(-370.429 -192.759)" fill="#5593ce"/>
    <path id="Path_609" data-name="Path 609" d="M1474.046,654.178l4.722-2.372-9.087-8.643Z" transform="translate(-403.234 -249.293)" fill="#5593ce"/>
    <path id="Path_610" data-name="Path 610" d="M1421.525,639.212l-22.061-12.995a4.7,4.7,0,0,1-2.021-3.709l.072-25.541,26.118,15.381-.072,25.542C1423.558,639.278,1422.644,639.871,1421.525,639.212Z" transform="translate(-360.711 -222.099)" fill="#5593ce"/>
    <path id="Path_611" data-name="Path 611" d="M1390.094,546.909l-23.828,15.334c-1.013.651-.194,3.076,1.34,3.981l24.337,14.332,24.336,14.335c1.534.9,2.364-.554,1.359-2.391l-23.662-43.3C1392.954,547.327,1391.122,546.249,1390.094,546.909Z" transform="translate(-342.094 -192.517)" fill="#5593ce"/>
    <path id="Path_612" data-name="Path 612" d="M1410.025,645l-22.063-12.993a4.707,4.707,0,0,1-2.019-3.711l.072-25.542,26.118,15.382-.074,25.542C1412.056,645.069,1411.146,645.661,1410.025,645Z" transform="translate(-353.941 -225.506)" fill="#d4ebfa"/>
    <path id="Path_613" data-name="Path 613" d="M1378.594,552.7l-23.828,15.333c-1.011.651-.2,3.076,1.34,3.981l24.336,14.332,24.336,14.333c1.537.9,2.365-.552,1.359-2.389l-23.662-43.3C1381.455,553.117,1379.623,552.039,1378.594,552.7Z" transform="translate(-335.326 -195.926)" fill="#d4ebfa"/>
  </g>
</svg>
