<svg id="right" xmlns="http://www.w3.org/2000/svg" width="13.793" height="13.793" viewBox="0 0 13.793 13.793">
  <g id="Group_186" data-name="Group 186" transform="translate(0)">
    <g id="Group_185" data-name="Group 185">
      <path id="Path_317" data-name="Path 317" d="M11.773,2.02A6.9,6.9,0,0,0,2.02,11.773,6.9,6.9,0,1,0,11.773,2.02ZM6.9,12.985A6.088,6.088,0,1,1,12.985,6.9,6.1,6.1,0,0,1,6.9,12.985Z" transform="translate(0)" fill="#51b794"/>
    </g>
  </g>
  <g id="Group_188" data-name="Group 188" transform="translate(3.483 4.565)">
    <g id="Group_187" data-name="Group 187">
      <path id="Path_318" data-name="Path 318" d="M136.009,169.585a.4.4,0,0,0-.571,0l-3.568,3.568-1.878-1.878a.4.4,0,0,0-.571.571l2.164,2.164a.4.4,0,0,0,.571,0l3.854-3.854A.4.4,0,0,0,136.009,169.585Z" transform="translate(-129.301 -169.467)" fill="#51b794"/>
    </g>
  </g>
</svg>
