<svg xmlns="http://www.w3.org/2000/svg" width="258.668" height="63.641" viewBox="0 0 258.668 63.641">
  <g id="webdesign_logo" data-name="webdesign logo" transform="translate(-8.666 -5.667)">
    <path id="Path_1" data-name="Path 1" d="M71.148,34.6,52.626,16.068a4.434,4.434,0,0,0-5.846,0L25.322,37.541l8.944,8.954-2.7,2.7L19.926,37.541,44.619,12.822a6.759,6.759,0,0,1,3.164-1.6L43.45,6.879a4.168,4.168,0,0,0-5.871-.005L9.876,34.592a4.187,4.187,0,0,0,0,5.887l27.7,27.72a4.444,4.444,0,0,0,5.876,0l3.555-3.56-9.194-9.2L55.7,37.541l-6.245-6.255-8.942,8.952-2.7-2.7L49.449,25.88,61.091,37.541l-17.88,17.9,6.494,6.5L71.149,40.478a4.166,4.166,0,0,0,0-5.883" transform="translate(0 0)" fill="#51b794"/>
    <text id="webdesign" transform="translate(84.334 42.147)" fill="#3658a4" font-size="35" font-family="MavenPro-Black, Maven Pro" font-weight="800"><tspan x="0" y="0">webdesign</tspan></text>
    <text id="by_FIGARO" data-name="by FIGARO" transform="translate(90.309 54.958)" font-size="11" font-family="MavenPro-Regular, Maven Pro" letter-spacing="0.424em"><tspan x="0" y="0">by FIGARO</tspan></text>
  </g>
</svg>
