<svg xmlns="http://www.w3.org/2000/svg" width="812.413" height="864.781" viewBox="0 0 812.413 864.781">
  <g id="_871_Przekonwertowany_" data-name="871 [Przekonwertowany]" transform="translate(-285.233 -47.051)">
    <g id="Group_156" data-name="Group 156" transform="translate(301.928 95.452)">
      <g id="Group_155" data-name="Group 155">
        <g id="Group_153" data-name="Group 153" transform="translate(277.663)">
          <path id="Path_144" data-name="Path 144" d="M790.656,283.735,413.144,65.962c-4.862-2.8-9.328-3.238-12.924-1.737l.018-.044-.62.288c-.05.024-.1.044-.151.071l-12.292,5.782,13.345,6.641c-.006.249-.03.483-.03.738l.116,310.067c.006,15.515,9.606,33.634,21.448,40.462L789.5,640.2l2.087,17.294,13.416-6.4c4.421-2.594,7.222-8.462,7.22-16.826L812.107,324.2C812.1,308.682,802.5,290.566,790.656,283.735Z" transform="translate(-379.288 -63.376)" fill="#173d7a"/>
          <path id="Path_145" data-name="Path 145" d="M790.656,283.735,413.144,65.962c-4.862-2.8-9.328-3.238-12.924-1.737l.018-.044-.62.288c-.05.024-.1.044-.151.071l-12.292,5.782,13.345,6.641c-.006.249-.03.483-.03.738l.074,204.351L572.37,417.8,805.643,300.4C801.777,293.214,796.491,287.1,790.656,283.735Z" transform="translate(-379.288 -63.376)" fill="#396caa"/>
          <path id="Path_146" data-name="Path 146" d="M549.91,139.345l-37,15.563,27.932,21.522,23.325-9.932C562.143,156.3,556.762,146.055,549.91,139.345Z" transform="translate(-132.233 85.895)" fill="#274f89"/>
          <path id="Path_147" data-name="Path 147" d="M783.59,651.985,406.079,434.209c-11.839-6.831-21.442-24.947-21.448-40.462l-.116-310.067c-.006-15.515,9.585-22.56,21.43-15.729L783.457,285.728c11.842,6.831,21.445,24.946,21.451,40.462l.116,310.067C805.029,651.772,795.432,658.813,783.59,651.985Z" transform="translate(-384.515 -59.51)" fill="#d4ecff"/>
          <path id="Path_148" data-name="Path 148" d="M761.618,613.853l-352.577-203.3c-10.837-6.25-19.624-22.827-19.63-37.025l-.1-283.739c-.006-14.2,8.773-20.644,19.61-14.392L761.494,278.694c10.834,6.25,19.621,22.827,19.628,37.028l.107,283.736C781.231,613.657,772.452,620.1,761.618,613.853Z" transform="translate(-375.099 -44.441)" fill="#fff"/>
          <path id="Path_149" data-name="Path 149" d="M761.618,613.853l-352.577-203.3c-10.837-6.25-19.624-22.827-19.63-37.025l-.1-283.739c-.006-14.2,8.773-20.644,19.61-14.392L761.494,278.694c10.834,6.25,19.621,22.827,19.628,37.028l.107,283.736C781.231,613.657,772.452,620.1,761.618,613.853Z" transform="translate(-375.099 -44.441)" fill="#fff"/>
        </g>
        <path id="Path_150" data-name="Path 150" d="M973.232,399l-50.765-6.707-327.7-189.2c-10.507-6.066-28.857-5.3-40.989,1.7L321.567,338.808l-30.7-4.053v17.419l.03,0c-.2,4.026,2.09,7.9,7.048,10.76l371.386,214.42c10.5,6.066,28.854,5.3,40.987-1.7L963.205,429.7c6.825-3.937,10.226-9.016,10.027-13.781h0Z" transform="translate(-290.854 203.107)" fill="#173d7a"/>
        <path id="Path_151" data-name="Path 151" d="M727.01,235.041,703.727,221.6H447.757L321.566,294.406l-30.7-4.053v17.419l.03,0c-.2,4.026,2.09,7.9,7.048,10.759l371.386,214.42c5.55,3.205,13.294,4.486,21.154,3.964Z" transform="translate(-290.856 247.512)" fill="#396caa"/>
        <path id="Path_152" data-name="Path 152" d="M304.492,246.588l-13.624-1.8v17.419l.03,0c-.2,4.026,2.09,7.9,7.048,10.76l6.546,3.777V246.588Z" transform="translate(-290.856 293.077)" fill="#5793ce"/>
        <path id="Path_153" data-name="Path 153" d="M419.779,354.378c9.956,3.774,24.193,2.953,34.825-2.161V313.365H419.779Z" transform="translate(-37.562 427.822)" fill="#274f89"/>
        <path id="Path_154" data-name="Path 154" d="M669.342,579.092,297.956,364.675c-10.5-6.066-9.188-16.663,2.944-23.663L553.783,195.055c12.132-7,30.482-7.765,40.99-1.7l371.386,214.42c10.5,6.066,9.188,16.66-2.944,23.663L710.329,577.393C698.2,584.4,679.847,585.158,669.342,579.092Z" transform="translate(-290.864 183.973)" fill="#d4ecff"/>
        <path id="Path_155" data-name="Path 155" d="M963.2,317.778,710.315,463.733c-12.132,7-30.482,7.765-40.986,1.7L297.942,251.015c-3.445-1.989-5.592-4.468-6.532-7.145-1.642,4.969.451,9.995,6.532,13.508L669.328,471.795c10.5,6.066,28.854,5.307,40.986-1.7L963.2,324.141c8.153-4.708,11.4-11.035,9.473-16.52C971.479,311.238,968.309,314.828,963.2,317.778Z" transform="translate(-290.85 291.273)" fill="#fff"/>
        <g id="Group_154" data-name="Group 154" transform="translate(147.333 386.438)">
          <path id="Path_156" data-name="Path 156" d="M358.27,241.006l-16.8-9.7c-1.349-.78-1.18-2.141.377-3.036l19.832-11.45a5.84,5.84,0,0,1,5.263-.219l16.8,9.7c1.349.78,1.177,2.141-.379,3.039l-19.832,11.45A5.849,5.849,0,0,1,358.27,241.006Z" transform="translate(-340.557 -149.783)" fill="#173d7a"/>
          <path id="Path_157" data-name="Path 157" d="M367.024,246.06l-16.8-9.7c-1.349-.78-1.177-2.141.379-3.039l19.832-11.45a5.839,5.839,0,0,1,5.263-.216l16.8,9.7c1.352.783,1.18,2.144-.377,3.039l-19.832,11.45A5.84,5.84,0,0,1,367.024,246.06Z" transform="translate(-323.359 -139.853)" fill="#173d7a"/>
          <path id="Path_158" data-name="Path 158" d="M375.775,251.113l-16.8-9.7c-1.349-.78-1.18-2.141.377-3.036l19.832-11.45a5.84,5.84,0,0,1,5.263-.219l16.8,9.7c1.349.78,1.18,2.141-.379,3.039L381.037,250.9A5.858,5.858,0,0,1,375.775,251.113Z" transform="translate(-306.162 -129.924)" fill="#173d7a"/>
          <path id="Path_159" data-name="Path 159" d="M387.882,245.721l-16.8-9.7c-1.349-.78-1.177-2.141.379-3.036l16.648-9.612a5.84,5.84,0,0,1,5.263-.219l16.8,9.7c1.349.78,1.177,2.141-.379,3.036L393.144,245.5A5.84,5.84,0,0,1,387.882,245.721Z" transform="translate(-282.376 -136.905)" fill="#173d7a"/>
          <path id="Path_160" data-name="Path 160" d="M396.633,250.774l-16.8-9.7c-1.349-.783-1.18-2.144.377-3.039l16.651-9.612a5.849,5.849,0,0,1,5.263-.219l16.8,9.7c1.349.78,1.18,2.141-.377,3.039L401.9,250.557A5.858,5.858,0,0,1,396.633,250.774Z" transform="translate(-265.178 -126.976)" fill="#173d7a"/>
          <path id="Path_161" data-name="Path 161" d="M405.386,255.828l-16.8-9.7c-1.349-.78-1.177-2.141.379-3.039l16.648-9.612a5.849,5.849,0,0,1,5.263-.216l16.8,9.7c1.349.78,1.177,2.141-.379,3.039l-16.648,9.612A5.848,5.848,0,0,1,405.386,255.828Z" transform="translate(-247.983 -117.048)" fill="#173d7a"/>
          <path id="Path_162" data-name="Path 162" d="M414.137,260.88l-16.8-9.7c-1.349-.777-1.18-2.138.377-3.036l16.651-9.612a5.83,5.83,0,0,1,5.263-.216l16.8,9.7c1.349.78,1.18,2.141-.377,3.039L419.4,260.664A5.848,5.848,0,0,1,414.137,260.88Z" transform="translate(-230.785 -107.119)" fill="#173d7a"/>
          <path id="Path_163" data-name="Path 163" d="M422.891,265.934l-16.8-9.7c-1.349-.78-1.177-2.141.379-3.036l16.648-9.612a5.84,5.84,0,0,1,5.263-.219l16.8,9.7c1.349.78,1.177,2.141-.379,3.036l-16.648,9.612A5.849,5.849,0,0,1,422.891,265.934Z" transform="translate(-213.588 -97.189)" fill="#173d7a"/>
          <path id="Path_164" data-name="Path 164" d="M431.642,270.987l-16.8-9.7c-1.349-.783-1.18-2.144.377-3.039l16.651-9.612a5.849,5.849,0,0,1,5.263-.219l16.8,9.7c1.349.78,1.18,2.141-.377,3.039L436.9,270.77A5.849,5.849,0,0,1,431.642,270.987Z" transform="translate(-196.39 -87.26)" fill="#173d7a"/>
          <path id="Path_165" data-name="Path 165" d="M440.4,276.041l-16.8-9.7c-1.349-.78-1.177-2.141.379-3.039l16.648-9.612a5.848,5.848,0,0,1,5.263-.216l16.805,9.7c1.349.78,1.177,2.141-.379,3.039l-16.648,9.612A5.848,5.848,0,0,1,440.4,276.041Z" transform="translate(-179.192 -77.332)" fill="#173d7a"/>
          <path id="Path_166" data-name="Path 166" d="M449.147,281.093l-16.8-9.7c-1.349-.777-1.18-2.138.377-3.036l16.651-9.612a5.83,5.83,0,0,1,5.263-.216l16.8,9.7c1.349.783,1.18,2.141-.377,3.039l-16.651,9.612A5.848,5.848,0,0,1,449.147,281.093Z" transform="translate(-161.995 -67.403)" fill="#173d7a"/>
          <path id="Path_167" data-name="Path 167" d="M457.9,286.147l-16.8-9.7c-1.349-.78-1.177-2.141.38-3.036l16.648-9.612a5.84,5.84,0,0,1,5.263-.219l16.8,9.7c1.349.78,1.177,2.141-.38,3.036l-16.648,9.612A5.859,5.859,0,0,1,457.9,286.147Z" transform="translate(-144.797 -57.473)" fill="#173d7a"/>
          <path id="Path_168" data-name="Path 168" d="M466.655,291.2l-16.8-9.7c-1.349-.783-1.18-2.141.377-3.039l16.651-9.612a5.85,5.85,0,0,1,5.263-.219l16.8,9.7c1.349.78,1.18,2.141-.377,3.039l-16.651,9.612A5.852,5.852,0,0,1,466.655,291.2Z" transform="translate(-127.6 -47.544)" fill="#173d7a"/>
          <path id="Path_169" data-name="Path 169" d="M400.775,243.328l-16.8-9.7c-1.349-.78-1.18-2.141.379-3.036L401,220.978a5.85,5.85,0,0,1,5.263-.219l16.8,9.7c1.349.78,1.18,2.141-.377,3.036l-16.651,9.612A5.84,5.84,0,0,1,400.775,243.328Z" transform="translate(-257.038 -141.606)" fill="#396caa"/>
          <path id="Path_170" data-name="Path 170" d="M391.893,238.2l-16.8-9.7c-1.349-.783-1.18-2.144.377-3.039l16.651-9.612a5.85,5.85,0,0,1,5.263-.219l16.8,9.7c1.349.78,1.18,2.141-.377,3.039l-16.651,9.612A5.858,5.858,0,0,1,391.893,238.2Z" transform="translate(-274.492 -151.682)" fill="#396caa"/>
          <path id="Path_171" data-name="Path 171" d="M395.844,240.483l-36.189-20.9c-1.349-.78-1.18-2.141.377-3.036l16.651-9.612a5.834,5.834,0,0,1,5.26-.219l36.192,20.9c1.349.78,1.18,2.141-.377,3.036l-16.651,9.612A5.849,5.849,0,0,1,395.844,240.483Z" transform="translate(-304.822 -169.196)" fill="#173d7a"/>
          <path id="Path_172" data-name="Path 172" d="M397.545,231.626l-29.37-16.959c-1.349-.78-1.18-2.138.379-3.036l16.648-9.612a5.84,5.84,0,0,1,5.263-.219l29.37,16.959c1.346.78,1.177,2.141-.379,3.039l-16.648,9.609A5.859,5.859,0,0,1,397.545,231.626Z" transform="translate(-288.081 -178.861)" fill="#173d7a"/>
          <path id="Path_173" data-name="Path 173" d="M409.529,248.38l-16.8-9.7c-1.349-.78-1.18-2.141.377-3.039l16.648-9.612a5.848,5.848,0,0,1,5.263-.216l16.8,9.7c1.349.777,1.18,2.138-.379,3.036l-16.648,9.612A5.831,5.831,0,0,1,409.529,248.38Z" transform="translate(-239.839 -131.677)" fill="#396caa"/>
          <path id="Path_174" data-name="Path 174" d="M418.284,253.435l-16.8-9.7c-1.349-.78-1.18-2.141.377-3.039l16.651-9.609a5.84,5.84,0,0,1,5.263-.219l16.8,9.7c1.349.78,1.18,2.141-.377,3.039l-16.648,9.612A5.858,5.858,0,0,1,418.284,253.435Z" transform="translate(-222.643 -121.748)" fill="#173d7a"/>
          <path id="Path_175" data-name="Path 175" d="M427.035,258.49l-16.8-9.7c-1.349-.78-1.177-2.141.379-3.039l16.648-9.612a5.84,5.84,0,0,1,5.263-.216l16.8,9.7c1.349.783,1.18,2.144-.379,3.039L432.3,258.271A5.868,5.868,0,0,1,427.035,258.49Z" transform="translate(-205.445 -111.819)" fill="#173d7a"/>
          <path id="Path_176" data-name="Path 176" d="M435.789,263.541l-16.8-9.7c-1.349-.78-1.18-2.141.377-3.036l16.651-9.612a5.84,5.84,0,0,1,5.263-.219l16.8,9.7c1.349.78,1.177,2.141-.379,3.039l-16.651,9.609A5.834,5.834,0,0,1,435.789,263.541Z" transform="translate(-188.247 -101.891)" fill="#173d7a"/>
          <path id="Path_177" data-name="Path 177" d="M444.539,268.593l-16.8-9.7c-1.346-.78-1.177-2.141.38-3.039l16.648-9.612a5.849,5.849,0,0,1,5.263-.216l16.8,9.7c1.349.777,1.18,2.138-.377,3.036L449.8,268.376A5.83,5.83,0,0,1,444.539,268.593Z" transform="translate(-171.049 -91.961)" fill="#173d7a"/>
          <path id="Path_178" data-name="Path 178" d="M453.294,273.648l-16.8-9.7c-1.349-.78-1.18-2.141.377-3.036l16.651-9.612a5.84,5.84,0,0,1,5.263-.219l16.8,9.7c1.349.78,1.18,2.141-.377,3.039l-16.648,9.612A5.867,5.867,0,0,1,453.294,273.648Z" transform="translate(-153.852 -82.032)" fill="#173d7a"/>
          <path id="Path_179" data-name="Path 179" d="M462.045,278.7l-16.8-9.7c-1.349-.78-1.177-2.141.379-3.039l16.648-9.609a5.831,5.831,0,0,1,5.263-.219l16.8,9.7c1.349.783,1.18,2.144-.379,3.039l-16.648,9.612A5.849,5.849,0,0,1,462.045,278.7Z" transform="translate(-136.655 -72.104)" fill="#173d7a"/>
          <path id="Path_180" data-name="Path 180" d="M470.8,283.754l-16.8-9.7c-1.349-.78-1.177-2.141.379-3.036l16.648-9.612a5.84,5.84,0,0,1,5.263-.219l16.8,9.7c1.349.78,1.177,2.141-.38,3.039l-16.651,9.612A5.843,5.843,0,0,1,470.8,283.754Z" transform="translate(-119.456 -62.175)" fill="#173d7a"/>
          <path id="Path_181" data-name="Path 181" d="M479.549,288.806l-16.8-9.7c-1.349-.78-1.18-2.141.377-3.039l16.648-9.612a5.849,5.849,0,0,1,5.263-.216l16.8,9.7c1.349.777,1.18,2.138-.377,3.036l-16.651,9.612A5.84,5.84,0,0,1,479.549,288.806Z" transform="translate(-102.259 -52.245)" fill="#173d7a"/>
          <path id="Path_182" data-name="Path 182" d="M508.268,305.392l-36.661-21.169c-1.349-.78-1.18-2.141.377-3.039l16.648-9.612a5.839,5.839,0,0,1,5.263-.216l36.664,21.169c1.349.78,1.18,2.141-.377,3.036l-16.651,9.612A5.84,5.84,0,0,1,508.268,305.392Z" transform="translate(-84.848 -42.195)" fill="#173d7a"/>
          <path id="Path_183" data-name="Path 183" d="M521.521,293.366,490.574,275.5c-1.349-.78-1.177-2.141.379-3.039l16.648-9.612a5.839,5.839,0,0,1,5.263-.216L543.811,280.5c1.349.783,1.18,2.144-.377,3.039l-16.651,9.612A5.84,5.84,0,0,1,521.521,293.366Z" transform="translate(-47.579 -59.337)" fill="#173d7a"/>
          <path id="Path_184" data-name="Path 184" d="M424.856,247.393l-16.8-9.7c-1.349-.78-1.18-2.141.377-3.036l16.651-9.612a5.84,5.84,0,0,1,5.263-.219l16.8,9.7c1.349.78,1.18,2.141-.377,3.039l-16.651,9.609A5.84,5.84,0,0,1,424.856,247.393Z" transform="translate(-209.724 -133.62)" fill="#173d7a"/>
          <path id="Path_185" data-name="Path 185" d="M415.887,242.215l-16.8-9.7c-1.349-.78-1.177-2.141.379-3.039l16.648-9.612a5.848,5.848,0,0,1,5.263-.216l16.805,9.7c1.349.78,1.177,2.141-.379,3.039L421.149,242A5.848,5.848,0,0,1,415.887,242.215Z" transform="translate(-227.35 -143.796)" fill="#173d7a"/>
          <path id="Path_186" data-name="Path 186" d="M406.916,237.036l-16.8-9.7c-1.349-.78-1.18-2.141.377-3.039l16.651-9.609a5.831,5.831,0,0,1,5.263-.219l16.8,9.7c1.349.783,1.18,2.144-.377,3.039l-16.651,9.612A5.849,5.849,0,0,1,406.916,237.036Z" transform="translate(-244.973 -153.973)" fill="#396caa"/>
          <path id="Path_187" data-name="Path 187" d="M397.947,231.855l-16.8-9.7c-1.349-.783-1.177-2.141.379-3.039l16.648-9.612a5.84,5.84,0,0,1,5.263-.216l16.8,9.7c1.349.78,1.177,2.141-.379,3.039l-16.648,9.612A5.849,5.849,0,0,1,397.947,231.855Z" transform="translate(-262.599 -164.147)" fill="#173d7a"/>
          <path id="Path_188" data-name="Path 188" d="M433.61,252.445l-16.805-9.7c-1.349-.78-1.177-2.141.379-3.039l16.648-9.612a5.849,5.849,0,0,1,5.263-.216l16.8,9.7c1.349.777,1.177,2.138-.379,3.036l-16.648,9.612A5.849,5.849,0,0,1,433.61,252.445Z" transform="translate(-192.526 -123.69)" fill="#173d7a"/>
          <path id="Path_189" data-name="Path 189" d="M442.361,257.5l-16.8-9.7c-1.349-.78-1.18-2.141.377-3.036l16.651-9.612a5.84,5.84,0,0,1,5.263-.219l16.8,9.7c1.349.78,1.18,2.141-.377,3.039l-16.651,9.612A5.849,5.849,0,0,1,442.361,257.5Z" transform="translate(-175.328 -113.763)" fill="#173d7a"/>
          <path id="Path_190" data-name="Path 190" d="M451.115,262.554l-16.8-9.7c-1.349-.78-1.177-2.141.379-3.039l16.648-9.612a5.839,5.839,0,0,1,5.263-.216l16.8,9.7c1.349.783,1.177,2.144-.379,3.039l-16.648,9.612A5.85,5.85,0,0,1,451.115,262.554Z" transform="translate(-158.131 -103.833)" fill="#173d7a"/>
          <path id="Path_191" data-name="Path 191" d="M459.866,267.606l-16.8-9.7c-1.349-.783-1.18-2.144.377-3.039l16.651-9.612a5.84,5.84,0,0,1,5.263-.219l16.8,9.7c1.349.78,1.18,2.141-.377,3.039l-16.651,9.612A5.867,5.867,0,0,1,459.866,267.606Z" transform="translate(-140.933 -93.904)" fill="#173d7a"/>
          <path id="Path_192" data-name="Path 192" d="M468.62,272.658l-16.8-9.7c-1.349-.78-1.177-2.141.38-3.039l16.648-9.612a5.849,5.849,0,0,1,5.263-.216l16.8,9.7c1.349.777,1.177,2.138-.38,3.036l-16.648,9.612A5.848,5.848,0,0,1,468.62,272.658Z" transform="translate(-123.736 -83.974)" fill="#173d7a"/>
          <path id="Path_193" data-name="Path 193" d="M477.371,277.712l-16.8-9.7c-1.349-.78-1.18-2.138.377-3.036l16.651-9.612a5.84,5.84,0,0,1,5.263-.219l16.8,9.7c1.349.78,1.18,2.141-.377,3.039L482.633,277.5A5.849,5.849,0,0,1,477.371,277.712Z" transform="translate(-106.538 -74.047)" fill="#173d7a"/>
          <path id="Path_194" data-name="Path 194" d="M486.125,282.767l-16.8-9.7c-1.349-.78-1.177-2.141.379-3.039l16.648-9.612a5.839,5.839,0,0,1,5.263-.216l16.805,9.7c1.349.78,1.177,2.141-.38,3.036l-16.648,9.612A5.859,5.859,0,0,1,486.125,282.767Z" transform="translate(-89.341 -64.117)" fill="#173d7a"/>
          <path id="Path_195" data-name="Path 195" d="M494.876,287.819l-16.8-9.7c-1.349-.78-1.18-2.141.377-3.036L495.1,265.47a5.84,5.84,0,0,1,5.263-.219l16.8,9.7c1.349.78,1.18,2.141-.377,3.039L500.138,287.6A5.858,5.858,0,0,1,494.876,287.819Z" transform="translate(-72.143 -54.188)" fill="#173d7a"/>
          <path id="Path_196" data-name="Path 196" d="M503.63,292.87l-16.8-9.7c-1.349-.78-1.177-2.141.379-3.039l16.648-9.612a5.848,5.848,0,0,1,5.263-.216l16.8,9.7c1.349.777,1.177,2.138-.379,3.036l-16.648,9.612A5.83,5.83,0,0,1,503.63,292.87Z" transform="translate(-54.946 -44.26)" fill="#173d7a"/>
          <path id="Path_197" data-name="Path 197" d="M420.249,234.894l-16.8-9.7c-1.349-.777-1.177-2.138.379-3.036l16.648-9.612a5.83,5.83,0,0,1,5.263-.216l16.8,9.7c1.349.78,1.18,2.141-.379,3.039l-16.648,9.612A5.857,5.857,0,0,1,420.249,234.894Z" transform="translate(-218.779 -158.179)" fill="#173d7a"/>
          <path id="Path_198" data-name="Path 198" d="M411.539,229.865l-16.8-9.7c-1.346-.78-1.177-2.141.379-3.039l16.648-9.612a5.849,5.849,0,0,1,5.263-.216l16.8,9.7c1.349.777,1.18,2.138-.377,3.036L416.8,229.648A5.848,5.848,0,0,1,411.539,229.865Z" transform="translate(-235.89 -168.057)" fill="#173d7a"/>
          <path id="Path_199" data-name="Path 199" d="M402.83,224.839l-16.8-9.7c-1.349-.78-1.18-2.141.377-3.036l16.648-9.615a5.849,5.849,0,0,1,5.263-.216l16.8,9.7c1.349.78,1.18,2.141-.377,3.036l-16.651,9.612A5.84,5.84,0,0,1,402.83,224.839Z" transform="translate(-253.002 -177.938)" fill="#173d7a"/>
          <path id="Path_200" data-name="Path 200" d="M394.121,219.811l-16.8-9.7c-1.349-.78-1.18-2.141.377-3.039l16.648-9.612a5.859,5.859,0,0,1,5.263-.219l16.8,9.7c1.349.78,1.18,2.141-.377,3.039l-16.651,9.612A5.85,5.85,0,0,1,394.121,219.811Z" transform="translate(-270.114 -187.818)" fill="#173d7a"/>
          <path id="Path_201" data-name="Path 201" d="M403.079,210.376l-16.8-9.7c-1.349-.78-1.18-2.141.377-3.039l5.506-3.178a5.853,5.853,0,0,1,5.26-.219l16.8,9.7c1.349.78,1.177,2.141-.379,3.039l-5.5,3.178A5.84,5.84,0,0,1,403.079,210.376Z" transform="translate(-252.518 -193.714)" fill="#173d7a"/>
          <path id="Path_202" data-name="Path 202" d="M414.441,216.938l-16.8-9.7c-1.349-.78-1.18-2.141.377-3.039l5.5-3.175a5.84,5.84,0,0,1,5.263-.219l16.8,9.7c1.349.78,1.177,2.141-.379,3.039l-5.5,3.175A5.849,5.849,0,0,1,414.441,216.938Z" transform="translate(-230.188 -180.82)" fill="#173d7a"/>
          <path id="Path_203" data-name="Path 203" d="M423.114,221.944l-16.8-9.7c-1.346-.78-1.177-2.141.379-3.039l5.5-3.175a5.83,5.83,0,0,1,5.263-.216l16.8,9.7c1.349.78,1.177,2.141-.379,3.039l-5.5,3.178A5.848,5.848,0,0,1,423.114,221.944Z" transform="translate(-213.147 -170.982)" fill="#173d7a"/>
          <path id="Path_204" data-name="Path 204" d="M431.788,226.95l-16.8-9.7c-1.349-.783-1.177-2.144.379-3.039l5.5-3.178a5.849,5.849,0,0,1,5.263-.216l16.8,9.7c1.349.78,1.18,2.141-.377,3.036l-5.5,3.178A5.839,5.839,0,0,1,431.788,226.95Z" transform="translate(-196.106 -161.142)" fill="#173d7a"/>
          <path id="Path_205" data-name="Path 205" d="M440.461,231.96l-16.8-9.7c-1.349-.78-1.177-2.141.379-3.039l5.5-3.175a5.84,5.84,0,0,1,5.263-.219l16.8,9.7c1.349.78,1.18,2.141-.377,3.036l-5.5,3.178A5.858,5.858,0,0,1,440.461,231.96Z" transform="translate(-179.065 -151.304)" fill="#173d7a"/>
          <path id="Path_206" data-name="Path 206" d="M488.879,259.911l-16.8-9.7c-1.349-.78-1.18-2.141.38-3.039l5.5-3.178a5.849,5.849,0,0,1,5.263-.216l16.8,9.7c1.349.78,1.18,2.141-.379,3.039l-5.5,3.175A5.83,5.83,0,0,1,488.879,259.911Z" transform="translate(-83.93 -96.378)" fill="#173d7a"/>
          <path id="Path_207" data-name="Path 207" d="M497.549,264.92l-16.8-9.7c-1.349-.78-1.18-2.141.377-3.036l5.5-3.178a5.849,5.849,0,0,1,5.263-.219l16.8,9.7c1.349.78,1.177,2.141-.38,3.039l-5.5,3.175A5.849,5.849,0,0,1,497.549,264.92Z" transform="translate(-66.889 -86.539)" fill="#173d7a"/>
          <path id="Path_208" data-name="Path 208" d="M506.222,269.927l-16.8-9.7c-1.349-.78-1.18-2.141.377-3.036l5.5-3.178a5.839,5.839,0,0,1,5.263-.216l16.8,9.7c1.349.78,1.177,2.141-.379,3.036l-5.5,3.178A5.867,5.867,0,0,1,506.222,269.927Z" transform="translate(-49.849 -76.7)" fill="#173d7a"/>
          <path id="Path_209" data-name="Path 209" d="M514.9,274.933l-16.8-9.7c-1.349-.78-1.177-2.141.38-3.039l5.5-3.178a5.848,5.848,0,0,1,5.263-.216l16.8,9.7c1.346.78,1.177,2.141-.379,3.039l-5.5,3.175A5.849,5.849,0,0,1,514.9,274.933Z" transform="translate(-32.809 -66.861)" fill="#173d7a"/>
          <path id="Path_210" data-name="Path 210" d="M429,239.949l-16.805-9.7c-1.349-.78-1.18-2.141.377-3.039l16.651-9.612a5.849,5.849,0,0,1,5.263-.216l16.8,9.7c1.349.78,1.18,2.141-.377,3.036l-16.651,9.612A5.852,5.852,0,0,1,429,239.949Z" transform="translate(-201.581 -148.249)" fill="#173d7a"/>
          <path id="Path_211" data-name="Path 211" d="M437.754,245l-16.8-9.7c-1.349-.783-1.177-2.141.379-3.039l16.648-9.612a5.849,5.849,0,0,1,5.263-.219l16.8,9.7c1.349.78,1.177,2.141-.379,3.039l-16.648,9.612A5.84,5.84,0,0,1,437.754,245Z" transform="translate(-184.384 -138.321)" fill="#173d7a"/>
          <path id="Path_212" data-name="Path 212" d="M446.5,250.055l-16.8-9.7c-1.349-.78-1.18-2.141.379-3.039L446.73,227.7a5.849,5.849,0,0,1,5.263-.216l16.8,9.7c1.349.78,1.18,2.141-.377,3.036l-16.651,9.612A5.84,5.84,0,0,1,446.5,250.055Z" transform="translate(-167.186 -128.392)" fill="#173d7a"/>
          <path id="Path_213" data-name="Path 213" d="M455.258,255.107l-16.8-9.7c-1.346-.777-1.177-2.138.379-3.036l16.648-9.612a5.83,5.83,0,0,1,5.263-.216l16.8,9.7c1.349.78,1.18,2.141-.379,3.039l-16.648,9.612A5.867,5.867,0,0,1,455.258,255.107Z" transform="translate(-149.988 -118.463)" fill="#173d7a"/>
          <path id="Path_214" data-name="Path 214" d="M464.012,260.16l-16.8-9.7c-1.349-.78-1.18-2.141.377-3.039l16.651-9.609a5.84,5.84,0,0,1,5.263-.219l16.8,9.7c1.349.78,1.18,2.141-.377,3.036l-16.648,9.612A5.84,5.84,0,0,1,464.012,260.16Z" transform="translate(-132.793 -108.534)" fill="#173d7a"/>
          <path id="Path_215" data-name="Path 215" d="M472.763,265.212l-16.8-9.7c-1.349-.783-1.177-2.144.379-3.039l16.648-9.612a5.859,5.859,0,0,1,5.263-.219l16.8,9.7c1.349.777,1.177,2.138-.379,3.036L478.025,265A5.839,5.839,0,0,1,472.763,265.212Z" transform="translate(-115.595 -98.604)" fill="#173d7a"/>
          <path id="Path_216" data-name="Path 216" d="M481.516,270.268l-16.8-9.7c-1.349-.78-1.18-2.141.379-3.039l16.648-9.612A5.849,5.849,0,0,1,487,247.7l16.8,9.7c1.352.78,1.18,2.141-.377,3.036l-16.651,9.612A5.843,5.843,0,0,1,481.516,270.268Z" transform="translate(-98.397 -88.676)" fill="#173d7a"/>
          <path id="Path_217" data-name="Path 217" d="M490.267,275.32l-16.8-9.7c-1.346-.777-1.177-2.138.379-3.036l16.648-9.612a5.83,5.83,0,0,1,5.263-.216l16.8,9.7c1.349.78,1.18,2.141-.38,3.039L495.53,275.1A5.858,5.858,0,0,1,490.267,275.32Z" transform="translate(-81.199 -78.747)" fill="#173d7a"/>
          <path id="Path_218" data-name="Path 218" d="M499.022,280.373l-16.8-9.7c-1.349-.78-1.18-2.141.377-3.036l16.651-9.612a5.84,5.84,0,0,1,5.263-.219l16.8,9.7c1.349.78,1.18,2.141-.377,3.036l-16.648,9.612A5.84,5.84,0,0,1,499.022,280.373Z" transform="translate(-64.003 -68.818)" fill="#173d7a"/>
          <path id="Path_219" data-name="Path 219" d="M400.621,253.078l-49.487-28.573c-1.349-.78-1.177-2.138.379-3.036l16.648-9.612a5.83,5.83,0,0,1,5.263-.216l49.487,28.572c1.349.777,1.18,2.138-.377,3.036l-16.651,9.612A5.849,5.849,0,0,1,400.621,253.078Z" transform="translate(-321.562 -159.53)" fill="#173d7a"/>
          <path id="Path_220" data-name="Path 220" d="M508.147,315.16l-49.487-28.576c-1.349-.777-1.18-2.138.377-3.036l16.651-9.612a5.83,5.83,0,0,1,5.263-.216l49.487,28.573c1.349.78,1.177,2.138-.379,3.036l-16.648,9.612A5.858,5.858,0,0,1,508.147,315.16Z" transform="translate(-110.287 -37.551)" fill="#173d7a"/>
          <path id="Path_221" data-name="Path 221" d="M451.486,294.824l-16.8-9.7c-1.349-.78-1.18-2.141.379-3.039l19.832-11.447a5.84,5.84,0,0,1,5.263-.219l16.8,9.7c1.349.78,1.18,2.141-.377,3.036l-19.832,11.453A5.858,5.858,0,0,1,451.486,294.824Z" transform="translate(-157.403 -44.037)" fill="#173d7a"/>
          <path id="Path_222" data-name="Path 222" d="M394.6,261.981l-26.874-15.515c-1.349-.78-1.18-2.141.379-3.039l19.832-11.45a5.849,5.849,0,0,1,5.263-.216l26.871,15.515c1.349.78,1.18,2.138-.377,3.036l-19.832,11.45A5.859,5.859,0,0,1,394.6,261.981Z" transform="translate(-288.963 -119.994)" fill="#173d7a"/>
          <path id="Path_223" data-name="Path 223" d="M449.725,293.807l-26.874-15.515c-1.346-.777-1.177-2.138.379-3.036l19.832-11.45a5.849,5.849,0,0,1,5.263-.219L475.2,279.1c1.349.78,1.177,2.141-.379,3.039l-19.832,11.45A5.858,5.858,0,0,1,449.725,293.807Z" transform="translate(-180.644 -57.457)" fill="#173d7a"/>
          <path id="Path_224" data-name="Path 224" d="M407.225,269.27l-26.874-15.512c-1.349-.78-1.177-2.141.379-3.039l19.832-11.45a5.849,5.849,0,0,1,5.263-.219L432.7,254.564c1.349.78,1.18,2.141-.377,3.039l-19.832,11.45A5.866,5.866,0,0,1,407.225,269.27Z" transform="translate(-264.152 -105.669)" fill="#173d7a"/>
          <path id="Path_225" data-name="Path 225" d="M405.287,238.735l116.837,67.457c1.45.836,1.45,2.194,0,3.03L501.9,320.9a5.809,5.809,0,0,1-5.251,0L379.81,253.441Z" transform="translate(-263.429 -105.254)" fill="#173d7a"/>
          <path id="Path_226" data-name="Path 226" d="M473.141,287.749l18.717,10.81c1.106.638.966,1.752-.308,2.491l-8.112,4.684a4.8,4.8,0,0,1-4.314.178L460.407,295.1c-1.106-.64-.966-1.755.308-2.493l8.112-4.682A4.776,4.776,0,0,1,473.141,287.749Z" transform="translate(-106.533 -9.798)" fill="#173d7a"/>
          <path id="Path_227" data-name="Path 227" d="M464.317,282.653l18.717,10.807c1.106.637.966,1.755-.308,2.491l-8.112,4.684a4.8,4.8,0,0,1-4.314.181l-18.717-10.807c-1.106-.64-.966-1.755.308-2.493L460,282.831A4.793,4.793,0,0,1,464.317,282.653Z" transform="translate(-123.871 -19.809)" fill="#173d7a"/>
          <path id="Path_228" data-name="Path 228" d="M455.566,277.6,474.283,288.4c1.106.64.966,1.755-.308,2.493l-8.115,4.684a4.8,4.8,0,0,1-4.314.178l-18.717-10.807c-1.106-.64-.967-1.755.308-2.491l8.112-4.684A4.8,4.8,0,0,1,455.566,277.6Z" transform="translate(-141.072 -29.738)" fill="#173d7a"/>
          <path id="Path_229" data-name="Path 229" d="M469.152,279.861l18.717,10.807c1.1.64.967,1.755-.311,2.493l-8.112,4.682a4.8,4.8,0,0,1-4.314.181l-18.717-10.807c-1.106-.637-.966-1.755.308-2.491l8.115-4.684A4.794,4.794,0,0,1,469.152,279.861Z" transform="translate(-114.377 -25.292)" fill="#173d7a"/>
        </g>
      </g>
    </g>
    <g id="Group_158" data-name="Group 158" transform="translate(637.102 201.952)">
      <path id="Path_230" data-name="Path 230" d="M532.591,282.623,409.394,211.5c-3.027-1.746-5.482-6.434-5.482-10.469V104.1c0-4.035,2.455-5.888,5.482-4.142l123.2,71.127c3.027,1.746,5.482,6.434,5.482,10.472v96.931C538.07,282.516,535.618,284.369,532.591,282.623Z" transform="translate(-403.912 -99.296)" fill="#d4ecff" opacity="0.4"/>
      <g id="Group_157" data-name="Group 157" transform="translate(36.053 54.97)">
        <path id="Path_231" data-name="Path 231" d="M422.755,180.731l-.869-.5c-3.211-1.853-5.814-6.828-5.814-11.109V122.928c0-4.281,2.6-6.247,5.814-4.394l.869.5c3.211,1.853,5.814,6.828,5.814,11.109v46.193C428.569,180.616,425.966,182.585,422.755,180.731Z" transform="translate(-416.072 -117.837)" fill="#b2d3ea"/>
        <path id="Path_232" data-name="Path 232" d="M431.113,172.861l-.869-.5c-3.211-1.856-5.814-6.828-5.814-11.109V134.214c0-4.281,2.6-6.247,5.814-4.394l.869.5c3.211,1.853,5.814,6.828,5.814,11.109v27.037C436.927,172.746,434.324,174.714,431.113,172.861Z" transform="translate(-399.65 -95.661)" fill="#b2d3ea"/>
        <path id="Path_233" data-name="Path 233" d="M439.469,202.417l-.866-.5c-3.214-1.853-5.817-6.828-5.817-11.109V126.454c0-4.281,2.6-6.25,5.817-4.4l.866.5c3.211,1.853,5.814,6.828,5.814,11.109V198.02C445.283,202.3,442.68,204.273,439.469,202.417Z" transform="translate(-383.231 -110.914)" fill="#396caa"/>
      </g>
    </g>
    <g id="Group_159" data-name="Group 159" transform="translate(801.56 300.704)">
      <path id="Path_234" data-name="Path 234" d="M541.058,191.114l-76.541-44.189c-2.837-1.64-5.135-6.036-5.135-9.82h0c0-3.783,2.3-5.524,5.135-3.887l76.541,44.189c2.837,1.64,5.135,6.036,5.135,9.82h0C546.194,191.013,543.9,192.754,541.058,191.114Z" transform="translate(-459.379 -132.603)" fill="#b2d3ea"/>
      <path id="Path_235" data-name="Path 235" d="M491.82,171.766,464.516,156c-2.837-1.64-5.135-6.036-5.135-9.82h0c0-3.783,2.3-5.521,5.135-3.884l27.3,15.764c2.837,1.64,5.138,6.034,5.138,9.82h0C496.961,171.665,494.657,173.406,491.82,171.766Z" transform="translate(-459.381 -114.765)" fill="#b2d3ea"/>
      <path id="Path_236" data-name="Path 236" d="M507.277,180.69l-27.3-15.764c-2.837-1.64-5.138-6.034-5.138-9.82h0c0-3.783,2.3-5.524,5.138-3.884l27.3,15.764c2.837,1.64,5.135,6.034,5.135,9.82h0C512.415,180.589,510.114,182.326,507.277,180.69Z" transform="translate(-429.016 -97.233)" fill="#396caa"/>
      <path id="Path_237" data-name="Path 237" d="M534.486,196.506l-39.059-22.658c-2.837-1.64-5.138-6.034-5.138-9.82h0c0-3.783,2.3-5.524,5.138-3.887L534.486,182.8c2.84,1.64,5.138,6.034,5.138,9.82h0C539.628,196.405,537.327,198.143,534.486,196.506Z" transform="translate(-398.651 -79.703)" fill="#b2d3ea"/>
      <path id="Path_238" data-name="Path 238" d="M560.151,220.3l-95.635-55.215c-2.837-1.637-5.135-6.034-5.135-9.82h0c0-3.783,2.3-5.524,5.135-3.884l95.635,55.215c2.837,1.64,5.135,6.034,5.135,9.82h0C565.289,220.2,562.989,221.936,560.151,220.3Z" transform="translate(-459.381 -96.926)" fill="#b2d3ea"/>
      <path id="Path_239" data-name="Path 239" d="M600.356,252.28,464.517,174.161c-2.837-1.64-5.135-6.034-5.135-9.82h0c0-3.783,2.3-5.524,5.135-3.887l135.839,78.121c2.837,1.637,5.138,6.034,5.138,9.82h0C605.494,252.179,603.193,253.92,600.356,252.28Z" transform="translate(-459.379 -79.088)" fill="#396caa"/>
      <path id="Path_240" data-name="Path 240" d="M547.12,194.492l-49.659-28.549c-2.837-1.64-5.138-6.036-5.138-9.82h0c0-3.783,2.3-5.521,5.138-3.884l49.659,28.549c2.837,1.637,5.138,6.036,5.138,9.82h0C552.258,194.391,549.957,196.131,547.12,194.492Z" transform="translate(-394.654 -95.232)" fill="#b2d3ea"/>
    </g>
    <g id="Group_160" data-name="Group 160" transform="translate(636.784 387.067)">
      <path id="Path_241" data-name="Path 241" d="M427.969,176.023,403.8,162.073v27.9l24.164,13.95Z" transform="translate(-403.805 -161.062)" fill="#396caa"/>
      <path id="Path_242" data-name="Path 242" d="M440.844,175.685,416.68,161.732v50.951l24.164,13.953Z" transform="translate(-378.507 -161.732)" fill="#d4ecff"/>
      <path id="Path_243" data-name="Path 243" d="M453.719,188.026l-24.164-13.95V210.47l24.164,13.95Z" transform="translate(-353.209 -137.478)" fill="#d4ecff"/>
      <path id="Path_244" data-name="Path 244" d="M466.594,191.913l-24.164-13.95V224.87l24.164,13.953Z" transform="translate(-327.912 -129.84)" fill="#d4ecff"/>
      <path id="Path_245" data-name="Path 245" d="M479.467,200.3l-24.161-13.953V230.43l24.161,13.95Z" transform="translate(-302.612 -113.359)" fill="#396caa"/>
      <path id="Path_246" data-name="Path 246" d="M492.342,203.995l-24.161-13.953v55.17l24.161,13.953Z" transform="translate(-277.314 -106.106)" fill="#173d7a"/>
      <path id="Path_247" data-name="Path 247" d="M505.22,209.44l-24.164-13.95v61.059L505.22,270.5Z" transform="translate(-252.016 -95.402)" fill="#d4ecff"/>
      <path id="Path_248" data-name="Path 248" d="M518.095,211.851,493.931,197.9v75.951L518.095,287.8Z" transform="translate(-226.719 -90.664)" fill="#396caa"/>
    </g>
    <g id="Group_161" data-name="Group 161" transform="translate(1057.335 387.15)">
      <rect id="Rectangle_151" data-name="Rectangle 151" width="5.461" height="15.868" transform="matrix(0.248, 0.969, -0.969, 0.248, 38.957, 0)" fill="#5793ce"/>
      <rect id="Rectangle_152" data-name="Rectangle 152" width="5.464" height="15.868" transform="translate(31.052 7.646) rotate(75.611)" fill="#5793ce"/>
      <rect id="Rectangle_153" data-name="Rectangle 153" width="5.464" height="15.868" transform="translate(23.172 15.416) rotate(75.641)" fill="#5793ce"/>
      <rect id="Rectangle_154" data-name="Rectangle 154" width="5.464" height="15.871" transform="translate(15.373 22.946) rotate(75.611)" fill="#5793ce"/>
    </g>
    <path id="Path_249" data-name="Path 249" d="M514.729,290.254l-48.7-28.113-48.7,28.113,48.7,28.113Z" transform="translate(259.572 422.626)" fill="#274f89"/>
    <path id="Path_250" data-name="Path 250" d="M462.958,291.909l-48.7-28.113-48.7,28.113,48.7,28.113Z" transform="translate(157.848 425.878)" fill="#274f89"/>
    <path id="Path_251" data-name="Path 251" d="M428.2,272l-48.7-28.113L330.811,272,379.5,300.114Z" transform="translate(89.555 386.755)" fill="#274f89"/>
    <g id="Group_166" data-name="Group 166" transform="translate(420.366 396.356)">
      <g id="Group_165" data-name="Group 165">
        <g id="Group_162" data-name="Group 162" transform="translate(103.047 115.26)">
          <path id="Path_252" data-name="Path 252" d="M381.992,391.279V241.336l48.7-28.113V363.166Z" transform="translate(-333.294 -185.107)" fill="#c13d1a"/>
          <path id="Path_253" data-name="Path 253" d="M462.96,231.856l-48.7-28.116-48.7,28.116,48.7,28.113Z" transform="translate(-365.567 -203.74)" fill="#ef602e"/>
          <path id="Path_254" data-name="Path 254" d="M414.265,241.336l-48.7-28.113V363.166l48.7,28.113Z" transform="translate(-365.567 -185.107)" fill="#5793ce"/>
          <path id="Path_255" data-name="Path 255" d="M381.992,391.279V241.336l48.7-28.113V363.166Z" transform="translate(-333.294 -185.107)" fill="#396caa"/>
          <path id="Path_256" data-name="Path 256" d="M462.96,231.856l-48.7-28.116-48.7,28.116,48.7,28.113Z" transform="translate(-365.567 -203.74)" fill="#d4ecff"/>
        </g>
        <g id="Group_163" data-name="Group 163" transform="translate(206.415 241.338)">
          <path id="Path_257" data-name="Path 257" d="M416.854,368.2V283.862l48.7-28.116v84.342Z" transform="translate(-368.162 -227.633)" fill="#173d7a"/>
          <path id="Path_258" data-name="Path 258" d="M449.123,283.862l-48.692-28.116v84.342L449.123,368.2Z" transform="translate(-400.431 -227.633)" fill="#396caa"/>
          <path id="Path_259" data-name="Path 259" d="M497.818,274.377l-48.7-28.113-48.692,28.113,48.692,28.116Z" transform="translate(-400.431 -246.264)" fill="#d4ecff"/>
        </g>
        <g id="Group_164" data-name="Group 164">
          <path id="Path_260" data-name="Path 260" d="M347.234,408.632V202.463l48.7-28.116V380.519Z" transform="translate(-298.542 -146.234)" fill="#d4ecff"/>
          <path id="Path_261" data-name="Path 261" d="M379.5,202.463l-48.692-28.116V380.519L379.5,408.632Z" transform="translate(-330.811 -146.234)" fill="#396caa"/>
          <path id="Path_262" data-name="Path 262" d="M428.2,192.978l-48.7-28.113-48.692,28.113L379.5,221.094Z" transform="translate(-330.811 -164.865)" fill="#5793ce"/>
        </g>
      </g>
    </g>
    <g id="Group_171" data-name="Group 171" transform="translate(378.428 206.505)">
      <g id="Group_168" data-name="Group 168" transform="translate(6.051)">
        <path id="Path_263" data-name="Path 263" d="M354.151,214.542s-8.041-4.056-12.98,1.981-12,20.292-12.212,29.924,7.62,8.978,12.284,6.7,18.272-22.029,19.1-25.9-.972-9.1-2.283-10.125S354.151,214.542,354.151,214.542Z" transform="translate(-298.574 119.974)" fill="#5793ce"/>
        <path id="Path_264" data-name="Path 264" d="M348.134,214.278l.371,8.334a4.715,4.715,0,0,1-2.354,4.332,9.238,9.238,0,0,1-6.2.964c-6.057-.973-6.6-2.7-7.03-11.032S348.134,214.278,348.134,214.278Z" transform="translate(-290.801 118.299)" fill="#d4ecff"/>
        <g id="Group_167" data-name="Group 167" transform="translate(0 147.782)">
          <path id="Path_265" data-name="Path 265" d="M344.224,209.138s-8.041-4.053-12.977,1.983-12,20.289-12.215,29.922,7.62,8.978,12.284,6.7,18.272-22.029,19.1-25.9-.972-9.1-2.283-10.125S344.224,209.138,344.224,209.138Z" transform="translate(-318.079 -38.421)" fill="#5793ce"/>
          <path id="Path_266" data-name="Path 266" d="M338.207,208.878l.371,8.331a4.712,4.712,0,0,1-2.354,4.332,9.254,9.254,0,0,1-6.2.967c-6.057-.975-6.6-2.7-7.03-11.035S338.207,208.878,338.207,208.878Z" transform="translate(-310.307 -40.097)" fill="#d4ecff"/>
          <path id="Path_267" data-name="Path 267" d="M418.348,166.523c-2.378-38.721-41.932,5.7-41.932,5.7l-27.072,26.536-24.377,26.779a24.03,24.03,0,0,0-6.054,19.3l9.858,75.088a7.384,7.384,0,0,0,7.4,6.416,25.087,25.087,0,0,0,3.653-.32c8.8-1.37,8.147-9.734,8.147-9.734l-1.8-70.232,51.2-30.858S420.729,205.242,418.348,166.523Z" transform="translate(-318.707 -150.676)" fill="#173d7a"/>
        </g>
        <path id="Path_268" data-name="Path 268" d="M428.28,171.5c-2.381-38.721-41.935,5.7-41.935,5.7l-27.072,26.533-24.377,26.779a24.035,24.035,0,0,0-6.057,19.3L338.7,324.9a7.382,7.382,0,0,0,7.4,6.413,25.1,25.1,0,0,0,3.653-.32c8.8-1.37,8.147-9.734,8.147-9.734l-1.8-70.229,51.2-30.861S430.658,210.219,428.28,171.5Z" transform="translate(-299.203 6.882)" fill="#173d7a"/>
        <path id="Path_269" data-name="Path 269" d="M392.691,121.931c29.984,12.432,29.385,30.159,29.385,30.159s-5.873,64.984-3.869,108.384c.836,18.142-96.4,19.527-81.9-28.875C353.413,174.528,347,128.327,355,121.356S384.932,118.714,392.691,121.931Z" transform="translate(-287.014 -67.842)" fill="#5793ce"/>
        <ellipse id="Ellipse_8" data-name="Ellipse 8" cx="15.468" cy="11.385" rx="15.468" ry="11.385" transform="translate(88.235 51.023) rotate(14.442)" fill="#ffc2b0"/>
        <path id="Path_270" data-name="Path 270" d="M365.825,144.871a21.7,21.7,0,0,1-5.42-.7c-9.019-2.322-14.928-9.781-13.167-16.624s10.534-10.528,19.568-8.2a19.957,19.957,0,0,1,10.511,6.437c2.588,3.175,3.531,6.8,2.657,10.193C378.565,141.429,372.709,144.871,365.825,144.871Zm-4.515-23.363c-5.568,0-10.223,2.591-11.3,6.754-1.367,5.313,3.617,11.2,11.109,13.137s14.7-.821,16.073-6.137a8.683,8.683,0,0,0-2.1-7.661,17.111,17.111,0,0,0-9.007-5.476A19.286,19.286,0,0,0,361.309,121.508Z" transform="translate(-263.257 -65.815)" fill="#fff"/>
        <path id="Path_271" data-name="Path 271" d="M350.466,122.58s.261,1.2-.258,10.7c-.166,2.986,10.3,5.779,13,3.075s1.622-5.515,2.271-15.684S350.466,122.58,350.466,122.58Z" transform="translate(-256.814 -69.843)" fill="#ffc2b0"/>
        <path id="Path_272" data-name="Path 272" d="M365.478,117.977s-2.576,9.428-15.272,13.043l.19-8.568Z" transform="translate(-256.815 -67.143)" fill="#ea9c92"/>
        <circle id="Ellipse_9" data-name="Ellipse 9" cx="23.082" cy="23.082" r="23.082" transform="translate(71.279 9.577)" fill="#ffc2b0"/>
        <path id="Path_273" data-name="Path 273" d="M371.242,115.829s-12.707,5.444-21.51,5.506-6.858-7.308-6.858-7.308L369,110.252Z" transform="translate(-271.58 -82.322)" fill="#ea9c92"/>
        <path id="Path_274" data-name="Path 274" d="M353.761,135.774s11.071-4.7,20.784-2.74a10.142,10.142,0,0,1,5.867,3.49,3.475,3.475,0,0,0,1.779,1.287c1.72.388,4.539-6.754,7.887-6.917s5.583,2.209,2.837,6.6-1.817,9.313-.554,10.018,14.655-9.553,2.84-32.96-41.828-10.8-46.5-6.054c0,0-4.916,4.284-8.918.471C339.787,108.962,335.3,142.542,353.761,135.774Z" transform="translate(-278.23 -100.832)" fill="#51b794"/>
        <path id="Path_275" data-name="Path 275" d="M384.04,151.886v17.561a7.155,7.155,0,0,1-2.333,5.286l-36.074,32.886,4.1,6.268,47.637-34.55a9.672,9.672,0,0,0,3.943-6.825l3.22-30.624Z" transform="translate(-265.8 -20.161)" fill="#ffc2b0"/>
        <path id="Path_276" data-name="Path 276" d="M374.614,126.285s10.943,16.458,15.02,59.778c0,0-18.7,6.048-29.3,2.615S374.614,126.285,374.614,126.285Z" transform="translate(-242.092 -50.819)" fill="#5793ce"/>
        <path id="Path_277" data-name="Path 277" d="M360.914,133.3s-4.284,22.927-4.527,33.7a6.885,6.885,0,0,0,4.527,6.644h0Z" transform="translate(-244.673 -37.028)" fill="#396caa"/>
      </g>
      <g id="Group_169" data-name="Group 169" transform="translate(5.765 174.347)">
        <path id="Path_278" data-name="Path 278" d="M425.774,192.573l-7.97-1.05-51.464-29.714a7.156,7.156,0,0,0-6.437.267l-36.471,21.048-4.821-.637v4.8h.006a1.868,1.868,0,0,0,1.106,1.687l58.325,33.675a7.172,7.172,0,0,0,6.44-.267l39.717-22.921a2.6,2.6,0,0,0,1.571-2.164h0v-4.723Z" transform="translate(-318.607 -156.629)" fill="#5793ce"/>
        <path id="Path_279" data-name="Path 279" d="M387.109,166.826l-3.656-2.111h-40.2l-19.82,11.436-4.821-.637v4.8h.006A1.868,1.868,0,0,0,319.723,182l58.325,33.675a6.084,6.084,0,0,0,3.324.623Z" transform="translate(-318.609 -149.656)" fill="#396caa"/>
        <path id="Path_280" data-name="Path 280" d="M320.752,168.639l-2.141-.282v4.8h.006a1.868,1.868,0,0,0,1.106,1.687l1.029.593Z" transform="translate(-318.609 -142.5)" fill="#5793ce"/>
        <path id="Path_281" data-name="Path 281" d="M338.856,187.632a7.473,7.473,0,0,0,5.47-.341v-8.165h-5.47Z" transform="translate(-278.83 -121.34)" fill="#fff"/>
        <path id="Path_282" data-name="Path 282" d="M378.049,220.858l-58.325-33.672c-1.651-.952-1.441-2.618.463-3.718L359.9,160.547a7.147,7.147,0,0,1,6.437-.267l58.325,33.675c1.651.952,1.444,2.615-.46,3.715l-39.717,22.921A7.163,7.163,0,0,1,378.049,220.858Z" transform="translate(-318.61 -159.636)" fill="#fff"/>
        <path id="Path_283" data-name="Path 283" d="M371.08,207.6l-48.5-28c-1.373-.795-1.2-2.176.382-3.089l21.285-11.969a5.95,5.95,0,0,1,5.355-.222l48.5,28c1.37.792,1.2,2.176-.385,3.089l-21.285,11.969A5.943,5.943,0,0,1,371.08,207.6Z" transform="translate(-312.625 -151.482)" fill="#d4ecff"/>
      </g>
      <path id="Path_284" data-name="Path 284" d="M333.916,160.913l-.6,4.023a29.643,29.643,0,0,0,.264,10.318l.717,3.546a4.985,4.985,0,0,0,4,3.917h0a2.749,2.749,0,0,0,3.226-2.4l.964-8.6s2.2,2.885,3.264,2.885-1.189-8.616-3.593-13.493S333.916,160.913,333.916,160.913Z" transform="translate(-284.604 13.239)" fill="#ffc2b0"/>
      <path id="Path_285" data-name="Path 285" d="M355.58,146.045l-6.259,12.387a24.252,24.252,0,0,0-2.559,9.4L344.044,210.2l-8.233-.2-3.736-47.58a17.469,17.469,0,0,1,.211-4.4l4.266-24.128Z" transform="translate(-286.496 -35.855)" fill="#ffc2b0"/>
      <g id="Group_170" data-name="Group 170" transform="translate(0 149.12)">
        <path id="Path_286" data-name="Path 286" d="M379.221,240.809l-4.889-6.383L322.9,204.65a7.156,7.156,0,0,1-2.98-5.71l.045-42.107-2.956-3.86,2.781-1.607,0,0a1.885,1.885,0,0,1,2.016.116L380.1,185.23a7.157,7.157,0,0,1,2.98,5.713l-.05,45.855a2.607,2.607,0,0,1-1.091,2.446h0Z" transform="translate(-315.992 -151.125)" fill="#173d7a"/>
        <path id="Path_287" data-name="Path 287" d="M343.657,216.663,340,214.549l-20.06-34.837.021-22.88-2.956-3.86,2.781-1.607,0,0a1.885,1.885,0,0,1,2.016.116L380.1,185.23a6.041,6.041,0,0,1,2.2,2.568Z" transform="translate(-315.992 -151.125)" fill="#396caa"/>
        <path id="Path_288" data-name="Path 288" d="M318.319,154.685l-1.31-1.714,2.781-1.607,0,0a1.886,1.886,0,0,1,2.016.116l1.029.6Z" transform="translate(-315.992 -151.127)" fill="#5793ce"/>
        <path id="Path_289" data-name="Path 289" d="M342.436,162.755a7.46,7.46,0,0,1,2.431,4.91l-5.7,3.288-2.728-4.741Z" transform="translate(-277.805 -128.28)" fill="#274f89"/>
        <path id="Path_290" data-name="Path 290" d="M377.992,185.772l-58.284-33.743c-1.651-.955-2.989.056-2.992,2.253l-.05,45.858a7.151,7.151,0,0,0,2.98,5.71L377.932,239.6c1.648.955,2.989-.056,2.989-2.253l.05-45.858A7.169,7.169,0,0,0,377.992,185.772Z" transform="translate(-316.666 -150.063)" fill="#5793ce"/>
      </g>
      <path id="Path_291" data-name="Path 291" d="M359.752,170.326l-.934,1.936a12.949,12.949,0,0,1-4.874,5.4l-5.787,3.57a5.759,5.759,0,0,1-5.909.136c-.065-.039-.133-.077-.2-.119a3.482,3.482,0,0,1-.492-5.352l6.048-6.22s-3.4,2.6-4.352,1.554c-.7-.768,3.3-4.518,6.363-4.64s6.034-2.532,6.034-2.532Z" transform="translate(-269.768 23.4)" fill="#ffc2b0"/>
      <path id="Path_292" data-name="Path 292" d="M362.469,118.851s-22.177,24.131-31.125,46.27c0,0,7.584,13.662,26.147,19.026S362.469,118.851,362.469,118.851Z" transform="translate(-287.826 -65.426)" fill="#5793ce"/>
      <path id="Path_293" data-name="Path 293" d="M341.984,163.4l3.6-34.725-8.471,32.537A49.784,49.784,0,0,0,341.984,163.4Z" transform="translate(-276.496 -46.115)" fill="#396caa"/>
      <path id="Path_294" data-name="Path 294" d="M351.393,118.293l-5.959-1.637s2.843,4.474,7,5.615,4.8-2.375,4.8-2.375Z" transform="translate(-260.141 -69.739)" fill="#fff"/>
    </g>
    <g id="Group_172" data-name="Group 172" transform="translate(440.18 123.454)">
      <path id="Path_295" data-name="Path 295" d="M337.494,95.575l3.172-5.378a7.711,7.711,0,0,0,5.491.566c2.271-.717,4.237-2.769,5.844-6.1,5.663-11.741,16.123-12.63,20.864-11.459l-1.5,6.063.747-3.03-.723,3.036c-.907-.208-9.013-1.746-13.769,8.1-2.41,5-5.681,8.156-9.716,9.381A13.784,13.784,0,0,1,337.494,95.575Z" transform="translate(-337.494 -72.82)" fill="#5793ce"/>
    </g>
    <path id="Path_296" data-name="Path 296" d="M322.977,187.5a28.614,28.614,0,1,1,28.614-28.614A28.645,28.645,0,0,1,322.977,187.5Zm0-50.987A22.373,22.373,0,1,0,345.35,158.89,22.4,22.4,0,0,0,322.977,136.517Z" transform="translate(17.933 163.527)" fill="#d4ecff"/>
    <path id="Path_297" data-name="Path 297" d="M299,233.741l-13.772-28.015,28.012-13.775,13.775,28.015Zm-5.414-25.166,8.263,16.811,16.811-8.266L310.4,200.309Z" transform="translate(0 284.711)" fill="#5793ce"/>
    <rect id="Rectangle_155" data-name="Rectangle 155" width="14.35" height="14.353" transform="matrix(0.897, -0.441, 0.441, 0.897, 976.294, 217.901)" fill="#5793ce"/>
    <g id="Group_173" data-name="Group 173" transform="translate(717.992 47.051)">
      <rect id="Rectangle_156" data-name="Rectangle 156" width="6.241" height="29.658" transform="translate(20.971 0) rotate(45)" fill="#d4ecff"/>
      <rect id="Rectangle_157" data-name="Rectangle 157" width="29.658" height="6.241" transform="translate(4.413 0) rotate(45)" fill="#d4ecff"/>
    </g>
    <circle id="Ellipse_10" data-name="Ellipse 10" cx="14.727" cy="14.727" r="14.727" transform="translate(924.475 55.513)" fill="#d4ecff"/>
    <circle id="Ellipse_11" data-name="Ellipse 11" cx="8.56" cy="8.56" r="8.56" transform="translate(540.39 886.731)" fill="#d4ecff"/>
    <circle id="Ellipse_12" data-name="Ellipse 12" cx="17.552" cy="17.552" r="17.552" transform="translate(868.967 876.728)" fill="#d4ecff"/>
    <g id="Group_176" data-name="Group 176" transform="translate(801.139 95.451)">
      <g id="Group_174" data-name="Group 174">
        <path id="Path_298" data-name="Path 298" d="M531.876,100.148,469.2,63.962a3.214,3.214,0,0,0-3.241-.261s0-.042,0-.042l-6.078,3.513s2.689.981,4.269,1.562v45.641c0,3.715,2.259,8.029,5.043,9.636L529.1,158.6v5.358l6.14-3.537-.035-.012c1.041-.632,1.7-2.022,1.7-4.017V109.781C536.919,106.069,534.66,101.755,531.876,100.148Z" transform="translate(-457.968 -63.375)" fill="#5793ce"/>
        <path id="Path_299" data-name="Path 299" d="M526.957,161.412l-62.675-36.186c-2.784-1.607-5.043-5.921-5.043-9.636V68.99c0-3.712,2.259-5.42,5.043-3.813l62.675,36.186C529.741,102.971,532,107.285,532,111v46.6C532,161.314,529.744,163.018,526.957,161.412Z" transform="translate(-459.239 -61.022)" fill="#d4ecff"/>
      </g>
      <g id="Group_175" data-name="Group 175" transform="translate(17.662 40.242)">
        <path id="Path_300" data-name="Path 300" d="M473.655,84.852c0,2.7-1.894,3.789-4.228,2.44a9.349,9.349,0,0,1-4.231-7.326c0-2.7,1.895-3.789,4.231-2.44A9.359,9.359,0,0,1,473.655,84.852Z" transform="translate(-465.196 -76.948)" fill="#fff"/>
        <path id="Path_301" data-name="Path 301" d="M477.976,87.346c0,2.7-1.895,3.789-4.231,2.44a9.345,9.345,0,0,1-4.228-7.323c0-2.7,1.892-3.789,4.228-2.443A9.345,9.345,0,0,1,477.976,87.346Z" transform="translate(-456.706 -72.045)" fill="#fff"/>
        <path id="Path_302" data-name="Path 302" d="M482.3,89.842c0,2.7-1.895,3.789-4.228,2.44a9.349,9.349,0,0,1-4.231-7.326c0-2.7,1.895-3.789,4.231-2.44A9.346,9.346,0,0,1,482.3,89.842Z" transform="translate(-448.218 -67.143)" fill="#fff"/>
      </g>
    </g>
  </g>
</svg>
