<svg xmlns="http://www.w3.org/2000/svg" width="686.986" height="422.169" viewBox="0 0 686.986 422.169">
  <g id="_145" data-name="145" transform="translate(-31.267 -420.255)">
    <path id="Path_614" data-name="Path 614" d="M1235.7,1090c-5.19-13.331-9.065-27.481-13.3-42.425-2.853-10.072-7.453-21.341-17.427-24.515-9.7-3.088-20.151,3.312-26.118,11.561s-8.975,18.251-14.08,27.062c-9.251,15.967-25.638,22.658-39.18,8.621-19.345-20.051-28.052-47.383-40.319-71.841-8.907-17.756-16.359-38.542-27.58-54.906-17.11-24.954-40.571-46.231-71.77-46.231-19.777,3-37.2,20.513-49,42.4s-18.671,47.924-24.534,73.894c-10.662,47.23-18.473,95.556-26.273,143.82l393.633-4.592c-1.564.018-11.217-12.881-13.065-14.67C1251.575,1123.553,1242.5,1107.478,1235.7,1090Z" transform="translate(-564.474 -315.015)" fill="#cde0ea"/>
    <path id="Path_615" data-name="Path 615" d="M1587.466,1348.254c-.771,15.3-17.422,42.053-32.723,41.281s-23.461-28.774-22.689-44.075,17.066-91.875,32.369-91.1S1588.238,1332.951,1587.466,1348.254Z" transform="translate(-990.959 -550.766)" fill="#509cd5"/>
    <path id="Path_616" data-name="Path 616" d="M1608.47,1282.423l-7.717,124a.614.614,0,1,0,1.226.077l7.716-124a.614.614,0,0,0-1.226-.075Z" transform="translate(-1036.355 -568.923)" fill="#0361af"/>
    <path id="Path_617" data-name="Path 617" d="M1575.716,1422.374a106.358,106.358,0,0,0-7.742,24.054c-.814,4.243-1.325,8.84.594,12.711,2.1,4.226,6.751,6.689,11.408,7.455,11.374,1.867,22.75-5.1,29.417-14.5s9.554-20.895,12.2-32.112c2.085-8.832,4.136-17.8,8.068-26.026,1.686-3.528,11.558-17.148,6.889-20.681-6.387-5.019-24.876.44-36.724,13.374A138.081,138.081,0,0,0,1575.716,1422.374Z" transform="translate(-1014.23 -628.074)" fill="#fec15d"/>
    <path id="Path_618" data-name="Path 618" d="M1604.123,1487.023s.052-.2.16-.6c1.608-5.94,15.638-54.657,46.547-83.223a.614.614,0,0,0-.834-.9c-33.329,30.852-47.039,84.374-47.062,84.419a.614.614,0,1,0,1.189.3Z" transform="translate(-1037.783 -648.352)" fill="#509cd5"/>
    <path id="Path_619" data-name="Path 619" d="M1773.126,1470.221c-1.176,2.107-3.378,3.542-5.378,4.669-2.466,1.39-5.092,2.61-7.63,3.792a87.881,87.881,0,0,0-9.742,5.037,32.854,32.854,0,0,0-5.974,4.76,75.608,75.608,0,0,1,9.47-16.105c4.842-6.232,9.811-9.389,14.776-9.389l.345.006a5.577,5.577,0,0,1,3.552,1.131C1774.233,1465.57,1774.166,1468.362,1773.126,1470.221Z" transform="translate(-1131.209 -688.531)" fill="#0361af"/>
    <path id="Path_620" data-name="Path 620" d="M1779.638,1567.3c-1.965,1.4-4.57,1.755-6.86,1.918-2.822.2-5.718.18-8.518.161a87.689,87.689,0,0,0-10.96.386,32.784,32.784,0,0,0-7.436,1.744,75.679,75.679,0,0,1,15.45-10.5c7.043-3.561,12.885-4.289,17.374-2.164l.309.153a5.583,5.583,0,0,1,2.729,2.542C1782.627,1563.569,1781.374,1566.063,1779.638,1567.3Z" transform="translate(-1132.174 -751.042)" fill="#0361af"/>
    <path id="Path_621" data-name="Path 621" d="M1770.268,1609.422a9.207,9.207,0,0,1-4.311-2.262c-1.5-1.223-2.928-2.592-4.313-3.912a59.8,59.8,0,0,0-5.63-4.945,22.568,22.568,0,0,0-4.516-2.618,51.684,51.684,0,0,1,12.606,2.018c5.172,1.53,8.418,3.906,9.654,7.067l.082.221a3.809,3.809,0,0,1,.166,2.543A3.461,3.461,0,0,1,1770.268,1609.422Z" transform="translate(-1135.894 -776.154)" fill="#0361af"/>
    <path id="Path_622" data-name="Path 622" d="M1696.634,1533.836s0-.113.011-.352c.167-3.591,2.574-33.756,39.853-59.68a.552.552,0,1,0-.63-.907c-40.128,27.892-40.346,60.835-40.339,60.935a.552.552,0,0,0,1.1,0Z" transform="translate(-1098.938 -695.011)" fill="#202252"/>
    <path id="Path_623" data-name="Path 623" d="M1696.584,1600.557s.042-.09.137-.277a47.823,47.823,0,0,1,11.41-13.9c7.187-6.068,18.021-11.776,33.466-11.779a.552.552,0,1,0,0-1.1c-16.773,0-28.3,6.642-35.6,13.283a47.066,47.066,0,0,0-10.418,13.316.552.552,0,1,0,1,.466Z" transform="translate(-1098.94 -761.501)" fill="#202252"/>
    <path id="Path_624" data-name="Path 624" d="M1749.393,1596.115h.1c.856,0,7.173.334,19.413,9.565a.551.551,0,1,0,.664-.88c-12.369-9.333-18.923-9.789-20.077-9.787l-.18,0a.552.552,0,0,0,.081,1.1Z" transform="translate(-1134.114 -775.709)" fill="#202252"/>
    <path id="Path_625" data-name="Path 625" d="M253.9,1296.931c-9.235-34.9-18.52-69.819-29.376-103.621-6.12-19.059-12.874-38.046-22.256-53.294s-21.812-26.5-34.288-26.42c-19.229,3.721-31.632,22.707-39.767,43.732-5.334,13.788-7.92,30.491-11.694,45.062-5.2,20.07-7.925,41.9-17.91,59.465-6.989,12.294-17.736,9.157-24.978-1.888-4-6.095-6.815-13.346-11.29-18.911s-11.531-9.187-17.212-5.681c-5.84,3.6-7.588,12.727-8.373,20.729-1.166,11.876-2.187,23.1-4.1,33.864q-.624,3.516-1.391,6.963Z" transform="translate(0 -457.824)" fill="#cde0ea"/>
    <path id="Path_626" data-name="Path 626" d="M272.9,1317.715c-5.769-6.654-13.072-12.394-15.374-20.792-1.683-6.136-.355-12.628.3-18.955s.426-13.324-3.667-18.194c-3.373-4.013-8.7-5.755-13.825-6.857s-10.474-1.8-15.021-4.4c-7.384-4.233-5.913-11.436-9.878-17.754-4.448-7.088-14.8-16.129-23.669-11.422-9.4,4.985-7.908,20.122-1.657,26.805,4.146,4.433,9.453,8.686,10.063,14.724.917,9.092-9.5,17.277-6.634,25.955,2.116,6.409,10.195,8.612,14.185,14.056,3.946,5.387,3.152,12.933.828,19.193s-5.984,12.048-7.429,18.565c-2.958,13.34,7.507,22.556,19.433,25.531,10.958,2.732,34.593,1.443,34.593,1.443,8.436-2.95,17.787-10.359,22.423-18.455a23.468,23.468,0,0,0,1.274-20.375A33.99,33.99,0,0,0,272.9,1317.715Z" transform="translate(-101.56 -526.786)" fill="#fec15d"/>
    <path id="Path_627" data-name="Path 627" d="M233.729,1263.231s.154.238.449.708c4.426,7.05,40.091,65.837,44.182,130.494a.708.708,0,1,0,1.413-.089c-4.417-69.45-44.83-131.83-44.854-131.883a.708.708,0,0,0-1.189.77Z" transform="translate(-133.614 -555.909)" fill="#509cd5"/>
    <path id="Path_628" data-name="Path 628" d="M127.948,1510.056a4.217,4.217,0,0,1,2.686-.855l.26,0c3.755,0,7.513,2.386,11.173,7.1a57.178,57.178,0,0,1,7.162,12.178,24.852,24.852,0,0,0-4.518-3.6,66.071,66.071,0,0,0-7.367-3.81c-1.918-.893-3.9-1.816-5.769-2.866a10.18,10.18,0,0,1-4.068-3.531C126.722,1513.262,126.673,1511.152,127.948,1510.056Z" transform="translate(-63.18 -719.045)" fill="#509cd5"/>
    <path id="Path_629" data-name="Path 629" d="M111.165,1583.715a4.221,4.221,0,0,1,2.062-1.922l.234-.115c3.394-1.608,7.811-1.057,13.137,1.635a57.209,57.209,0,0,1,11.682,7.943,24.861,24.861,0,0,0-5.623-1.319,66.234,66.234,0,0,0-8.287-.292c-2.117.014-4.307.03-6.441-.122a10.183,10.183,0,0,1-5.187-1.451C111.43,1587.137,110.481,1585.252,111.165,1583.715Z" transform="translate(-52.607 -766.312)" fill="#509cd5"/>
    <path id="Path_630" data-name="Path 630" d="M136.851,1618.5a2.882,2.882,0,0,1,.125-1.922l.062-.167c.936-2.391,3.39-4.187,7.3-5.343a39.032,39.032,0,0,1,9.532-1.526,16.945,16.945,0,0,0-3.415,1.979,45.525,45.525,0,0,0-4.257,3.739c-1.046,1-2.129,2.032-3.261,2.958a6.956,6.956,0,0,1-3.26,1.71A2.617,2.617,0,0,1,136.851,1618.5Z" transform="translate(-69.644 -785.303)" fill="#509cd5"/>
    <path id="Path_631" data-name="Path 631" d="M168.8,1562.505c.008-.1-.173-25.064-30.559-46.184a.552.552,0,1,0-.63.906c15.017,10.443,22.527,21.784,26.3,30.507a49.541,49.541,0,0,1,3.308,10.68c.238,1.305.358,2.337.419,3.037.031.351.047.619.054.8s.008.26.008.26a.552.552,0,0,0,1.1,0Z" transform="translate(-70.063 -723.684)" fill="#202252"/>
    <path id="Path_632" data-name="Path 632" d="M160.791,1612.55a35.691,35.691,0,0,0-7.908-10.111c-5.535-5.039-14.288-10.082-27.006-10.079a.552.552,0,0,0,0,1.1c12.42,0,20.875,4.9,26.263,9.791a37.991,37.991,0,0,1,5.852,6.733c.621.916,1.073,1.679,1.369,2.209.149.265.258.473.328.613s.1.205.1.205a.551.551,0,1,0,1-.466Z" transform="translate(-62.108 -773.959)" fill="#202252"/>
    <path id="Path_633" data-name="Path 633" d="M157.727,1608.63l-.147,0c-.907,0-5.894.36-15.262,7.428a.552.552,0,0,0,.664.882c9.239-6.969,13.987-7.206,14.6-7.206h.068l.011-.2-.016.2h0l.011-.2-.016.2a.552.552,0,0,0,.083-1.1Z" transform="translate(-73.183 -784.7)" fill="#202252"/>
    <path id="Path_634" data-name="Path 634" d="M638.563,898.491H372.249a13.374,13.374,0,0,1-13.374-13.374V523.991a13.374,13.374,0,0,1,13.374-13.374H638.563a13.374,13.374,0,0,1,13.374,13.374V885.117A13.374,13.374,0,0,1,638.563,898.491Z" transform="translate(-216.325 -59.668)" fill="#509cd5"/>
    <path id="Path_635" data-name="Path 635" d="M358.875,788.792V1068.8a13.374,13.374,0,0,0,13.374,13.374H638.563a13.374,13.374,0,0,0,13.374-13.374v-55.263Z" transform="translate(-216.325 -243.351)" fill="#4078bc"/>
    <path id="Path_636" data-name="Path 636" d="M662.545,915.383H414.471A5.466,5.466,0,0,1,409,909.917V568.766a5.466,5.466,0,0,1,5.466-5.466H662.545a5.466,5.466,0,0,1,5.465,5.466v341.15A5.466,5.466,0,0,1,662.545,915.383Z" transform="translate(-249.426 -94.455)" fill="#edeff2"/>
    <path id="Path_637" data-name="Path 637" d="M705.632,443.623c.018-.365.057-.726.057-1.1a22.272,22.272,0,1,0-44.544,0c0,.371.038.732.055,1.1H628.459v33.952H738.375V443.623Z" transform="translate(-394.335)" fill="#0361af"/>
    <path id="Path_638" data-name="Path 638" d="M628.459,489.05V523H738.375Z" transform="translate(-394.335 -45.427)" fill="#0870b9"/>
    <path id="Path_639" data-name="Path 639" d="M778.446,461.511A12.506,12.506,0,1,1,765.94,449,12.506,12.506,0,0,1,778.446,461.511Z" transform="translate(-476.858 -18.984)" fill="#4078bc"/>
    <path id="Path_640" data-name="Path 640" d="M757.1,459.788a12.506,12.506,0,0,0,17.686,17.686Z" transform="translate(-476.857 -26.104)" fill="#509cd5"/>
    <rect id="Rectangle_175" data-name="Rectangle 175" width="109.916" height="2.338" transform="translate(234.124 477.575)" fill="#acd2ee"/>
    <path id="Path_641" data-name="Path 641" d="M537.427,767.735v-.708H496.445V726.753h40.274v40.982h.708v0h.708v-42.4h-43.1v43.1h43.1v-.708Z" transform="translate(-306.23 -201.451)" fill="#0361af"/>
    <path id="Path_642" data-name="Path 642" d="M527.88,764.238l14.687,11.531,27.7-26.682-3.929-4.078-24.146,23.264-10.81-8.488Z" transform="translate(-327.921 -214.44)" fill="#edeff2"/>
    <path id="Path_643" data-name="Path 643" d="M519.546,755.9l14.687,11.531,27.7-26.682L558,736.676,533.854,759.94l-10.81-8.488Z" transform="translate(-322.418 -208.938)" fill="#f37475"/>
    <path id="Path_644" data-name="Path 644" d="M811.475,756.019H675.633a1.605,1.605,0,0,1,0-3.21H811.475a1.605,1.605,0,1,1,0,3.21Z" transform="translate(-424.426 -219.591)" fill="#509cd5"/>
    <path id="Path_645" data-name="Path 645" d="M811.475,776.855H675.633a1.6,1.6,0,0,1,0-3.209H811.475a1.6,1.6,0,1,1,0,3.209Z" transform="translate(-424.426 -233.35)" fill="#509cd5"/>
    <path id="Path_646" data-name="Path 646" d="M811.475,797.688H675.633a1.6,1.6,0,0,1,0-3.209H811.475a1.6,1.6,0,1,1,0,3.209Z" transform="translate(-424.426 -247.107)" fill="#509cd5"/>
    <path id="Path_647" data-name="Path 647" d="M811.475,818.522H675.633a1.6,1.6,0,0,1,0-3.209H811.475a1.6,1.6,0,1,1,0,3.209Z" transform="translate(-424.426 -260.863)" fill="#509cd5"/>
    <path id="Path_648" data-name="Path 648" d="M537.427,965.313v-.708H496.445V924.333h40.274v40.98h.708v0h.708v-42.4h-43.1v43.1h43.1v-.708Z" transform="translate(-306.23 -331.916)" fill="#0361af"/>
    <path id="Path_649" data-name="Path 649" d="M527.88,961.817l14.687,11.53,27.7-26.682-3.929-4.076-24.146,23.263-10.81-8.488Z" transform="translate(-327.921 -344.905)" fill="#edeff2"/>
    <path id="Path_650" data-name="Path 650" d="M519.546,953.484l14.687,11.529,27.7-26.682L558,934.255l-24.146,23.263-10.81-8.488Z" transform="translate(-322.418 -339.402)" fill="#f37475"/>
    <path id="Path_651" data-name="Path 651" d="M811.475,953.6H675.633a1.6,1.6,0,0,1,0-3.209H811.475a1.6,1.6,0,1,1,0,3.209Z" transform="translate(-424.426 -350.055)" fill="#509cd5"/>
    <path id="Path_652" data-name="Path 652" d="M811.475,974.432H675.633a1.605,1.605,0,0,1,0-3.21H811.475a1.605,1.605,0,1,1,0,3.21Z" transform="translate(-424.426 -363.812)" fill="#509cd5"/>
    <path id="Path_653" data-name="Path 653" d="M811.475,995.265H675.633a1.605,1.605,0,0,1,0-3.21H811.475a1.605,1.605,0,1,1,0,3.21Z" transform="translate(-424.426 -377.569)" fill="#509cd5"/>
    <path id="Path_654" data-name="Path 654" d="M811.475,1016.1H675.633a1.6,1.6,0,0,1,0-3.209H811.475a1.6,1.6,0,1,1,0,3.209Z" transform="translate(-424.426 -391.328)" fill="#509cd5"/>
    <path id="Path_655" data-name="Path 655" d="M537.427,1162.89v-.708H496.445v-40.274h40.274v40.982h.708v0h.708v-42.4h-43.1v43.1h43.1v-.708Z" transform="translate(-306.23 -462.378)" fill="#0361af"/>
    <path id="Path_656" data-name="Path 656" d="M527.88,1159.392l14.687,11.531,27.7-26.682-3.929-4.078-24.146,23.264-10.81-8.488Z" transform="translate(-327.921 -475.367)" fill="#edeff2"/>
    <path id="Path_657" data-name="Path 657" d="M519.546,1151.059l14.687,11.531,27.7-26.682L558,1131.83l-24.146,23.264-10.81-8.488Z" transform="translate(-322.418 -469.864)" fill="#f37475"/>
    <path id="Path_658" data-name="Path 658" d="M811.475,1151.173H675.633a1.6,1.6,0,0,1,0-3.21H811.475a1.6,1.6,0,1,1,0,3.21Z" transform="translate(-424.426 -480.517)" fill="#509cd5"/>
    <path id="Path_659" data-name="Path 659" d="M811.475,1172.01H675.633a1.6,1.6,0,0,1,0-3.209H811.475a1.6,1.6,0,1,1,0,3.209Z" transform="translate(-424.426 -494.277)" fill="#509cd5"/>
    <path id="Path_660" data-name="Path 660" d="M811.475,1192.843H675.633a1.6,1.6,0,0,1,0-3.209H811.475a1.6,1.6,0,1,1,0,3.209Z" transform="translate(-424.426 -508.033)" fill="#509cd5"/>
    <path id="Path_661" data-name="Path 661" d="M811.475,1213.676H675.633a1.6,1.6,0,0,1,0-3.209H811.475a1.6,1.6,0,1,1,0,3.209Z" transform="translate(-424.426 -521.79)" fill="#509cd5"/>
    <path id="Path_662" data-name="Path 662" d="M537.427,1360.467v-.708H496.445v-40.273h40.274v40.98h.708v0h.708v-42.4h-43.1v43.1h43.1v-.708Z" transform="translate(-306.23 -592.842)" fill="#0361af"/>
    <path id="Path_663" data-name="Path 663" d="M527.88,1356.972l14.687,11.53,27.7-26.682-3.929-4.076-24.146,23.263-10.81-8.488Z" transform="translate(-327.921 -605.831)" fill="#edeff2"/>
    <path id="Path_664" data-name="Path 664" d="M519.546,1348.639l14.687,11.529,27.7-26.682L558,1329.409l-24.146,23.263-10.81-8.488Z" transform="translate(-322.418 -600.329)" fill="#f37475"/>
    <path id="Path_665" data-name="Path 665" d="M811.475,1348.751H675.633a1.6,1.6,0,0,1,0-3.209H811.475a1.6,1.6,0,1,1,0,3.209Z" transform="translate(-424.426 -610.982)" fill="#509cd5"/>
    <path id="Path_666" data-name="Path 666" d="M811.475,1369.586H675.633a1.6,1.6,0,0,1,0-3.21H811.475a1.6,1.6,0,1,1,0,3.21Z" transform="translate(-424.426 -624.738)" fill="#509cd5"/>
    <path id="Path_667" data-name="Path 667" d="M811.475,1390.419H675.633a1.6,1.6,0,0,1,0-3.21H811.475a1.6,1.6,0,1,1,0,3.21Z" transform="translate(-424.426 -638.495)" fill="#509cd5"/>
    <path id="Path_668" data-name="Path 668" d="M811.475,1411.255H675.633a1.6,1.6,0,0,1,0-3.209H811.475a1.6,1.6,0,1,1,0,3.209Z" transform="translate(-424.426 -652.254)" fill="#509cd5"/>
    <path id="Path_669" data-name="Path 669" d="M33.827,1651.95h685.2a.551.551,0,1,0,0-1.1H33.827a.551.551,0,1,0,0,1.1Z" transform="translate(-1.326 -812.579)" fill="#202252"/>
    <rect id="Rectangle_176" data-name="Rectangle 176" width="6.457" height="7.956" transform="translate(464.311 826.175)" fill="#f37475"/>
    <path id="Path_670" data-name="Path 670" d="M1273.645,1633.364l3.38,1.042,3.136-1.042,2.817,6.456h-26.106l9.814-3.227Z" transform="translate(-809.286 -801.034)" fill="#202252"/>
    <path id="Path_671" data-name="Path 671" d="M1500.782,1623.2h6.457l-2.4-7.956h-6.457Z" transform="translate(-968.757 -789.072)" fill="#f37475"/>
    <path id="Path_672" data-name="Path 672" d="M1504.63,1633.364l-3.38,1.042-3.136-1.042-2.817,6.456H1521.4l-9.814-3.227Z" transform="translate(-966.722 -801.034)" fill="#202252"/>
    <path id="Path_673" data-name="Path 673" d="M1235.327,803.707c-.875.668-8.821,5.361-8.821,5.361l-5.639-7.22,1.679-8.232,12.135.756,2.124,6.146C1237.31,801.976,1236.411,802.879,1235.327,803.707Z" transform="translate(-785.512 -246.537)" fill="#f58b81"/>
    <path id="Path_674" data-name="Path 674" d="M1240.253,794.571l1.832,5.385-5.6,2.255a5.137,5.137,0,0,1-7.143-5.333l.362-2.961Z" transform="translate(-791.084 -246.735)" fill="#f26c6e"/>
    <path id="Path_675" data-name="Path 675" d="M1253.447,804.3l4.853.708,2.658-4.555a1.76,1.76,0,0,0-2.978-1.878Z" transform="translate(-807.024 -249.271)" fill="#f37475"/>
    <path id="Path_676" data-name="Path 676" d="M1201.331,874.838l-10.005,2.529-3.579,28.972,11.714.477Z" transform="translate(-763.641 -300.168)" fill="#fff"/>
    <path id="Path_677" data-name="Path 677" d="M1595.882,877.491l-17.49-2.2,4-31.8,17.49,2.2a16.023,16.023,0,0,1,13.9,17.9h0A16.023,16.023,0,0,1,1595.882,877.491Z" transform="translate(-1021.591 -279.47)" fill="#f58b81"/>
    <path id="Path_678" data-name="Path 678" d="M1649.6,915.732a16.051,16.051,0,0,0,10.4-9.944A16.051,16.051,0,0,1,1649.6,915.732Zm11.2-13.323c0-.016,0-.03.006-.045C1660.805,902.379,1660.8,902.393,1660.8,902.409Zm.007-.054a.34.34,0,0,1,.006-.04A.34.34,0,0,0,1660.808,902.355Zm.007-.058c0-.007,0-.014,0-.021S1660.817,902.29,1660.815,902.3Z" transform="translate(-1068.611 -318.286)" fill="#d1d3d4"/>
    <path id="Path_679" data-name="Path 679" d="M1623.615,909.552a16.286,16.286,0,0,1-2.021-.127l-4.263-.536.913-7.242,4.261.536a16.3,16.3,0,0,0,2.021.126,16.033,16.033,0,0,0,15-10.454,16.1,16.1,0,0,1-.02,3.54c0,.007,0,.014,0,.021s0,.013,0,.018,0,.027-.006.04a.021.021,0,0,1,0,.008c0,.016,0,.03-.006.045a16.013,16.013,0,0,1-15.878,14.025Z" transform="translate(-1047.302 -311.405)" fill="#f48274"/>
    <path id="Path_680" data-name="Path 680" d="M1211.423,827.973l-185.552-23.935,4-31.8,185.55,23.935Z" transform="translate(-656.753 -232.423)" fill="#fec15d"/>
    <path id="Path_681" data-name="Path 681" d="M928.559,783.726l33.056,20.312,4-31.8Z" transform="translate(-592.496 -232.423)" fill="#fff0d8"/>
    <path id="Path_682" data-name="Path 682" d="M1025.872,850.728l.98-7.777Z" transform="translate(-656.753 -279.113)" fill="#f5b24c"/>
    <path id="Path_683" data-name="Path 683" d="M961.615,826.362l-33.056-20.312,34.035,12.534Z" transform="translate(-592.496 -254.747)" fill="#e3d2bc"/>
    <path id="Path_684" data-name="Path 684" d="M939.6,795.98,928.559,799.4l9.845,6.049Z" transform="translate(-592.496 -248.097)" fill="#202252"/>
    <path id="Path_685" data-name="Path 685" d="M1587.476,876.434l-15.358-1.933,4-31.8,15.359,1.933Z" transform="translate(-1017.447 -278.95)" fill="#bce5f1"/>
    <path id="Path_686" data-name="Path 686" d="M1606.621,877.622l-5.249-.661,4.345-34.519,5.251.661Z" transform="translate(-1036.764 -278.777)" fill="#bce5f1"/>
    <path id="Path_687" data-name="Path 687" d="M1211.427,874.633l-185.556-23.905.98-7.777,185.554,23.907Z" transform="translate(-656.753 -279.113)" fill="#f5b24c"/>
    <path id="Path_688" data-name="Path 688" d="M1582.235,922.408l-10.1-1.3.978-7.776,10.1,1.3-.5,3.95Z" transform="translate(-1017.456 -325.585)" fill="#a7cbd4"/>
    <path id="Path_689" data-name="Path 689" d="M1343.707,819.574l.975-7.748L1240.215,798.35v-.013L1354.784,813.1l-7.545-.95-2.556-.321ZM1236.569,797.88l-.742-.095,0-.013.755.1Zm-13.72-1.769-1.227-.159v-.01l1.229.159Z" transform="translate(-786.01 -248.072)" fill="#e5e7e9"/>
    <path id="Path_690" data-name="Path 690" d="M1188.521,791.688l-17.028-2.2v-.007l17.028,2.194Z" transform="translate(-752.908 -243.808)" fill="#4d98d2"/>
    <path id="Path_691" data-name="Path 691" d="M1083.12,778.106l-29.932-3.861v0l29.932,3.857Zm-41.759-5.387h0l-3.7-.477Z" transform="translate(-664.536 -232.423)" fill="#e5e7e9"/>
    <path id="Path_692" data-name="Path 692" d="M1060.378,775.172l-11.831-1.526h0l11.827,1.523Z" transform="translate(-671.725 -233.35)" fill="#4d98d2"/>
    <path id="Path_693" data-name="Path 693" d="M1238.213,798.093h-.011l0-.013h.011Zm-11.326-1.462-1.653-.212v-.01l1.653.212Z" transform="translate(-788.395 -248.38)" fill="#f5897e"/>
    <path id="Path_694" data-name="Path 694" d="M1241.415,798.5l-11.314-1.461v-.01l11.309,1.458Z" transform="translate(-791.608 -248.793)" fill="#f26a6b"/>
    <path id="Path_695" data-name="Path 695" d="M1269.272,802.094l-3.646-.47.009-.011,3.637.469Z" transform="translate(-815.066 -251.817)" fill="#f37272"/>
    <path id="Path_696" data-name="Path 696" d="M1598.979,844.6l-7.552-.951,7.545.95Z" transform="translate(-1030.197 -279.575)" fill="#f5897e"/>
    <path id="Path_697" data-name="Path 697" d="M1220.33,803.925l-185.554-23.907.979-7.776,3.7.477,11.831,1.526,29.932,3.861,17.028,2.2,1.227.159,1.653.212,11.314,1.461h.011l.742.095,3.646.47,104.467,13.477Z" transform="translate(-662.632 -232.423)" fill="#fdbd58"/>
    <path id="Path_698" data-name="Path 698" d="M1591.135,851.753l-10.1-1.3.975-7.748,2.556.321,7.552.951Z" transform="translate(-1023.333 -278.95)" fill="#b6e0ea"/>
    <path id="Path_699" data-name="Path 699" d="M1601.372,941.417l.171-1.362Z" transform="translate(-1036.764 -343.232)" fill="#d8d9da"/>
    <path id="Path_700" data-name="Path 700" d="M1601.876,922.191l.481-3.827.5-3.95.178-1.412Z" transform="translate(-1037.097 -325.368)" fill="#acd1dc"/>
    <path id="Path_701" data-name="Path 701" d="M1606.621,924.213l-5.249-.661.171-1.361L1602.7,913l5.251.661-.245,1.948-.913,7.242Z" transform="translate(-1036.764 -325.368)" fill="#acd1dc"/>
    <path id="Path_702" data-name="Path 702" d="M1603.293,921.109l.5-3.95Z" transform="translate(-1038.033 -328.114)" fill="#9abac3"/>
    <path id="Path_703" data-name="Path 703" d="M1426.247,1153.869l2.611-6.784,8.832-.722a2.565,2.565,0,1,1,.56,5.039Z" transform="translate(-921.127 -479.446)" fill="#f26c6e"/>
    <path id="Path_704" data-name="Path 704" d="M1410.853,1130.3l4.574,6.724,8.658-1.779-9.7-14.414-1.867,1.24A5.936,5.936,0,0,0,1410.853,1130.3Z" transform="translate(-910.307 -462.601)" fill="#f37475"/>
    <path id="Path_705" data-name="Path 705" d="M1426.8,1075.039l29.435-30.841-15.511-3.606-17.556,27.255Z" transform="translate(-919.093 -409.619)" fill="#fff"/>
    <path id="Path_706" data-name="Path 706" d="M1485.821,1028.7a6.725,6.725,0,1,0,3.257-8.937A6.724,6.724,0,0,0,1485.821,1028.7Z" transform="translate(-960.048 -395.451)" fill="#fff"/>
    <path id="Path_707" data-name="Path 707" d="M1423.22,957.221l9.095-9.692-31.752-37.644a7.54,7.54,0,0,0-11.357-.91c-3.275,3.216-2.954,14.592.694,17.378Z" transform="translate(-895.173 -321.282)" fill="#fff"/>
    <path id="Path_708" data-name="Path 708" d="M1340.726,883.948l13.023,1.1,1.748-20.642-13.023-1.1Z" transform="translate(-864.656 -292.553)" fill="#f37475"/>
    <path id="Path_709" data-name="Path 709" d="M1192.516,954.637a5.861,5.861,0,1,0,6.239,5.456A5.863,5.863,0,0,0,1192.516,954.637Z" transform="translate(-763.178 -352.852)" fill="#fff"/>
    <path id="Path_710" data-name="Path 710" d="M1192.284,921.317l5.936,10.55,36.288-8.152c4.447-1.134,6.859-11.948,5.108-16.19a7.541,7.541,0,0,0-10.806-3.613Z" transform="translate(-766.638 -318.671)" fill="#fff"/>
    <path id="Path_711" data-name="Path 711" d="M1320.551,981.106l3.95-69.088a6.376,6.376,0,0,0-5.327-7.872l-32.369-1.172a6.375,6.375,0,0,0-7.231,6.169l-6.623,83.974Z" transform="translate(-819.903 -318.708)" fill="#fff"/>
    <path id="Path_712" data-name="Path 712" d="M1289.591,1133.1l7.462,23.242-3.319,144.14h-13.3l-7.483-155.369,1.021-12.012Z" transform="translate(-819.903 -470.703)" fill="#0361af"/>
    <path id="Path_713" data-name="Path 713" d="M1321.939,1133.1l7.281,28.541h5.241l46.9,138.841h10.9l-33.021-148.543L1352.9,1133.1Z" transform="translate(-852.25 -470.703)" fill="#4078bc"/>
    <path id="Path_714" data-name="Path 714" d="M1224.937,790.038l-.214,1.332a5.1,5.1,0,0,0,4.225,5.847l2.174.351a5.1,5.1,0,0,0,5.848-4.226l.214-1.332Z" transform="translate(-788.014 -244.174)" fill="#f37475"/>
    <path id="Path_715" data-name="Path 715" d="M1327.584,903.934l9.484.352-3.86,5.76v45.876l-5.561,11.712-5.118-14.114,7.126-43.849Z" transform="translate(-852.641 -319.381)" fill="#0361af"/>
    <path id="Path_716" data-name="Path 716" d="M1308.006,775.518a20.969,20.969,0,0,1-2.034-2.726,10.972,10.972,0,0,1-1.923-6.327,8.089,8.089,0,0,1,2.87-5.885,6.1,6.1,0,0,1,2.3-1.127,5.064,5.064,0,0,0-1.185.735,8.1,8.1,0,0,0-2.505,5.753,13.765,13.765,0,0,0,4.379,11.132l-.03.166A16.737,16.737,0,0,1,1308.006,775.518Zm32.607,2.947a15.976,15.976,0,0,0-3.451-8.563,15.3,15.3,0,0,0-7.017-4.739,9.327,9.327,0,0,0-3.964-.528,9.635,9.635,0,0,1-5.042-.354c-2.275-1.006-3.906-2.975-5.96-4.252a7.354,7.354,0,0,0-1.547-.718l0-.007a7.614,7.614,0,0,0-7.051.814,7.522,7.522,0,0,0-2.389,2.767,9.423,9.423,0,0,0-1.06,3.516,11.69,11.69,0,0,0,1.761,7.074,13.676,13.676,0,0,0,4.819,4.63,14.246,14.246,0,0,0-.17,1.547,15.6,15.6,0,0,0,29.412,7.954A16.383,16.383,0,0,0,1340.613,778.464Z" transform="translate(-839.809 -223.536)" fill="#0361af"/>
    <path id="Path_717" data-name="Path 717" d="M1391.923,839.765a2.973,2.973,0,1,0,3.427-2.437A2.972,2.972,0,0,0,1391.923,839.765Z" transform="translate(-898.434 -275.372)" fill="#f37475"/>
    <path id="Path_718" data-name="Path 718" d="M1332.6,795.752a10.562,10.562,0,0,0-9.579,5.7l-.384,2.042-.305,1.813,0,.251-.035-.058-.854,5.059c-1.177,6.972,3.262,13.892,10.216,15.177a12.805,12.805,0,0,0,14.96-10.458l1.046-6.2v-.013S1349.633,796.928,1332.6,795.752Z" transform="translate(-851.798 -247.946)" fill="#f37475"/>
    <path id="Path_719" data-name="Path 719" d="M1344.623,841.862c-.759-.478-5.8-1.418-6.413-1.08a1.783,1.783,0,0,0-.749,1.956,3.076,3.076,0,0,0,1.332,1.749,5.027,5.027,0,0,0,4.869.393,2.685,2.685,0,0,0,1.393-1.288A1.425,1.425,0,0,0,1344.623,841.862Z" transform="translate(-862.466 -277.633)" fill="#fff"/>
    <path id="Path_720" data-name="Path 720" d="M1362.78,795.373a23.693,23.693,0,0,1,5.039,1.364,11.312,11.312,0,0,1,3.353,1.928c3.2,2.794.351,8.785-.75,11.907-.269.764-.583,1.672-.1,2.324a1.68,1.68,0,0,0,2.344.017,7.943,7.943,0,0,0,1.475-2.157,2.777,2.777,0,0,1,2-1.544l-.51-14.18c0-.1-8.905-.3-9.586-.323A10.493,10.493,0,0,0,1362.78,795.373Z" transform="translate(-879.219 -247.256)" fill="#0361af"/>
  </g>
</svg>
