<svg xmlns="http://www.w3.org/2000/svg" width="135.994" height="125.683" viewBox="0 0 135.994 125.683">
  <g id="computer" transform="translate(-22.449 -25.6)">
    <g id="Group_94" data-name="Group 94" transform="translate(25.308 28.464)">
      <g id="Group_92" data-name="Group 92">
        <rect id="Rectangle_108" data-name="Rectangle 108" width="130.266" height="91.269" rx="3.434" transform="translate(0 0)" fill="#c5dcf7"/>
        <path id="Path_81" data-name="Path 81" d="M148.84,27.35H29.813A5.62,5.62,0,0,0,24.2,32.968V99.409H154.463V32.968a5.618,5.618,0,0,0-5.623-5.618Z" transform="translate(-24.193 -27.35)" fill="#e9f1f8"/>
        <path id="Path_82" data-name="Path 82" d="M86.822,99.385H53.955l3.893-16.263H82.929Z" transform="translate(-5.255 8.147)" fill="#224071"/>
        <path id="Path_83" data-name="Path 83" d="M101.88,105.481H47.33L50.6,93.06h48Z" transform="translate(-9.472 14.473)" fill="#455e9f"/>
      </g>
      <path id="Path_84" data-name="Path 84" d="M39.747,34.333h79.369V83.972H39.747Z" transform="translate(-14.298 -22.906)" fill="#69ccff"/>
      <path id="Path_85" data-name="Path 85" d="M39.747,34.333h79.369V44.369H39.747Z" transform="translate(-14.298 -22.906)" fill="#c5dcf7"/>
      <path id="Path_86" data-name="Path 86" d="M48.476,46.667H61.908V60.1H48.476Z" transform="translate(-8.742 -15.055)" fill="#51b794"/>
      <g id="Group_93" data-name="Group 93" transform="translate(61.076 28.748)">
        <path id="Path_87" data-name="Path 87" d="M90.975,50.645H64.382a2.864,2.864,0,0,1,0-5.728H90.975a2.864,2.864,0,0,1,0,5.728Z" transform="translate(-61.518 -44.917)" fill="#e9f1f8"/>
        <path id="Path_88" data-name="Path 88" d="M90.975,56.844H64.382a2.864,2.864,0,0,1,0-5.728H90.975a2.864,2.864,0,0,1,0,5.728Z" transform="translate(-61.518 -40.972)" fill="#e9f1f8"/>
        <path id="Path_89" data-name="Path 89" d="M90.975,63.044H64.382a2.864,2.864,0,0,1,0-5.728H90.975a2.864,2.864,0,0,1,0,5.728Z" transform="translate(-61.518 -37.025)" fill="#e9f1f8"/>
      </g>
    </g>
    <g id="Group_95" data-name="Group 95" transform="translate(22.449 25.6)">
      <path id="Path_90" data-name="Path 90" d="M45.489,31.328H47.33a2.864,2.864,0,1,0,0-5.728H45.489a2.864,2.864,0,0,0,0,5.728Z" transform="translate(-9.608 -25.6)" fill="#001c5b"/>
      <path id="Path_91" data-name="Path 91" d="M132.485,25.6H52.769a2.864,2.864,0,0,0,0,5.728h79.716a2.759,2.759,0,0,1,2.756,2.754v80.032a2.761,2.761,0,0,1-2.756,2.756H105.291a2.864,2.864,0,1,0,0,5.728h27.193a8.493,8.493,0,0,0,8.483-8.483V34.09a8.491,8.491,0,0,0-8.482-8.49Z" transform="translate(-4.974 -25.6)" fill="#001c5b"/>
      <path id="Path_92" data-name="Path 92" d="M78.364,81.372a2.864,2.864,0,0,0,0,5.728h1.5a2.864,2.864,0,1,0,0-5.728Z" transform="translate(11.316 9.897)" fill="#001c5b"/>
      <path id="Path_93" data-name="Path 93" d="M117.217,135.267a2.864,2.864,0,0,0-2.769-2.127h-5.31l-3.365-14.074a.054.054,0,0,1-.015-.02,2.859,2.859,0,0,0-2.772-2.177H30.932a2.761,2.761,0,0,1-2.756-2.756V103.388H143.221a2.864,2.864,0,0,0,0-5.728H28.177V34.082a2.759,2.759,0,0,1,2.756-2.754H48.716a2.864,2.864,0,1,0,0-5.728H30.932a8.492,8.492,0,0,0-8.483,8.482v80.032a8.493,8.493,0,0,0,8.483,8.483h69.8l2.52,10.536h-25.6l.818-3.4A2.864,2.864,0,0,0,72.9,128.4l-1.131,4.731H66.444a2.864,2.864,0,0,0-2.769,2.127L60.4,147.682a2.862,2.862,0,0,0,2.769,3.6h54.55a2.862,2.862,0,0,0,2.769-3.6ZM66.881,145.553l1.764-6.693h43.6l1.771,6.693Z" transform="translate(-22.449 -25.6)" fill="#001c5b"/>
      <path id="Path_94" data-name="Path 94" d="M120.233,78.784A2.862,2.862,0,0,0,123.1,75.92V35.447a2.862,2.862,0,0,0-2.864-2.864H40.864A2.862,2.862,0,0,0,38,35.447V85.088a2.862,2.862,0,0,0,2.864,2.864h79.369a2.864,2.864,0,1,0,0-5.728H43.728V38.311h73.641v4.31H55.149a2.864,2.864,0,0,0,0,5.728h62.22V75.92a2.862,2.862,0,0,0,2.864,2.864Z" transform="translate(-12.551 -21.156)" fill="#001c5b"/>
      <path id="Path_95" data-name="Path 95" d="M49.593,44.917a2.864,2.864,0,0,0-2.864,2.864V61.213a2.864,2.864,0,0,0,2.864,2.864H63.025a2.862,2.862,0,0,0,2.864-2.864V47.781a2.862,2.862,0,0,0-2.864-2.864ZM60.161,58.349h-7.7v-7.7h7.7Z" transform="translate(-6.995 -13.305)" fill="#001c5b"/>
      <path id="Path_96" data-name="Path 96" d="M90.978,44.917H64.385a2.864,2.864,0,0,0,0,5.728H90.978a2.864,2.864,0,1,0,0-5.728Z" transform="translate(2.419 -13.305)" fill="#001c5b"/>
      <path id="Path_97" data-name="Path 97" d="M90.978,51.116H64.385a2.864,2.864,0,0,0,0,5.728H90.978a2.864,2.864,0,1,0,0-5.728Z" transform="translate(2.419 -9.36)" fill="#001c5b"/>
      <path id="Path_98" data-name="Path 98" d="M90.978,57.316H64.385a2.864,2.864,0,0,0,0,5.728H90.978a2.864,2.864,0,1,0,0-5.728Z" transform="translate(2.419 -5.414)" fill="#001c5b"/>
    </g>
  </g>
</svg>
